<svg width="400" height="213" viewBox="0 0 400 213" fill="none" xmlns="http://www.w3.org/2000/svg">
<path d="M397.165 88.5384C396.553 86.8169 397.41 85.9561 398.633 85.2182C396.798 84.3575 395.085 83.4967 393.127 83.1278C392.515 83.1278 392.515 82.144 393.127 82.144C394.595 82.021 396.064 81.8981 397.532 81.6521C396.676 79.6846 395.819 77.5941 394.963 75.6266C394.963 75.6266 394.718 75.6266 394.595 75.5036C394.595 75.3807 394.473 75.1347 394.351 75.0118C394.106 74.028 393.861 73.0442 393.617 72.0605C393.127 70.8308 392.638 69.6011 392.148 68.3714C390.925 65.5431 389.457 62.8377 388.111 60.2554C386.642 57.1811 384.929 54.2299 383.216 51.2786C380.769 47.5895 378.322 44.1463 375.998 40.3343C373.55 37.137 370.614 34.3087 367.922 31.2345C367.555 30.7426 367.066 30.2507 366.699 29.8818C366.209 29.3899 365.842 28.8981 365.353 28.5292C362.171 25.3319 358.868 22.3807 355.32 19.6753C351.282 16.6011 347.122 14.6336 342.595 12.4201C341.004 11.6823 339.291 11.0674 337.7 10.5756C335.498 9.96071 333.173 9.46883 330.849 9.09992C329.87 9.09992 328.768 9.09992 327.912 9.09992C327.423 9.09992 327.055 9.22289 326.566 9.34586C326.444 9.34586 326.077 9.34586 326.077 9.34586C326.077 9.34586 326.077 4.18113 325.22 2.95143C324.486 1.72173 323.14 1.8447 322.039 0.860943C321.182 0.492033 320.326 0.246094 319.469 0.246094C315.309 0.246094 311.394 1.35282 307.234 1.72173C305.276 2.09064 303.319 2.45955 301.483 2.70549C295.243 3.68925 288.881 4.18113 282.641 5.16489C276.768 6.02568 268.814 7.87022 262.819 6.51756C257.68 5.41083 252.052 4.67301 246.791 4.42707C244.711 4.3041 242.998 4.18113 241.285 4.18113C240.673 4.18113 240.061 4.3041 239.327 4.55004C236.88 5.04192 234.066 5.77974 232.964 8.23913C232.72 8.97695 232.475 9.71477 232.108 10.4526C231.986 12.5431 230.517 17.2159 230.395 16.847C229.783 14.6336 228.07 10.9445 225.868 8.85398C224.032 9.83774 222.075 10.9445 220.117 10.9445C215.957 10.9445 211.797 10.4526 207.515 10.3296C203.477 10.3296 199.684 9.22289 195.646 8.97695C194.545 8.97695 193.199 8.97695 192.22 8.48507C191.731 8.97695 191.364 9.34586 190.752 9.71477C189.039 10.9445 187.326 12.0512 185.735 13.2809C185.491 13.4039 185.124 13.2809 185.001 13.1579C184.879 12.912 184.757 12.666 184.634 12.4201C182.309 10.2067 179.74 7.74725 176.681 7.00944C173.745 6.27162 170.686 7.13241 167.871 8.11616C165.18 9.09992 162.366 10.0837 159.674 10.8215C155.269 12.2971 150.864 13.6498 146.215 14.2647C139.607 15.0025 133 14.6336 126.515 12.912C124.435 12.2971 121.866 11.8053 119.419 11.0674C118.318 10.3296 117.339 9.22289 116.238 8.60804C115.993 8.60804 115.626 8.60804 115.626 8.97695C114.892 10.2067 113.546 11.0674 112.445 12.0512C111.466 12.912 110.854 13.8957 109.998 14.8795C109.141 15.9862 108.285 16.97 107.917 18.1997C107.917 18.1997 107.917 18.1997 107.917 18.0767C107.917 16.3551 107.55 14.5106 107.183 12.789C106.205 10.4526 105.226 8.11616 104.247 5.77974C103.88 5.16489 103.635 4.67301 103.268 4.05816C98.1291 3.32034 91.3996 4.18113 86.383 4.05816C80.6323 3.81222 75.6157 3.81222 70.5992 4.05816C69.1309 4.3041 67.785 4.42707 66.4391 4.67301C64.2367 5.04192 62.0343 5.5338 59.8319 5.65677C57.7519 5.77974 55.6719 5.41083 53.5918 5.04192C47.9635 4.05816 42.7022 5.65677 37.6857 7.99319C33.2809 10.0837 28.9985 12.1742 24.5937 14.2647C19.9442 16.4781 15.5394 18.9375 11.3793 21.7658C8.19809 23.9793 6.60747 26.0698 6.72983 30.1278C6.72983 32.8331 7.09689 35.6614 6.72983 38.4897C6.60747 39.4735 6.48512 40.9491 5.62863 41.6869C5.62863 41.6869 5.62863 41.8099 5.75099 41.9329C5.9957 42.3018 6.60747 42.3018 7.09689 42.3018C13.8264 41.9329 20.8007 42.6707 27.5302 42.9166C21.9019 42.6707 16.5182 43.9004 11.1346 44.6382C6.48512 45.376 -2.07974 44.3923 0.612073 48.9422C5.75099 57.673 2.08033 67.7565 3.42624 76.8563C3.79331 79.5616 2.56976 85.0953 4.40508 87.5547C4.64979 87.9236 5.62863 88.2925 6.11805 88.2925C9.66635 88.2925 12.9699 88.0466 16.2735 88.6614C11.1346 89.6452 4.8945 89.8911 1.83562 92.5964C3.30389 96.1626 4.64979 99.7287 4.77215 103.787C4.77215 108.583 3.91566 113.255 4.52744 118.051C5.26157 118.051 5.87334 118.051 6.60747 118.051C8.19809 118.297 9.78871 118.543 11.5017 118.789C14.5606 119.158 21.1677 119.527 20.8007 119.773C19.6995 120.634 18.1089 120.634 16.7629 120.757C14.4382 121.002 12.1135 121.74 9.78871 122.478C8.07573 122.97 6.36276 123.708 4.64979 124.323C6.48512 128.504 5.75099 134.037 5.13921 138.218C4.40508 143.383 3.79331 148.671 4.40508 153.958C8.4428 159 12.3582 164.165 16.7629 168.838C21.9019 174.494 27.1631 180.028 32.5468 185.316C37.6857 190.48 42.9469 195.522 48.6976 199.949C50.4106 201.302 52.2459 202.531 54.2036 203.761C57.5072 205.36 60.6884 206.098 63.992 206.467C67.5403 207.327 71.3333 207.696 74.7593 207.696C80.1429 207.696 85.5265 206.589 90.9101 206.221C91.2772 206.221 91.5219 206.221 91.889 206.221C96.7832 206.221 104.002 206.835 109.263 204.868C109.998 204.868 110.732 204.868 111.343 204.991C111.711 204.991 112.078 204.991 112.2 204.622C113.179 203.392 113.913 201.794 114.525 200.318C114.647 200.072 114.769 199.826 114.892 199.58C115.259 198.965 115.504 198.35 115.871 197.859C116.115 197.859 116.36 197.982 116.36 198.228C117.094 201.302 118.562 203.761 120.275 206.221C121.744 204.13 124.558 204.868 127.005 204.991C131.654 205.114 136.304 205.483 140.831 205.114C145.358 204.745 149.885 203.515 154.412 203.638C156.37 203.638 158.328 203.761 160.285 203.884C162.61 203.884 165.057 204.007 167.504 204.253C177.048 204.499 186.592 204.253 196.013 204.253H196.38C198.705 204.499 201.03 204.868 203.354 204.991C210.084 205.36 216.814 205.729 223.543 206.221C228.682 206.589 233.087 206.958 237.124 203.884C238.47 203.392 239.694 202.531 240.795 201.671C241.529 201.179 242.63 200.564 243.487 200.441C243.487 200.81 243.609 201.302 243.854 201.671C244.099 202.408 245.2 201.671 245.322 201.179C245.812 199.703 246.423 198.473 247.647 197.367C247.769 197.367 248.014 197.367 248.136 197.613C248.136 197.736 248.136 197.982 248.136 198.105C248.626 201.425 248.993 204.745 249.605 208.065C250.828 208.68 252.664 208.803 255.6 208.311C256.212 208.311 256.701 208.311 256.824 208.311C261.596 208.311 266.979 209.664 271.384 210.77C277.502 212.246 283.986 211.754 290.471 211.262C299.526 210.647 308.58 211.016 317.634 211.262C318.735 208.68 320.326 206.344 321.55 203.884C321.672 203.515 322.284 203.515 322.406 203.884C323.14 205.36 323.14 207.081 323.262 208.68C323.262 209.664 323.507 210.77 323.63 211.877C325.22 212.369 327.667 211.754 329.38 211.877C334.03 212.369 339.046 211.262 343.696 211.262C349.202 211.262 353.974 208.68 359.357 208.557C361.193 208.557 362.906 208.803 364.741 209.172C364.741 209.172 364.986 209.172 365.108 209.295C365.353 209.295 365.597 209.418 365.842 209.541C366.576 209.91 367.31 210.402 367.8 211.016C367.922 211.262 368.289 211.016 368.534 211.016C370.859 208.926 374.162 207.819 376.732 206.098C376.976 205.975 377.221 205.729 377.466 205.606C377.833 205.36 378.078 205.237 378.445 204.991C380.769 203.392 382.849 201.671 384.562 199.949C387.744 196.998 390.435 193.678 393.005 190.112C394.351 188.144 395.819 186.054 396.553 183.717C396.92 182.61 397.532 181.381 397.532 180.151C397.532 179.659 397.532 179.29 397.532 178.921C397.043 178.429 396.308 178.06 395.574 177.938C396.676 177.569 397.654 177.077 398.266 176.339C397.654 171.912 397.043 167.485 396.798 163.058C396.553 159.738 396.431 156.418 396.553 153.098C396.553 151.007 396.92 148.794 396.676 146.58C395.33 146.334 393.861 146.088 392.393 145.965C390.313 145.719 388.233 144.982 386.153 145.105C385.541 145.105 385.541 144.244 386.153 144.121C388.6 143.383 391.17 143.014 393.617 142.276C394.84 141.907 396.064 141.292 397.165 140.801C396.798 136.62 397.654 132.07 398.144 128.012C398.511 125.306 398.633 122.355 399 119.527C399 110.673 398.878 101.819 399.123 92.8424C398.633 91.3667 397.899 90.0141 397.287 88.4155L397.165 88.5384Z" fill="#5A310A"/>
<path d="M347.367 19.4292C347 17.9535 347.122 16.7238 346.51 15.4941C346.51 15.4941 346.633 15.4941 346.755 15.4941C347.612 16.109 348.468 16.7238 349.325 17.3387C350.915 19.9211 351.282 22.9953 351.282 25.9466C351.282 29.8816 348.346 31.8491 345.409 33.9396C348.59 32.218 351.772 30.6194 352.628 26.9303C353.118 25.0858 353.24 21.7656 352.261 19.3062C353.607 20.4129 354.953 21.3967 356.299 22.6264C356.666 23.6102 357.033 24.5939 357.278 25.5777C357.889 28.406 356.666 30.4965 355.198 32.7099C354.953 33.0788 355.442 33.2018 355.687 32.8329C357.033 30.9883 358.379 29.1438 358.257 26.8074C358.257 25.8236 358.134 24.7169 357.767 23.7331C358.256 24.225 358.868 24.7169 359.358 25.2088C359.725 27.4222 359.847 29.8816 359.725 32.0951C359.602 35.0463 355.32 37.5057 353.118 38.9814C355.687 37.6287 359.235 35.9071 360.459 33.0788C361.193 31.3573 361.438 28.8979 360.948 26.5614C362.661 28.16 364.374 30.0046 365.965 31.7262C365.965 32.7099 366.087 33.6937 366.21 34.5545C366.332 37.1368 364.864 39.2273 363.273 41.1948C363.273 41.1948 363.273 41.4408 363.273 41.3178C364.741 39.9651 365.965 38.6125 366.821 36.7679C367.188 36.0301 367.433 34.6774 367.311 33.3248C367.678 33.8166 368.167 34.1856 368.534 34.6774C368.412 36.399 368.29 38.1206 368.045 39.8422C367.8 41.9327 366.577 43.2853 365.108 44.515C364.741 44.8839 363.885 45.8677 363.273 45.9907C363.151 45.9907 362.906 46.3596 363.273 46.3596C364.007 46.3596 364.252 45.9907 364.864 45.4988C365.965 44.638 367.188 44.0231 368.167 42.7934C369.391 41.0719 370.125 38.4895 369.88 36.0301C371.104 37.3828 372.205 38.8584 373.429 40.334C373.796 40.703 374.04 41.1948 374.407 41.5637C373.918 42.7934 374.04 44.3921 373.673 45.6218C373.061 47.7122 371.716 50.9095 369.513 51.8932C371.471 51.4013 373.306 49.0649 374.163 47.4663C374.774 46.3596 375.386 44.761 375.631 43.1624C376.61 44.515 377.589 45.9907 378.445 47.3433C378.078 48.696 377.956 49.9257 376.977 51.1554C376.365 52.0162 375.264 52.754 374.407 53.3689C373.306 54.1067 372.572 55.0904 371.226 55.3364C372.45 55.3364 373.306 54.8445 374.285 54.2296C375.386 53.6148 376.487 53.1229 377.466 52.1391C378.323 51.2784 379.179 50.0487 379.546 48.819C380.647 50.5405 381.626 52.3851 382.728 54.1067C382.728 54.7215 382.238 55.4593 381.993 55.9512C381.626 56.812 380.892 58.0417 379.913 58.4106C379.913 58.4106 379.669 58.6566 379.913 58.6566C381.015 58.6566 381.993 57.5498 382.483 56.812C382.728 56.4431 383.095 55.9512 383.462 55.3364C384.44 57.1809 385.542 59.0255 386.521 60.87C386.153 61.3619 386.031 61.9767 385.664 62.5916C385.419 62.9605 384.685 63.2064 384.318 63.4524C383.706 63.8213 383.217 64.4361 382.483 64.5591C382.238 64.5591 382.116 65.051 382.483 65.051C382.972 65.051 383.462 65.051 383.951 64.6821C384.563 64.4361 385.175 64.1902 385.786 63.9443C386.521 63.5753 386.888 62.9605 387.255 62.2227C387.744 63.2064 388.111 64.0672 388.356 65.051C388.356 65.174 388.111 65.2969 387.989 65.5429C387.744 65.7888 387.377 66.5266 387.01 66.5266C386.765 66.5266 386.521 66.8955 386.765 67.0185C387.255 67.2644 387.622 67.0185 387.989 66.6496C388.233 66.6496 388.478 66.2807 388.601 66.0347C388.845 66.6496 388.968 67.3874 389.09 68.0023C389.702 69.3549 390.314 70.7076 390.925 72.0603C389.702 71.4454 388.478 70.8306 387.255 70.3387C385.909 69.3549 384.685 68.3712 383.462 67.3874C377.344 62.3457 370.981 57.6728 364.619 52.9999C358.868 48.819 352.995 45.1299 347.245 41.1948C347 40.9489 346.51 40.703 346.021 40.457C346.755 39.9651 347.489 39.3503 348.101 38.7354C349.08 37.7517 350.303 36.7679 351.038 35.4153C350.303 36.399 349.08 37.1368 348.101 37.8747C347.122 38.4895 346.143 39.2273 345.042 39.8422C343.941 39.2273 342.717 38.3665 341.371 37.5057C341.371 37.5057 341.371 37.5057 341.494 37.5057C341.861 37.1368 342.35 36.645 342.717 36.522C342.717 36.522 342.84 36.276 342.717 36.276C342.228 36.276 341.983 36.645 341.494 36.7679C341.249 36.7679 340.882 37.0139 340.637 37.1368C340.27 36.8909 340.026 36.7679 339.659 36.522C338.435 35.6612 337.211 34.9234 335.988 34.1856C335.743 34.0626 335.743 33.8166 335.743 33.5707C336.844 33.5707 338.313 32.9559 338.924 32.7099C341.372 32.0951 343.574 30.9883 345.532 29.3897C347.489 27.7911 348.346 25.3317 348.468 22.9953C348.468 21.5197 347.856 20.044 347.489 18.6914L347.367 19.4292Z" fill="#F5D3A0"/>
<path d="M244.588 6.76383C245.2 7.50165 245.812 8.36244 246.179 8.97729C247.157 10.33 247.402 12.9123 247.402 14.5109C247.402 14.7569 247.647 14.5109 247.647 14.5109C248.014 12.5434 248.259 10.4529 247.524 8.60838C247.28 7.99353 246.668 7.50165 246.056 7.00977C247.157 7.25571 248.381 7.37868 249.482 7.62462C249.849 8.36244 250.216 9.10026 250.339 10.084C250.706 11.8056 250.339 14.388 249.482 15.8636C249.482 15.9866 249.482 15.9866 249.605 15.8636C250.95 14.019 251.807 10.4529 250.95 7.87056C253.398 8.36244 255.845 8.73135 258.169 8.97729C260.494 9.22323 262.819 9.22323 265.144 9.22323C265.144 9.46916 265.266 9.59213 265.388 9.83807C265.388 10.084 265.388 10.4529 265.388 10.8218C265.388 11.0678 265.388 11.3137 265.511 11.5597H265.755C266 10.8218 266.122 10.207 266 9.46916C267.346 9.46916 268.814 9.22323 270.16 9.10026C270.405 9.46916 270.527 9.7151 270.772 10.084C271.017 10.8218 271.139 11.5597 271.261 12.4204C271.261 12.5434 271.506 12.4204 271.506 12.4204C271.506 11.3137 271.751 10.084 271.261 8.97729C271.384 8.97729 271.506 8.97729 271.751 8.97729C272.118 9.46916 272.363 9.96104 272.485 10.5759C272.607 11.3137 272.852 12.2975 272.73 13.0353C272.73 13.1583 272.852 13.0353 272.852 13.0353C273.219 12.2975 273.097 11.0678 273.097 10.33C273.097 9.83807 273.097 9.22323 272.852 8.85432C275.911 8.36244 278.97 7.87056 282.151 7.37868C286.433 6.76383 290.593 6.14898 294.876 5.6571C295.855 7.62462 297.078 9.22323 297.323 11.4367C297.323 11.6826 297.812 11.4367 297.812 11.3137C297.812 10.084 297.568 8.85432 297.201 7.62462C296.956 7.00977 296.711 6.14898 296.344 5.53413C298.914 5.16522 301.605 4.91928 304.175 4.55037C305.154 4.30443 306.01 4.05849 306.989 3.81255C307.478 4.4274 308.213 4.91928 308.702 5.53413C309.803 6.76383 310.17 8.36244 311.027 9.7151C311.149 9.96104 311.639 9.7151 311.516 9.46916C311.027 7.87056 311.149 6.39492 310.048 5.04225C309.681 4.55037 309.314 3.93552 308.702 3.56661C309.436 3.32067 310.17 3.1977 310.904 3.07473C311.516 3.07473 312.128 2.95176 312.74 2.70582C313.229 3.32067 313.963 3.81255 314.453 4.4274C315.309 5.6571 315.921 7.37868 316.166 8.73135C316.288 7.13274 316.043 5.6571 315.309 4.18146C314.942 3.44364 314.33 2.82879 313.719 2.33691C313.719 2.33691 313.963 2.33691 314.208 2.33691C314.208 2.33691 314.33 2.58285 314.453 2.70582C314.697 2.95176 314.942 3.32067 315.187 3.68958C315.676 4.18146 316.043 4.91928 316.41 5.6571C316.41 5.90304 316.9 5.6571 316.777 5.41116C316.41 4.67334 316.166 3.93552 315.676 3.32067C315.554 3.07473 315.309 2.70582 315.187 2.33691C316.777 2.33691 318.49 2.33691 320.203 3.07473C320.203 3.07473 320.326 3.07473 320.448 3.07473C321.794 5.16522 322.039 8.23947 321.794 10.5759C321.794 10.5759 321.794 10.5759 321.916 10.5759C322.406 9.10026 322.895 6.02601 322.283 3.81255C322.773 4.05849 323.14 4.18146 323.629 4.4274C324.241 7.13274 324.363 10.207 323.874 13.2812C319.592 10.5759 309.436 12.6664 305.154 13.1583C304.787 12.5434 304.053 12.0515 303.685 11.6826C302.951 10.9448 302.584 9.83807 301.728 9.22323C301.238 8.85432 300.749 9.46916 300.627 9.83807C300.627 10.33 300.627 10.6989 300.627 11.0678C300.627 11.5597 300.627 12.0515 300.627 12.6664C300.627 12.9123 300.627 13.2812 300.627 13.5272C297.201 13.7731 293.652 14.142 290.226 14.6339C288.513 15.0028 286.678 15.2487 284.843 15.4947C283.742 15.7406 282.518 15.9866 281.417 16.2325C278.113 16.9703 274.81 18.0771 271.628 19.0608C270.405 19.4297 269.304 19.7986 268.203 20.0446C267.224 19.9216 266.245 19.7986 265.388 19.7986C263.431 19.7986 263.675 15.1258 263.798 14.019C263.798 13.1583 262.819 13.6501 262.697 14.019C261.962 15.7406 261.351 17.5852 260.739 19.3068C260.739 19.7986 260.372 20.0446 260.127 20.1675C259.148 20.1675 258.047 20.0446 257.068 19.9216C256.946 19.9216 256.823 19.9216 256.579 19.9216C253.153 19.3068 248.136 17.9541 244.466 18.9378C244.466 18.2 245.077 16.9703 245.2 16.6014C245.2 15.8636 245.444 15.2487 245.444 14.5109C245.444 13.2812 245.2 12.1745 244.955 10.9448C244.588 9.59213 243.854 8.23947 242.875 7.37868C243.364 7.37868 243.854 7.50165 244.343 7.62462L244.588 6.76383Z" fill="#F5D3A0"/>
<path d="M125.292 15.371C125.292 15.248 125.292 15.1251 125.292 15.0021C125.292 14.7561 125.169 14.5102 125.047 14.2643C125.047 14.0183 124.924 13.8954 124.802 13.6494C125.903 14.0183 126.882 14.2643 127.983 14.6332C129.207 16.8466 130.798 19.7979 129.207 22.1343C130.92 19.9209 130.308 17.2155 129.207 14.8791C130.675 15.248 132.143 15.6169 133.612 15.8629C133.856 16.9696 135.08 17.8304 135.325 19.0601C135.569 20.2898 136.059 22.5032 135.447 23.61C136.303 22.6262 136.181 20.9046 136.059 19.6749C136.059 18.3223 135.692 16.9696 134.835 15.9858C135.202 15.9858 135.447 15.9858 135.814 15.9858C136.059 16.3548 136.303 16.7237 136.548 17.2155C136.915 18.1993 137.16 19.306 137.282 20.4128C137.282 20.5357 137.527 20.4128 137.527 20.4128C137.527 19.1831 137.527 18.0763 137.16 16.9696C137.16 16.7237 137.16 16.4777 136.915 16.2318C139.485 16.4777 142.054 16.4777 144.868 16.2318C148.05 15.8629 151.108 15.248 154.167 14.3872C154.167 14.5102 154.412 14.7561 154.412 14.8791C154.657 15.494 154.901 16.2318 155.146 16.8466C155.391 17.8304 155.146 18.9371 155.513 19.9209H155.758C155.513 18.5682 156.125 17.3385 155.758 15.8629C155.636 15.371 155.513 14.7561 155.269 14.2643C156.003 14.0183 156.737 13.7724 157.593 13.5264C157.838 13.8954 158.083 14.3872 158.45 14.6332C159.062 15.371 159.429 16.2318 159.551 17.2155H159.673C159.673 16.3548 159.673 15.6169 159.306 14.7561C159.184 14.2643 158.939 13.7724 158.694 13.2805C159.796 12.9116 160.775 12.5427 161.753 12.1738C164.935 10.9441 168.238 9.71438 171.542 9.09953C171.909 9.09953 172.276 9.09953 172.643 8.97656C172.643 9.2225 172.643 9.46844 172.888 9.59141C174.356 10.0833 174.723 12.4197 175.09 13.7724C175.335 15.0021 175.09 16.2318 175.579 17.4615C175.579 17.4615 175.579 17.4615 175.702 17.4615C175.702 17.4615 175.824 17.3385 175.947 17.3385C175.824 17.3385 175.947 15.494 175.947 15.248C175.947 14.2643 175.947 13.2805 175.947 12.4197C175.947 11.436 175.335 10.0833 174.601 9.34547C175.824 9.46844 176.925 9.96032 178.149 10.5752C178.516 11.313 178.883 12.0508 179.128 12.6657C179.74 13.8954 179.372 15.371 179.862 16.6007C179.984 16.9696 180.474 16.6007 180.351 16.2318C180.107 15.494 180.351 14.6332 180.351 13.8954C180.351 13.6494 180.351 13.4035 180.351 13.0346C180.351 13.0346 180.596 13.1575 180.718 13.2805C181.33 14.2643 181.942 15.371 182.554 16.4777C183.043 17.9534 183.288 19.552 183.533 21.0276C181.575 19.306 178.394 19.0601 176.069 19.306C170.808 19.9209 165.424 20.6587 160.285 22.2573C158.327 22.8722 155.636 23.364 153.8 24.3478C150.252 26.1923 150.619 21.5195 148.539 20.9046C147.805 20.7817 147.315 21.1506 146.826 21.6425C146.337 22.2573 145.847 24.2248 145.113 24.3478C142.666 24.4708 140.586 25.5775 138.139 25.9464C133.367 26.6842 127.861 27.1761 122.967 27.0531C122.967 26.8072 123.212 26.5612 123.212 26.3153C125.169 22.9951 126.026 19.306 125.292 15.9858V15.371Z" fill="#F5D3A0"/>
<path d="M16.6404 20.7824C16.6404 20.7824 17.1298 20.5364 17.3745 20.4135C19.0875 20.4135 20.8005 20.4135 22.6358 20.9054C24.2264 21.3972 27.2853 22.504 27.0406 24.5945C27.0406 24.5945 27.0406 24.5945 27.1629 24.5945C28.1418 21.1513 23.4923 19.3067 19.8216 19.0608C20.311 18.8149 20.6781 18.5689 21.1675 18.446C22.3911 18.5689 23.4923 18.6919 24.7158 18.8149C26.7959 19.0608 28.5088 19.4297 30.3442 20.5364C30.4665 20.5364 30.7112 20.2905 30.5889 20.1675C29.1206 18.9378 27.8971 18.0771 26.0617 17.4622C25.5723 17.2163 24.9605 17.0933 24.3488 16.9703C25.6947 16.3555 27.0406 15.8636 28.5088 15.2487C29.1206 15.0028 29.61 14.6339 30.2218 14.388C30.4665 14.388 30.7112 14.388 30.9559 14.6339C31.4453 14.8798 32.0571 15.1258 32.5465 15.2487C33.7701 15.6177 35.116 15.8636 36.2172 16.3555C36.2172 16.3555 36.4619 16.3555 36.3396 16.2325C35.2384 15.4947 34.0148 14.8798 32.7913 14.142C32.5465 14.019 32.1795 13.7731 31.9348 13.6501C32.7913 13.2812 33.5254 12.9123 34.3819 12.5434C34.8713 12.6664 35.4831 12.7893 35.9725 12.9123C36.4619 12.9123 36.9513 12.9123 37.4407 13.0353C37.8078 13.0353 38.1749 13.2812 38.5419 13.2812C38.5419 13.2812 38.7867 13.1583 38.5419 13.0353C38.2972 13.0353 38.0525 12.6664 37.8078 12.5434C37.3184 12.2975 36.9513 12.1745 36.4619 11.9286C36.2172 11.9286 35.9725 11.6826 35.7278 11.6826C36.5843 11.3137 37.4407 10.8218 38.4196 10.4529C38.4196 10.4529 38.4196 10.4529 38.5419 10.4529C38.5419 10.4529 38.6643 10.4529 38.7867 10.4529C39.1537 10.4529 39.3984 10.4529 39.7655 10.4529C40.3773 10.4529 41.1114 10.6989 41.7232 10.4529C41.7232 10.4529 41.9679 10.207 41.7232 10.207C41.1114 10.207 40.4996 9.83807 39.8878 9.59213C40.7443 9.10025 41.7232 8.60837 42.8244 8.11649C43.0691 8.11649 43.4361 8.11649 43.5585 8.11649C44.6597 8.11649 45.7609 8.11649 46.8621 8.11649C46.9844 8.11649 47.2292 7.87055 46.9844 7.74758C46.3727 7.62461 45.7609 7.37867 45.1491 7.25571C45.5162 7.25571 45.7609 7.13274 46.0056 7.00977C46.0056 7.00977 46.0056 7.00977 46.128 7.00977C46.128 7.00977 46.2503 7.00977 46.3727 7.00977C46.6174 7.00977 46.8621 7.00977 46.9844 7.13274C47.7186 7.13274 48.4527 7.13274 49.0645 7.13274C47.9633 7.99352 46.7397 8.73134 45.8832 9.59213C42.8244 12.1745 40.2549 14.8798 37.6855 17.9541C35.6054 20.4135 33.6477 22.8729 31.5677 25.4552C30.4665 26.9309 28.7535 32.7105 27.2853 29.0214C26.6735 27.4228 23.0028 24.9634 21.5346 24.2255C18.9651 22.8729 16.518 22.258 13.7039 22.7499C13.4591 22.7499 13.2144 22.7499 12.9697 22.9958C13.9486 22.1351 15.0498 21.3972 16.2733 20.6594L16.6404 20.7824Z" fill="#F5D3A0"/>
<path d="M74.6365 204.991C72.067 204.745 69.3752 204.622 66.8057 204.376C66.8057 204.13 66.9281 203.761 67.0504 203.515C67.2952 203.023 66.561 203.023 66.4387 203.392C66.3163 203.638 66.0716 204.007 66.0716 204.376C65.3375 204.376 64.6033 204.253 63.8692 204.13C63.9916 203.884 64.1139 203.515 64.2363 203.146C64.2363 202.777 64.481 202.531 64.6033 202.162C64.6033 201.916 64.3586 201.916 64.2363 202.162C63.8692 202.777 63.3798 203.515 62.8904 204.13C62.0339 204.007 61.1774 203.761 60.1986 203.638C60.3209 203.392 60.4433 203.146 60.5656 202.9C61.055 202.162 61.6668 201.302 62.0339 200.564C62.0339 200.318 62.0339 200.318 61.7892 200.564C61.2997 201.179 60.8103 201.671 60.3209 202.285C59.9538 202.654 59.5868 203.146 59.2197 203.515C57.1397 202.9 55.182 202.039 53.2243 200.933C53.5914 200.564 53.9584 200.318 54.3255 200.072C54.8149 199.58 55.182 199.088 55.5491 198.473C56.2832 197.49 56.895 196.629 57.1397 195.399C57.1397 195.276 57.0173 195.399 56.895 195.399C56.2832 196.752 55.3043 197.613 54.2032 198.596C53.5914 199.211 52.7349 199.703 52.1231 200.441C51.8784 200.318 51.5113 200.072 51.2666 199.949C51.6337 199.703 51.8784 199.334 52.1231 199.088C52.4902 198.596 52.8572 198.104 53.2243 197.735C53.2243 197.735 53.2243 197.49 53.2243 197.613C52.7349 197.981 52.3678 198.35 51.8784 198.842C51.5113 199.088 51.1443 199.457 50.8996 199.826C48.8195 198.473 46.8618 196.875 44.9042 195.276C46.0054 195.03 47.3513 194.169 47.963 193.555C48.6972 192.94 49.0642 192.202 49.676 191.464C50.2878 190.603 51.0219 189.742 51.5113 188.759C51.5113 188.636 51.5113 188.513 51.2666 188.636C50.2878 189.865 48.9419 191.341 47.7183 192.325C46.6171 193.309 44.9042 193.432 43.803 194.415C43.1912 193.923 42.5794 193.309 42.09 192.817C43.1912 192.448 43.9253 191.71 44.9042 190.972C46.1277 189.988 47.596 188.759 48.3301 187.283C47.4736 188.267 46.3724 189.005 45.3936 189.619C44.17 190.48 42.9465 191.218 41.4782 191.587C41.4782 191.587 41.3559 191.587 41.2335 191.833C41.1112 191.71 40.8664 191.464 40.7441 191.341C41.2335 191.095 41.6006 190.726 41.9676 190.48C43.0688 189.619 43.9253 188.882 44.9042 187.775C44.9042 187.775 44.9042 187.529 44.7818 187.652C43.9253 188.39 43.0688 189.128 41.9676 189.497C41.3559 189.742 40.6217 190.111 40.01 190.48C38.6641 189.128 37.3181 187.898 36.0946 186.668C37.3181 186.053 38.7864 184.578 39.3982 184.209C41.1112 182.856 43.3135 180.889 44.0477 178.675C44.0477 178.429 43.9253 178.429 43.803 178.675C42.8241 180.766 40.2547 182.364 38.5417 183.594C37.6852 184.209 36.217 185.07 35.3605 185.807C34.9934 185.439 34.7487 185.193 34.3816 184.824C34.871 184.578 35.3605 184.209 35.7275 183.84C36.4617 183.102 37.1958 182.61 37.8076 181.749C37.8076 181.749 37.8076 181.503 37.6852 181.626C36.4617 182.61 35.1158 183.471 33.7698 184.209C32.1792 182.61 30.4663 180.889 28.8756 179.29C29.8545 179.167 30.711 178.675 31.3227 178.306C33.5251 176.954 35.6052 175.478 36.9511 173.264C36.9511 173.264 36.9511 173.142 36.8287 173.264C34.6263 175.97 31.078 177.568 27.6521 178.306C27.285 177.937 27.0403 177.568 26.6733 177.2C27.1627 176.954 27.6521 176.708 28.1415 176.462C28.8756 175.97 29.7321 175.847 30.5886 175.232C31.2004 174.74 31.8122 174.125 32.4239 173.633C30.4663 174.986 28.1415 175.601 25.9391 176.462C25.3273 175.847 24.7156 175.109 24.1038 174.371C25.205 174.002 26.1838 173.019 26.7956 172.281C26.0615 172.65 25.3273 173.019 24.5932 173.142C24.1038 173.142 23.6144 173.142 23.125 173.387C22.0238 172.158 20.8002 170.928 19.699 169.698C22.3908 169.944 26.4285 168.715 27.8968 167.731C31.5675 165.517 34.0146 161.459 34.7487 157.278C34.7487 157.155 34.6263 157.278 34.6263 157.278C33.5251 160.845 31.2004 163.673 28.3862 166.132C27.0403 167.239 24.4709 167.608 22.6355 167.854C21.6567 167.977 19.8214 168.346 18.5978 168.223C18.1084 167.731 17.619 167.116 17.1296 166.624C17.1296 166.624 17.0072 166.501 16.8848 166.378C17.986 166.378 19.3319 166.378 20.1884 166.132C22.7579 165.517 24.8379 164.042 26.7956 162.32V162.197C23.6144 163.919 19.699 165.148 16.0284 165.394C15.0495 164.288 14.3154 163.058 13.4589 161.828C20.8002 162.566 27.7745 158.508 29.1204 150.761C26.7956 158.385 19.9437 160.23 12.9695 160.968C12.4801 160.353 11.9906 159.861 11.5012 159.369C13.9483 159.861 16.8848 159.369 18.8425 158.631C21.2896 157.893 23.9814 156.049 25.205 153.835C25.205 153.589 25.205 153.589 24.9603 153.835C23.2473 156.172 20.5555 156.909 17.986 157.647C16.5178 158.016 15.1719 158.139 13.7036 158.139C12.6024 158.139 11.6236 158.631 10.4 158.631C10.033 158.262 9.66589 157.893 9.29883 157.401C11.9906 157.77 15.4166 156.91 17.1296 156.172C22.0238 154.204 24.1038 150.884 26.5509 146.334C27.5297 144.367 29.7321 141.538 30.8333 138.71C32.6687 145.473 37.1958 159.738 37.6852 161.336C38.6641 164.534 39.0311 169.084 40.7441 172.035C41.7229 173.633 44.2924 174.863 45.6383 176.093C47.596 177.814 49.4313 179.659 51.1443 181.626C54.3255 185.07 55.7938 190.603 58.4856 194.538C60.688 197.858 64.2363 200.687 67.6622 202.777C70.8435 204.868 74.2694 205.36 77.6953 206.097C76.9612 206.097 76.2271 206.097 75.4929 206.22L74.6365 204.991Z" fill="#F5D3A0"/>
<path d="M241.896 194.17C241.651 196.383 240.672 198.228 239.327 200.072C239.327 200.072 239.327 200.195 239.204 200.318C241.04 196.629 241.04 192.325 237.491 189.128C237.491 189.128 237.247 189.128 237.369 189.251C238.715 191.465 239.204 194.539 238.837 197.121C238.47 199.335 236.879 200.933 235.901 202.901C234.065 203.762 231.985 204.008 229.905 204.13C230.028 203.885 230.15 203.639 230.272 203.393C230.884 202.286 231.129 201.056 231.373 199.827C231.373 199.581 231.129 199.827 231.006 199.827C230.517 200.81 230.15 201.794 229.538 202.655C229.171 203.147 228.926 203.639 228.559 204.13C228.315 204.13 228.192 204.13 227.948 204.13C227.091 204.13 226.112 204.13 225.256 204.13C226.235 202.901 226.969 201.179 227.458 199.827C228.437 197.244 226.724 194.17 225.5 192.079C226.357 194.539 227.091 197.121 226.357 199.704C225.867 201.302 224.889 202.655 224.032 204.008C220.606 203.885 217.303 203.393 213.877 203.024C214.121 202.532 214.244 202.04 214.366 201.425C214.611 200.318 214.611 199.212 214.121 197.982C214.121 199.335 213.877 200.564 213.387 201.794C213.265 202.286 213.02 202.655 212.775 203.024C212.286 203.024 211.797 203.024 211.307 203.024C211.674 203.024 212.041 203.024 212.408 202.901C211.185 202.778 209.839 202.655 208.615 202.532C208.615 202.532 208.615 202.532 208.493 202.532C208.738 201.794 208.982 201.056 208.86 200.441C208.615 198.351 207.514 196.383 206.78 194.416C206.78 194.17 206.413 194.416 206.413 194.662C206.658 196.014 206.902 197.244 207.025 198.597C207.147 199.704 207.025 200.933 206.658 202.04C206.658 202.163 206.658 202.286 206.658 202.409C203.599 202.163 200.54 202.04 197.481 202.04C198.093 200.318 198.338 198.105 197.726 196.629C197.726 196.506 197.481 196.629 197.481 196.752C197.603 198.228 196.992 199.458 196.625 200.81C196.625 201.179 196.258 201.671 196.013 202.04C195.034 202.04 194.055 202.163 193.076 202.286C194.789 198.597 194.3 194.539 191.853 191.219C191.853 191.219 191.608 191.219 191.608 191.465C193.076 194.785 193.443 199.089 191.608 202.409C189.161 202.532 186.592 202.655 184.144 202.655C184.144 202.655 185.123 201.302 185.246 200.81C185.857 198.843 185.246 197.121 184.879 195.154C184.879 194.908 184.511 195.154 184.511 195.277C184.511 196.998 184.879 198.597 184.144 200.195C183.777 201.056 183.166 201.794 182.554 202.532C181.453 202.532 180.229 202.532 179.128 202.532C182.064 200.195 181.33 195.154 179.495 192.325C179.495 192.202 179.25 192.325 179.25 192.448C179.984 194.539 179.984 196.875 179.495 198.966C179.128 200.195 178.516 201.179 178.149 202.409C177.782 202.409 177.537 202.409 177.17 202.409C177.415 202.04 177.537 201.671 177.66 201.179C178.027 200.318 178.027 199.335 177.904 198.351H177.782C177.537 199.581 177.048 200.687 176.314 201.671C176.314 201.794 176.069 202.04 175.947 202.163C174.601 202.163 173.132 201.917 171.787 201.794C172.521 200.564 173.01 198.966 173.255 197.613C173.622 195.523 172.276 193.309 171.297 191.588H171.175C171.664 193.432 172.154 195.277 171.909 197.121C171.787 198.597 170.93 200.072 170.441 201.548C169.584 201.548 168.605 201.425 167.749 201.302C167.994 200.81 168.238 200.195 168.361 199.704C168.605 198.72 168.728 197.736 168.605 196.752C168.605 196.629 168.361 196.752 168.361 196.752C168.116 197.859 167.626 198.843 167.259 199.95C167.137 200.318 166.648 200.81 166.403 201.179C164.69 201.056 162.855 200.933 161.142 200.81C161.631 200.195 161.876 199.581 162.12 198.966C163.099 195.892 162.61 193.432 160.53 190.973C161.876 193.309 161.998 195.4 161.142 197.982C160.897 198.72 160.53 199.704 160.04 200.564C160.04 200.564 159.918 200.564 159.796 200.564C159.429 200.564 159.062 200.564 158.817 200.564C158.939 200.318 159.062 200.072 159.184 199.827C159.673 198.72 160.408 197.736 160.285 196.506H160.04C160.04 197.859 159.062 198.843 158.327 199.827C158.205 200.072 157.838 200.318 157.593 200.564C156.615 200.564 155.636 200.687 154.657 200.933C156.615 198.843 157.96 196.26 157.838 193.186C157.838 190.481 156.37 188.513 154.412 187.898C157.471 187.038 161.264 187.898 164.201 187.653C168.361 187.53 172.398 188.39 176.436 188.144C185.613 187.776 194.422 189.989 203.599 189.497C204.088 189.497 204.455 189.497 204.945 189.497C205.924 189.866 206.78 190.481 207.392 191.096C207.392 191.219 207.637 191.342 207.637 191.465C207.637 191.465 207.759 191.588 207.881 191.711C208.493 192.448 208.982 193.309 209.35 194.416C209.594 195.154 210.573 194.17 210.695 193.801C210.94 192.448 210.695 189.374 211.674 189.374C214.488 189.374 217.547 189.005 220.239 188.39C220.973 188.267 221.707 188.144 222.564 187.898C223.543 187.775 224.522 187.653 225.623 187.407C226.846 187.161 228.07 186.915 229.293 186.669C229.66 186.669 229.905 186.669 230.15 186.546C230.395 186.546 231.129 186.3 231.985 186.177C233.086 185.931 234.31 185.685 235.534 185.562C236.145 185.316 236.757 185.193 237.369 184.947C237.736 184.947 238.103 184.947 238.47 184.824C238.715 184.824 238.959 184.824 239.204 184.947C239.204 184.947 239.327 184.947 239.449 184.947C239.816 185.193 240.061 186.423 240.305 186.915C240.795 187.775 240.917 188.759 241.407 189.743C241.651 190.112 241.774 190.358 241.896 190.727C242.018 191.711 242.141 192.694 242.141 193.678L241.896 194.17Z" fill="#F5D3A0"/>
<path d="M394.963 183.471C393.862 186.422 392.271 189.005 390.436 191.464C390.191 191.464 390.191 191.095 389.946 190.972C389.701 190.726 389.457 190.48 389.212 190.234C389.212 190.234 388.967 190.234 388.967 190.48C389.09 190.726 389.334 191.095 389.457 191.341C389.457 191.587 389.457 191.833 389.701 192.079C389.701 192.079 389.824 192.079 389.946 192.202C389.334 192.94 388.6 193.678 387.988 194.415C387.988 194.046 387.744 193.801 387.621 193.555C387.132 192.817 386.398 192.202 385.664 191.71C385.664 191.71 385.419 191.71 385.541 191.833C386.031 192.448 386.52 193.186 386.887 194.046C386.887 194.415 386.887 195.03 386.887 195.522C386.153 196.137 385.541 196.752 384.807 197.367C384.807 196.998 384.563 196.752 384.44 196.506C384.195 195.768 383.706 195.153 383.094 194.661H382.972C383.461 195.276 383.584 196.014 383.706 196.752C383.706 197.121 383.706 197.736 383.706 198.104C383.461 198.35 383.217 198.596 382.972 198.719C382.482 199.211 381.993 199.58 381.504 199.949C381.504 199.334 381.504 198.596 381.137 198.104C380.402 196.998 379.424 196.383 378.2 195.645C378.2 195.645 378.078 195.645 378.2 195.768C379.057 196.875 379.668 197.859 379.913 199.211C379.913 199.703 379.913 200.441 379.913 200.933C379.179 201.425 378.567 201.917 377.833 202.408C377.588 202.654 377.344 202.777 376.977 203.023C377.221 202.408 377.221 201.671 377.099 201.179C376.854 200.318 376.12 199.211 375.508 198.596C375.508 198.596 375.264 198.596 375.386 198.719C375.875 199.58 376.242 200.933 376.242 201.794C376.242 202.531 375.753 203.146 375.875 203.884C375.631 204.007 375.386 204.253 375.019 204.499C374.529 204.868 374.162 205.114 373.673 205.36C374.162 204.007 374.407 202.654 374.04 201.056C373.551 198.965 371.593 198.104 369.88 197.244C371.103 198.473 371.96 199.58 372.449 201.302C372.939 202.777 372.816 204.253 372.694 205.729C371.96 206.098 371.226 206.466 370.492 206.712C370.736 204.745 370.614 202.531 369.268 200.933C368.412 200.072 364.496 195.645 363.15 195.891C367.188 194.784 371.348 194.784 375.508 194.292C378.689 193.924 381.259 192.325 383.951 190.603C387.499 188.267 391.292 186.176 394.473 183.471C394.84 183.225 395.085 182.856 395.33 182.487C395.33 182.61 395.33 182.856 395.207 182.979L394.963 183.471Z" fill="#F5D3A0"/>
<path d="M395.575 96.1626C395.452 97.7613 395.33 99.3599 395.33 100.958C395.208 108.583 395.33 116.207 395.33 123.831C395.33 129.119 395.33 134.529 395.33 139.817C392.394 140.801 389.579 141.907 386.643 142.891C385.052 143.506 383.462 143.383 382.238 144.613C381.871 144.982 381.504 145.965 382.238 146.211C385.664 147.318 389.335 147.195 392.883 147.564C394.229 147.564 394.841 148.056 394.841 149.9C394.841 154.819 395.452 159.738 395.697 164.657C395.82 167.485 396.064 170.313 396.187 173.142V173.757C396.187 173.757 396.187 174.126 396.187 174.248C396.064 174.248 395.82 174.494 395.697 174.617C395.575 174.74 395.33 174.986 395.208 175.109C395.452 174.74 394.718 175.355 394.718 175.355C393.617 175.97 392.394 176.462 391.17 176.708C390.803 176.708 390.314 177.2 390.436 177.692C390.436 178.184 390.925 178.429 391.415 178.306C391.415 178.306 391.659 178.306 391.782 178.306C392.027 178.552 392.394 178.675 392.516 178.798C393.372 179.413 394.229 180.766 395.33 180.643C394.596 183.102 391.904 184.086 389.947 185.316C386.154 187.775 382.36 190.358 378.323 192.448C376.487 193.432 373.061 193.186 370.737 193.432C368.657 193.678 366.454 194.416 364.374 194.907C363.518 195.153 361.927 195.522 361.56 196.506C361.56 196.506 361.56 196.752 361.56 196.875C363.273 198.105 365.108 198.719 366.577 200.441C368.29 202.532 368.779 204.622 368.657 207.204C368.29 207.204 367.923 207.204 367.556 207.081C367.188 207.081 366.699 207.081 366.332 206.958C364.864 206.59 363.518 206.221 361.927 205.852C358.991 205.237 356.176 206.221 353.362 207.081C348.59 208.557 343.696 209.049 338.68 209.541C335.866 209.787 333.051 210.033 330.115 210.033C328.647 210.033 326.199 210.648 324.854 209.787C324.242 209.418 324.242 208.557 324.119 207.696C323.875 207.081 323.752 206.221 323.63 205.237C323.141 203.515 322.774 201.794 322.406 199.949C322.162 199.949 321.917 200.072 321.795 200.318C320.204 202.163 319.348 204.499 318.491 206.713C318.124 207.573 317.512 208.188 316.656 208.557C306.99 208.065 297.201 207.696 287.413 208.065C276.89 208.557 267.714 205.975 257.314 205.729C256.212 205.729 255.356 205.729 254.622 205.483C251.44 204.007 251.073 202.286 250.829 200.318C250.951 198.842 250.829 197.367 250.462 196.014C250.217 194.907 249.36 194.047 249.605 192.817C249.605 192.202 249.85 191.71 249.85 191.095C249.728 190.112 248.504 190.726 248.259 191.218C247.525 192.325 247.158 193.678 246.424 194.784C245.935 195.399 245.567 196.014 245.2 196.752C245.2 196.014 245.078 195.276 244.956 194.661C244.833 193.801 244.833 193.063 244.589 192.202C244.589 192.079 244.589 191.833 244.466 191.71C244.466 190.726 244.222 189.62 243.977 188.636C243.61 188.021 243.365 187.283 242.998 186.668C242.998 186.423 242.876 186.054 242.631 185.808C242.142 184.824 242.019 183.594 241.407 182.61C241.407 182.365 241.04 182.365 240.796 182.365C239.45 182.733 238.226 183.348 236.88 183.963C236.88 183.963 236.636 183.963 236.513 183.963C233.699 184.455 230.762 184.824 227.948 185.316C227.459 185.316 226.969 185.316 226.602 185.439C224.645 185.685 222.809 186.177 220.852 186.545C219.628 186.668 218.405 186.914 217.181 187.037C214.979 187.283 212.654 187.529 210.452 187.652C209.962 188.636 209.595 189.743 209.473 190.972C209.473 191.341 209.228 191.464 208.983 191.464C208.249 190.112 207.27 189.005 206.414 187.652C205.924 186.791 204.456 187.406 203.233 187.898C201.275 187.898 199.195 187.898 197.115 187.898C187.571 187.406 177.905 186.668 168.361 185.931C163.834 185.562 159.185 185.07 154.658 185.931C154.168 185.931 153.679 186.177 153.189 186.3C152.578 186.668 151.966 187.16 151.476 187.652C150.498 188.513 149.519 189.62 148.907 190.849C148.173 192.571 148.54 193.924 148.907 195.399C149.152 195.399 149.274 195.399 149.519 195.153C151.109 193.924 153.801 193.678 155.881 193.678C155.881 194.784 155.392 196.014 154.413 197.49C153.189 199.826 150.008 200.195 147.806 200.81C144.257 201.548 140.587 201.302 137.038 201.179C132.756 201.056 128.596 200.81 124.314 200.81C122.723 200.81 121.499 200.81 119.909 201.056C119.909 201.056 119.909 201.056 119.786 201.056C119.664 200.81 119.419 200.441 119.175 200.195C117.462 197.736 117.951 194.416 117.951 191.71C117.951 190.358 116.36 191.218 116.238 192.079C115.749 195.276 113.791 197.736 112.323 200.441C111.833 201.302 111.589 201.917 111.466 202.286C109.019 202.777 106.45 202.9 104.003 203.146C102.901 203.146 101.678 203.392 100.577 203.515C95.6824 203.515 90.9106 203.638 86.0164 203.884C78.4304 203.515 70.3549 201.425 64.4819 196.752C57.3853 191.095 55.7947 182.242 49.6769 176.093C48.8204 175.232 47.4745 174.248 46.1286 173.142C45.6392 172.896 45.1498 172.527 44.538 172.281C40.3779 170.068 39.8885 165.026 38.5426 160.845C36.0955 152.483 35.1167 142.522 30.8342 134.652C30.7119 134.406 30.4672 134.16 30.3448 134.037C30.3448 134.037 30.3448 133.914 30.3448 133.791C30.2224 133.545 30.1001 133.3 29.8554 133.177C26.7965 133.423 23.6153 134.16 20.8011 135.144C17.6199 136.128 15.4175 138.833 12.848 140.678C12.481 140.924 12.1139 141.661 12.7257 141.907C13.9492 142.399 18.4764 142.03 18.7211 143.26C19.0881 145.228 20.1893 147.072 21.6576 148.302C20.434 149.777 18.9658 150.884 17.0081 151.622C13.4598 152.975 8.56559 153.835 6.3632 151.376C6.3632 151.13 6.3632 150.884 6.11849 150.515C5.99614 148.056 5.75143 145.719 5.75143 143.26C5.75143 138.833 6.73027 134.529 7.21969 129.979C7.34204 128.258 9.17737 126.29 7.4644 124.569C7.4644 124.569 7.4644 124.569 7.4644 124.446C9.29973 123.831 11.2574 123.339 12.9704 122.724C15.5398 121.74 21.0458 121.494 22.8811 119.158C23.2482 118.666 23.4929 117.805 22.6364 117.682C20.1893 117.313 6.3632 117.068 6.48556 115.838C6.60791 114.485 6.85262 113.255 6.85262 111.903C6.48556 108.952 6.11849 106 6.24085 102.926C6.3632 99.1139 5.75143 95.7937 3.79375 92.4735C3.54903 92.2276 3.79375 91.8587 4.03846 91.7357C7.09733 90.752 10.2786 91.1209 13.3374 90.1371C15.5398 89.3993 17.7422 88.6615 19.8223 87.6777C19.8223 87.6777 19.8223 87.6777 19.5776 87.6777C16.8857 86.694 15.1728 86.448 11.9915 86.448C6.11849 86.448 7.09733 84.8494 6.3632 81.8981C5.50672 78.578 5.75143 74.8889 5.62907 71.5687C5.50672 68.3715 6.60791 65.0513 6.3632 61.8541C6.3632 60.3784 4.65023 46.9747 3.79375 46.9747C9.29973 46.7288 14.8057 45.1302 19.9446 44.2694C23.6153 43.6545 27.2859 43.5316 30.8342 42.7937C31.3236 42.7937 31.6907 42.1789 30.9566 42.0559C23.7376 41.3181 16.274 40.0884 9.05502 39.8425C8.68795 39.8425 8.68795 37.752 8.68795 35.6615C9.17737 33.2021 9.54444 30.6197 9.78915 28.0374C11.7468 25.332 14.3163 23.7334 18.8434 25.455C20.6788 26.1928 22.3917 27.5455 24.1047 28.6522C26.1847 29.8819 26.4294 30.9886 27.2859 33.0791C27.2859 33.3251 27.653 33.2021 27.7753 33.0791C29.366 32.2183 29.9777 30.4967 30.8342 28.8981C32.6696 25.455 36.8296 22.6267 39.2767 19.6754C41.1121 17.4619 43.0697 15.2485 44.7827 12.9121C46.4957 10.5756 48.6981 9.1 50.7781 7.25545C52.8581 7.37842 55.0605 7.62436 57.2629 7.50139C63.503 7.25545 68.7643 5.16496 75.2491 5.04199C77.2068 5.04199 102.045 5.77981 101.923 5.53387C102.657 8.11624 103.268 11.5594 105.104 14.3877C106.205 16.4782 105.716 19.0606 107.061 21.0281C107.306 21.397 107.796 20.9051 107.918 20.6592C109.509 16.7241 112.567 14.5107 114.892 11.0675C115.626 10.8216 116.483 11.0675 117.584 11.6824C118.073 12.0513 118.563 12.2972 118.93 12.6661C120.153 13.7729 121.132 15.1255 121.377 15.3715C121.866 16.3552 122.233 17.339 122.356 18.3227C121.866 18.3227 121.255 18.6916 120.888 18.8146C120.031 19.0606 118.808 18.8146 118.318 19.6754C117.584 20.9051 118.318 22.2578 118.563 23.4875C118.93 24.5942 119.419 26.6847 120.398 27.4225H120.521C120.643 27.4225 120.888 27.4225 121.01 27.4225C121.866 27.4225 122.723 27.4225 123.579 27.4225C126.394 27.6684 129.085 27.9144 131.9 27.9144C132.144 27.9144 132.267 27.9144 132.511 27.9144C134.591 27.6684 136.549 27.2995 138.507 27.0536C139.853 26.8077 141.321 26.0698 142.667 25.7009C143.523 25.455 144.624 25.7009 145.481 25.332C145.726 24.1023 146.46 23.1186 146.827 21.8889C146.949 21.274 147.806 21.397 147.806 21.8889C147.806 22.9956 148.54 24.2253 149.152 25.209C151.232 26.3158 154.168 24.7172 156.615 23.8564C160.898 22.2578 165.058 21.274 169.585 20.6592C174.724 20.0443 179.496 18.1998 182.677 23.6104C183.411 22.9956 184.145 22.3807 184.757 21.6429C186.225 19.4295 186.592 16.4782 185.369 14.2647C185.981 13.7729 186.592 13.281 187.204 12.7891C187.204 12.7891 187.449 12.6661 187.449 12.5432C187.449 12.5432 187.938 12.1742 188.183 11.9283C188.672 11.5594 189.284 11.0675 189.774 10.6986C189.774 10.6986 189.896 10.6986 190.018 10.5756C194.056 11.5594 210.084 12.4202 211.797 12.6661C216.447 13.281 221.096 13.4039 225.991 13.5269C227.214 15.7404 228.56 17.9538 229.172 20.2903C229.172 20.6592 229.417 20.7821 229.661 20.9051C232.475 18.1998 231.741 13.158 232.475 9.71485C233.087 6.88654 235.167 6.51763 237.859 6.76357C244.589 7.25545 243.365 13.5269 242.019 18.8146C245.812 18.8146 249.605 18.8146 253.276 19.4295C255.356 19.7984 257.681 21.151 259.761 21.0281C259.761 21.0281 259.883 21.0281 260.005 21.0281C260.495 19.6754 261.107 18.4457 261.474 17.093C261.474 16.6012 262.33 16.6012 262.452 17.093C262.82 18.0768 263.187 19.0606 263.676 20.0443C265.511 19.9213 267.347 19.7984 269.304 19.3065C271.262 18.8146 273.097 18.3227 274.933 17.8309C279.093 16.7241 283.13 15.7404 287.291 14.8796C291.206 14.1418 295.121 13.7729 299.037 13.5269C299.526 13.5269 300.015 13.5269 300.505 13.4039C300.505 13.035 300.505 12.5432 300.505 12.1742C300.505 12.1742 300.505 12.0513 300.505 11.9283C300.505 11.3135 300.505 10.6986 300.505 9.96079C300.505 9.46891 301.239 9.46891 301.484 9.83782C302.218 10.9445 302.83 12.0513 303.564 13.158C304.176 13.158 304.665 13.158 305.154 13.158C306.867 13.035 308.703 12.5432 310.416 12.4202C313.23 12.1742 316.044 12.0513 318.858 12.2972C320.449 12.4202 321.55 12.9121 322.529 14.1418C322.774 14.5107 323.141 14.7566 323.508 15.0026C323.875 14.2647 324.119 13.5269 324.364 12.7891C324.364 12.0513 324.364 11.1905 324.487 10.4527C325.221 10.0838 326.322 9.96079 327.545 10.0838C329.503 10.0838 331.461 10.5756 333.418 10.8216C335.866 11.1905 338.435 11.4364 340.515 12.7891C341.249 13.281 341.739 13.8958 342.228 14.5107C342.228 14.5107 342.228 14.5107 342.228 14.6336C342.228 14.7566 342.473 15.0025 342.473 15.1255C342.962 16.1093 343.329 17.216 343.819 18.4457C344.675 20.6592 344.43 23.2415 343.696 25.578C343.696 25.9469 343.085 26.0698 342.84 25.8239C341.372 24.2253 339.903 22.7496 338.924 20.9051C336.355 22.6267 334.153 25.0861 332.929 27.9144C331.95 30.1278 331.216 33.694 333.418 35.4155C333.908 35.7845 334.275 36.1534 334.642 36.5223C335.743 37.0141 336.722 37.629 337.701 38.2438C338.924 39.1046 340.148 40.0884 341.249 41.0722C345.654 44.0234 349.936 46.9747 354.341 49.926C361.927 55.0907 369.146 60.6244 376.732 65.7891C376.855 65.9121 377.099 66.035 377.222 66.158C377.956 66.6499 378.812 67.1418 379.546 67.6336C382.36 69.4782 385.052 71.3227 387.622 73.2903C389.702 74.8889 391.904 76.3645 393.25 78.578C393.25 78.578 393.25 78.578 393.25 78.7009C393.25 78.7009 393.495 78.9469 393.495 79.0698C393.74 79.3158 393.495 79.6847 393.128 79.8077C387.744 81.4063 381.993 81.4063 376.487 82.513C378.323 82.8819 380.28 83.0049 382.116 83.2508C385.909 83.7427 390.191 83.4967 393.74 84.9724C394.107 85.0954 394.229 85.5872 393.984 85.8332C393.74 86.0791 392.027 87.5548 390.681 88.6615C391.17 89.1534 391.904 89.6452 392.271 90.0142C393.005 90.752 393.617 91.4898 393.984 92.4735C394.351 93.3343 394.229 94.3181 393.984 95.1789L395.575 96.1626Z" fill="#F5D3A0"/>
<path d="M397.165 88.5384C396.553 86.8169 397.41 85.9561 398.633 85.2182C396.798 84.3575 395.085 83.4967 393.127 83.1278C392.515 83.1278 392.515 82.144 393.127 82.144C394.595 82.021 396.064 81.8981 397.532 81.6521C396.676 79.6846 395.819 77.5941 394.963 75.6266C394.963 75.6266 394.718 75.6266 394.595 75.5036C394.595 75.3807 394.473 75.1347 394.351 75.0118C394.106 74.028 393.861 73.0442 393.617 72.0605C393.127 70.8308 392.638 69.6011 392.148 68.3714C390.925 65.5431 389.457 62.8377 388.111 60.2554C386.642 57.1811 384.929 54.2299 383.216 51.2786C380.769 47.5895 378.322 44.1463 375.998 40.3343C373.55 37.137 370.614 34.3087 367.922 31.2345C367.555 30.7426 367.066 30.2507 366.699 29.8818C366.209 29.3899 365.842 28.8981 365.353 28.5292C362.171 25.3319 358.868 22.3807 355.32 19.6753C351.282 16.6011 347.122 14.6336 342.595 12.4201C341.004 11.6823 339.291 11.0674 337.7 10.5756C335.498 9.96071 333.173 9.46883 330.849 9.09992C329.87 9.09992 328.768 9.09992 327.912 9.09992C327.423 9.09992 327.055 9.22289 326.566 9.34586C326.444 9.34586 326.077 9.34586 326.077 9.34586C326.077 9.34586 326.077 4.18113 325.22 2.95143C324.486 1.72173 323.14 1.8447 322.039 0.860943C321.182 0.492033 320.326 0.246094 319.469 0.246094C315.309 0.246094 311.394 1.35282 307.234 1.72173C305.276 2.09064 303.319 2.45955 301.483 2.70549C295.243 3.68925 288.881 4.18113 282.641 5.16489C276.768 6.02568 268.814 7.87022 262.819 6.51756C257.68 5.41083 252.052 4.67301 246.791 4.42707C244.711 4.3041 242.998 4.18113 241.285 4.18113C240.673 4.18113 240.061 4.3041 239.327 4.55004C236.88 5.04192 234.066 5.77974 232.964 8.23913C232.72 8.97695 232.475 9.71477 232.108 10.4526C231.986 12.5431 230.517 17.2159 230.395 16.847C229.783 14.6336 228.07 10.9445 225.868 8.85398C224.032 9.83774 222.075 10.9445 220.117 10.9445C215.957 10.9445 211.797 10.4526 207.515 10.3296C203.477 10.3296 199.684 9.22289 195.646 8.97695C194.545 8.97695 193.199 8.97695 192.22 8.48507C191.731 8.97695 191.364 9.34586 190.752 9.71477C189.039 10.9445 187.326 12.0512 185.735 13.2809C185.491 13.4039 185.124 13.2809 185.001 13.1579C184.879 12.912 184.757 12.666 184.634 12.4201C182.309 10.2067 179.74 7.74725 176.681 7.00944C173.745 6.27162 170.686 7.13241 167.871 8.11616C165.18 9.09992 162.366 10.0837 159.674 10.8215C155.269 12.2971 150.864 13.6498 146.215 14.2647C139.607 15.0025 133 14.6336 126.515 12.912C124.435 12.2971 121.866 11.8053 119.419 11.0674C118.318 10.3296 117.339 9.22289 116.238 8.60804C115.993 8.60804 115.626 8.60804 115.626 8.97695C114.892 10.2067 113.546 11.0674 112.445 12.0512C111.466 12.912 110.854 13.8957 109.998 14.8795C109.141 15.9862 108.285 16.97 107.917 18.1997C107.917 18.1997 107.917 18.1997 107.917 18.0767C107.917 16.3551 107.55 14.5106 107.183 12.789C106.205 10.4526 105.226 8.11616 104.247 5.77974C103.88 5.16489 103.635 4.67301 103.268 4.05816C98.1291 3.32034 91.3996 4.18113 86.383 4.05816C80.6323 3.81222 75.6157 3.81222 70.5992 4.05816C69.1309 4.3041 67.785 4.42707 66.4391 4.67301C64.2367 5.04192 62.0343 5.5338 59.8319 5.65677C57.7519 5.77974 55.6719 5.41083 53.5918 5.04192C47.9635 4.05816 42.7022 5.65677 37.6857 7.99319C33.2809 10.0837 28.9985 12.1742 24.5937 14.2647C19.9442 16.4781 15.5394 18.9375 11.3793 21.7658C8.19809 23.9793 6.60747 26.0698 6.72983 30.1278C6.72983 32.8331 7.09689 35.6614 6.72983 38.4897C6.60747 39.4735 6.48512 40.9491 5.62863 41.6869C5.62863 41.6869 5.62863 41.8099 5.75099 41.9329C5.9957 42.3018 6.60747 42.3018 7.09689 42.3018C13.8264 41.9329 20.8007 42.6707 27.5302 42.9166C21.9019 42.6707 16.5182 43.9004 11.1346 44.6382C6.48512 45.376 -2.07974 44.3923 0.612073 48.9422C5.75099 57.673 2.08033 67.7565 3.42624 76.8563C3.79331 79.5616 2.56976 85.0953 4.40508 87.5547C4.64979 87.9236 5.62863 88.2925 6.11805 88.2925C9.66635 88.2925 12.9699 88.0466 16.2735 88.6614C11.1346 89.6452 4.8945 89.8911 1.83562 92.5964C3.30389 96.1626 4.64979 99.7287 4.77215 103.787C4.77215 108.583 3.91566 113.255 4.52744 118.051C5.26157 118.051 5.87334 118.051 6.60747 118.051C8.19809 118.297 9.78871 118.543 11.5017 118.789C14.5606 119.158 21.1677 119.527 20.8007 119.773C19.6995 120.634 18.1089 120.634 16.7629 120.757C14.4382 121.002 12.1135 121.74 9.78871 122.478C8.07573 122.97 6.36276 123.708 4.64979 124.323C6.48512 128.504 5.75099 134.037 5.13921 138.218C4.40508 143.383 3.79331 148.671 4.40508 153.958C8.4428 159 12.3582 164.165 16.7629 168.838C21.9019 174.494 27.1631 180.028 32.5468 185.316C37.6857 190.48 42.9469 195.522 48.6976 199.949C50.4106 201.302 52.2459 202.531 54.2036 203.761C57.5072 205.36 60.6884 206.098 63.992 206.467C67.5403 207.327 71.3333 207.696 74.7593 207.696C80.1429 207.696 85.5265 206.589 90.9101 206.221C91.2772 206.221 91.5219 206.221 91.889 206.221C96.7832 206.221 104.002 206.835 109.263 204.868C109.998 204.868 110.732 204.868 111.343 204.991C111.711 204.991 112.078 204.991 112.2 204.622C113.179 203.392 113.913 201.794 114.525 200.318C114.647 200.072 114.769 199.826 114.892 199.58C115.259 198.965 115.504 198.35 115.871 197.859C116.115 197.859 116.36 197.982 116.36 198.228C117.094 201.302 118.562 203.761 120.275 206.221C121.744 204.13 124.558 204.868 127.005 204.991C131.654 205.114 136.304 205.483 140.831 205.114C145.358 204.745 149.885 203.515 154.412 203.638C156.37 203.638 158.328 203.761 160.285 203.884C162.61 203.884 165.057 204.007 167.504 204.253C177.048 204.499 186.592 204.253 196.013 204.253H196.38C198.705 204.499 201.03 204.868 203.354 204.991C210.084 205.36 216.814 205.729 223.543 206.221C228.682 206.589 233.087 206.958 237.124 203.884C238.47 203.392 239.694 202.531 240.795 201.671C241.529 201.179 242.63 200.564 243.487 200.441C243.487 200.81 243.609 201.302 243.854 201.671C244.099 202.408 245.2 201.671 245.322 201.179C245.812 199.703 246.423 198.473 247.647 197.367C247.769 197.367 248.014 197.367 248.136 197.613C248.136 197.736 248.136 197.982 248.136 198.105C248.626 201.425 248.993 204.745 249.605 208.065C250.828 208.68 252.664 208.803 255.6 208.311C256.212 208.311 256.701 208.311 256.824 208.311C261.596 208.311 266.979 209.664 271.384 210.77C277.502 212.246 283.986 211.754 290.471 211.262C299.526 210.647 308.58 211.016 317.634 211.262C318.735 208.68 320.326 206.344 321.55 203.884C321.672 203.515 322.284 203.515 322.406 203.884C323.14 205.36 323.14 207.081 323.262 208.68C323.262 209.664 323.507 210.77 323.63 211.877C325.22 212.369 327.667 211.754 329.38 211.877C334.03 212.369 339.046 211.262 343.696 211.262C349.202 211.262 353.974 208.68 359.357 208.557C361.193 208.557 362.906 208.803 364.741 209.172C364.741 209.172 364.986 209.172 365.108 209.295C365.353 209.295 365.597 209.418 365.842 209.541C366.576 209.91 367.31 210.402 367.8 211.016C367.922 211.262 368.289 211.016 368.534 211.016C370.859 208.926 374.162 207.819 376.732 206.098C376.976 205.975 377.221 205.729 377.466 205.606C377.833 205.36 378.078 205.237 378.445 204.991C380.769 203.392 382.849 201.671 384.562 199.949C387.744 196.998 390.435 193.678 393.005 190.112C394.351 188.144 395.819 186.054 396.553 183.717C396.92 182.61 397.532 181.381 397.532 180.151C397.532 179.659 397.532 179.29 397.532 178.921C397.043 178.429 396.308 178.06 395.574 177.938C396.676 177.569 397.654 177.077 398.266 176.339C397.654 171.912 397.043 167.485 396.798 163.058C396.553 159.738 396.431 156.418 396.553 153.098C396.553 151.007 396.92 148.794 396.676 146.58C395.33 146.334 393.861 146.088 392.393 145.965C390.313 145.719 388.233 144.982 386.153 145.105C385.541 145.105 385.541 144.244 386.153 144.121C388.6 143.383 391.17 143.014 393.617 142.276C394.84 141.907 396.064 141.292 397.165 140.801C396.798 136.62 397.654 132.07 398.144 128.012C398.511 125.306 398.633 122.355 399 119.527C399 110.673 398.878 101.819 399.123 92.8424C398.633 91.3667 397.899 90.0141 397.287 88.4155L397.165 88.5384Z" fill="#5A310A"/>
<path d="M347.367 19.4292C347 17.9535 347.122 16.7238 346.51 15.4941C346.51 15.4941 346.633 15.4941 346.755 15.4941C347.612 16.109 348.468 16.7238 349.325 17.3387C350.915 19.9211 351.282 22.9953 351.282 25.9466C351.282 29.8816 348.346 31.8491 345.409 33.9396C348.59 32.218 351.772 30.6194 352.628 26.9303C353.118 25.0858 353.24 21.7656 352.261 19.3062C353.607 20.4129 354.953 21.3967 356.299 22.6264C356.666 23.6102 357.033 24.5939 357.278 25.5777C357.889 28.406 356.666 30.4965 355.198 32.7099C354.953 33.0788 355.442 33.2018 355.687 32.8329C357.033 30.9883 358.379 29.1438 358.257 26.8074C358.257 25.8236 358.134 24.7169 357.767 23.7331C358.256 24.225 358.868 24.7169 359.358 25.2088C359.725 27.4222 359.847 29.8816 359.725 32.0951C359.602 35.0463 355.32 37.5057 353.118 38.9814C355.687 37.6287 359.235 35.9071 360.459 33.0788C361.193 31.3573 361.438 28.8979 360.948 26.5614C362.661 28.16 364.374 30.0046 365.965 31.7262C365.965 32.7099 366.087 33.6937 366.21 34.5545C366.332 37.1368 364.864 39.2273 363.273 41.1948C363.273 41.1948 363.273 41.4408 363.273 41.3178C364.741 39.9651 365.965 38.6125 366.821 36.7679C367.188 36.0301 367.433 34.6774 367.311 33.3248C367.678 33.8166 368.167 34.1856 368.534 34.6774C368.412 36.399 368.29 38.1206 368.045 39.8422C367.8 41.9327 366.577 43.2853 365.108 44.515C364.741 44.8839 363.885 45.8677 363.273 45.9907C363.151 45.9907 362.906 46.3596 363.273 46.3596C364.007 46.3596 364.252 45.9907 364.864 45.4988C365.965 44.638 367.188 44.0231 368.167 42.7934C369.391 41.0719 370.125 38.4895 369.88 36.0301C371.104 37.3828 372.205 38.8584 373.429 40.334C373.796 40.703 374.04 41.1948 374.407 41.5637C373.918 42.7934 374.04 44.3921 373.673 45.6218C373.061 47.7122 371.716 50.9095 369.513 51.8932C371.471 51.4013 373.306 49.0649 374.163 47.4663C374.774 46.3596 375.386 44.761 375.631 43.1624C376.61 44.515 377.589 45.9907 378.445 47.3433C378.078 48.696 377.956 49.9257 376.977 51.1554C376.365 52.0162 375.264 52.754 374.407 53.3689C373.306 54.1067 372.572 55.0904 371.226 55.3364C372.45 55.3364 373.306 54.8445 374.285 54.2296C375.386 53.6148 376.487 53.1229 377.466 52.1391C378.323 51.2784 379.179 50.0487 379.546 48.819C380.647 50.5405 381.626 52.3851 382.728 54.1067C382.728 54.7215 382.238 55.4593 381.993 55.9512C381.626 56.812 380.892 58.0417 379.913 58.4106C379.913 58.4106 379.669 58.6566 379.913 58.6566C381.015 58.6566 381.993 57.5498 382.483 56.812C382.728 56.4431 383.095 55.9512 383.462 55.3364C384.44 57.1809 385.542 59.0255 386.521 60.87C386.153 61.3619 386.031 61.9767 385.664 62.5916C385.419 62.9605 384.685 63.2064 384.318 63.4524C383.706 63.8213 383.217 64.4361 382.483 64.5591C382.238 64.5591 382.116 65.051 382.483 65.051C382.972 65.051 383.462 65.051 383.951 64.6821C384.563 64.4361 385.175 64.1902 385.786 63.9443C386.521 63.5753 386.888 62.9605 387.255 62.2227C387.744 63.2064 388.111 64.0672 388.356 65.051C388.356 65.174 388.111 65.2969 387.989 65.5429C387.744 65.7888 387.377 66.5266 387.01 66.5266C386.765 66.5266 386.521 66.8955 386.765 67.0185C387.255 67.2644 387.622 67.0185 387.989 66.6496C388.233 66.6496 388.478 66.2807 388.601 66.0347C388.845 66.6496 388.968 67.3874 389.09 68.0023C389.702 69.3549 390.314 70.7076 390.925 72.0603C389.702 71.4454 388.478 70.8306 387.255 70.3387C385.909 69.3549 384.685 68.3712 383.462 67.3874C377.344 62.3457 370.981 57.6728 364.619 52.9999C358.868 48.819 352.995 45.1299 347.245 41.1948C347 40.9489 346.51 40.703 346.021 40.457C346.755 39.9651 347.489 39.3503 348.101 38.7354C349.08 37.7517 350.303 36.7679 351.038 35.4153C350.303 36.399 349.08 37.1368 348.101 37.8747C347.122 38.4895 346.143 39.2273 345.042 39.8422C343.941 39.2273 342.717 38.3665 341.371 37.5057C341.371 37.5057 341.371 37.5057 341.494 37.5057C341.861 37.1368 342.35 36.645 342.717 36.522C342.717 36.522 342.84 36.276 342.717 36.276C342.228 36.276 341.983 36.645 341.494 36.7679C341.249 36.7679 340.882 37.0139 340.637 37.1368C340.27 36.8909 340.026 36.7679 339.659 36.522C338.435 35.6612 337.211 34.9234 335.988 34.1856C335.743 34.0626 335.743 33.8166 335.743 33.5707C336.844 33.5707 338.313 32.9559 338.924 32.7099C341.372 32.0951 343.574 30.9883 345.532 29.3897C347.489 27.7911 348.346 25.3317 348.468 22.9953C348.468 21.5197 347.856 20.044 347.489 18.6914L347.367 19.4292Z" fill="#F5D3A0"/>
<path d="M244.588 6.76383C245.2 7.50165 245.812 8.36244 246.179 8.97729C247.157 10.33 247.402 12.9123 247.402 14.5109C247.402 14.7569 247.647 14.5109 247.647 14.5109C248.014 12.5434 248.259 10.4529 247.524 8.60838C247.28 7.99353 246.668 7.50165 246.056 7.00977C247.157 7.25571 248.381 7.37868 249.482 7.62462C249.849 8.36244 250.216 9.10026 250.339 10.084C250.706 11.8056 250.339 14.388 249.482 15.8636C249.482 15.9866 249.482 15.9866 249.605 15.8636C250.95 14.019 251.807 10.4529 250.95 7.87056C253.398 8.36244 255.845 8.73135 258.169 8.97729C260.494 9.22323 262.819 9.22323 265.144 9.22323C265.144 9.46916 265.266 9.59213 265.388 9.83807C265.388 10.084 265.388 10.4529 265.388 10.8218C265.388 11.0678 265.388 11.3137 265.511 11.5597H265.755C266 10.8218 266.122 10.207 266 9.46916C267.346 9.46916 268.814 9.22323 270.16 9.10026C270.405 9.46916 270.527 9.7151 270.772 10.084C271.017 10.8218 271.139 11.5597 271.261 12.4204C271.261 12.5434 271.506 12.4204 271.506 12.4204C271.506 11.3137 271.751 10.084 271.261 8.97729C271.384 8.97729 271.506 8.97729 271.751 8.97729C272.118 9.46916 272.363 9.96104 272.485 10.5759C272.607 11.3137 272.852 12.2975 272.73 13.0353C272.73 13.1583 272.852 13.0353 272.852 13.0353C273.219 12.2975 273.097 11.0678 273.097 10.33C273.097 9.83807 273.097 9.22323 272.852 8.85432C275.911 8.36244 278.97 7.87056 282.151 7.37868C286.433 6.76383 290.593 6.14898 294.876 5.6571C295.855 7.62462 297.078 9.22323 297.323 11.4367C297.323 11.6826 297.812 11.4367 297.812 11.3137C297.812 10.084 297.568 8.85432 297.201 7.62462C296.956 7.00977 296.711 6.14898 296.344 5.53413C298.914 5.16522 301.605 4.91928 304.175 4.55037C305.154 4.30443 306.01 4.05849 306.989 3.81255C307.478 4.4274 308.213 4.91928 308.702 5.53413C309.803 6.76383 310.17 8.36244 311.027 9.7151C311.149 9.96104 311.639 9.7151 311.516 9.46916C311.027 7.87056 311.149 6.39492 310.048 5.04225C309.681 4.55037 309.314 3.93552 308.702 3.56661C309.436 3.32067 310.17 3.1977 310.904 3.07473C311.516 3.07473 312.128 2.95176 312.74 2.70582C313.229 3.32067 313.963 3.81255 314.453 4.4274C315.309 5.6571 315.921 7.37868 316.166 8.73135C316.288 7.13274 316.043 5.6571 315.309 4.18146C314.942 3.44364 314.33 2.82879 313.719 2.33691C313.719 2.33691 313.963 2.33691 314.208 2.33691C314.208 2.33691 314.33 2.58285 314.453 2.70582C314.697 2.95176 314.942 3.32067 315.187 3.68958C315.676 4.18146 316.043 4.91928 316.41 5.6571C316.41 5.90304 316.9 5.6571 316.777 5.41116C316.41 4.67334 316.166 3.93552 315.676 3.32067C315.554 3.07473 315.309 2.70582 315.187 2.33691C316.777 2.33691 318.49 2.33691 320.203 3.07473C320.203 3.07473 320.326 3.07473 320.448 3.07473C321.794 5.16522 322.039 8.23947 321.794 10.5759C321.794 10.5759 321.794 10.5759 321.916 10.5759C322.406 9.10026 322.895 6.02601 322.283 3.81255C322.773 4.05849 323.14 4.18146 323.629 4.4274C324.241 7.13274 324.363 10.207 323.874 13.2812C319.592 10.5759 309.436 12.6664 305.154 13.1583C304.787 12.5434 304.053 12.0515 303.685 11.6826C302.951 10.9448 302.584 9.83807 301.728 9.22323C301.238 8.85432 300.749 9.46916 300.627 9.83807C300.627 10.33 300.627 10.6989 300.627 11.0678C300.627 11.5597 300.627 12.0515 300.627 12.6664C300.627 12.9123 300.627 13.2812 300.627 13.5272C297.201 13.7731 293.652 14.142 290.226 14.6339C288.513 15.0028 286.678 15.2487 284.843 15.4947C283.742 15.7406 282.518 15.9866 281.417 16.2325C278.113 16.9703 274.81 18.0771 271.628 19.0608C270.405 19.4297 269.304 19.7986 268.203 20.0446C267.224 19.9216 266.245 19.7986 265.388 19.7986C263.431 19.7986 263.675 15.1258 263.798 14.019C263.798 13.1583 262.819 13.6501 262.697 14.019C261.962 15.7406 261.351 17.5852 260.739 19.3068C260.739 19.7986 260.372 20.0446 260.127 20.1675C259.148 20.1675 258.047 20.0446 257.068 19.9216C256.946 19.9216 256.823 19.9216 256.579 19.9216C253.153 19.3068 248.136 17.9541 244.466 18.9378C244.466 18.2 245.077 16.9703 245.2 16.6014C245.2 15.8636 245.444 15.2487 245.444 14.5109C245.444 13.2812 245.2 12.1745 244.955 10.9448C244.588 9.59213 243.854 8.23947 242.875 7.37868C243.364 7.37868 243.854 7.50165 244.343 7.62462L244.588 6.76383Z" fill="#F5D3A0"/>
<path d="M125.292 15.371C125.292 15.248 125.292 15.1251 125.292 15.0021C125.292 14.7561 125.169 14.5102 125.047 14.2643C125.047 14.0183 124.924 13.8954 124.802 13.6494C125.903 14.0183 126.882 14.2643 127.983 14.6332C129.207 16.8466 130.798 19.7979 129.207 22.1343C130.92 19.9209 130.308 17.2155 129.207 14.8791C130.675 15.248 132.143 15.6169 133.612 15.8629C133.856 16.9696 135.08 17.8304 135.325 19.0601C135.569 20.2898 136.059 22.5032 135.447 23.61C136.303 22.6262 136.181 20.9046 136.059 19.6749C136.059 18.3223 135.692 16.9696 134.835 15.9858C135.202 15.9858 135.447 15.9858 135.814 15.9858C136.059 16.3548 136.303 16.7237 136.548 17.2155C136.915 18.1993 137.16 19.306 137.282 20.4128C137.282 20.5357 137.527 20.4128 137.527 20.4128C137.527 19.1831 137.527 18.0763 137.16 16.9696C137.16 16.7237 137.16 16.4777 136.915 16.2318C139.485 16.4777 142.054 16.4777 144.868 16.2318C148.05 15.8629 151.108 15.248 154.167 14.3872C154.167 14.5102 154.412 14.7561 154.412 14.8791C154.657 15.494 154.901 16.2318 155.146 16.8466C155.391 17.8304 155.146 18.9371 155.513 19.9209H155.758C155.513 18.5682 156.125 17.3385 155.758 15.8629C155.636 15.371 155.513 14.7561 155.269 14.2643C156.003 14.0183 156.737 13.7724 157.593 13.5264C157.838 13.8954 158.083 14.3872 158.45 14.6332C159.062 15.371 159.429 16.2318 159.551 17.2155H159.673C159.673 16.3548 159.673 15.6169 159.306 14.7561C159.184 14.2643 158.939 13.7724 158.694 13.2805C159.796 12.9116 160.775 12.5427 161.753 12.1738C164.935 10.9441 168.238 9.71438 171.542 9.09953C171.909 9.09953 172.276 9.09953 172.643 8.97656C172.643 9.2225 172.643 9.46844 172.888 9.59141C174.356 10.0833 174.723 12.4197 175.09 13.7724C175.335 15.0021 175.09 16.2318 175.579 17.4615C175.579 17.4615 175.579 17.4615 175.702 17.4615C175.702 17.4615 175.824 17.3385 175.947 17.3385C175.824 17.3385 175.947 15.494 175.947 15.248C175.947 14.2643 175.947 13.2805 175.947 12.4197C175.947 11.436 175.335 10.0833 174.601 9.34547C175.824 9.46844 176.925 9.96032 178.149 10.5752C178.516 11.313 178.883 12.0508 179.128 12.6657C179.74 13.8954 179.372 15.371 179.862 16.6007C179.984 16.9696 180.474 16.6007 180.351 16.2318C180.107 15.494 180.351 14.6332 180.351 13.8954C180.351 13.6494 180.351 13.4035 180.351 13.0346C180.351 13.0346 180.596 13.1575 180.718 13.2805C181.33 14.2643 181.942 15.371 182.554 16.4777C183.043 17.9534 183.288 19.552 183.533 21.0276C181.575 19.306 178.394 19.0601 176.069 19.306C170.808 19.9209 165.424 20.6587 160.285 22.2573C158.327 22.8722 155.636 23.364 153.8 24.3478C150.252 26.1923 150.619 21.5195 148.539 20.9046C147.805 20.7817 147.315 21.1506 146.826 21.6425C146.337 22.2573 145.847 24.2248 145.113 24.3478C142.666 24.4708 140.586 25.5775 138.139 25.9464C133.367 26.6842 127.861 27.1761 122.967 27.0531C122.967 26.8072 123.212 26.5612 123.212 26.3153C125.169 22.9951 126.026 19.306 125.292 15.9858V15.371Z" fill="#F5D3A0"/>
<path d="M16.6404 20.7824C16.6404 20.7824 17.1298 20.5364 17.3745 20.4135C19.0875 20.4135 20.8005 20.4135 22.6358 20.9054C24.2264 21.3972 27.2853 22.504 27.0406 24.5945C27.0406 24.5945 27.0406 24.5945 27.1629 24.5945C28.1418 21.1513 23.4923 19.3067 19.8216 19.0608C20.311 18.8149 20.6781 18.5689 21.1675 18.446C22.3911 18.5689 23.4923 18.6919 24.7158 18.8149C26.7959 19.0608 28.5088 19.4297 30.3442 20.5364C30.4665 20.5364 30.7112 20.2905 30.5889 20.1675C29.1206 18.9378 27.8971 18.0771 26.0617 17.4622C25.5723 17.2163 24.9605 17.0933 24.3488 16.9703C25.6947 16.3555 27.0406 15.8636 28.5088 15.2487C29.1206 15.0028 29.61 14.6339 30.2218 14.388C30.4665 14.388 30.7112 14.388 30.9559 14.6339C31.4453 14.8798 32.0571 15.1258 32.5465 15.2487C33.7701 15.6177 35.116 15.8636 36.2172 16.3555C36.2172 16.3555 36.4619 16.3555 36.3396 16.2325C35.2384 15.4947 34.0148 14.8798 32.7913 14.142C32.5465 14.019 32.1795 13.7731 31.9348 13.6501C32.7913 13.2812 33.5254 12.9123 34.3819 12.5434C34.8713 12.6664 35.4831 12.7893 35.9725 12.9123C36.4619 12.9123 36.9513 12.9123 37.4407 13.0353C37.8078 13.0353 38.1749 13.2812 38.5419 13.2812C38.5419 13.2812 38.7867 13.1583 38.5419 13.0353C38.2972 13.0353 38.0525 12.6664 37.8078 12.5434C37.3184 12.2975 36.9513 12.1745 36.4619 11.9286C36.2172 11.9286 35.9725 11.6826 35.7278 11.6826C36.5843 11.3137 37.4407 10.8218 38.4196 10.4529C38.4196 10.4529 38.4196 10.4529 38.5419 10.4529C38.5419 10.4529 38.6643 10.4529 38.7867 10.4529C39.1537 10.4529 39.3984 10.4529 39.7655 10.4529C40.3773 10.4529 41.1114 10.6989 41.7232 10.4529C41.7232 10.4529 41.9679 10.207 41.7232 10.207C41.1114 10.207 40.4996 9.83807 39.8878 9.59213C40.7443 9.10025 41.7232 8.60837 42.8244 8.11649C43.0691 8.11649 43.4361 8.11649 43.5585 8.11649C44.6597 8.11649 45.7609 8.11649 46.8621 8.11649C46.9844 8.11649 47.2292 7.87055 46.9844 7.74758C46.3727 7.62461 45.7609 7.37867 45.1491 7.25571C45.5162 7.25571 45.7609 7.13274 46.0056 7.00977C46.0056 7.00977 46.0056 7.00977 46.128 7.00977C46.128 7.00977 46.2503 7.00977 46.3727 7.00977C46.6174 7.00977 46.8621 7.00977 46.9844 7.13274C47.7186 7.13274 48.4527 7.13274 49.0645 7.13274C47.9633 7.99352 46.7397 8.73134 45.8832 9.59213C42.8244 12.1745 40.2549 14.8798 37.6855 17.9541C35.6054 20.4135 33.6477 22.8729 31.5677 25.4552C30.4665 26.9309 28.7535 32.7105 27.2853 29.0214C26.6735 27.4228 23.0028 24.9634 21.5346 24.2255C18.9651 22.8729 16.518 22.258 13.7039 22.7499C13.4591 22.7499 13.2144 22.7499 12.9697 22.9958C13.9486 22.1351 15.0498 21.3972 16.2733 20.6594L16.6404 20.7824Z" fill="#F5D3A0"/>
<path d="M74.6365 204.991C72.067 204.745 69.3752 204.622 66.8057 204.376C66.8057 204.13 66.9281 203.761 67.0504 203.515C67.2952 203.023 66.561 203.023 66.4387 203.392C66.3163 203.638 66.0716 204.007 66.0716 204.376C65.3375 204.376 64.6033 204.253 63.8692 204.13C63.9916 203.884 64.1139 203.515 64.2363 203.146C64.2363 202.777 64.481 202.531 64.6033 202.162C64.6033 201.916 64.3586 201.916 64.2363 202.162C63.8692 202.777 63.3798 203.515 62.8904 204.13C62.0339 204.007 61.1774 203.761 60.1986 203.638C60.3209 203.392 60.4433 203.146 60.5656 202.9C61.055 202.162 61.6668 201.302 62.0339 200.564C62.0339 200.318 62.0339 200.318 61.7892 200.564C61.2997 201.179 60.8103 201.671 60.3209 202.285C59.9538 202.654 59.5868 203.146 59.2197 203.515C57.1397 202.9 55.182 202.039 53.2243 200.933C53.5914 200.564 53.9584 200.318 54.3255 200.072C54.8149 199.58 55.182 199.088 55.5491 198.473C56.2832 197.49 56.895 196.629 57.1397 195.399C57.1397 195.276 57.0173 195.399 56.895 195.399C56.2832 196.752 55.3043 197.613 54.2032 198.596C53.5914 199.211 52.7349 199.703 52.1231 200.441C51.8784 200.318 51.5113 200.072 51.2666 199.949C51.6337 199.703 51.8784 199.334 52.1231 199.088C52.4902 198.596 52.8572 198.104 53.2243 197.735C53.2243 197.735 53.2243 197.49 53.2243 197.613C52.7349 197.981 52.3678 198.35 51.8784 198.842C51.5113 199.088 51.1443 199.457 50.8996 199.826C48.8195 198.473 46.8618 196.875 44.9042 195.276C46.0054 195.03 47.3513 194.169 47.963 193.555C48.6972 192.94 49.0642 192.202 49.676 191.464C50.2878 190.603 51.0219 189.742 51.5113 188.759C51.5113 188.636 51.5113 188.513 51.2666 188.636C50.2878 189.865 48.9419 191.341 47.7183 192.325C46.6171 193.309 44.9042 193.432 43.803 194.415C43.1912 193.923 42.5794 193.309 42.09 192.817C43.1912 192.448 43.9253 191.71 44.9042 190.972C46.1277 189.988 47.596 188.759 48.3301 187.283C47.4736 188.267 46.3724 189.005 45.3936 189.619C44.17 190.48 42.9465 191.218 41.4782 191.587C41.4782 191.587 41.3559 191.587 41.2335 191.833C41.1112 191.71 40.8664 191.464 40.7441 191.341C41.2335 191.095 41.6006 190.726 41.9676 190.48C43.0688 189.619 43.9253 188.882 44.9042 187.775C44.9042 187.775 44.9042 187.529 44.7818 187.652C43.9253 188.39 43.0688 189.128 41.9676 189.497C41.3559 189.742 40.6217 190.111 40.01 190.48C38.6641 189.128 37.3181 187.898 36.0946 186.668C37.3181 186.053 38.7864 184.578 39.3982 184.209C41.1112 182.856 43.3135 180.889 44.0477 178.675C44.0477 178.429 43.9253 178.429 43.803 178.675C42.8241 180.766 40.2547 182.364 38.5417 183.594C37.6852 184.209 36.217 185.07 35.3605 185.807C34.9934 185.439 34.7487 185.193 34.3816 184.824C34.871 184.578 35.3605 184.209 35.7275 183.84C36.4617 183.102 37.1958 182.61 37.8076 181.749C37.8076 181.749 37.8076 181.503 37.6852 181.626C36.4617 182.61 35.1158 183.471 33.7698 184.209C32.1792 182.61 30.4663 180.889 28.8756 179.29C29.8545 179.167 30.711 178.675 31.3227 178.306C33.5251 176.954 35.6052 175.478 36.9511 173.264C36.9511 173.264 36.9511 173.142 36.8287 173.264C34.6263 175.97 31.078 177.568 27.6521 178.306C27.285 177.937 27.0403 177.568 26.6733 177.2C27.1627 176.954 27.6521 176.708 28.1415 176.462C28.8756 175.97 29.7321 175.847 30.5886 175.232C31.2004 174.74 31.8122 174.125 32.4239 173.633C30.4663 174.986 28.1415 175.601 25.9391 176.462C25.3273 175.847 24.7156 175.109 24.1038 174.371C25.205 174.002 26.1838 173.019 26.7956 172.281C26.0615 172.65 25.3273 173.019 24.5932 173.142C24.1038 173.142 23.6144 173.142 23.125 173.387C22.0238 172.158 20.8002 170.928 19.699 169.698C22.3908 169.944 26.4285 168.715 27.8968 167.731C31.5675 165.517 34.0146 161.459 34.7487 157.278C34.7487 157.155 34.6263 157.278 34.6263 157.278C33.5251 160.845 31.2004 163.673 28.3862 166.132C27.0403 167.239 24.4709 167.608 22.6355 167.854C21.6567 167.977 19.8214 168.346 18.5978 168.223C18.1084 167.731 17.619 167.116 17.1296 166.624C17.1296 166.624 17.0072 166.501 16.8848 166.378C17.986 166.378 19.3319 166.378 20.1884 166.132C22.7579 165.517 24.8379 164.042 26.7956 162.32V162.197C23.6144 163.919 19.699 165.148 16.0284 165.394C15.0495 164.288 14.3154 163.058 13.4589 161.828C20.8002 162.566 27.7745 158.508 29.1204 150.761C26.7956 158.385 19.9437 160.23 12.9695 160.968C12.4801 160.353 11.9906 159.861 11.5012 159.369C13.9483 159.861 16.8848 159.369 18.8425 158.631C21.2896 157.893 23.9814 156.049 25.205 153.835C25.205 153.589 25.205 153.589 24.9603 153.835C23.2473 156.172 20.5555 156.909 17.986 157.647C16.5178 158.016 15.1719 158.139 13.7036 158.139C12.6024 158.139 11.6236 158.631 10.4 158.631C10.033 158.262 9.66589 157.893 9.29883 157.401C11.9906 157.77 15.4166 156.91 17.1296 156.172C22.0238 154.204 24.1038 150.884 26.5509 146.334C27.5297 144.367 29.7321 141.538 30.8333 138.71C32.6687 145.473 37.1958 159.738 37.6852 161.336C38.6641 164.534 39.0311 169.084 40.7441 172.035C41.7229 173.633 44.2924 174.863 45.6383 176.093C47.596 177.814 49.4313 179.659 51.1443 181.626C54.3255 185.07 55.7938 190.603 58.4856 194.538C60.688 197.858 64.2363 200.687 67.6622 202.777C70.8435 204.868 74.2694 205.36 77.6953 206.097C76.9612 206.097 76.2271 206.097 75.4929 206.22L74.6365 204.991Z" fill="#F5D3A0"/>
<path d="M241.896 194.17C241.651 196.383 240.672 198.228 239.327 200.072C239.327 200.072 239.327 200.195 239.204 200.318C241.04 196.629 241.04 192.325 237.491 189.128C237.491 189.128 237.247 189.128 237.369 189.251C238.715 191.465 239.204 194.539 238.837 197.121C238.47 199.335 236.879 200.933 235.901 202.901C234.065 203.762 231.985 204.008 229.905 204.13C230.028 203.885 230.15 203.639 230.272 203.393C230.884 202.286 231.129 201.056 231.373 199.827C231.373 199.581 231.129 199.827 231.006 199.827C230.517 200.81 230.15 201.794 229.538 202.655C229.171 203.147 228.926 203.639 228.559 204.13C228.315 204.13 228.192 204.13 227.948 204.13C227.091 204.13 226.112 204.13 225.256 204.13C226.235 202.901 226.969 201.179 227.458 199.827C228.437 197.244 226.724 194.17 225.5 192.079C226.357 194.539 227.091 197.121 226.357 199.704C225.867 201.302 224.889 202.655 224.032 204.008C220.606 203.885 217.303 203.393 213.877 203.024C214.121 202.532 214.244 202.04 214.366 201.425C214.611 200.318 214.611 199.212 214.121 197.982C214.121 199.335 213.877 200.564 213.387 201.794C213.265 202.286 213.02 202.655 212.775 203.024C212.286 203.024 211.797 203.024 211.307 203.024C211.674 203.024 212.041 203.024 212.408 202.901C211.185 202.778 209.839 202.655 208.615 202.532C208.615 202.532 208.615 202.532 208.493 202.532C208.738 201.794 208.982 201.056 208.86 200.441C208.615 198.351 207.514 196.383 206.78 194.416C206.78 194.17 206.413 194.416 206.413 194.662C206.658 196.014 206.902 197.244 207.025 198.597C207.147 199.704 207.025 200.933 206.658 202.04C206.658 202.163 206.658 202.286 206.658 202.409C203.599 202.163 200.54 202.04 197.481 202.04C198.093 200.318 198.338 198.105 197.726 196.629C197.726 196.506 197.481 196.629 197.481 196.752C197.603 198.228 196.992 199.458 196.625 200.81C196.625 201.179 196.258 201.671 196.013 202.04C195.034 202.04 194.055 202.163 193.076 202.286C194.789 198.597 194.3 194.539 191.853 191.219C191.853 191.219 191.608 191.219 191.608 191.465C193.076 194.785 193.443 199.089 191.608 202.409C189.161 202.532 186.592 202.655 184.144 202.655C184.144 202.655 185.123 201.302 185.246 200.81C185.857 198.843 185.246 197.121 184.879 195.154C184.879 194.908 184.511 195.154 184.511 195.277C184.511 196.998 184.879 198.597 184.144 200.195C183.777 201.056 183.166 201.794 182.554 202.532C181.453 202.532 180.229 202.532 179.128 202.532C182.064 200.195 181.33 195.154 179.495 192.325C179.495 192.202 179.25 192.325 179.25 192.448C179.984 194.539 179.984 196.875 179.495 198.966C179.128 200.195 178.516 201.179 178.149 202.409C177.782 202.409 177.537 202.409 177.17 202.409C177.415 202.04 177.537 201.671 177.66 201.179C178.027 200.318 178.027 199.335 177.904 198.351H177.782C177.537 199.581 177.048 200.687 176.314 201.671C176.314 201.794 176.069 202.04 175.947 202.163C174.601 202.163 173.132 201.917 171.787 201.794C172.521 200.564 173.01 198.966 173.255 197.613C173.622 195.523 172.276 193.309 171.297 191.588H171.175C171.664 193.432 172.154 195.277 171.909 197.121C171.787 198.597 170.93 200.072 170.441 201.548C169.584 201.548 168.605 201.425 167.749 201.302C167.994 200.81 168.238 200.195 168.361 199.704C168.605 198.72 168.728 197.736 168.605 196.752C168.605 196.629 168.361 196.752 168.361 196.752C168.116 197.859 167.626 198.843 167.259 199.95C167.137 200.318 166.648 200.81 166.403 201.179C164.69 201.056 162.855 200.933 161.142 200.81C161.631 200.195 161.876 199.581 162.12 198.966C163.099 195.892 162.61 193.432 160.53 190.973C161.876 193.309 161.998 195.4 161.142 197.982C160.897 198.72 160.53 199.704 160.04 200.564C160.04 200.564 159.918 200.564 159.796 200.564C159.429 200.564 159.062 200.564 158.817 200.564C158.939 200.318 159.062 200.072 159.184 199.827C159.673 198.72 160.408 197.736 160.285 196.506H160.04C160.04 197.859 159.062 198.843 158.327 199.827C158.205 200.072 157.838 200.318 157.593 200.564C156.615 200.564 155.636 200.687 154.657 200.933C156.615 198.843 157.96 196.26 157.838 193.186C157.838 190.481 156.37 188.513 154.412 187.898C157.471 187.038 161.264 187.898 164.201 187.653C168.361 187.53 172.398 188.39 176.436 188.144C185.613 187.776 194.422 189.989 203.599 189.497C204.088 189.497 204.455 189.497 204.945 189.497C205.924 189.866 206.78 190.481 207.392 191.096C207.392 191.219 207.637 191.342 207.637 191.465C207.637 191.465 207.759 191.588 207.881 191.711C208.493 192.448 208.982 193.309 209.35 194.416C209.594 195.154 210.573 194.17 210.695 193.801C210.94 192.448 210.695 189.374 211.674 189.374C214.488 189.374 217.547 189.005 220.239 188.39C220.973 188.267 221.707 188.144 222.564 187.898C223.543 187.775 224.522 187.653 225.623 187.407C226.846 187.161 228.07 186.915 229.293 186.669C229.66 186.669 229.905 186.669 230.15 186.546C230.395 186.546 231.129 186.3 231.985 186.177C233.086 185.931 234.31 185.685 235.534 185.562C236.145 185.316 236.757 185.193 237.369 184.947C237.736 184.947 238.103 184.947 238.47 184.824C238.715 184.824 238.959 184.824 239.204 184.947C239.204 184.947 239.327 184.947 239.449 184.947C239.816 185.193 240.061 186.423 240.305 186.915C240.795 187.775 240.917 188.759 241.407 189.743C241.651 190.112 241.774 190.358 241.896 190.727C242.018 191.711 242.141 192.694 242.141 193.678L241.896 194.17Z" fill="#F5D3A0"/>
<path d="M394.963 183.471C393.862 186.422 392.271 189.005 390.436 191.464C390.191 191.464 390.191 191.095 389.946 190.972C389.701 190.726 389.457 190.48 389.212 190.234C389.212 190.234 388.967 190.234 388.967 190.48C389.09 190.726 389.334 191.095 389.457 191.341C389.457 191.587 389.457 191.833 389.701 192.079C389.701 192.079 389.824 192.079 389.946 192.202C389.334 192.94 388.6 193.678 387.988 194.415C387.988 194.046 387.744 193.801 387.621 193.555C387.132 192.817 386.398 192.202 385.664 191.71C385.664 191.71 385.419 191.71 385.541 191.833C386.031 192.448 386.52 193.186 386.887 194.046C386.887 194.415 386.887 195.03 386.887 195.522C386.153 196.137 385.541 196.752 384.807 197.367C384.807 196.998 384.563 196.752 384.44 196.506C384.195 195.768 383.706 195.153 383.094 194.661H382.972C383.461 195.276 383.584 196.014 383.706 196.752C383.706 197.121 383.706 197.736 383.706 198.104C383.461 198.35 383.217 198.596 382.972 198.719C382.482 199.211 381.993 199.58 381.504 199.949C381.504 199.334 381.504 198.596 381.137 198.104C380.402 196.998 379.424 196.383 378.2 195.645C378.2 195.645 378.078 195.645 378.2 195.768C379.057 196.875 379.668 197.859 379.913 199.211C379.913 199.703 379.913 200.441 379.913 200.933C379.179 201.425 378.567 201.917 377.833 202.408C377.588 202.654 377.344 202.777 376.977 203.023C377.221 202.408 377.221 201.671 377.099 201.179C376.854 200.318 376.12 199.211 375.508 198.596C375.508 198.596 375.264 198.596 375.386 198.719C375.875 199.58 376.242 200.933 376.242 201.794C376.242 202.531 375.753 203.146 375.875 203.884C375.631 204.007 375.386 204.253 375.019 204.499C374.529 204.868 374.162 205.114 373.673 205.36C374.162 204.007 374.407 202.654 374.04 201.056C373.551 198.965 371.593 198.104 369.88 197.244C371.103 198.473 371.96 199.58 372.449 201.302C372.939 202.777 372.816 204.253 372.694 205.729C371.96 206.098 371.226 206.466 370.492 206.712C370.736 204.745 370.614 202.531 369.268 200.933C368.412 200.072 364.496 195.645 363.15 195.891C367.188 194.784 371.348 194.784 375.508 194.292C378.689 193.924 381.259 192.325 383.951 190.603C387.499 188.267 391.292 186.176 394.473 183.471C394.84 183.225 395.085 182.856 395.33 182.487C395.33 182.61 395.33 182.856 395.207 182.979L394.963 183.471Z" fill="#F5D3A0"/>
<path d="M395.575 96.1626C395.452 97.7613 395.33 99.3599 395.33 100.958C395.208 108.583 395.33 116.207 395.33 123.831C395.33 129.119 395.33 134.529 395.33 139.817C392.394 140.801 389.579 141.907 386.643 142.891C385.052 143.506 383.462 143.383 382.238 144.613C381.871 144.982 381.504 145.965 382.238 146.211C385.664 147.318 389.335 147.195 392.883 147.564C394.229 147.564 394.841 148.056 394.841 149.9C394.841 154.819 395.452 159.738 395.697 164.657C395.82 167.485 396.064 170.313 396.187 173.142V173.757C396.187 173.757 396.187 174.126 396.187 174.248C396.064 174.248 395.82 174.494 395.697 174.617C395.575 174.74 395.33 174.986 395.208 175.109C395.452 174.74 394.718 175.355 394.718 175.355C393.617 175.97 392.394 176.462 391.17 176.708C390.803 176.708 390.314 177.2 390.436 177.692C390.436 178.184 390.925 178.429 391.415 178.306C391.415 178.306 391.659 178.306 391.782 178.306C392.027 178.552 392.394 178.675 392.516 178.798C393.372 179.413 394.229 180.766 395.33 180.643C394.596 183.102 391.904 184.086 389.947 185.316C386.154 187.775 382.36 190.358 378.323 192.448C376.487 193.432 373.061 193.186 370.737 193.432C368.657 193.678 366.454 194.416 364.374 194.907C363.518 195.153 361.927 195.522 361.56 196.506C361.56 196.506 361.56 196.752 361.56 196.875C363.273 198.105 365.108 198.719 366.577 200.441C368.29 202.532 368.779 204.622 368.657 207.204C368.29 207.204 367.923 207.204 367.556 207.081C367.188 207.081 366.699 207.081 366.332 206.958C364.864 206.59 363.518 206.221 361.927 205.852C358.991 205.237 356.176 206.221 353.362 207.081C348.59 208.557 343.696 209.049 338.68 209.541C335.866 209.787 333.051 210.033 330.115 210.033C328.647 210.033 326.199 210.648 324.854 209.787C324.242 209.418 324.242 208.557 324.119 207.696C323.875 207.081 323.752 206.221 323.63 205.237C323.141 203.515 322.774 201.794 322.406 199.949C322.162 199.949 321.917 200.072 321.795 200.318C320.204 202.163 319.348 204.499 318.491 206.713C318.124 207.573 317.512 208.188 316.656 208.557C306.99 208.065 297.201 207.696 287.413 208.065C276.89 208.557 267.714 205.975 257.314 205.729C256.212 205.729 255.356 205.729 254.622 205.483C251.44 204.007 251.073 202.286 250.829 200.318C250.951 198.842 250.829 197.367 250.462 196.014C250.217 194.907 249.36 194.047 249.605 192.817C249.605 192.202 249.85 191.71 249.85 191.095C249.728 190.112 248.504 190.726 248.259 191.218C247.525 192.325 247.158 193.678 246.424 194.784C245.935 195.399 245.567 196.014 245.2 196.752C245.2 196.014 245.078 195.276 244.956 194.661C244.833 193.801 244.833 193.063 244.589 192.202C244.589 192.079 244.589 191.833 244.466 191.71C244.466 190.726 244.222 189.62 243.977 188.636C243.61 188.021 243.365 187.283 242.998 186.668C242.998 186.423 242.876 186.054 242.631 185.808C242.142 184.824 242.019 183.594 241.407 182.61C241.407 182.365 241.04 182.365 240.796 182.365C239.45 182.733 238.226 183.348 236.88 183.963C236.88 183.963 236.636 183.963 236.513 183.963C233.699 184.455 230.762 184.824 227.948 185.316C227.459 185.316 226.969 185.316 226.602 185.439C224.645 185.685 222.809 186.177 220.852 186.545C219.628 186.668 218.405 186.914 217.181 187.037C214.979 187.283 212.654 187.529 210.452 187.652C209.962 188.636 209.595 189.743 209.473 190.972C209.473 191.341 209.228 191.464 208.983 191.464C208.249 190.112 207.27 189.005 206.414 187.652C205.924 186.791 204.456 187.406 203.233 187.898C201.275 187.898 199.195 187.898 197.115 187.898C187.571 187.406 177.905 186.668 168.361 185.931C163.834 185.562 159.185 185.07 154.658 185.931C154.168 185.931 153.679 186.177 153.189 186.3C152.578 186.668 151.966 187.16 151.476 187.652C150.498 188.513 149.519 189.62 148.907 190.849C148.173 192.571 148.54 193.924 148.907 195.399C149.152 195.399 149.274 195.399 149.519 195.153C151.109 193.924 153.801 193.678 155.881 193.678C155.881 194.784 155.392 196.014 154.413 197.49C153.189 199.826 150.008 200.195 147.806 200.81C144.257 201.548 140.587 201.302 137.038 201.179C132.756 201.056 128.596 200.81 124.314 200.81C122.723 200.81 121.499 200.81 119.909 201.056C119.909 201.056 119.909 201.056 119.786 201.056C119.664 200.81 119.419 200.441 119.175 200.195C117.462 197.736 117.951 194.416 117.951 191.71C117.951 190.358 116.36 191.218 116.238 192.079C115.749 195.276 113.791 197.736 112.323 200.441C111.833 201.302 111.589 201.917 111.466 202.286C109.019 202.777 106.45 202.9 104.003 203.146C102.901 203.146 101.678 203.392 100.577 203.515C95.6824 203.515 90.9106 203.638 86.0164 203.884C78.4304 203.515 70.3549 201.425 64.4819 196.752C57.3853 191.095 55.7947 182.242 49.6769 176.093C48.8204 175.232 47.4745 174.248 46.1286 173.142C45.6392 172.896 45.1498 172.527 44.538 172.281C40.3779 170.068 39.8885 165.026 38.5426 160.845C36.0955 152.483 35.1167 142.522 30.8342 134.652C30.7119 134.406 30.4672 134.16 30.3448 134.037C30.3448 134.037 30.3448 133.914 30.3448 133.791C30.2224 133.545 30.1001 133.3 29.8554 133.177C26.7965 133.423 23.6153 134.16 20.8011 135.144C17.6199 136.128 15.4175 138.833 12.848 140.678C12.481 140.924 12.1139 141.661 12.7257 141.907C13.9492 142.399 18.4764 142.03 18.7211 143.26C19.0881 145.228 20.1893 147.072 21.6576 148.302C20.434 149.777 18.9658 150.884 17.0081 151.622C13.4598 152.975 8.56559 153.835 6.3632 151.376C6.3632 151.13 6.3632 150.884 6.11849 150.515C5.99614 148.056 5.75143 145.719 5.75143 143.26C5.75143 138.833 6.73027 134.529 7.21969 129.979C7.34204 128.258 9.17737 126.29 7.4644 124.569C7.4644 124.569 7.4644 124.569 7.4644 124.446C9.29973 123.831 11.2574 123.339 12.9704 122.724C15.5398 121.74 21.0458 121.494 22.8811 119.158C23.2482 118.666 23.4929 117.805 22.6364 117.682C20.1893 117.313 6.3632 117.068 6.48556 115.838C6.60791 114.485 6.85262 113.255 6.85262 111.903C6.48556 108.952 6.11849 106 6.24085 102.926C6.3632 99.1139 5.75143 95.7937 3.79375 92.4735C3.54903 92.2276 3.79375 91.8587 4.03846 91.7357C7.09733 90.752 10.2786 91.1209 13.3374 90.1371C15.5398 89.3993 17.7422 88.6615 19.8223 87.6777C19.8223 87.6777 19.8223 87.6777 19.5776 87.6777C16.8857 86.694 15.1728 86.448 11.9915 86.448C6.11849 86.448 7.09733 84.8494 6.3632 81.8981C5.50672 78.578 5.75143 74.8889 5.62907 71.5687C5.50672 68.3715 6.60791 65.0513 6.3632 61.8541C6.3632 60.3784 4.65023 46.9747 3.79375 46.9747C9.29973 46.7288 14.8057 45.1302 19.9446 44.2694C23.6153 43.6545 27.2859 43.5316 30.8342 42.7937C31.3236 42.7937 31.6907 42.1789 30.9566 42.0559C23.7376 41.3181 16.274 40.0884 9.05502 39.8425C8.68795 39.8425 8.68795 37.752 8.68795 35.6615C9.17737 33.2021 9.54444 30.6197 9.78915 28.0374C11.7468 25.332 14.3163 23.7334 18.8434 25.455C20.6788 26.1928 22.3917 27.5455 24.1047 28.6522C26.1847 29.8819 26.4294 30.9886 27.2859 33.0791C27.2859 33.3251 27.653 33.2021 27.7753 33.0791C29.366 32.2183 29.9777 30.4967 30.8342 28.8981C32.6696 25.455 36.8296 22.6267 39.2767 19.6754C41.1121 17.4619 43.0697 15.2485 44.7827 12.9121C46.4957 10.5756 48.6981 9.1 50.7781 7.25545C52.8581 7.37842 55.0605 7.62436 57.2629 7.50139C63.503 7.25545 68.7643 5.16496 75.2491 5.04199C77.2068 5.04199 102.045 5.77981 101.923 5.53387C102.657 8.11624 103.268 11.5594 105.104 14.3877C106.205 16.4782 105.716 19.0606 107.061 21.0281C107.306 21.397 107.796 20.9051 107.918 20.6592C109.509 16.7241 112.567 14.5107 114.892 11.0675C115.626 10.8216 116.483 11.0675 117.584 11.6824C118.073 12.0513 118.563 12.2972 118.93 12.6661C120.153 13.7729 121.132 15.1255 121.377 15.3715C121.866 16.3552 122.233 17.339 122.356 18.3227C121.866 18.3227 121.255 18.6916 120.888 18.8146C120.031 19.0606 118.808 18.8146 118.318 19.6754C117.584 20.9051 118.318 22.2578 118.563 23.4875C118.93 24.5942 119.419 26.6847 120.398 27.4225H120.521C120.643 27.4225 120.888 27.4225 121.01 27.4225C121.866 27.4225 122.723 27.4225 123.579 27.4225C126.394 27.6684 129.085 27.9144 131.9 27.9144C132.144 27.9144 132.267 27.9144 132.511 27.9144C134.591 27.6684 136.549 27.2995 138.507 27.0536C139.853 26.8077 141.321 26.0698 142.667 25.7009C143.523 25.455 144.624 25.7009 145.481 25.332C145.726 24.1023 146.46 23.1186 146.827 21.8889C146.949 21.274 147.806 21.397 147.806 21.8889C147.806 22.9956 148.54 24.2253 149.152 25.209C151.232 26.3158 154.168 24.7172 156.615 23.8564C160.898 22.2578 165.058 21.274 169.585 20.6592C174.724 20.0443 179.496 18.1998 182.677 23.6104C183.411 22.9956 184.145 22.3807 184.757 21.6429C186.225 19.4295 186.592 16.4782 185.369 14.2647C185.981 13.7729 186.592 13.281 187.204 12.7891C187.204 12.7891 187.449 12.6661 187.449 12.5432C187.449 12.5432 187.938 12.1742 188.183 11.9283C188.672 11.5594 189.284 11.0675 189.774 10.6986C189.774 10.6986 189.896 10.6986 190.018 10.5756C194.056 11.5594 210.084 12.4202 211.797 12.6661C216.447 13.281 221.096 13.4039 225.991 13.5269C227.214 15.7404 228.56 17.9538 229.172 20.2903C229.172 20.6592 229.417 20.7821 229.661 20.9051C232.475 18.1998 231.741 13.158 232.475 9.71485C233.087 6.88654 235.167 6.51763 237.859 6.76357C244.589 7.25545 243.365 13.5269 242.019 18.8146C245.812 18.8146 249.605 18.8146 253.276 19.4295C255.356 19.7984 257.681 21.151 259.761 21.0281C259.761 21.0281 259.883 21.0281 260.005 21.0281C260.495 19.6754 261.107 18.4457 261.474 17.093C261.474 16.6012 262.33 16.6012 262.452 17.093C262.82 18.0768 263.187 19.0606 263.676 20.0443C265.511 19.9213 267.347 19.7984 269.304 19.3065C271.262 18.8146 273.097 18.3227 274.933 17.8309C279.093 16.7241 283.13 15.7404 287.291 14.8796C291.206 14.1418 295.121 13.7729 299.037 13.5269C299.526 13.5269 300.015 13.5269 300.505 13.4039C300.505 13.035 300.505 12.5432 300.505 12.1742C300.505 12.1742 300.505 12.0513 300.505 11.9283C300.505 11.3135 300.505 10.6986 300.505 9.96079C300.505 9.46891 301.239 9.46891 301.484 9.83782C302.218 10.9445 302.83 12.0513 303.564 13.158C304.176 13.158 304.665 13.158 305.154 13.158C306.867 13.035 308.703 12.5432 310.416 12.4202C313.23 12.1742 316.044 12.0513 318.858 12.2972C320.449 12.4202 321.55 12.9121 322.529 14.1418C322.774 14.5107 323.141 14.7566 323.508 15.0026C323.875 14.2647 324.119 13.5269 324.364 12.7891C324.364 12.0513 324.364 11.1905 324.487 10.4527C325.221 10.0838 326.322 9.96079 327.545 10.0838C329.503 10.0838 331.461 10.5756 333.418 10.8216C335.866 11.1905 338.435 11.4364 340.515 12.7891C341.249 13.281 341.739 13.8958 342.228 14.5107C342.228 14.5107 342.228 14.5107 342.228 14.6336C342.228 14.7566 342.473 15.0025 342.473 15.1255C342.962 16.1093 343.329 17.216 343.819 18.4457C344.675 20.6592 344.43 23.2415 343.696 25.578C343.696 25.9469 343.085 26.0698 342.84 25.8239C341.372 24.2253 339.903 22.7496 338.924 20.9051C336.355 22.6267 334.153 25.0861 332.929 27.9144C331.95 30.1278 331.216 33.694 333.418 35.4155C333.908 35.7845 334.275 36.1534 334.642 36.5223C335.743 37.0141 336.722 37.629 337.701 38.2438C338.924 39.1046 340.148 40.0884 341.249 41.0722C345.654 44.0234 349.936 46.9747 354.341 49.926C361.927 55.0907 369.146 60.6244 376.732 65.7891C376.855 65.9121 377.099 66.035 377.222 66.158C377.956 66.6499 378.812 67.1418 379.546 67.6336C382.36 69.4782 385.052 71.3227 387.622 73.2903C389.702 74.8889 391.904 76.3645 393.25 78.578C393.25 78.578 393.25 78.578 393.25 78.7009C393.25 78.7009 393.495 78.9469 393.495 79.0698C393.74 79.3158 393.495 79.6847 393.128 79.8077C387.744 81.4063 381.993 81.4063 376.487 82.513C378.323 82.8819 380.28 83.0049 382.116 83.2508C385.909 83.7427 390.191 83.4967 393.74 84.9724C394.107 85.0954 394.229 85.5872 393.984 85.8332C393.74 86.0791 392.027 87.5548 390.681 88.6615C391.17 89.1534 391.904 89.6452 392.271 90.0142C393.005 90.752 393.617 91.4898 393.984 92.4735C394.351 93.3343 394.229 94.3181 393.984 95.1789L395.575 96.1626Z" fill="#F5D3A0"/>
</svg>
