<svg width="24" height="24" viewBox="0 0 24 24" fill="none" xmlns="http://www.w3.org/2000/svg">
<g clip-path="url(#clip0_518_106400)">
<path d="M23.5321 1.94834C23.9798 2.96834 24.4375 5.02778 23.2081 8.26447C23.1488 8.41712 23.005 8.52042 22.8414 8.52794C22.6778 8.53546 22.5252 8.44579 22.4521 8.29923L22.347 8.08985L21.4226 11.7929L21.4197 11.7958L20.8181 14.2045C20.778 14.3629 20.6485 14.4829 20.4875 14.5108C20.3266 14.5387 20.1642 14.4693 20.0732 14.3336L19.4219 13.3566L16.191 21.4318C16.1348 21.5722 16.0065 21.6708 15.8564 21.6889C15.7062 21.707 15.5581 21.6417 15.4702 21.5187L14.4469 20.0865L9.2604 23.6121C9.14015 23.6937 8.98588 23.7063 8.85401 23.6452C8.72214 23.584 8.63199 23.4582 8.61653 23.3137L8.30246 20.3791L0.965914 23.5785C0.809991 23.6464 0.628423 23.612 0.508179 23.4917C0.387934 23.3715 0.353497 23.1899 0.421362 23.034L3.62081 15.6974L0.68619 15.3834C0.541672 15.3679 0.415861 15.2778 0.354755 15.1459C0.29365 15.014 0.306211 14.8598 0.387845 14.7395L3.91336 9.55303L2.48288 8.52971C2.35983 8.44177 2.29457 8.2937 2.31267 8.14355C2.33078 7.99339 2.42936 7.86507 2.56978 7.80889L10.6449 4.57882L9.66633 3.92751C9.53064 3.8365 9.46121 3.67417 9.48911 3.51319C9.51702 3.35221 9.63703 3.22271 9.79543 3.18268L12.2029 2.5802L12.2058 2.5773L15.9101 1.65496L15.7007 1.54985C15.5541 1.47677 15.4644 1.32413 15.472 1.16054C15.4795 0.996943 15.5828 0.853176 15.7354 0.793853C18.9721 -0.435527 21.032 0.0221283 22.0516 0.469852C22.7142 0.757856 23.2432 1.28611 23.5321 1.94834Z" fill="#F29C1F"/>
<path d="M9.99953 17.7295L7.40329 20.3258L2.88227 15.8047L5.45986 13.2271L9.99953 17.7295Z" fill="#F7931E"/>
<path d="M7.31007 20.419L2.78906 15.8979C2.73755 15.8464 2.73755 15.7629 2.78905 15.7114L5.36661 13.1339C5.41812 13.0824 5.50161 13.0824 5.55312 13.1339L10.0928 17.6362C10.1166 17.6615 10.1299 17.6948 10.1301 17.7295C10.1314 17.7644 10.1178 17.7983 10.0928 17.8228L7.49658 20.419C7.4451 20.4704 7.36154 20.4704 7.31007 20.419ZM3.06882 15.8047L7.40332 20.1392L9.81302 17.7295L5.46172 13.4118L3.06882 15.8047Z" fill="black"/>
<g opacity="0.1">
<path d="M5.45996 13.2271L6.206 13.9731L3.62845 16.5506L2.88241 15.8046L5.45996 13.2271Z" fill="black"/>
</g>
<path d="M19.2188 9.03991L9.29278 18.966C9.18976 19.069 9.02278 19.069 8.91976 18.966L4.23836 14.2846C4.13534 14.1815 4.13534 14.0146 4.23836 13.9115L14.1644 3.98549C15.5632 2.5941 20.1067 0.311242 21.5017 1.70632C22.8968 3.10143 20.6139 7.6448 19.2188 9.03991Z" fill="#FBB03B"/>
<path d="M8.82641 19.0629L4.14501 14.3815C3.99154 14.228 3.9915 13.9792 4.14497 13.8257C4.14621 13.8245 4.14748 13.8232 4.14876 13.822L14.0748 3.89593C15.4942 2.47659 20.1028 0.132138 21.5819 1.61118C23.0609 3.09022 20.7165 7.69887 19.2971 9.11821L9.37108 19.0443C9.22398 19.1957 8.98352 19.204 8.82641 19.0629ZM21.4028 1.80512C20.1457 0.548034 15.7385 2.62015 14.2688 4.08987L4.34274 14.0159C4.29225 14.0664 4.29225 14.1482 4.34274 14.1987L9.02414 18.8801C9.07463 18.9306 9.15645 18.9306 9.20694 18.8801L19.133 8.95407C20.5952 7.47688 22.6524 3.05474 21.4028 1.80512Z" fill="black"/>
<g opacity="0.1">
<path d="M15.2874 5.10797L5.36132 15.034C5.25831 15.137 5.25831 15.304 5.36132 15.407L4.24226 14.288C4.13925 14.185 4.13925 14.018 4.24226 13.915L14.1683 3.98891C15.5634 2.5938 20.1068 0.310908 21.5019 1.70602C21.695 1.91395 21.8244 2.17284 21.8749 2.45206C20.0303 2.04738 16.4904 3.90498 15.2874 5.10797Z" fill="black"/>
</g>
<path d="M8.22051 20.0047L7.38122 20.8439C7.29364 20.9315 7.15172 20.9315 7.06415 20.8439L2.36409 16.1439C2.27652 16.0563 2.27652 15.9144 2.36409 15.8268L3.19596 14.995C3.28353 14.9074 3.42545 14.9074 3.51303 14.995L8.21308 19.695C8.29789 19.7797 8.3012 19.916 8.22051 20.0047Z" fill="#FBB03B"/>
<path d="M6.96901 20.9391L2.26896 16.239C2.12991 16.1 2.12988 15.8745 2.26896 15.7354C2.26958 15.7348 2.2702 15.7342 2.27082 15.7336L3.10268 14.9017C3.23969 14.7627 3.46346 14.761 3.60251 14.898L3.60626 14.9017L8.30631 19.6018C8.44536 19.7367 8.44875 19.9588 8.31382 20.0979C8.31134 20.1004 8.30883 20.1029 8.30631 20.1054L7.46702 20.9447C7.3271 21.0785 7.10587 21.076 6.96901 20.9391ZM8.12723 19.7809L3.42718 15.0808C3.39323 15.0447 3.33648 15.0431 3.30041 15.077C3.2991 15.0783 3.29786 15.0795 3.29662 15.0808L2.4648 15.9126C2.42775 15.9476 2.42607 16.0061 2.46108 16.0431C2.46166 16.0438 2.46232 16.0444 2.46294 16.045L7.16299 20.7451C7.19906 20.7812 7.25749 20.7812 7.29355 20.7452C7.29417 20.7446 7.29482 20.7439 7.29541 20.7432L8.1347 19.904C8.17077 19.87 8.17244 19.8132 8.13849 19.7772C8.13725 19.7759 8.13601 19.7746 8.1347 19.7734L8.12723 19.7809Z" fill="black"/>
<g opacity="0.1">
<path d="M4.03883 17.8151L2.36024 16.1365C2.27266 16.049 2.27266 15.907 2.36024 15.8195L3.1902 14.9895C3.27672 14.9009 3.41868 14.8992 3.50724 14.9858L3.50913 14.9876L4.03322 15.5117C3.39868 16.1463 3.39868 17.175 4.03318 17.8096C4.03504 17.8114 4.0369 17.8133 4.03883 17.8151Z" fill="black"/>
</g>
<g opacity="0.5">
<path d="M9.9676 16.6569C9.81307 16.5023 9.81307 16.2519 9.9676 16.0973L13.4497 12.6152C13.6043 12.4607 13.8547 12.4607 14.0093 12.6152C14.1638 12.7697 14.1638 13.0202 14.0093 13.1747L10.5215 16.6625C10.3662 16.8118 10.1199 16.8093 9.9676 16.6569Z" fill="#F2F2F2"/>
</g>
<g opacity="0.5">
<path d="M15.1342 11.4905C14.9867 11.3349 14.9899 11.09 15.1417 10.9384L16.9321 9.14793C17.0867 8.9934 17.3372 8.9934 17.4917 9.14793C17.6462 9.30246 17.6462 9.55293 17.4917 9.70746L15.7012 11.498C15.5467 11.6525 15.2962 11.6526 15.1417 11.4982C15.1391 11.4957 15.1366 11.4931 15.1342 11.4905Z" fill="#F2F2F2"/>
</g>
</g>
<defs>
<clipPath id="clip0_518_106400">
<rect width="24" height="24" fill="white"/>
</clipPath>
</defs>
</svg>
