<svg width="80" height="80" viewBox="0 0 80 80" fill="none" xmlns="http://www.w3.org/2000/svg">
<path d="M71.1983 8.42688H63.6922V5.075C63.6922 3.36828 61.8953 2.03125 59.6032 2.03125C57.3077 2.03125 55.5094 3.36828 55.5094 5.075V8.42688H44.0941V5.075C44.0941 3.36828 42.2957 2.03125 40.0003 2.03125C37.705 2.03125 35.9066 3.36828 35.9066 5.075V8.42688H24.4954V5.075C24.4954 3.36828 22.6974 2.03125 20.4016 2.03125C18.1058 2.03125 16.3078 3.36828 16.3078 5.075V8.42688H8.80676C7.49018 8.42832 6.22794 8.95196 5.29696 9.88291C4.36599 10.8139 3.84231 12.0761 3.84082 13.3927V73.0028C3.84235 74.3194 4.36604 75.5816 5.297 76.5126C6.22796 77.4435 7.49018 77.9672 8.80676 77.9688H71.1983C72.5144 77.9669 73.7759 77.4429 74.7061 76.5119C75.6363 75.5809 76.1591 74.3189 76.1599 73.0028V13.3927C76.1591 12.0766 75.6362 10.8146 74.7061 9.88368C73.7759 8.9527 72.5143 8.42878 71.1983 8.42688ZM58.0097 5.09375C58.0863 4.92969 58.6613 4.53125 59.6035 4.53125C60.5428 4.53125 61.1163 4.93031 61.1925 5.09375V8.42688H58.0097V5.09375ZM38.4066 5.09516C38.4847 4.93063 39.0603 4.53125 40.0003 4.53125C40.9403 4.53125 41.516 4.93063 41.5941 5.09516V8.42688H38.4066V5.09516ZM18.8082 5.09516C18.8863 4.93063 19.4618 4.53125 20.4019 4.53125C21.3421 4.53125 21.9175 4.93063 21.9957 5.09516V8.42688H18.8082V5.09516Z" fill="#EAE8E8"/>
<path d="M37.2059 32.0566V37.6682C37.2059 37.9997 37.0742 38.3177 36.8398 38.5521C36.6054 38.7865 36.2875 38.9182 35.9559 38.9182H29.5966C29.265 38.9182 28.9471 38.7865 28.7127 38.5521C28.4783 38.3177 28.3466 37.9997 28.3466 37.6682V32.0566C28.3466 31.7251 28.4783 31.4072 28.7127 31.1728C28.9471 30.9383 29.265 30.8066 29.5966 30.8066H35.9559C36.2875 30.8066 36.6054 30.9383 36.8398 31.1728C37.0742 31.4072 37.2059 31.7251 37.2059 32.0566ZM50.4034 30.8066H44.0441C43.7125 30.8066 43.3946 30.9383 43.1602 31.1728C42.9258 31.4072 42.7941 31.7251 42.7941 32.0566V37.6682C42.7941 37.9997 42.9258 38.3177 43.1602 38.5521C43.3946 38.7865 43.7125 38.9182 44.0441 38.9182H50.4034C50.735 38.9182 51.0529 38.7865 51.2873 38.5521C51.5217 38.3177 51.6534 37.9997 51.6534 37.6682V32.0566C51.6534 31.7251 51.5217 31.4072 51.2873 31.1728C51.0529 30.9383 50.735 30.8066 50.4034 30.8066ZM21.5128 44.5365H15.1484C14.8169 44.5365 14.499 44.6682 14.2646 44.9026C14.0301 45.137 13.8984 45.455 13.8984 45.7865V51.398C13.8984 51.7296 14.0301 52.0475 14.2646 52.2819C14.499 52.5163 14.8169 52.648 15.1484 52.648H21.513C21.8445 52.648 22.1624 52.5163 22.3969 52.2819C22.6313 52.0475 22.763 51.7296 22.763 51.398V45.7865C22.763 45.455 22.6313 45.137 22.3969 44.9026C22.1624 44.6682 21.8443 44.5365 21.5128 44.5365ZM35.9558 44.5365H29.5964C29.2649 44.5365 28.9469 44.6682 28.7125 44.9026C28.4781 45.137 28.3464 45.455 28.3464 45.7865V51.398C28.3464 51.7296 28.4781 52.0475 28.7125 52.2819C28.9469 52.5163 29.2649 52.648 29.5964 52.648H35.9558C36.2873 52.648 36.6052 52.5163 36.8397 52.2819C37.0741 52.0475 37.2058 51.7296 37.2058 51.398V45.7865C37.2058 45.455 37.0741 45.1371 36.8397 44.9027C36.6053 44.6682 36.2874 44.5365 35.9559 44.5365H35.9558ZM50.4033 44.5365H44.0439C43.7124 44.5365 43.3944 44.6682 43.16 44.9026C42.9256 45.137 42.7939 45.455 42.7939 45.7865V51.398C42.7939 51.7296 42.9256 52.0475 43.16 52.2819C43.3944 52.5163 43.7124 52.648 44.0439 52.648H50.4033C50.7348 52.648 51.0527 52.5163 51.2872 52.2819C51.5216 52.0475 51.6533 51.7296 51.6533 51.398V45.7865C51.6533 45.455 51.5216 45.1371 51.2872 44.9027C51.0528 44.6682 50.7349 44.5365 50.4034 44.5365H50.4033ZM21.5127 58.2709H15.1484C14.8169 58.2709 14.499 58.4026 14.2646 58.637C14.0301 58.8714 13.8984 59.1893 13.8984 59.5209V65.1279C13.8984 65.4594 14.0301 65.7773 14.2646 66.0118C14.499 66.2462 14.8169 66.3779 15.1484 66.3779H21.513C21.8445 66.3779 22.1624 66.2462 22.3969 66.0118C22.6313 65.7773 22.763 65.4594 22.763 65.1279V59.521C22.763 59.1895 22.6313 58.8715 22.3969 58.6371C22.1624 58.4027 21.8445 58.271 21.513 58.271L21.5127 58.2709ZM35.9556 58.2709H29.5962C29.2647 58.2709 28.9468 58.4026 28.7124 58.637C28.4779 58.8714 28.3462 59.1893 28.3462 59.5209V65.1279C28.3462 65.4594 28.4779 65.7773 28.7124 66.0118C28.9468 66.2462 29.2647 66.3779 29.5962 66.3779H35.9556C36.2871 66.3779 36.6051 66.2462 36.8395 66.0118C37.0739 65.7773 37.2056 65.4594 37.2056 65.1279V59.521C37.2056 59.1895 37.074 58.8717 36.8396 58.6372C36.6053 58.4028 36.2874 58.2711 35.9559 58.271L35.9556 58.2709ZM21.513 30.8066H15.1484C14.8169 30.8066 14.499 30.9383 14.2646 31.1728C14.0301 31.4072 13.8984 31.7251 13.8984 32.0566V37.6682C13.8984 37.9997 14.0301 38.3177 14.2646 38.5521C14.499 38.7865 14.8169 38.9182 15.1484 38.9182H21.513C21.8445 38.9182 22.1624 38.7865 22.3969 38.5521C22.6313 38.3177 22.763 37.9997 22.763 37.6682V32.0566C22.763 31.7251 22.6313 31.4072 22.3969 31.1728C22.1624 30.9383 21.8445 30.8066 21.513 30.8066ZM64.8509 44.5365H58.4916C58.16 44.5365 57.8421 44.6682 57.6077 44.9026C57.3733 45.137 57.2416 45.455 57.2416 45.7865V51.398C57.2416 51.7296 57.3733 52.0475 57.6077 52.2819C57.8421 52.5163 58.16 52.648 58.4916 52.648H64.8509C65.1825 52.648 65.5004 52.5163 65.7348 52.2819C65.9692 52.0475 66.1009 51.7296 66.1009 51.398V45.7865C66.1009 45.455 65.9692 45.137 65.7348 44.9026C65.5004 44.6682 65.1825 44.5365 64.8509 44.5365ZM50.4034 58.2709H44.0441C43.7125 58.2709 43.3946 58.4026 43.1602 58.637C42.9258 58.8714 42.7941 59.1893 42.7941 59.5209V65.1279C42.7941 65.4594 42.9258 65.7773 43.1602 66.0118C43.3946 66.2462 43.7125 66.3779 44.0441 66.3779H50.4034C50.735 66.3779 51.0529 66.2462 51.2873 66.0118C51.5217 65.7773 51.6534 65.4594 51.6534 65.1279V59.521C51.6534 59.1895 51.5217 58.8715 51.2873 58.6371C51.0529 58.4027 50.735 58.2709 50.4034 58.2709Z" fill="#484868"/>
<path d="M21.5137 30.8066H19.9512C20.2827 30.8066 20.6006 30.9383 20.8351 31.1728C21.0695 31.4072 21.2012 31.7251 21.2012 32.0566V37.6682C21.2012 37.9997 21.0695 38.3177 20.8351 38.5521C20.6006 38.7865 20.2827 38.9182 19.9512 38.9182H21.5137C21.8452 38.9182 22.1631 38.7865 22.3976 38.5521C22.632 38.3177 22.7637 37.9997 22.7637 37.6682V32.0566C22.7637 31.7251 22.632 31.4072 22.3976 31.1728C22.1631 30.9383 21.8452 30.8066 21.5137 30.8066Z" fill="#3D3D54"/>
<path d="M35.957 58.271H34.3945C34.7261 58.271 35.044 58.4027 35.2784 58.6371C35.5128 58.8715 35.6445 59.1895 35.6445 59.521V65.128C35.6445 65.4595 35.5128 65.7775 35.2784 66.0119C35.044 66.2463 34.7261 66.378 34.3945 66.378H35.957C36.2886 66.378 36.6065 66.2463 36.8409 66.0119C37.0753 65.7775 37.207 65.4595 37.207 65.128V59.521C37.207 59.1895 37.0753 58.8715 36.8409 58.6371C36.6065 58.4027 36.2886 58.271 35.957 58.271Z" fill="#3D3D54"/>
<path d="M35.957 44.5366H34.3945C34.7261 44.5366 35.044 44.6683 35.2784 44.9027C35.5128 45.1372 35.6445 45.4551 35.6445 45.7866V51.3982C35.6445 51.7297 35.5128 52.0476 35.2784 52.2821C35.044 52.5165 34.7261 52.6482 34.3945 52.6482H35.957C36.2886 52.6482 36.6065 52.5165 36.8409 52.2821C37.0753 52.0476 37.207 51.7297 37.207 51.3982V45.7866C37.207 45.4551 37.0753 45.1372 36.8409 44.9027C36.6065 44.6683 36.2886 44.5366 35.957 44.5366Z" fill="#3D3D54"/>
<path d="M21.5137 58.271H19.9512C20.2827 58.271 20.6006 58.4027 20.8351 58.6371C21.0695 58.8715 21.2012 59.1895 21.2012 59.521V65.128C21.2012 65.4595 21.0695 65.7775 20.8351 66.0119C20.6006 66.2463 20.2827 66.378 19.9512 66.378H21.5137C21.8452 66.378 22.1631 66.2463 22.3976 66.0119C22.632 65.7775 22.7637 65.4595 22.7637 65.128V59.521C22.7637 59.1895 22.632 58.8715 22.3976 58.6371C22.1631 58.4027 21.8452 58.271 21.5137 58.271Z" fill="#3D3D54"/>
<path d="M21.5137 44.5366H19.9512C20.2827 44.5366 20.6006 44.6683 20.8351 44.9027C21.0695 45.1372 21.2012 45.4551 21.2012 45.7866V51.3982C21.2012 51.7297 21.0695 52.0476 20.8351 52.2821C20.6006 52.5165 20.2827 52.6482 19.9512 52.6482H21.5137C21.8452 52.6482 22.1631 52.5165 22.3976 52.2821C22.632 52.0476 22.7637 51.7297 22.7637 51.3982V45.7866C22.7637 45.4551 22.632 45.1372 22.3976 44.9027C22.1631 44.6683 21.8452 44.5366 21.5137 44.5366Z" fill="#3D3D54"/>
<path d="M50.4043 58.271H48.8418C49.1733 58.271 49.4913 58.4027 49.7257 58.6371C49.9601 58.8715 50.0918 59.1895 50.0918 59.521V65.128C50.0918 65.4595 49.9601 65.7775 49.7257 66.0119C49.4913 66.2463 49.1733 66.378 48.8418 66.378H50.4043C50.7358 66.378 51.0538 66.2463 51.2882 66.0119C51.5226 65.7775 51.6543 65.4595 51.6543 65.128V59.521C51.6543 59.1895 51.5226 58.8715 51.2882 58.6371C51.0538 58.4027 50.7358 58.271 50.4043 58.271Z" fill="#3D3D54"/>
<path d="M50.4043 30.8066H48.8418C49.1733 30.8066 49.4913 30.9383 49.7257 31.1728C49.9601 31.4072 50.0918 31.7251 50.0918 32.0566V37.6682C50.0918 37.9997 49.9601 38.3177 49.7257 38.5521C49.4913 38.7865 49.1733 38.9182 48.8418 38.9182H50.4043C50.7358 38.9182 51.0538 38.7865 51.2882 38.5521C51.5226 38.3177 51.6543 37.9997 51.6543 37.6682V32.0566C51.6543 31.7251 51.5226 31.4072 51.2882 31.1728C51.0538 30.9383 50.7358 30.8066 50.4043 30.8066Z" fill="#3D3D54"/>
<path d="M35.957 30.8066H34.3945C34.7261 30.8066 35.044 30.9383 35.2784 31.1728C35.5128 31.4072 35.6445 31.7251 35.6445 32.0566V37.6682C35.6445 37.9997 35.5128 38.3177 35.2784 38.5521C35.044 38.7865 34.7261 38.9182 34.3945 38.9182H35.957C36.2886 38.9182 36.6065 38.7865 36.8409 38.5521C37.0753 38.3177 37.207 37.9997 37.207 37.6682V32.0566C37.207 31.7251 37.0753 31.4072 36.8409 31.1728C36.6065 30.9383 36.2886 30.8066 35.957 30.8066Z" fill="#3D3D54"/>
<path d="M64.8516 44.5366H63.2891C63.6206 44.5366 63.9385 44.6683 64.1729 44.9027C64.4074 45.1372 64.5391 45.4551 64.5391 45.7866V51.3982C64.5391 51.7297 64.4074 52.0476 64.1729 52.2821C63.9385 52.5165 63.6206 52.6482 63.2891 52.6482H64.8516C65.1831 52.6482 65.501 52.5165 65.7354 52.2821C65.9699 52.0476 66.1016 51.7297 66.1016 51.3982V45.7866C66.1016 45.4551 65.9699 45.1372 65.7354 44.9027C65.501 44.6683 65.1831 44.5366 64.8516 44.5366Z" fill="#3D3D54"/>
<path d="M50.4043 44.5366H48.8418C49.1733 44.5366 49.4913 44.6683 49.7257 44.9027C49.9601 45.1372 50.0918 45.4551 50.0918 45.7866V51.3982C50.0918 51.7297 49.9601 52.0476 49.7257 52.2821C49.4913 52.5165 49.1733 52.6482 48.8418 52.6482H50.4043C50.7358 52.6482 51.0538 52.5165 51.2882 52.2821C51.5226 52.0476 51.6543 51.7297 51.6543 51.3982V45.7866C51.6543 45.4551 51.5226 45.1372 51.2882 44.9027C51.0538 44.6683 50.7358 44.5366 50.4043 44.5366Z" fill="#3D3D54"/>
<path d="M60.8822 38.5591C60.5526 38.5592 60.2363 38.429 60.0022 38.197L57.4335 35.6501C57.1997 35.4163 57.0681 35.0995 57.0674 34.7689C57.0667 34.4383 57.197 34.1209 57.4297 33.8861C57.6625 33.6514 57.9788 33.5184 58.3093 33.5162C58.6399 33.5141 58.9579 33.643 59.1936 33.8748L60.803 35.4698L64.0747 31.6071C64.289 31.3541 64.595 31.1967 64.9254 31.1693C65.2558 31.142 65.5836 31.247 65.8365 31.4613C66.0895 31.6755 66.247 31.9815 66.2743 32.3119C66.3017 32.6423 66.1967 32.9701 65.9824 33.2231L61.8368 38.1171C61.7253 38.2487 61.5878 38.3557 61.433 38.4316C61.2782 38.5074 61.1093 38.5504 60.9371 38.5579C60.9185 38.5587 60.9004 38.5591 60.8822 38.5591Z" fill="#D22E2E"/>
<path d="M65.2263 73.9441C65.1102 74.0602 64.9724 74.1524 64.8207 74.2152C64.669 74.2781 64.5064 74.3105 64.3422 74.3105H8.80676C7.49018 74.3089 6.22796 73.7853 5.297 72.8543C4.36604 71.9233 3.84235 70.6611 3.84082 69.3445V73.0028C3.84235 74.3194 4.36604 75.5816 5.297 76.5126C6.22796 77.4435 7.49018 77.9672 8.80676 77.9688H71.1983C72.5144 77.9669 73.7759 77.4429 74.7061 76.5119C75.6363 75.5809 76.1591 74.3189 76.1599 73.0028V62.4883C76.1598 62.8197 76.0282 63.1375 75.7939 63.3719L65.2263 73.9441Z" fill="#D1C9C9"/>
<path d="M76.16 62.4881V62.3242H66.71C66.0469 62.3242 65.411 62.5876 64.9422 63.0564C64.4734 63.5253 64.21 64.1612 64.21 64.8242V74.3103H64.3423C64.5065 74.3103 64.6691 74.2779 64.8208 74.2151C64.9725 74.1522 65.1103 74.0601 65.2264 73.9439L75.794 63.3717C76.0283 63.1373 76.1599 62.8195 76.16 62.4881Z" fill="#BCB3B3"/>
<path d="M71.1983 8.42676H58.0097V13.1583C58.0832 13.3224 58.6563 13.7238 59.6035 13.7238C59.935 13.7238 60.2529 13.8555 60.4874 14.0899C60.7218 14.3243 60.8535 14.6423 60.8535 14.9738C60.8535 15.3053 60.7218 15.6233 60.4874 15.8577C60.2529 16.0921 59.935 16.2238 59.6035 16.2238C57.308 16.2238 55.5097 14.8849 55.5097 13.1755V8.42676H38.4066V13.1574C38.4813 13.3221 39.0552 13.7238 40.0003 13.7238C40.3319 13.7238 40.6498 13.8555 40.8842 14.0899C41.1187 14.3243 41.2503 14.6423 41.2503 14.9738C41.2503 15.3053 41.1187 15.6233 40.8842 15.8577C40.6498 16.0921 40.3319 16.2238 40.0003 16.2238C37.7049 16.2238 35.9066 14.8849 35.9066 13.1755V8.42676H18.8085V13.1574C18.8832 13.3221 19.4571 13.7238 20.4022 13.7238C20.7337 13.7238 21.0517 13.8555 21.2861 14.0899C21.5205 14.3243 21.6522 14.6423 21.6522 14.9738C21.6522 15.3053 21.5205 15.6233 21.2861 15.8577C21.0517 16.0921 20.7337 16.2238 20.4022 16.2238C18.1069 16.2238 16.3085 14.8849 16.3085 13.1755V8.42676H8.80676C7.49018 8.42821 6.22794 8.95184 5.29696 9.88279C4.36599 10.8137 3.84231 12.076 3.84082 13.3925V24.0499H76.1599V13.3925C76.1591 12.0765 75.6362 10.8145 74.7061 9.88356C73.7759 8.95259 72.5143 8.42866 71.1983 8.42676Z" fill="#D22E2E"/>
<path d="M3.84082 24.0498H76.1599V26.0017H3.84082V24.0498Z" fill="#D1C9C9"/>
<path d="M41.2498 14.9739C41.2498 15.3054 41.1181 15.6234 40.8837 15.8578C40.6493 16.0922 40.3313 16.2239 39.9998 16.2239C37.7043 16.2239 35.9061 14.885 35.9061 13.1756V5.075C35.9061 3.36828 37.7043 2.03125 39.9998 2.03125C42.2953 2.03125 44.0936 3.36828 44.0936 5.075V8.42687H41.5936V5.09516C41.5154 4.93062 40.9396 4.53125 39.9998 4.53125C39.06 4.53125 38.4842 4.93062 38.4061 5.09516V13.1577C38.4807 13.3223 39.0546 13.7241 39.9998 13.7241C40.3313 13.7241 40.6492 13.8557 40.8836 14.0901C41.118 14.3245 41.2498 14.6424 41.2498 14.9739ZM20.4014 13.7239C19.4565 13.7239 18.8826 13.3222 18.8076 13.1575V5.095C18.8857 4.93047 19.4612 4.53109 20.4014 4.53109C21.3415 4.53109 21.917 4.93047 21.9951 5.095V8.42687H24.4951V5.075C24.4951 3.36828 22.6971 2.03125 20.4014 2.03125C18.1056 2.03125 16.3076 3.36828 16.3076 5.075V13.1756C16.3076 14.885 18.1057 16.2239 20.4014 16.2239C20.7329 16.2239 21.0508 16.0922 21.2852 15.8578C21.5197 15.6234 21.6514 15.3054 21.6514 14.9739C21.6514 14.6424 21.5197 14.3244 21.2852 14.09C21.0508 13.8556 20.7329 13.7239 20.4014 13.7239ZM59.6026 13.7239C58.6557 13.7239 58.0826 13.3225 58.0089 13.1584V5.09375C58.0854 4.92969 58.6604 4.53125 59.6026 4.53125C60.542 4.53125 61.1154 4.93031 61.1917 5.09375V8.42687H63.6917V5.075C63.6917 3.36828 61.8948 2.03125 59.6026 2.03125C57.3072 2.03125 55.5089 3.36828 55.5089 5.075V13.1756C55.5089 14.885 57.3068 16.2239 59.6026 16.2239C59.9341 16.2239 60.2521 16.0922 60.4865 15.8578C60.7209 15.6234 60.8526 15.3054 60.8526 14.9739C60.8526 14.6424 60.7209 14.3244 60.4865 14.09C60.2521 13.8556 59.9341 13.7239 59.6026 13.7239Z" fill="#484868"/>
<path d="M20.4089 12.6304C19.8354 12.6304 19.282 12.8418 18.8544 13.2241C19.0213 13.4107 19.5658 13.7241 20.4013 13.7241C20.7328 13.7241 21.0508 13.8558 21.2852 14.0902C21.5196 14.3247 21.6513 14.6426 21.6513 14.9741C21.6513 15.3056 21.5196 15.6236 21.2852 15.858C21.0508 16.0924 20.7328 16.2241 20.4013 16.2241C19.6439 16.231 18.8942 16.0729 18.2041 15.7607C18.3484 16.1649 18.6011 16.5216 18.9344 16.792C19.2677 17.0624 19.6689 17.2361 20.0941 17.294C20.5194 17.3519 20.9524 17.2918 21.3459 17.1204C21.7393 16.9489 22.0781 16.6727 22.3253 16.3218C22.5724 15.9709 22.7184 15.5589 22.7473 15.1306C22.7762 14.7024 22.6869 14.2745 22.4892 13.8936C22.2914 13.5127 21.9928 13.1934 21.626 12.9706C21.2591 12.7478 20.8381 12.6302 20.4089 12.6304Z" fill="#AD1E1E"/>
<path d="M39.9997 12.6304C39.4282 12.6302 38.8766 12.8399 38.4495 13.2196C38.6119 13.4057 39.1581 13.724 39.9997 13.724C40.3312 13.724 40.6492 13.8557 40.8836 14.0901C41.118 14.3245 41.2497 14.6424 41.2497 14.974C41.2497 15.3055 41.118 15.6234 40.8836 15.8578C40.6492 16.0923 40.3312 16.224 39.9997 16.224C39.2388 16.231 38.4856 16.0713 37.793 15.7562C37.9364 16.1609 38.1884 16.5185 38.5213 16.7897C38.8542 17.061 39.2553 17.2355 39.6807 17.2942C40.1061 17.3529 40.5394 17.2935 40.9334 17.1226C41.3273 16.9516 41.6667 16.6757 41.9144 16.3249C42.1621 15.9741 42.3086 15.562 42.3379 15.1335C42.3673 14.7051 42.2782 14.2768 42.0806 13.8956C41.883 13.5143 41.5843 13.1948 41.2173 12.9718C40.8504 12.7488 40.4291 12.6309 39.9997 12.6312V12.6304Z" fill="#AD1E1E"/>
<path d="M59.6007 12.6305C59.0296 12.6303 58.4783 12.8398 58.0514 13.2191C58.2112 13.4044 58.7575 13.7241 59.6029 13.7241C59.9345 13.7241 60.2524 13.8558 60.4868 14.0902C60.7212 14.3247 60.8529 14.6426 60.8529 14.9741C60.8529 15.3056 60.7212 15.6236 60.4868 15.858C60.2524 16.0924 59.9345 16.2241 59.6029 16.2241C58.8411 16.2312 58.0869 16.0712 57.3936 15.7554C57.537 16.1601 57.7889 16.5176 58.1218 16.7889C58.4547 17.0601 58.8558 17.2346 59.2812 17.2934C59.7066 17.3521 60.1399 17.2927 60.5338 17.1218C60.9278 16.9509 61.2671 16.675 61.5149 16.3243C61.7626 15.9735 61.9092 15.5614 61.9385 15.133C61.9679 14.7046 61.8789 14.2764 61.6813 13.8951C61.4838 13.5139 61.1852 13.1942 60.8183 12.9712C60.4513 12.7481 60.0302 12.6304 59.6007 12.6305Z" fill="#AD1E1E"/>
</svg>
