<svg width="146" height="93" viewBox="0 0 146 93" fill="none" xmlns="http://www.w3.org/2000/svg">
<path d="M145.965 45.1362L145.952 50.7201L73.2627 93.0002L73.275 87.4121L145.965 45.1362Z" fill="url(#paint0_linear_644_39059)"/>
<path d="M73.2753 87.4121L73.263 93.0002L0.0351562 50.7243L0.0515916 45.1362L73.2753 87.4121Z" fill="url(#paint1_linear_644_39059)"/>
<path d="M145.965 45.1363L73.2755 87.4122L0.0517578 45.1363L72.7413 2.86035L145.965 45.1363Z" fill="#68B2DC"/>
<path d="M72.7564 6.13086L6.09863 44.906L73.2413 83.6689L139.903 44.8937L72.7564 6.13086Z" fill="#E5E5E5"/>
<mask id="mask0_644_39059" style="mask-type:luminance" maskUnits="userSpaceOnUse" x="6" y="6" width="134" height="78">
<path d="M72.7554 6.13086L6.09766 44.906L73.2403 83.6689L139.902 44.8937L72.7554 6.13086Z" fill="white"/>
</mask>
<g mask="url(#mask0_644_39059)">
<path d="M130.452 39.3593L120.919 44.898L130.521 50.4408L140.054 44.9021L130.452 39.3593ZM101.846 55.9837L111.51 61.5635L121.042 56.0248L111.378 50.4449L101.846 55.9837ZM82.7726 67.0693L92.5352 72.7067L102.068 67.1679L92.3051 61.5306L82.7726 67.0693ZM73.1743 61.5306L63.6336 67.0734L73.2318 72.6122L82.7726 67.0693L73.1743 61.5306ZM53.9778 50.4449L44.4371 55.9878L54.0353 61.5265L63.5761 55.9837L53.9778 50.4449ZM34.7772 39.3593L25.2364 44.9021L34.8347 50.4408L44.3754 44.898L34.7772 39.3593ZM63.4487 33.8165L53.8504 28.2777L44.3097 33.8206L53.908 39.3593L63.4487 33.8165ZM82.5219 22.7308L72.9237 17.1921L63.3829 22.7349L72.9812 28.2736L82.5219 22.7308ZM92.1243 28.2777L101.657 22.739L92.0545 17.1962L82.5219 22.7349L92.1243 28.2777ZM111.321 39.3593L120.853 33.8206L111.251 28.2777L101.718 33.8165L111.321 39.3593ZM101.784 44.9062L111.382 50.4449L120.923 44.9021L111.325 39.3634L101.784 44.9062ZM82.7068 55.9878L92.3051 61.5265L101.846 55.9837L92.2476 50.4449L82.7068 55.9878ZM73.1086 50.4449L63.5761 55.9837L73.1784 61.5265L82.711 55.9878L73.1086 50.4449ZM53.908 39.3593L44.3754 44.898L53.9778 50.4408L63.5103 44.9021L53.908 39.3593ZM82.5836 33.8206L72.9812 28.2777L63.4487 33.8165L73.0511 39.3593L82.5836 33.8206ZM92.1818 39.3593L101.723 33.8165L92.1243 28.2777L82.5836 33.8206L92.1818 39.3593ZM82.6452 44.9021L92.2476 50.4449L101.78 44.9062L92.1777 39.3634L82.6452 44.9021ZM73.0511 39.3593L63.5103 44.9021L73.1086 50.4408L82.6493 44.898L73.0511 39.3593ZM72.1348 5.69141L62.6023 11.2301L72.9278 17.1921L82.4603 11.6533L72.1348 5.69141ZM53.0574 16.773L43.5249 22.3117L53.8504 28.2736L63.3829 22.7349L53.0574 16.773ZM33.9842 27.8586L24.4516 33.3973L34.7772 39.3593L44.3097 33.8206L33.9842 27.8586ZM4.45801 45.0131L14.7835 50.975L25.2364 44.9021L14.9109 38.9402L4.45801 45.0131ZM24.3818 56.5178L33.9842 62.0606L44.4371 55.9878L34.8347 50.4449L24.3818 56.5178ZM43.5783 67.5994L53.1807 73.1422L63.6336 67.0693L54.0312 61.5265L43.5783 67.5994ZM62.7789 78.685L72.3813 84.2279L82.8342 78.155L73.2318 72.6122L62.7789 78.685Z" fill="url(#paint2_linear_644_39059)"/>
</g>
<path d="M80.4546 39.6533V42.5918C80.4434 44.4945 81.6705 46.3972 84.1249 47.8608C89.135 50.8556 97.3763 50.9344 102.533 48.0522C105.156 46.5774 106.473 44.6296 106.473 42.6594V39.7209L80.4434 39.6533H80.4546Z" fill="#DBD6CB"/>
<path d="M102.814 34.4516L102.488 34.2602C105.066 35.8027 106.237 37.8292 106.012 39.8107C105.82 41.5445 104.559 43.2446 102.229 44.5393C101.193 45.1248 100.033 45.5751 98.7951 45.9129C94.089 47.1738 88.3021 46.6559 84.4741 44.3592C79.6442 41.4657 79.7568 36.861 84.7218 34.0688L84.3953 34.249C79.2389 37.1424 79.1263 41.9161 84.1364 44.9109C88.0994 47.2864 94.1002 47.8268 98.9864 46.5208C100.27 46.1718 101.475 45.699 102.555 45.1023C104.965 43.7512 106.271 41.9949 106.473 40.1935C106.71 38.1445 105.494 36.0391 102.814 34.4404V34.4516Z" fill="url(#paint3_linear_644_39059)"/>
<path d="M102.486 32.8417C102.486 32.8417 102.385 32.7854 102.329 32.7516L99.9868 31.4006C99.9868 31.4006 100.066 31.4456 100.099 31.4681L87.062 31.333L84.7314 32.6615C79.7552 35.4537 79.6426 40.0584 84.4838 42.9519C88.3117 45.2374 94.0873 45.7665 98.7934 44.5056C100.032 44.1678 101.203 43.7175 102.239 43.132C104.569 41.826 105.83 40.126 106.021 38.3809C106.235 36.3994 105.064 34.3841 102.497 32.8417H102.486Z" fill="url(#paint4_linear_644_39059)"/>
<path d="M102.229 43.1201C97.2522 45.9122 89.3037 45.8334 84.4737 42.94C82.0982 41.5214 80.916 39.6862 80.916 37.8511V39.2809C80.916 41.1161 82.0869 42.9512 84.4625 44.3698C89.2924 47.2632 97.2522 47.3421 102.217 44.5499C104.739 43.1313 106.011 41.2399 106.023 39.3485V37.9186C106.023 39.8101 104.75 41.7015 102.217 43.1201H102.229Z" fill="#DBD6CB"/>
<path d="M99.9209 37.4804C96.2731 39.5294 90.4299 39.4731 86.8835 37.3453C85.1384 36.2982 84.2715 34.9585 84.2715 33.6074V35.1386C84.2715 36.4784 85.1271 37.8294 86.8722 38.8764C90.4187 40.9931 96.2619 41.0606 99.9096 39.0115C101.767 37.9645 102.702 36.5797 102.702 35.1949V33.6637C102.702 35.0485 101.767 36.4333 99.9096 37.4804H99.9209Z" fill="#DBD6CB"/>
<path d="M100.056 29.9145C99.1098 27.8654 98.8734 24.7468 98.7721 22.5964C98.7496 22.0222 98.7383 21.4255 98.7383 20.7838C98.7383 21.5719 98.2092 22.3487 97.1621 22.9454C95.1018 24.1051 91.7918 24.0713 89.7877 22.8666C88.797 22.2812 88.3129 21.5156 88.3129 20.75C88.3129 21.2229 88.2903 21.6507 88.2791 22.0898C88.2003 24.6905 87.9751 27.37 86.9956 29.7569C86.9731 29.8019 86.9506 29.8244 86.9281 29.8695C85.1717 30.9052 84.271 32.2675 84.2598 33.6185C84.2598 34.9583 85.1267 36.3094 86.8718 37.3564C90.4182 39.473 96.2614 39.5406 99.9092 37.4915C101.767 36.4557 102.701 35.0596 102.701 33.6748C102.701 32.0424 101.474 30.7589 100.044 29.9145H100.056Z" fill="url(#paint5_linear_644_39059)"/>
<path d="M85.082 18.4868V19.061C85.082 20.2994 85.8701 21.5266 87.4688 22.4836C90.7226 24.4313 96.0817 24.4876 99.4254 22.6074C101.125 21.6505 101.981 20.3782 101.992 19.106V18.5318L85.082 18.4868Z" fill="url(#paint6_linear_644_39059)"/>
<path d="M99.6049 15.1092C98.783 14.6251 97.8373 14.2535 96.824 14.0058L95.3266 13.6343C95.8783 13.7694 96.3962 13.9721 96.8352 14.231L90.3616 14.1635C90.7894 13.927 91.2735 13.7469 91.7914 13.623L90.294 13.9833C89.337 14.2085 88.4364 14.5463 87.6483 14.9853C84.3045 16.8655 84.2256 19.9616 87.4794 21.9094C89.8774 23.3392 93.4126 23.7445 96.4525 23.114C97.5333 22.8889 98.5578 22.5286 99.436 22.0332C101.181 21.0537 102.037 19.7365 101.992 18.4305C101.947 17.2371 101.159 16.0436 99.6049 15.1092Z" fill="url(#paint7_linear_644_39059)"/>
<path d="M88.9766 13.105V16.0547C88.9766 16.719 89.3931 17.3945 90.26 17.9124C92.0276 18.9707 94.9211 18.9932 96.7337 17.9799C97.6569 17.462 98.1185 16.7753 98.1185 16.0885V13.1388L88.9766 13.1162V13.105Z" fill="url(#paint8_linear_644_39059)"/>
<path d="M87.4116 12.2949L89.5958 14.4566C89.7759 14.6367 90.0011 14.8056 90.2601 14.9632C92.0277 16.0215 94.9211 16.044 96.7337 15.0307C97.0377 14.8619 97.2854 14.6817 97.4881 14.4791L99.6835 12.3287L87.4004 12.2949H87.4116Z" fill="url(#paint9_linear_644_39059)"/>
<path d="M100.314 8.91691L99.1098 6.83407L88.0201 6.80029L86.8042 8.87187C85.971 10.2904 86.5114 11.9229 88.4479 13.0713C91.1837 14.7151 95.6984 14.7601 98.5131 13.1727C100.54 12.0355 101.148 10.3693 100.303 8.90564L100.314 8.91691Z" fill="url(#paint10_linear_644_39059)"/>
<path d="M97.7589 5.55089C95.5072 4.19986 91.8031 4.16608 89.4838 5.47207C87.1645 6.76681 87.1195 8.91721 89.3712 10.2682C91.6229 11.6193 95.327 11.653 97.6463 10.347C99.9655 9.04104 100.011 6.90192 97.7589 5.55089Z" fill="url(#paint11_linear_644_39059)"/>
<path d="M92.6587 5.7417L90.9023 6.11323V7.46426H93.4806L92.6587 5.7417Z" fill="#C6C0B4"/>
<path d="M96.5759 6.21461C96.4408 6.1358 96.3057 6.05699 96.1593 5.98944L95.1461 5.52783C95.2361 5.57287 95.315 5.61791 95.405 5.66295C95.8891 5.94441 96.1256 6.31593 96.1256 6.68746C96.1256 7.07026 95.8666 7.45305 95.36 7.74577C95.1235 7.88088 94.8534 7.98221 94.5606 8.04976C93.6262 8.27493 92.5116 8.16234 91.7572 7.712C90.7777 7.12655 90.8003 6.1921 91.8135 5.62917C91.8811 5.5954 91.9486 5.55035 92.0274 5.52783L91.0142 5.98944C90.8903 6.04573 90.7777 6.10203 90.6652 6.16958C88.9989 7.10404 88.9651 8.63521 90.5864 9.60345C91.8248 10.3465 93.6599 10.5267 95.2024 10.1664C95.6752 10.0538 96.1256 9.88491 96.5196 9.671C97.364 9.19814 97.7918 8.5564 97.7918 7.92591C97.7918 7.31795 97.3978 6.70999 96.6097 6.23713L96.5759 6.21461Z" fill="url(#paint12_linear_644_39059)"/>
<path d="M91.7916 5.62917C91.8591 5.5954 91.9267 5.55035 92.0055 5.52783L90.9922 5.98944C90.8684 6.04573 90.7558 6.10203 90.6432 6.16958C89.416 6.85635 89.0782 7.88089 89.6412 8.75906L91.4088 7.46431C90.7896 6.89012 90.9247 6.12454 91.7916 5.64042V5.62917Z" fill="#C6C0B4"/>
<path d="M100.134 29.959C100.821 30.6458 101.327 31.5014 101.327 32.5147C101.327 33.7757 100.528 35.0366 98.9517 35.9936C95.8556 37.8625 90.8905 37.8062 87.8732 35.8698C86.3871 34.924 85.6553 33.6969 85.6553 32.4697C85.6553 31.5915 86.0606 30.7246 86.8262 29.9478C85.1487 30.9723 84.2705 32.2895 84.2705 33.618C84.2705 34.9578 85.1374 36.3089 86.8825 37.3559C90.4289 39.4725 96.2721 39.5401 99.9199 37.491C101.778 36.4552 102.712 35.0591 102.712 33.6743C102.712 32.0756 101.519 30.8034 100.134 29.9703V29.959Z" fill="url(#paint13_linear_644_39059)"/>
<path d="M93.48 7.46475L92.1064 6.67665V4.7627L93.4687 5.56204L93.48 7.46475Z" fill="#C6C0B4"/>
<path d="M95.1123 2.70165L93.75 1.91355L95.4163 0.945312L96.7786 1.74466L95.1123 2.70165Z" fill="url(#paint14_linear_644_39059)"/>
<path d="M91.8017 6.51844L90.4395 5.71907V3.82764L91.8017 4.61573V6.51844Z" fill="#C6C0B4"/>
<path d="M91.8017 4.61571L90.4395 3.82761L92.0945 2.85938L93.468 3.65874L91.8017 4.61571Z" fill="url(#paint15_linear_644_39059)"/>
<path d="M93.4673 3.6591L92.0938 2.85973V0.957031L93.456 1.74513L93.4673 3.6591Z" fill="#C6C0B4"/>
<path d="M93.456 1.74507L92.0938 0.956969L93.7375 0L95.111 0.799349L93.456 1.74507Z" fill="url(#paint16_linear_644_39059)"/>
<path d="M95.1118 0.799316V2.70202L96.7781 1.74503L96.7893 3.64774L95.1231 4.60472V6.51868L93.4793 7.46439L93.468 5.56169L91.8018 6.51868V4.61597L93.468 3.65901L93.4568 1.74503L95.1118 0.799316Z" fill="#EFE9DF"/>
<path d="M60.0146 39.8398V40.0687C60.0146 40.6157 60.365 41.1628 61.0766 41.5883C62.5211 42.45 64.8953 42.475 66.3791 41.6419C67.1336 41.22 67.5126 40.6551 67.5162 40.0901V39.8613L60.0146 39.8398Z" fill="url(#paint17_linear_644_39059)"/>
<path d="M66.344 38.0984C65.8113 37.7766 65.1677 37.5835 64.4919 37.5049L61.3132 38.0412C60.5588 38.4453 60.0403 39.0531 60.0117 39.8433C60.0117 40.3904 60.3621 40.9374 61.0737 41.3629C62.5182 42.2246 64.8923 42.2496 66.3762 41.4165C67.1306 40.9946 67.5096 40.4297 67.5132 39.8433C67.4846 39.1425 67.0913 38.5561 66.344 38.102V38.0984Z" fill="url(#paint18_linear_644_39059)"/>
<path d="M66.2658 38.0738C64.925 37.2729 62.7189 37.2514 61.3387 38.0237C59.9586 38.7996 59.9264 40.0761 61.2672 40.877C61.8929 41.2525 62.7117 41.4563 63.5448 41.4884C64.4924 41.5242 65.4613 41.3383 66.1943 40.9271C66.3123 40.8591 66.4232 40.7912 66.5197 40.7161C67.5673 39.9367 67.4887 38.8068 66.2623 38.0738H66.2658ZM66.3624 40.5481C66.2694 40.616 66.1657 40.6839 66.0549 40.7447C65.3648 41.1309 64.453 41.3097 63.5591 41.2739C62.7761 41.2453 62.0073 41.0522 61.4138 40.6982C60.1516 39.9438 60.1802 38.7424 61.4782 38.013C62.7761 37.2836 64.8535 37.3051 66.1157 38.0595C67.2706 38.7496 67.3456 39.8115 66.3588 40.5481H66.3624Z" fill="url(#paint19_linear_644_39059)"/>
<path d="M66.416 37.2021L60.7631 37.4596C59.6546 38.4107 59.7619 39.7944 61.1886 40.6597C62.154 41.2461 64.3029 41.7431 66.2658 40.7133C66.3016 40.6919 66.3302 40.6633 66.3481 40.6204C66.3302 40.6633 66.3016 40.6955 66.2658 40.7133C66.5698 40.531 67.4994 39.9804 67.5173 38.9113C67.5244 38.4429 67.3242 37.7885 66.416 37.2021Z" fill="url(#paint20_linear_644_39059)"/>
<path d="M66.3305 37.137C66.2161 37.0691 66.0945 37.0047 65.9658 36.9475L65.1398 36.5721C65.2185 36.6078 65.2936 36.6472 65.3651 36.6901L62.2257 36.6579C62.2865 36.6257 62.3473 36.5935 62.4117 36.5649L61.5821 36.9368C61.4785 36.9833 61.3783 37.0333 61.2818 37.087C59.8695 37.8807 59.8373 39.1894 61.2103 40.0118C61.7895 40.3586 62.5261 40.5624 63.2877 40.6232C64.3389 40.709 65.4402 40.5231 66.259 40.0618C66.4342 39.9653 66.5879 39.858 66.7202 39.7472C67.6606 38.9534 67.539 37.8593 66.3341 37.137H66.3305Z" fill="url(#paint21_linear_644_39059)"/>
<path d="M61.5537 37.4414V37.5773C61.5537 37.9027 61.7611 38.2245 62.183 38.4783C63.0376 38.9896 64.4428 39.0039 65.3223 38.5105C65.7693 38.2602 65.9945 37.9277 65.9945 37.5916V37.4557L61.5537 37.445V37.4414Z" fill="url(#paint22_linear_644_39059)"/>
<path d="M65.2612 36.3146L62.34 36.2788C61.9824 36.4755 61.5677 36.833 61.5498 37.4409C61.5498 37.7662 61.7572 38.088 62.1791 38.3419C63.0337 38.8532 64.4388 38.8675 65.3184 38.3741C65.7654 38.1238 65.9906 37.7913 65.9906 37.448C65.9799 36.9832 65.7332 36.6006 65.2576 36.3146H65.2612Z" fill="url(#paint23_linear_644_39059)"/>
<path d="M65.2471 36.3073L65.079 36.2286C65.694 36.5969 65.7584 37.1547 65.2757 37.5587C65.2078 37.616 65.1291 37.6696 65.0397 37.7196C64.6214 37.9556 64.06 38.0486 63.5237 38.0057C63.1339 37.9735 62.7585 37.8698 62.4653 37.6946C61.7645 37.2763 61.7824 36.6077 62.5011 36.2036L62.3366 36.2787C61.5214 36.7364 61.5035 37.4908 62.2937 37.9628C62.6262 38.163 63.0517 38.281 63.4915 38.3168C64.0958 38.3668 64.7322 38.2596 65.2006 37.995C65.3007 37.9378 65.3901 37.877 65.4652 37.8126C66.0051 37.3549 65.9372 36.7256 65.2399 36.3109L65.2471 36.3073Z" fill="url(#paint24_linear_644_39059)"/>
<path d="M65.5575 36.7517L65.0605 35.3465L62.4932 35.3394L61.9891 36.7445C61.8711 37.0771 62.0284 37.4346 62.4646 37.6956C63.1654 38.114 64.3167 38.1247 65.039 37.7207C65.5003 37.4597 65.6755 37.0949 65.5539 36.7553L65.5575 36.7517Z" fill="url(#paint25_linear_644_39059)"/>
<path d="M65.8816 34.3417C65.6527 33.8947 65.1593 33.6123 64.5872 33.48C64.8339 33.5408 65.0663 33.6302 65.2666 33.7517C66.0639 34.2273 66.046 34.9889 65.2237 35.4501C64.4048 35.9114 63.0926 35.8971 62.2953 35.4215C61.5265 34.9603 61.523 34.238 62.2631 33.7768C61.9449 33.9627 61.6946 34.213 61.6016 34.5383C61.2012 35.9149 63.561 36.7981 65.263 35.9078C65.4453 35.8005 65.9924 35.4716 66.0031 34.8351C66.0031 34.7243 65.9852 34.5491 65.8816 34.3524V34.3417Z" fill="url(#paint26_linear_644_39059)"/>
<path d="M65.271 33.7481C64.4736 33.2726 63.1614 33.2583 62.3426 33.7195C61.5238 34.1808 61.5023 34.9388 62.2997 35.4179C62.6465 35.6253 63.0899 35.7433 63.5511 35.7754C64.1482 35.8148 64.7668 35.7075 65.2316 35.4465C65.3282 35.3929 65.4104 35.3357 65.4855 35.2749C66.0469 34.8136 65.9789 34.17 65.2745 33.7481H65.271Z" fill="url(#paint27_linear_644_39059)"/>
<path d="M65.2709 33.7481C64.4736 33.2726 63.1614 33.2583 62.3426 33.7195C62.0172 33.9019 61.8241 34.1343 61.749 34.3738C61.7776 34.3917 61.7991 34.4132 61.8277 34.431C62.1745 34.6384 62.6179 34.7564 63.0791 34.7886C63.6762 34.8279 64.2948 34.7207 64.7596 34.4596C64.8562 34.406 64.9384 34.3488 65.0135 34.288C65.1923 34.1414 65.2995 33.9734 65.3496 33.8017C65.321 33.7839 65.3031 33.7624 65.2709 33.7481Z" fill="#DBD6CB"/>
<path d="M65.8119 32.6857C65.8119 32.4855 65.7798 32.085 65.5438 31.6702C64.6463 30.1113 62.3651 30.3866 61.8467 32.1136C61.3747 33.6833 63.0194 35.3316 64.7393 34.4663C65.3328 34.166 65.8048 33.4902 65.8119 32.6893V32.6857Z" fill="url(#paint28_radial_644_39059)"/>
<path d="M65.1799 31.9601C65.0225 32.2354 64.6185 32.2997 64.2788 32.1031C63.9392 31.9064 63.7961 31.5274 63.9535 31.2521C64.1108 30.9768 64.5148 30.9124 64.8545 31.1091C65.1942 31.3057 65.3372 31.6847 65.1799 31.9601Z" fill="white"/>
<path d="M58.5553 72.3467V73.2799C58.5518 73.8842 58.9415 74.4884 59.721 74.9533C61.3121 75.9044 63.9294 75.9294 65.567 75.014C66.4001 74.5456 66.8184 73.9271 66.8184 73.3014V72.3681L58.5518 72.3467H58.5553Z" fill="#DBD6CB"/>
<path d="M65.6537 70.6948L65.55 70.634C66.3688 71.1239 66.7406 71.7675 66.6691 72.3968C66.6083 72.9474 66.2079 73.4873 65.4677 73.8985C65.1388 74.0844 64.7705 74.2275 64.3772 74.3347C62.8826 74.7352 61.0448 74.5707 59.8291 73.8413C58.2952 72.9224 58.3309 71.46 59.9077 70.5732L59.8041 70.6304C58.1665 71.5494 58.1307 73.0654 59.7218 74.0165C60.9804 74.7709 62.8862 74.9426 64.438 74.5278C64.8456 74.417 65.2282 74.2668 65.5714 74.0773C66.3366 73.6482 66.7513 73.0904 66.8157 72.5183C66.8908 71.8676 66.5046 71.199 65.6537 70.6912V70.6948Z" fill="url(#paint29_linear_644_39059)"/>
<path d="M65.5487 70.1832C65.5487 70.1832 65.5166 70.1618 65.4987 70.1546L64.755 69.7256C64.755 69.7256 64.78 69.7399 64.7907 69.747L60.6502 69.7041L59.9101 70.126C58.3297 71.0128 58.294 72.4752 59.8314 73.3941C61.0471 74.1199 62.8814 74.288 64.376 73.8875C64.7693 73.7802 65.1411 73.6372 65.4701 73.4513C66.2102 73.0365 66.6107 72.4966 66.6715 71.9424C66.7394 71.3131 66.3675 70.6731 65.5523 70.1832H65.5487Z" fill="url(#paint30_linear_644_39059)"/>
<path d="M65.4716 73.4478C63.8912 74.3345 61.3669 74.3095 59.833 73.3906C59.0786 72.94 58.7031 72.3572 58.7031 71.7744V72.2285C58.7031 72.8113 59.075 73.3941 59.8294 73.8447C61.3633 74.7636 63.8912 74.7886 65.4681 73.9019C66.269 73.4514 66.673 72.8507 66.6766 72.25V71.7959C66.6766 72.3966 66.2726 72.9973 65.4681 73.4478H65.4716Z" fill="#DBD6CB"/>
<path d="M64.7347 71.6572C63.5762 72.308 61.7205 72.2901 60.5942 71.6143C60.04 71.2818 59.7646 70.8563 59.7646 70.4272V70.9135C59.7646 71.339 60.0364 71.7681 60.5906 72.1006C61.7169 72.7728 63.5726 72.7943 64.7311 72.1435C65.3211 71.811 65.6178 71.3712 65.6178 70.9314V70.4451C65.6178 70.8849 65.3211 71.3247 64.7311 71.6572H64.7347Z" fill="#DBD6CB"/>
<path d="M64.7811 69.2533C64.4808 68.6025 64.4057 67.6121 64.3735 66.9292C64.3664 66.7468 64.3628 66.5573 64.3628 66.3535C64.3628 66.6038 64.1948 66.8505 63.8622 67.04C63.2079 67.4083 62.1567 67.3976 61.5202 67.015C61.2056 66.829 61.0518 66.5859 61.0518 66.3428C61.0518 66.4929 61.0447 66.6288 61.0411 66.7683C61.0161 67.5942 60.9446 68.4452 60.6335 69.2032C60.6264 69.2175 60.6192 69.2247 60.6121 69.239C60.0543 69.5679 59.7682 70.0006 59.7646 70.4296C59.7646 70.8551 60.04 71.2842 60.5942 71.6167C61.7205 72.2889 63.5762 72.3104 64.7347 71.6596C65.3246 71.3307 65.6214 70.8873 65.6214 70.4475C65.6214 69.929 65.2317 69.5214 64.7776 69.2533H64.7811Z" fill="url(#paint31_linear_644_39059)"/>
<path d="M60.709 65.7905V66.2303C60.709 66.5235 60.8949 66.8131 61.2739 67.042C62.0427 67.5032 63.312 67.5139 64.1022 67.0706C64.5062 66.8453 64.7064 66.545 64.71 66.241V65.8013L60.709 65.7905Z" fill="url(#paint32_linear_644_39059)"/>
<path d="M64.1408 64.9889C63.9477 64.8745 63.7225 64.7851 63.4829 64.7279L63.1289 64.6421C63.2577 64.6743 63.3828 64.7208 63.4865 64.7851L61.9562 64.7708C62.0563 64.7136 62.1707 64.6707 62.2958 64.6421L61.9419 64.7279C61.7166 64.7815 61.5021 64.8602 61.3161 64.9675C60.5224 65.4108 60.5045 66.1474 61.2768 66.6051C61.8453 66.9447 62.682 67.0413 63.4007 66.8911C63.6581 66.8375 63.8977 66.7517 64.1086 66.6337C64.5234 66.4013 64.7236 66.0902 64.7129 65.7791C64.7022 65.4966 64.5162 65.2142 64.148 64.9925L64.1408 64.9889Z" fill="url(#paint33_linear_644_39059)"/>
<path d="M64.8026 69.2687C65.0207 69.4868 65.1816 69.7586 65.1816 70.0804C65.1816 70.4808 64.9277 70.8813 64.4272 71.1852C63.4439 71.7787 61.8671 71.7609 60.9088 71.1459C60.4369 70.8455 60.2044 70.4558 60.2044 70.0661C60.2044 69.7872 60.3332 69.5118 60.5763 69.2651C60.0435 69.5905 59.7646 70.0088 59.7646 70.4308C59.7646 70.8563 60.04 71.2853 60.5942 71.6178C61.7205 72.2901 63.5762 72.3115 64.7347 71.6608C65.3246 71.3318 65.6214 70.8884 65.6214 70.4486C65.6214 69.9409 65.2424 69.5369 64.8026 69.2723V69.2687Z" fill="url(#paint34_linear_644_39059)"/>
<path d="M63.7168 65.4067C63.1412 65.7285 62.2258 65.7177 61.668 65.3852C61.3927 65.2207 61.2568 65.0098 61.2568 64.7988V65.5926C61.2568 65.8036 61.3891 66.0145 61.6644 66.179C62.2222 66.5115 63.1411 66.5222 63.7132 66.2004C64.0064 66.036 64.153 65.8179 64.153 65.5998V64.806C64.153 65.0241 64.0064 65.2422 63.7168 65.4067Z" fill="url(#paint35_linear_644_39059)"/>
<path d="M60.9678 64.4907V64.7982C60.9678 65.0521 61.1287 65.3059 61.4576 65.5026C62.1263 65.9031 63.2311 65.9138 63.9176 65.5276C64.268 65.331 64.4432 65.07 64.4468 64.8089V64.5014L60.9678 64.4907Z" fill="url(#paint36_linear_644_39059)"/>
<path d="M63.9563 63.793C63.2877 63.3925 62.1828 63.3818 61.4963 63.768C60.8062 64.1541 60.7919 64.7942 61.4606 65.1946C62.1292 65.5951 63.234 65.6058 63.9205 65.2196C64.6106 64.8335 64.6249 64.1935 63.9563 63.793Z" fill="url(#paint37_linear_644_39059)"/>
<path d="M63.7148 64.3197C63.132 64.6487 62.1952 64.638 61.6303 64.2983C61.3514 64.1302 61.2119 63.9157 61.2119 63.7012V64.1267C61.2119 64.3412 61.3478 64.5557 61.6267 64.7238C62.1952 65.0635 63.1284 65.0742 63.7112 64.7452C64.008 64.5772 64.1582 64.3555 64.1582 64.1338V63.7083C64.1582 63.93 64.008 64.1517 63.7112 64.3197H63.7148Z" fill="url(#paint38_linear_644_39059)"/>
<path d="M63.7466 63.1107C63.1781 62.7711 62.2448 62.7603 61.662 63.0893C61.0792 63.4182 61.0649 63.9581 61.6334 64.2978C62.2019 64.6375 63.1351 64.6482 63.718 64.3193C64.3008 63.9903 64.3151 63.4504 63.7466 63.1107Z" fill="url(#paint39_linear_644_39059)"/>
<path d="M64.1427 62.5676C64.1499 62.017 64.014 61.4127 63.7744 60.955C63.3382 60.1112 62.7661 59.8144 62.666 59.8323C62.6589 59.8323 61.8257 60.1756 61.4038 61.4556C60.6887 63.6331 62.3228 64.3911 63.399 63.8262C64.0354 63.4436 64.1356 62.8751 64.1391 62.5676H64.1427Z" fill="url(#paint40_radial_644_39059)"/>
<path d="M49.7995 21.3496V22.2828C49.7959 22.8871 50.1856 23.4914 50.9651 23.9562C52.5562 24.9073 55.1735 24.9359 56.8111 24.017C57.6442 23.5486 58.0626 22.93 58.0626 22.3043V21.3711L49.7959 21.3496H49.7995Z" fill="url(#paint41_linear_644_39059)"/>
<path d="M56.8978 19.6973L56.7941 19.6365C57.6129 20.1263 57.9848 20.7699 57.9132 21.3992C57.8525 21.9498 57.452 22.4898 56.7119 22.9009C56.3829 23.0869 56.0146 23.2299 55.6213 23.3372C54.1267 23.7376 52.2889 23.5731 51.0732 22.8437C49.5393 21.9248 49.5751 20.4624 51.1519 19.5757L51.0482 19.6329C49.4106 20.5518 49.3748 22.0678 50.966 23.0189C52.2245 23.7734 54.1303 23.945 55.6821 23.5302C56.0897 23.4194 56.4723 23.2692 56.8156 23.0797C57.5807 22.6507 57.9955 22.0929 58.0598 21.5208C58.1349 20.87 57.7488 20.2014 56.8978 19.6937V19.6973Z" fill="url(#paint42_linear_644_39059)"/>
<path d="M56.7929 19.1857C56.7929 19.1857 56.7607 19.1678 56.7428 19.1571L55.9991 18.728C55.9991 18.728 56.0241 18.7423 56.0349 18.7495L51.8944 18.7065L51.1542 19.1285C49.5738 20.0152 49.5381 21.4776 51.0756 22.3965C52.2913 23.1223 54.1255 23.2904 55.6201 22.8899C56.0134 22.7827 56.3853 22.6396 56.7142 22.4537C57.4544 22.039 57.8548 21.499 57.9156 20.9448C57.9835 20.3155 57.6117 19.6755 56.7965 19.1857H56.7929Z" fill="url(#paint43_linear_644_39059)"/>
<path d="M56.7158 22.4507C55.1354 23.3374 52.6111 23.3124 51.0771 22.3935C50.3227 21.943 49.9473 21.3602 49.9473 20.7773V21.2314C49.9473 21.8143 50.3191 22.3971 51.0736 22.8476C52.6075 23.7665 55.1354 23.7915 56.7122 22.9048C57.5131 22.4543 57.9172 21.8536 57.9207 21.2529V20.7988C57.9207 21.3995 57.5167 22.0002 56.7122 22.4507H56.7158Z" fill="url(#paint44_linear_644_39059)"/>
<path d="M55.9788 20.6597C54.8203 21.3104 52.9646 21.2925 51.8383 20.6168C51.2841 20.2842 51.0088 19.8588 51.0088 19.4297V19.916C51.0088 20.3415 51.2805 20.7705 51.8347 21.103C52.961 21.7752 54.8168 21.7967 55.9752 21.146C56.5652 20.8134 56.862 20.3736 56.862 19.9338V19.4476C56.862 19.8874 56.5652 20.3271 55.9752 20.6597H55.9788Z" fill="url(#paint45_linear_644_39059)"/>
<path d="M56.0253 18.2557C55.7249 17.605 55.6499 16.6145 55.6177 15.9316C55.6105 15.7493 55.6069 15.5597 55.6069 15.3559C55.6069 15.6062 55.4389 15.8529 55.1064 16.0424C54.452 16.4107 53.4008 16.4 52.7644 16.0174C52.4497 15.8315 52.296 15.5884 52.296 15.3452C52.296 15.4954 52.2888 15.6313 52.2853 15.7707C52.2602 16.5967 52.1887 17.4476 51.8777 18.2057C51.8705 18.22 51.8633 18.2271 51.8562 18.2414C51.2984 18.5704 51.0124 19.003 51.0088 19.4321C51.0088 19.8576 51.2841 20.2866 51.8383 20.6192C52.9646 21.2914 54.8203 21.3128 55.9788 20.6621C56.5688 20.3331 56.8655 19.8897 56.8655 19.4499C56.8655 18.9315 56.4758 18.5239 56.0217 18.2557H56.0253Z" fill="url(#paint46_linear_644_39059)"/>
<path d="M51.2666 14.6274V14.8098C51.2666 15.2031 51.5169 15.5928 52.0246 15.8968C53.058 16.5153 54.7599 16.5332 55.8219 15.9361C56.3618 15.6322 56.6335 15.2281 56.6371 14.8241V14.6417L51.2666 14.6274Z" fill="url(#paint47_linear_644_39059)"/>
<path d="M55.8796 13.5545C55.6186 13.4007 55.3182 13.2827 54.9964 13.2041L54.5209 13.0861C54.6961 13.129 54.8606 13.1934 55 13.2756L52.9441 13.2541C53.0799 13.1791 53.2337 13.1219 53.3982 13.0825L52.9226 13.1969C52.6187 13.2684 52.3326 13.3757 52.0824 13.5152C51.0204 14.1123 50.9954 15.0956 52.0287 15.7141C52.7903 16.1682 53.913 16.2969 54.8784 16.0967C55.2217 16.0252 55.5471 15.9108 55.826 15.7535C56.3802 15.4424 56.6519 15.024 56.6376 14.6093C56.6233 14.2303 56.373 13.8513 55.8796 13.5545Z" fill="url(#paint48_linear_644_39059)"/>
<path d="M52.5039 12.918V13.8548C52.5039 14.0657 52.6362 14.2803 52.9115 14.4447C53.4729 14.7808 54.3918 14.788 54.9675 14.4662C55.2607 14.3017 55.4073 14.0836 55.4073 13.8655V12.9287L52.5039 12.9215V12.918Z" fill="url(#paint49_linear_644_39059)"/>
<path d="M52.0094 12.6572L52.7031 13.3437C52.7603 13.4009 52.8318 13.4546 52.914 13.5046C53.4718 13.8407 54.3943 13.8479 54.97 13.5261C55.0665 13.4725 55.1452 13.4152 55.2096 13.3509L55.9068 12.668L52.0059 12.6572H52.0094Z" fill="url(#paint50_linear_644_39059)"/>
<path d="M56.1052 11.5877L55.7226 10.9263L52.2007 10.9155L51.8145 11.5734C51.5499 12.0239 51.7215 12.5424 52.3365 12.9071C53.2054 13.4291 54.6392 13.4434 55.5331 12.9393C56.1767 12.5782 56.3698 12.049 56.1016 11.5842L56.1052 11.5877Z" fill="url(#paint51_linear_644_39059)"/>
<path d="M55.2969 10.5185C54.5818 10.0895 53.4054 10.0788 52.6689 10.4935C51.9323 10.9047 51.918 11.5876 52.6331 12.0167C53.3482 12.4458 54.5246 12.4565 55.2611 12.0417C55.9977 11.6305 56.012 10.9476 55.2969 10.5185Z" fill="#7272D9"/>
<path d="M53.6733 10.5801L53.1191 10.6981V11.1271H53.9344L53.6733 10.5801Z" fill="#313182"/>
<path d="M54.9171 10.7303C54.8742 10.7053 54.8312 10.6803 54.7848 10.6588L54.463 10.5122C54.4916 10.5265 54.5166 10.5408 54.5452 10.5551C54.6989 10.6445 54.774 10.7625 54.774 10.8805C54.774 11.0021 54.6918 11.1236 54.5309 11.2166C54.4558 11.2595 54.37 11.2917 54.277 11.3131C53.9803 11.3846 53.6263 11.3489 53.3867 11.2059C53.0757 11.0199 53.0828 10.7232 53.4046 10.5444C53.4261 10.5337 53.4475 10.5194 53.4725 10.5122L53.1507 10.6588C53.1114 10.6767 53.0757 10.6946 53.0399 10.716C52.5107 11.0128 52.5 11.4991 53.0149 11.8066C53.4082 12.0425 53.991 12.0998 54.4808 11.9853C54.631 11.9496 54.774 11.8959 54.8992 11.828C55.1673 11.6778 55.3032 11.474 55.3032 11.2738C55.3032 11.0807 55.1781 10.8876 54.9278 10.7375L54.9171 10.7303Z" fill="url(#paint52_linear_644_39059)"/>
<path d="M53.3997 10.5444C53.4211 10.5337 53.4426 10.5194 53.4676 10.5122L53.1458 10.6588C53.1065 10.6767 53.0707 10.6946 53.0349 10.716C52.6452 10.9341 52.5379 11.2595 52.7167 11.5384L53.2781 11.1272C53.0814 10.9448 53.1243 10.7017 53.3997 10.548V10.5444Z" fill="#313182"/>
<path d="M56.0467 18.2712C56.2648 18.4893 56.4258 18.761 56.4258 19.0828C56.4258 19.4833 56.1719 19.8837 55.6713 20.1876C54.688 20.7812 53.1112 20.7633 52.153 20.1483C51.681 19.848 51.4486 19.4582 51.4486 19.0685C51.4486 18.7896 51.5773 18.5143 51.8204 18.2676C51.2877 18.593 51.0088 19.0113 51.0088 19.4332C51.0088 19.8587 51.2841 20.2878 51.8383 20.6203C52.9646 21.2925 54.8203 21.3139 55.9788 20.6632C56.5688 20.3342 56.8655 19.8909 56.8655 19.4511C56.8655 18.9434 56.4865 18.5393 56.0467 18.2747V18.2712Z" fill="url(#paint53_linear_644_39059)"/>
<path d="M53.9352 11.1267L53.5026 10.8764L53.499 10.2686L53.9352 10.5188V11.1267Z" fill="#313181"/>
<path d="M54.4567 9.61443L54.0205 9.36414L54.5497 9.05664L54.9823 9.3105L54.4567 9.61443Z" fill="#7272D9"/>
<path d="M53.403 10.8262L52.9668 10.5724V9.97168L53.3994 10.222L53.403 10.8262Z" fill="#313181"/>
<path d="M53.3994 10.2223L52.9668 9.97205L53.496 9.66455L53.9286 9.91841L53.3994 10.2223Z" fill="#7272D9"/>
<path d="M53.9304 9.9177L53.4977 9.66384L53.4941 9.05957L53.9304 9.30986V9.9177Z" fill="#313181"/>
<path d="M53.9304 9.31007L53.4941 9.05978L54.0197 8.75586L54.4524 9.00972L53.9304 9.31007Z" fill="#7272D9"/>
<path d="M54.4536 9.00977L54.4571 9.61403L54.9827 9.31011L54.9863 9.91438L54.4571 10.2183L54.4607 10.8261L53.9351 11.1265V10.5186L53.4059 10.8261L53.4023 10.2219L53.9315 9.91796V9.31011L54.4536 9.00977Z" fill="#4C4CA7"/>
<path d="M50.1807 33.6899V33.9188C50.1807 34.4658 50.5311 35.0129 51.2426 35.4384C52.6871 36.3001 55.0613 36.3251 56.5451 35.492C57.2996 35.0701 57.6786 34.5052 57.6822 33.9402V33.7114L50.1807 33.6899Z" fill="url(#paint54_linear_644_39059)"/>
<path d="M56.51 31.949C55.9773 31.6272 55.3337 31.4341 54.6579 31.3555L51.4792 31.8918C50.7248 32.2958 50.2063 32.9037 50.1777 33.6939C50.1777 34.2409 50.5281 34.788 51.2397 35.2135C52.6842 36.0752 55.0584 36.1002 56.5422 35.2671C57.2967 34.8452 57.6757 34.2803 57.6792 33.6939C57.6506 32.9931 57.2573 32.4067 56.5065 31.9526L56.51 31.949Z" fill="#6767CE"/>
<path d="M56.4318 31.9239C55.091 31.123 52.8849 31.1015 51.5047 31.8738C50.1246 32.6497 50.0924 33.9262 51.4332 34.7271C52.059 35.1026 52.8778 35.3064 53.7109 35.3385C54.6584 35.3743 55.6274 35.1884 56.3603 34.7772C56.4783 34.7092 56.5892 34.6413 56.6857 34.5662C57.7334 33.7868 57.6547 32.6569 56.4283 31.9239H56.4318ZM56.5284 34.3982C56.4354 34.4661 56.3317 34.534 56.2209 34.5948C55.5308 34.981 54.619 35.1598 53.7252 35.124C52.9421 35.0954 52.1734 34.9023 51.5798 34.5483C50.3177 33.7939 50.3463 32.5925 51.6442 31.8631C52.9421 31.1337 55.0195 31.1551 56.2817 31.9096C57.4366 32.5997 57.5117 33.6616 56.5248 34.3982H56.5284Z" fill="url(#paint55_linear_644_39059)"/>
<path d="M56.5801 31.0483L50.9271 31.3058C49.8187 32.2569 49.926 33.6406 51.3526 34.5059C52.318 35.0923 54.4669 35.5893 56.4299 34.5595C56.7338 34.3772 57.6635 33.8265 57.6813 32.7575C57.6885 32.2891 57.4883 31.6347 56.5765 31.0483H56.5801Z" fill="url(#paint56_linear_644_39059)"/>
<path d="M56.4936 30.9876C56.3791 30.9197 56.2576 30.8553 56.1289 30.7981L55.3029 30.4227C55.3816 30.4584 52.5104 30.4441 52.5748 30.4155L51.7452 30.7874C51.6415 30.8339 51.5414 30.8839 51.4449 30.9376C50.0325 31.7313 50.0004 33.04 51.3734 33.8624C51.9526 34.2092 52.6892 34.413 53.4508 34.4738C54.502 34.5596 55.6032 34.3737 56.422 33.9124C56.5973 33.8159 56.751 33.7086 56.8833 33.5978C57.8237 32.804 57.7021 31.7099 56.4971 30.9876H56.4936Z" fill="#6767CE"/>
<path d="M51.7178 31.292V31.4279C51.7178 31.7532 51.9252 32.075 52.3471 32.3289C53.2016 32.8402 54.6068 32.8545 55.4864 32.3611C55.9334 32.1108 56.1586 31.7783 56.1586 31.4422V31.3063L51.7178 31.2956V31.292Z" fill="url(#paint57_linear_644_39059)"/>
<path d="M55.4263 30.1656L52.505 30.1299C52.1475 30.3265 51.7327 30.6841 51.7148 31.2919C51.7148 31.6173 51.9222 31.9391 52.3441 32.193C53.1987 32.7043 54.6039 32.7186 55.4835 32.2252C55.9304 31.9749 56.1557 31.6423 56.1557 31.2991C56.145 30.8343 55.8982 30.4517 55.4227 30.1656H55.4263Z" fill="url(#paint58_linear_644_39059)"/>
<path d="M55.4121 30.1579L55.2441 30.0792C55.8591 30.4475 55.9234 31.0053 55.4407 31.4093C55.3728 31.4665 55.2941 31.5202 55.2047 31.5702C54.7864 31.8062 54.225 31.8992 53.6887 31.8563C53.299 31.8241 52.9235 31.7204 52.6304 31.5452C51.9295 31.1269 51.9474 30.4582 52.6661 30.0542L52.5016 30.1293C51.6864 30.587 51.6685 31.3414 52.4587 31.8134C52.7913 32.0136 53.2167 32.1316 53.6565 32.1674C54.2608 32.2174 54.8973 32.1101 55.3657 31.8456C55.4658 31.7883 55.5552 31.7276 55.6302 31.6632C56.1701 31.2055 56.1022 30.5762 55.405 30.1615L55.4121 30.1579Z" fill="#6767CE"/>
<path d="M55.7215 30.6023L55.2245 29.1971L52.6573 29.1899L52.1531 30.5951C52.0351 30.9277 52.1925 31.2852 52.6287 31.5462C53.3295 31.9646 54.4808 31.9753 55.2031 31.5713C55.6643 31.3102 55.8395 30.9455 55.718 30.6059L55.7215 30.6023Z" fill="url(#paint59_linear_644_39059)"/>
<path d="M56.0446 28.1913C55.8158 27.7444 55.3224 27.4619 54.7503 27.3296C54.997 27.3904 55.2294 27.4798 55.4296 27.6013C56.227 28.0769 56.2091 28.8385 55.3867 29.2997C54.5679 29.761 53.2557 29.7467 52.4584 29.2711C51.6896 28.8099 51.686 28.0876 52.4262 27.6264C52.108 27.8123 51.8577 28.0626 51.7647 28.388C51.3642 29.7645 53.7241 30.6477 55.4261 29.7574C55.6084 29.6501 56.1555 29.3212 56.1662 28.6847C56.1662 28.5739 56.1483 28.3987 56.0446 28.202V28.1913Z" fill="url(#paint60_linear_644_39059)"/>
<path d="M55.4282 27.5977C54.6308 27.1222 53.3186 27.1079 52.4998 27.5691C51.681 28.0304 51.6596 28.7884 52.4569 29.2675C52.8037 29.4749 53.2471 29.5929 53.7084 29.6251C54.3055 29.6644 54.924 29.5571 55.3889 29.2961C55.4854 29.2425 55.5676 29.1853 55.6427 29.1245C56.2041 28.6632 56.1362 28.0196 55.4318 27.5977H55.4282Z" fill="#6767CE"/>
<path d="M55.4282 27.5977C54.6308 27.1222 53.3186 27.1079 52.4998 27.5691C52.1744 27.7515 51.9813 27.9839 51.9062 28.2234C51.9349 28.2413 51.9563 28.2628 51.9849 28.2806C52.3317 28.488 52.7751 28.606 53.2364 28.6382C53.8335 28.6775 54.452 28.5703 54.9169 28.3093C55.0134 28.2556 55.0956 28.1984 55.1707 28.1376C55.3495 27.991 55.4568 27.823 55.5068 27.6514C55.4782 27.6335 55.4603 27.612 55.4282 27.5977Z" fill="#4848A0"/>
<path d="M55.9731 26.5363C55.9731 26.336 55.9409 25.9356 55.7049 25.5208C54.8074 23.9619 52.5262 24.2372 52.0078 25.9642C51.5358 27.5339 53.1806 29.1822 54.9004 28.3169C55.494 28.0166 55.9659 27.3408 55.9731 26.5399V26.5363Z" fill="url(#paint61_radial_644_39059)"/>
<path d="M55.3439 25.8102C55.1866 26.0855 54.7826 26.1498 54.4429 25.9532C54.1032 25.7565 53.9602 25.3775 54.1175 25.1022C54.2748 24.8269 54.6789 24.7625 55.0186 24.9592C55.3582 25.1558 55.5013 25.5348 55.3439 25.8102Z" fill="#A9A9FF"/>
<path d="M78.986 61.3628V62.296C78.9824 62.9003 79.3722 63.5045 80.1516 63.9694C81.7427 64.9205 84.3601 64.9455 85.9977 64.0302C86.8308 63.5618 87.2491 62.9432 87.2491 62.3175V61.3842L78.9824 61.3628H78.986Z" fill="#DBD6CB"/>
<path d="M86.0843 59.7104L85.9806 59.6497C86.7994 60.1395 87.1713 60.7831 87.0998 61.4124C87.039 61.963 86.6385 62.5029 85.8984 62.9141C85.5694 63.1001 85.2012 63.2431 84.8078 63.3503C83.3133 63.7508 81.4754 63.5863 80.2597 62.8569C78.7258 61.938 78.7616 60.4756 80.3384 59.5889L80.2347 59.6461C78.5971 60.565 78.5614 62.081 80.1525 63.0321C81.4111 63.7866 83.3168 63.9582 84.8686 63.5434C85.2762 63.4326 85.6588 63.2824 86.0021 63.0929C86.7672 62.6638 87.182 62.1061 87.2464 61.534C87.3215 60.8832 86.9353 60.2146 86.0843 59.7069V59.7104Z" fill="url(#paint62_linear_644_39059)"/>
<path d="M85.9843 59.1954C85.9843 59.1954 85.9521 59.1776 85.9342 59.1668L85.1905 58.7378C85.1905 58.7378 85.2155 58.7521 85.2263 58.7592L81.0858 58.7163L80.3456 59.1382C78.7653 60.025 78.7295 61.4874 80.267 62.4063C81.4827 63.1321 83.3169 63.3002 84.8115 62.8997C85.2048 62.7924 85.5767 62.6494 85.9056 62.4635C86.6458 62.0487 87.0462 61.5088 87.107 60.9546C87.1749 60.3253 86.8031 59.6853 85.9879 59.1954H85.9843Z" fill="url(#paint63_linear_644_39059)"/>
<path d="M85.9023 62.4639C84.3219 63.3506 81.7976 63.3256 80.2637 62.4067C79.5092 61.9562 79.1338 61.3733 79.1338 60.7905V61.2446C79.1338 61.8274 79.5056 62.4103 80.2601 62.8608C81.794 63.7797 84.3219 63.8047 85.8987 62.918C86.6997 62.4675 87.1037 61.8668 87.1073 61.2661V60.812C87.1073 61.4127 86.7032 62.0134 85.8987 62.4639H85.9023Z" fill="#DBD6CB"/>
<path d="M85.5627 61.1339C84.179 61.9098 81.9657 61.8884 80.6213 61.0839C79.9598 60.687 79.6309 60.1793 79.6309 59.668V60.2472C79.6309 60.7549 79.9562 61.2662 80.6177 61.6631C81.9621 62.4676 84.1754 62.4891 85.5591 61.7132C86.2635 61.3199 86.6175 60.7943 86.6175 60.2651V59.6858C86.6175 60.2115 86.2635 60.7371 85.5591 61.1304L85.5627 61.1339Z" fill="#DBD6CB"/>
<path d="M85.6045 58.2694C84.2386 57.4792 82.0218 57.4792 80.6523 58.2694C79.2865 59.0596 79.2865 60.3396 80.6523 61.1298C82.0182 61.92 84.235 61.92 85.6045 61.1298C86.9703 60.3396 86.9703 59.0596 85.6045 58.2694Z" fill="url(#paint64_linear_644_39059)"/>
<path d="M81.566 57.8896C81.2371 57.9862 80.926 58.1078 80.6543 58.2687C79.2884 59.0589 79.2884 60.3389 80.6543 61.1291C80.808 61.2185 80.9725 61.2936 81.1477 61.3651H84.0511L81.5696 57.8932L81.566 57.8896Z" fill="#CBC5BA"/>
<path d="M86.0885 59.3989L84.6261 60.2499C84.6905 60.4001 84.6833 60.5431 84.6011 60.5967C84.3401 60.7684 84.122 60.9507 84.0469 61.3619L85.5093 60.5109C85.5844 60.0997 85.8025 59.9174 86.0635 59.7458C86.1421 59.6921 86.1529 59.5491 86.0885 59.3989Z" fill="#DBD6CB"/>
<path d="M86.0871 59.3991C86.0871 59.3991 86.0799 59.3812 86.0764 59.3741C85.8404 58.8914 85.3291 57.8473 84.9179 56.9105C84.6962 56.41 84.5031 55.9416 84.3923 55.6055C84.2778 55.2622 84.2564 55.0119 84.2993 54.8617C84.3065 54.8367 84.3208 54.8188 84.3386 54.8081L82.8762 55.6591C82.8762 55.6591 82.8441 55.6877 82.8369 55.7127C82.794 55.8665 82.8154 56.1132 82.9299 56.4564C83.0407 56.7925 83.2338 57.2609 83.4555 57.7615C83.8702 58.6983 84.378 59.7424 84.6139 60.2251C84.6175 60.2322 84.6211 60.2429 84.6247 60.2501C84.6569 60.3252 84.6712 60.4003 84.6676 60.4611L86.1264 59.6172C86.1336 59.5529 86.1193 59.4778 86.0871 59.3991Z" fill="url(#paint65_linear_644_39059)"/>
<path d="M86.6124 56.5352L85.15 57.3861L85.1607 57.5506C85.1643 57.6221 85.1428 57.6722 85.1035 57.6936L86.5659 56.8427C86.6052 56.8212 86.6267 56.7676 86.6231 56.6996L86.6124 56.5352Z" fill="#ADA49B"/>
<path d="M82.7329 51.229L81.2705 52.08C81.7246 51.8154 82.218 51.9298 82.6328 52.1479L84.0952 51.2969C83.6804 51.0788 83.187 50.9644 82.7329 51.229Z" fill="#DBD6CB"/>
<path d="M83.9277 53.3524L85.3901 52.5015C85.6762 52.8769 85.8335 53.1415 85.9265 53.356L84.4641 54.207C84.3675 53.9925 84.2138 53.7279 83.9277 53.3524Z" fill="#F8F6EC"/>
<path d="M84.4648 54.2069L85.9272 53.356C86.0989 53.7421 86.0738 53.9709 86.2598 54.3929L84.7974 55.2438C84.6114 54.8219 84.6365 54.5931 84.4648 54.2069Z" fill="#F1EAE0"/>
<path d="M84.7969 55.2445L86.2593 54.3936C86.3737 54.651 86.5632 54.9764 86.9208 55.4519C86.9994 55.5592 87.0566 55.6343 87.0924 55.7165L85.63 56.5675C85.5942 56.4853 85.537 56.4066 85.4583 56.3029C85.1008 55.8273 84.9077 55.4984 84.7969 55.2445Z" fill="#F8F6EC"/>
<path d="M87.0958 55.7231L85.6334 56.5741C85.6763 56.6742 85.6942 56.7815 85.6942 56.9603C85.6942 57.3536 85.6513 57.5181 85.5762 57.5646L87.0386 56.7136C87.1172 56.6671 87.1566 56.5026 87.1566 56.1093C87.1566 55.9305 87.1423 55.8233 87.0958 55.7231Z" fill="#DBD6CB"/>
<path d="M82.6338 52.1474L84.0962 51.2964C84.7684 51.4323 85.5085 51.5359 85.7982 51.704L84.3357 52.555C84.0461 52.3869 83.306 52.2832 82.6338 52.1474Z" fill="#EAE6DA"/>
<path d="M85.9118 51.8123C85.9118 51.8123 85.8975 51.7873 85.8868 51.7766C85.8653 51.7516 85.8331 51.7301 85.7974 51.7051L84.335 52.5561C84.3743 52.5775 84.4029 52.6025 84.4243 52.6276C84.4351 52.6383 84.4422 52.649 84.4494 52.6633C84.4494 52.6705 85.9154 51.8231 85.9154 51.8231C85.9154 51.8231 85.9154 51.8195 85.9154 51.8159L85.9118 51.8123Z" fill="#F8F6EC"/>
<path d="M84.4533 52.6708L85.9157 51.8198C86.0123 52.0379 85.4724 52.0916 85.3901 52.5063L83.9277 53.3573C84.01 52.9461 84.5499 52.8889 84.4533 52.6708Z" fill="#DBD6CB"/>
<path d="M85.4615 56.3055C84.1779 54.6035 85.0432 54.8073 83.9276 53.352C84.0098 52.9373 84.5605 52.8837 84.4496 52.6584C84.4317 52.6191 84.3924 52.5869 84.3352 52.5547C84.0456 52.3866 83.3054 52.283 82.6332 52.1471C82.0111 51.8181 81.2066 51.7252 80.6345 52.7943C80.3199 53.3806 80.184 54.1494 80.1983 55.0075C80.2126 55.8514 80.2877 57.2565 80.5451 59.3375L84.0456 61.3577C84.1207 60.9465 84.3388 60.7642 84.5998 60.5925C84.6856 60.5353 84.6892 60.378 84.6141 60.2207C84.2494 59.4805 83.2482 57.4174 82.93 56.452C82.8156 56.1088 82.7941 55.8585 82.837 55.7083C82.8513 55.6547 82.9014 55.6332 82.955 55.6511C83.0194 55.6726 83.1159 55.7119 83.2303 55.7763C83.5414 55.955 83.9955 56.3412 84.3316 57.1386C84.3638 57.2172 84.396 57.303 84.4496 57.371C84.4961 57.4317 84.5748 57.4925 84.6641 57.5426C84.7714 57.6034 84.893 57.6534 84.9967 57.6928C85.0968 57.7285 85.1683 57.6642 85.1612 57.5426L85.1504 57.3781C85.2255 57.4246 85.2934 57.4675 85.3542 57.5033C85.5723 57.6284 85.6903 57.6141 85.6903 56.9491C85.6903 56.6201 85.6331 56.5343 85.4579 56.2983L85.4615 56.3055Z" fill="url(#paint66_linear_644_39059)"/>
<defs>
<linearGradient id="paint0_linear_644_39059" x1="73.2627" y1="57.1022" x2="144.93" y2="57.3951" gradientUnits="userSpaceOnUse">
<stop stop-color="#67E4FF"/>
<stop offset="1" stop-color="#009ED0"/>
</linearGradient>
<linearGradient id="paint1_linear_644_39059" x1="0.0351563" y1="57.1022" x2="72.2331" y2="57.3995" gradientUnits="userSpaceOnUse">
<stop stop-color="#67E4FF"/>
<stop offset="1" stop-color="#009ED0"/>
</linearGradient>
<linearGradient id="paint2_linear_644_39059" x1="4.45801" y1="5.69141" x2="72.5809" y2="123.308" gradientUnits="userSpaceOnUse">
<stop stop-color="#201F28"/>
<stop offset="1" stop-color="#352E5E"/>
</linearGradient>
<linearGradient id="paint3_linear_644_39059" x1="80.4548" y1="40.6551" x2="106.496" y2="40.6551" gradientUnits="userSpaceOnUse">
<stop stop-color="#EEE8DE"/>
<stop offset="0.47" stop-color="#F5F1E8"/>
<stop offset="1" stop-color="#F9F7EE"/>
</linearGradient>
<linearGradient id="paint4_linear_644_39059" x1="80.926" y1="38.2458" x2="106.033" y2="38.2458" gradientUnits="userSpaceOnUse">
<stop stop-color="#EEE8DE"/>
<stop offset="0.47" stop-color="#F5F1E8"/>
<stop offset="1" stop-color="#F9F7EE"/>
</linearGradient>
<linearGradient id="paint5_linear_644_39059" x1="88.2903" y1="21.9772" x2="97.5561" y2="38.2571" gradientUnits="userSpaceOnUse">
<stop stop-color="#CAC6BA"/>
<stop offset="1" stop-color="#EEE8DE"/>
</linearGradient>
<linearGradient id="paint6_linear_644_39059" x1="85.082" y1="21.2339" x2="101.992" y2="21.2339" gradientUnits="userSpaceOnUse">
<stop stop-color="#D6D2C7"/>
<stop offset="1" stop-color="#F3ECE2"/>
</linearGradient>
<linearGradient id="paint7_linear_644_39059" x1="85.0813" y1="18.5093" x2="101.992" y2="18.5093" gradientUnits="userSpaceOnUse">
<stop stop-color="#EEE8DE"/>
<stop offset="0.47" stop-color="#F5F1E8"/>
<stop offset="1" stop-color="#F9F7EE"/>
</linearGradient>
<linearGradient id="paint8_linear_644_39059" x1="88.9653" y1="15.9196" x2="98.1298" y2="15.9196" gradientUnits="userSpaceOnUse">
<stop stop-color="#CAC6BA"/>
<stop offset="1" stop-color="#EEE8DE"/>
</linearGradient>
<linearGradient id="paint9_linear_644_39059" x1="87.4116" y1="14.0287" x2="99.6947" y2="14.0287" gradientUnits="userSpaceOnUse">
<stop stop-color="#C4BCB1"/>
<stop offset="1" stop-color="#CFCAC0"/>
</linearGradient>
<linearGradient id="paint10_linear_644_39059" x1="86.4439" y1="10.5719" x2="100.686" y2="10.5719" gradientUnits="userSpaceOnUse">
<stop stop-color="#D6D2C7"/>
<stop offset="1" stop-color="#F3ECE2"/>
</linearGradient>
<linearGradient id="paint11_linear_644_39059" x1="87.7162" y1="7.90393" x2="99.4139" y2="7.90393" gradientUnits="userSpaceOnUse">
<stop stop-color="#EEE8DE"/>
<stop offset="0.47" stop-color="#F5F1E8"/>
<stop offset="1" stop-color="#F9F7EE"/>
</linearGradient>
<linearGradient id="paint12_linear_644_39059" x1="89.3704" y1="7.92592" x2="97.7581" y2="7.92592" gradientUnits="userSpaceOnUse">
<stop stop-color="#D6D2C7"/>
<stop offset="1" stop-color="#F3ECE2"/>
</linearGradient>
<linearGradient id="paint13_linear_644_39059" x1="84.4506" y1="34.4624" x2="102.048" y2="34.4624" gradientUnits="userSpaceOnUse">
<stop stop-color="#EEE8DE"/>
<stop offset="0.47" stop-color="#F5F1E8"/>
<stop offset="1" stop-color="#F9F7EE"/>
</linearGradient>
<linearGradient id="paint14_linear_644_39059" x1="93.75" y1="1.82348" x2="96.7786" y2="1.82348" gradientUnits="userSpaceOnUse">
<stop stop-color="#EEE8DE"/>
<stop offset="0.47" stop-color="#F5F1E8"/>
<stop offset="1" stop-color="#F9F7EE"/>
</linearGradient>
<linearGradient id="paint15_linear_644_39059" x1="90.4395" y1="3.73754" x2="93.468" y2="3.73754" gradientUnits="userSpaceOnUse">
<stop stop-color="#EEE8DE"/>
<stop offset="0.47" stop-color="#F5F1E8"/>
<stop offset="1" stop-color="#F9F7EE"/>
</linearGradient>
<linearGradient id="paint16_linear_644_39059" x1="92.0938" y1="0.878162" x2="95.111" y2="0.878162" gradientUnits="userSpaceOnUse">
<stop stop-color="#EEE8DE"/>
<stop offset="0.47" stop-color="#F5F1E8"/>
<stop offset="1" stop-color="#F9F7EE"/>
</linearGradient>
<linearGradient id="paint17_linear_644_39059" x1="60.0146" y1="41.0484" x2="67.5162" y2="41.0484" gradientUnits="userSpaceOnUse">
<stop stop-color="#D6D2C7"/>
<stop offset="1" stop-color="#F3ECE2"/>
</linearGradient>
<linearGradient id="paint18_linear_644_39059" x1="60.0153" y1="39.7646" x2="67.5168" y2="39.7646" gradientUnits="userSpaceOnUse">
<stop stop-color="#EEE8DE"/>
<stop offset="0.47" stop-color="#F5F1E8"/>
<stop offset="1" stop-color="#F9F7EE"/>
</linearGradient>
<linearGradient id="paint19_linear_644_39059" x1="60.2839" y1="39.4754" x2="67.2527" y2="39.4754" gradientUnits="userSpaceOnUse">
<stop stop-color="#CAC6BA"/>
<stop offset="1" stop-color="#EEE8DE"/>
</linearGradient>
<linearGradient id="paint20_linear_644_39059" x1="60.0158" y1="39.2545" x2="67.5209" y2="39.2545" gradientUnits="userSpaceOnUse">
<stop stop-color="#D6D2C7"/>
<stop offset="1" stop-color="#F3ECE2"/>
</linearGradient>
<linearGradient id="paint21_linear_644_39059" x1="60.1984" y1="38.603" x2="67.3388" y2="38.603" gradientUnits="userSpaceOnUse">
<stop stop-color="#EEE8DE"/>
<stop offset="0.47" stop-color="#F5F1E8"/>
<stop offset="1" stop-color="#F9F7EE"/>
</linearGradient>
<linearGradient id="paint22_linear_644_39059" x1="61.5537" y1="38.1565" x2="65.9945" y2="38.1565" gradientUnits="userSpaceOnUse">
<stop stop-color="#CAC6BA"/>
<stop offset="1" stop-color="#EEE8DE"/>
</linearGradient>
<linearGradient id="paint23_linear_644_39059" x1="61.5534" y1="37.5052" x2="65.9942" y2="37.5052" gradientUnits="userSpaceOnUse">
<stop stop-color="#D6D2C7"/>
<stop offset="1" stop-color="#F3ECE2"/>
</linearGradient>
<linearGradient id="paint24_linear_644_39059" x1="61.718" y1="37.262" x2="65.8299" y2="37.262" gradientUnits="userSpaceOnUse">
<stop stop-color="#EEE8DE"/>
<stop offset="0.47" stop-color="#F5F1E8"/>
<stop offset="1" stop-color="#F9F7EE"/>
</linearGradient>
<linearGradient id="paint25_linear_644_39059" x1="61.9533" y1="36.6766" x2="65.5932" y2="36.6766" gradientUnits="userSpaceOnUse">
<stop stop-color="#CAC6BA"/>
<stop offset="1" stop-color="#EEE8DE"/>
</linearGradient>
<linearGradient id="paint26_linear_644_39059" x1="61.5587" y1="34.8673" x2="66.0031" y2="34.8673" gradientUnits="userSpaceOnUse">
<stop stop-color="#D6D2C7"/>
<stop offset="1" stop-color="#F3ECE2"/>
</linearGradient>
<linearGradient id="paint27_linear_644_39059" x1="61.7133" y1="34.5812" x2="65.8538" y2="34.5812" gradientUnits="userSpaceOnUse">
<stop stop-color="#EEE8DE"/>
<stop offset="0.47" stop-color="#F5F1E8"/>
<stop offset="1" stop-color="#F9F7EE"/>
</linearGradient>
<radialGradient id="paint28_radial_644_39059" cx="0" cy="0" r="1" gradientUnits="userSpaceOnUse" gradientTransform="translate(64.7 31.1589) scale(3.89377 3.89378)">
<stop stop-color="#F9F7EE"/>
<stop offset="0.45" stop-color="#F6F3EA"/>
<stop offset="0.84" stop-color="#EEEAE0"/>
<stop offset="1" stop-color="#E9E4D9"/>
</radialGradient>
<linearGradient id="paint29_linear_644_39059" x1="58.5562" y1="72.6649" x2="66.8229" y2="72.6649" gradientUnits="userSpaceOnUse">
<stop stop-color="#EEE8DE"/>
<stop offset="0.47" stop-color="#F5F1E8"/>
<stop offset="1" stop-color="#F9F7EE"/>
</linearGradient>
<linearGradient id="paint30_linear_644_39059" x1="58.7016" y1="71.8995" x2="66.6786" y2="71.8995" gradientUnits="userSpaceOnUse">
<stop stop-color="#EEE8DE"/>
<stop offset="0.47" stop-color="#F5F1E8"/>
<stop offset="1" stop-color="#F9F7EE"/>
</linearGradient>
<linearGradient id="paint31_linear_644_39059" x1="61.0411" y1="66.7325" x2="63.9838" y2="71.9028" gradientUnits="userSpaceOnUse">
<stop stop-color="#CAC6BA"/>
<stop offset="1" stop-color="#EEE8DE"/>
</linearGradient>
<linearGradient id="paint32_linear_644_39059" x1="60.7054" y1="66.5915" x2="64.71" y2="66.5915" gradientUnits="userSpaceOnUse">
<stop stop-color="#D6D2C7"/>
<stop offset="1" stop-color="#F3ECE2"/>
</linearGradient>
<linearGradient id="paint33_linear_644_39059" x1="60.7083" y1="65.7934" x2="64.7093" y2="65.7934" gradientUnits="userSpaceOnUse">
<stop stop-color="#EEE8DE"/>
<stop offset="0.47" stop-color="#F5F1E8"/>
<stop offset="1" stop-color="#F9F7EE"/>
</linearGradient>
<linearGradient id="paint34_linear_644_39059" x1="59.8219" y1="70.6989" x2="65.414" y2="70.6989" gradientUnits="userSpaceOnUse">
<stop stop-color="#EEE8DE"/>
<stop offset="0.47" stop-color="#F5F1E8"/>
<stop offset="1" stop-color="#F9F7EE"/>
</linearGradient>
<linearGradient id="paint35_linear_644_39059" x1="61.2533" y1="65.6176" x2="64.1566" y2="65.6176" gradientUnits="userSpaceOnUse">
<stop stop-color="#CAC6BA"/>
<stop offset="1" stop-color="#EEE8DE"/>
</linearGradient>
<linearGradient id="paint36_linear_644_39059" x1="60.9678" y1="65.1486" x2="64.4468" y2="65.1486" gradientUnits="userSpaceOnUse">
<stop stop-color="#D6D2C7"/>
<stop offset="1" stop-color="#F3ECE2"/>
</linearGradient>
<linearGradient id="paint37_linear_644_39059" x1="60.9671" y1="64.4938" x2="64.4461" y2="64.4938" gradientUnits="userSpaceOnUse">
<stop stop-color="#EEE8DE"/>
<stop offset="0.47" stop-color="#F5F1E8"/>
<stop offset="1" stop-color="#F9F7EE"/>
</linearGradient>
<linearGradient id="paint38_linear_644_39059" x1="61.2119" y1="64.3448" x2="64.1617" y2="64.3448" gradientUnits="userSpaceOnUse">
<stop stop-color="#D6D2C7"/>
<stop offset="1" stop-color="#F3ECE2"/>
</linearGradient>
<linearGradient id="paint39_linear_644_39059" x1="61.2115" y1="63.7043" x2="64.1613" y2="63.7043" gradientUnits="userSpaceOnUse">
<stop stop-color="#EEE8DE"/>
<stop offset="0.47" stop-color="#F5F1E8"/>
<stop offset="1" stop-color="#F9F7EE"/>
</linearGradient>
<radialGradient id="paint40_radial_644_39059" cx="0" cy="0" r="1" gradientUnits="userSpaceOnUse" gradientTransform="translate(63.0379 59.8573) scale(4.36932 4.36932)">
<stop stop-color="#F9F7EE"/>
<stop offset="0.45" stop-color="#F6F3EA"/>
<stop offset="0.84" stop-color="#EEEAE0"/>
<stop offset="1" stop-color="#E9E4D9"/>
</radialGradient>
<linearGradient id="paint41_linear_644_39059" x1="49.7959" y1="23.0194" x2="58.0661" y2="23.0194" gradientUnits="userSpaceOnUse">
<stop stop-color="#292976"/>
<stop offset="1" stop-color="#4E4EAA"/>
</linearGradient>
<linearGradient id="paint42_linear_644_39059" x1="49.8003" y1="21.6674" x2="58.067" y2="21.6674" gradientUnits="userSpaceOnUse">
<stop stop-color="#5858B8"/>
<stop offset="1" stop-color="#6969D1"/>
</linearGradient>
<linearGradient id="paint43_linear_644_39059" x1="49.9457" y1="20.9019" x2="57.9228" y2="20.9019" gradientUnits="userSpaceOnUse">
<stop stop-color="#5858B8"/>
<stop offset="1" stop-color="#6969D1"/>
</linearGradient>
<linearGradient id="paint44_linear_644_39059" x1="49.9473" y1="22.1647" x2="57.9243" y2="22.1647" gradientUnits="userSpaceOnUse">
<stop stop-color="#292976"/>
<stop offset="1" stop-color="#4E4EAA"/>
</linearGradient>
<linearGradient id="paint45_linear_644_39059" x1="51.0088" y1="20.5274" x2="56.8655" y2="20.5274" gradientUnits="userSpaceOnUse">
<stop stop-color="#292976"/>
<stop offset="1" stop-color="#4E4EAA"/>
</linearGradient>
<linearGradient id="paint46_linear_644_39059" x1="52.2853" y1="15.735" x2="55.2279" y2="20.9052" gradientUnits="userSpaceOnUse">
<stop stop-color="#292976"/>
<stop offset="1" stop-color="#4E4EAA"/>
</linearGradient>
<linearGradient id="paint47_linear_644_39059" x1="51.2666" y1="15.4999" x2="56.6371" y2="15.4999" gradientUnits="userSpaceOnUse">
<stop stop-color="#292976"/>
<stop offset="1" stop-color="#4E4EAA"/>
</linearGradient>
<linearGradient id="paint48_linear_644_39059" x1="51.2671" y1="14.6343" x2="56.6376" y2="14.6343" gradientUnits="userSpaceOnUse">
<stop stop-color="#5858B8"/>
<stop offset="1" stop-color="#6969D1"/>
</linearGradient>
<linearGradient id="paint49_linear_644_39059" x1="52.5003" y1="13.8083" x2="55.4108" y2="13.8083" gradientUnits="userSpaceOnUse">
<stop stop-color="#292976"/>
<stop offset="1" stop-color="#4E4EAA"/>
</linearGradient>
<linearGradient id="paint50_linear_644_39059" x1="52.0094" y1="13.2114" x2="55.9068" y2="13.2114" gradientUnits="userSpaceOnUse">
<stop stop-color="#212164"/>
<stop offset="1" stop-color="#343485"/>
</linearGradient>
<linearGradient id="paint51_linear_644_39059" x1="51.7001" y1="12.1133" x2="56.2232" y2="12.1133" gradientUnits="userSpaceOnUse">
<stop stop-color="#5858B8"/>
<stop offset="1" stop-color="#6969D1"/>
</linearGradient>
<linearGradient id="paint52_linear_644_39059" x1="52.6287" y1="11.2738" x2="55.2961" y2="11.2738" gradientUnits="userSpaceOnUse">
<stop stop-color="#5858B8"/>
<stop offset="1" stop-color="#6969D1"/>
</linearGradient>
<linearGradient id="paint53_linear_644_39059" x1="51.066" y1="19.7014" x2="56.6582" y2="19.7014" gradientUnits="userSpaceOnUse">
<stop stop-color="#5858B8"/>
<stop offset="1" stop-color="#6969D1"/>
</linearGradient>
<linearGradient id="paint54_linear_644_39059" x1="50.1807" y1="34.8985" x2="57.6822" y2="34.8985" gradientUnits="userSpaceOnUse">
<stop stop-color="#333390"/>
<stop offset="1" stop-color="#5B5BC4"/>
</linearGradient>
<linearGradient id="paint55_linear_644_39059" x1="50.45" y1="33.3255" x2="57.4151" y2="33.3255" gradientUnits="userSpaceOnUse">
<stop stop-color="#292976"/>
<stop offset="1" stop-color="#4E4EAA"/>
</linearGradient>
<linearGradient id="paint56_linear_644_39059" x1="50.1798" y1="33.1043" x2="57.6849" y2="33.1043" gradientUnits="userSpaceOnUse">
<stop stop-color="#333390"/>
<stop offset="1" stop-color="#5B5BC4"/>
</linearGradient>
<linearGradient id="paint57_linear_644_39059" x1="51.7178" y1="32.0035" x2="56.1586" y2="32.0035" gradientUnits="userSpaceOnUse">
<stop stop-color="#292976"/>
<stop offset="1" stop-color="#4E4EAA"/>
</linearGradient>
<linearGradient id="paint58_linear_644_39059" x1="51.7184" y1="31.3563" x2="56.1593" y2="31.3563" gradientUnits="userSpaceOnUse">
<stop stop-color="#333390"/>
<stop offset="1" stop-color="#5B5BC4"/>
</linearGradient>
<linearGradient id="paint59_linear_644_39059" x1="52.1174" y1="30.5272" x2="55.7573" y2="30.5272" gradientUnits="userSpaceOnUse">
<stop stop-color="#292976"/>
<stop offset="1" stop-color="#4E4EAA"/>
</linearGradient>
<linearGradient id="paint60_linear_644_39059" x1="51.7218" y1="28.7169" x2="56.1662" y2="28.7169" gradientUnits="userSpaceOnUse">
<stop stop-color="#333390"/>
<stop offset="1" stop-color="#5B5BC4"/>
</linearGradient>
<radialGradient id="paint61_radial_644_39059" cx="0" cy="0" r="1" gradientUnits="userSpaceOnUse" gradientTransform="translate(54.8647 25.0095) scale(3.89377 3.89378)">
<stop stop-color="#7777E6"/>
<stop offset="1" stop-color="#4D4DA8"/>
</radialGradient>
<linearGradient id="paint62_linear_644_39059" x1="78.9868" y1="61.6806" x2="87.2571" y2="61.6806" gradientUnits="userSpaceOnUse">
<stop stop-color="#EEE8DE"/>
<stop offset="0.47" stop-color="#F5F1E8"/>
<stop offset="1" stop-color="#F9F7EE"/>
</linearGradient>
<linearGradient id="paint63_linear_644_39059" x1="79.1335" y1="60.9153" x2="87.1106" y2="60.9153" gradientUnits="userSpaceOnUse">
<stop stop-color="#EEE8DE"/>
<stop offset="0.47" stop-color="#F5F1E8"/>
<stop offset="1" stop-color="#F9F7EE"/>
</linearGradient>
<linearGradient id="paint64_linear_644_39059" x1="79.6941" y1="59.6996" x2="86.3768" y2="59.6996" gradientUnits="userSpaceOnUse">
<stop stop-color="#EEE8DE"/>
<stop offset="0.47" stop-color="#F5F1E8"/>
<stop offset="1" stop-color="#F9F7EE"/>
</linearGradient>
<linearGradient id="paint65_linear_644_39059" x1="82.8154" y1="57.6364" x2="86.13" y2="57.6364" gradientUnits="userSpaceOnUse">
<stop stop-color="#EEE8DE"/>
<stop offset="0.47" stop-color="#F5F1E8"/>
<stop offset="1" stop-color="#F9F7EE"/>
</linearGradient>
<linearGradient id="paint66_linear_644_39059" x1="80.0696" y1="58.4007" x2="87.0097" y2="53.8884" gradientUnits="userSpaceOnUse">
<stop stop-color="#C4BCB1"/>
<stop offset="1" stop-color="#CFCAC0"/>
</linearGradient>
</defs>
</svg>
