<svg width="30" height="30" viewBox="0 0 30 30" fill="none" xmlns="http://www.w3.org/2000/svg">
<path d="M27.3928 14.58C26.3147 9.70614 24.7157 6.59715 22.1528 5.83953C21.6564 5.69474 21.1417 5.6225 20.6246 5.62508C19.0491 5.62508 17.8057 6.56258 14.9996 6.56258C12.1936 6.56258 10.9479 5.62508 9.37465 5.62508C8.83602 5.62222 8.29962 5.6944 7.7809 5.83953C5.21449 6.59715 3.62895 9.70907 2.53852 14.58C1.42523 19.5552 1.6268 23.4862 3.80297 24.2409C5.32641 24.7682 6.68871 23.6778 7.97894 22.0729C9.44379 20.2448 11.2479 19.6823 14.9996 19.6823C18.7514 19.6823 20.4852 20.2448 21.9524 22.0729C23.2414 23.679 24.6541 24.7559 26.1371 24.2503C28.5407 23.4294 28.5067 19.6138 27.3928 14.58Z" fill="white"/>
<path d="M27.3928 14.58C26.3147 9.70614 24.7157 6.59715 22.1528 5.83953C21.6564 5.69474 21.1417 5.6225 20.6246 5.62508C19.0491 5.62508 17.8057 6.56258 14.9996 6.56258C12.1936 6.56258 10.9479 5.62508 9.37465 5.62508C8.83602 5.62222 8.29962 5.6944 7.7809 5.83953C5.21449 6.59715 3.62895 9.70907 2.53852 14.58C1.42523 19.5552 1.6268 23.4862 3.80297 24.2409C5.32641 24.7682 6.68871 23.6778 7.97894 22.0729C9.44379 20.2448 11.2479 19.6823 14.9996 19.6823C18.7514 19.6823 20.4852 20.2448 21.9524 22.0729C23.2414 23.679 24.6541 24.7559 26.1371 24.2503C28.5407 23.4294 28.5067 19.6138 27.3928 14.58Z" fill="#616161"/>
<path d="M17.1094 14.2969C17.7566 14.2969 18.2812 13.7722 18.2812 13.125C18.2812 12.4778 17.7566 11.9531 17.1094 11.9531C16.4622 11.9531 15.9375 12.4778 15.9375 13.125C15.9375 13.7722 16.4622 14.2969 17.1094 14.2969Z" fill="#1E1C1A"/>
<path d="M19.6875 16.875C19.4556 16.875 19.2289 16.8062 19.0361 16.6773C18.8434 16.5484 18.6932 16.3652 18.6045 16.1509C18.5159 15.9366 18.4929 15.7008 18.5384 15.4734C18.5838 15.246 18.6957 15.0372 18.8599 14.8734C19.0241 14.7097 19.2332 14.5983 19.4607 14.5534C19.6882 14.5085 19.9239 14.5322 20.138 14.6213C20.3521 14.7104 20.5349 14.8611 20.6633 15.0542C20.7917 15.2473 20.86 15.4742 20.8594 15.7061C20.8586 16.0163 20.7348 16.3137 20.5151 16.5328C20.2954 16.7519 19.9978 16.875 19.6875 16.875Z" fill="#1E1C1A"/>
<path d="M19.6875 11.7188C20.3347 11.7188 20.8594 11.1941 20.8594 10.5469C20.8594 9.89967 20.3347 9.375 19.6875 9.375C19.0403 9.375 18.5156 9.89967 18.5156 10.5469C18.5156 11.1941 19.0403 11.7188 19.6875 11.7188Z" fill="#1E1C1A"/>
<path d="M22.2656 14.2969C22.9128 14.2969 23.4375 13.7722 23.4375 13.125C23.4375 12.4778 22.9128 11.9531 22.2656 11.9531C21.6184 11.9531 21.0938 12.4778 21.0938 13.125C21.0938 13.7722 21.6184 14.2969 22.2656 14.2969Z" fill="#1E1C1A"/>
<path d="M9.375 10.3125V15.9375M12.1875 13.125H6.5625" stroke="#1E1C1A" stroke-width="1.5" stroke-linecap="round" stroke-linejoin="round"/>
</svg>
