<svg width="94" height="73" viewBox="0 0 94 73" fill="none" xmlns="http://www.w3.org/2000/svg">
<path fill-rule="evenodd" clip-rule="evenodd" d="M32.8701 6.53484C40.791 0.328803 55.2845 -3.05173 69.0852 2.34702C87.6422 9.62272 91.0221 6.69629 93.5501 19.623C94.5893 24.9209 93.7841 29.7848 92.9789 36.9293C91.8086 47.2222 90.1795 59.3316 90.1795 59.6242C90.1795 60.1187 61.5014 80.0789 50.5282 69.6245C39.5644 59.1701 25.2207 61.4406 15.9422 52.3485C6.66371 43.2564 13.4143 22.8017 13.4143 18.7047C13.4143 17.8066 18.9289 16.6764 23.5167 14.1133C27.861 11.6813 31.2409 7.81641 32.8794 6.52475L32.8701 6.53484Z" fill="#705100"/>
<path opacity="0.5" fill-rule="evenodd" clip-rule="evenodd" d="M91.0416 52.765C90.5596 56.6001 90.2074 59.3744 90.1611 59.8334L73.042 60.6494L74.5064 54.7948C75.9801 54.6112 91.1343 52.0612 91.0416 52.7752L91.0416 52.765Z" fill="#A39EA3"/>
<path fill-rule="evenodd" clip-rule="evenodd" d="M23.3624 6.81933C31.8224 0.669325 47.3024 -2.68067 62.0424 2.66932C81.8624 9.87932 85.4624 6.97933 88.1724 19.7893C89.2824 25.0393 88.4224 29.8593 87.5624 36.9393C86.3224 47.1393 84.5724 59.1393 84.5724 59.4293C84.5724 59.9193 53.9424 79.6993 42.2224 69.3393C38.1424 65.7293 30.0324 65.1793 25.4624 63.5593C20.8524 61.9293 19.8024 59.2593 15.4624 57.7193C11.7424 56.3993 8.26241 54.9293 5.28241 52.2193C-2.37759 45.2793 0.182407 31.5993 1.74241 23.8693C3.66241 14.3693 5.00241 17.8193 14.7124 12.7693C19.3524 10.3593 21.6124 8.09933 23.3624 6.82933L23.3624 6.81933Z" fill="#C08B02"/>
<path fill-rule="evenodd" clip-rule="evenodd" d="M81.8622 58.0395C83.2122 52.8595 85.6922 31.6895 87.0422 28.5295C88.3922 25.3795 85.6922 17.4895 84.7922 14.3395C83.8922 11.1895 68.1222 6.45949 58.2122 3.74949C54.5522 2.7495 50.1122 2.02949 45.6122 1.68949C41.7222 1.38949 37.7722 1.3795 34.2422 1.7195C39.6422 0.179497 45.8822 -0.440506 52.2922 0.349494C55.5222 0.749496 58.7922 1.5095 62.0322 2.6795C81.8522 9.88949 85.4522 6.98949 88.1622 19.7995C89.2722 25.0495 88.4122 29.8695 87.5522 36.9495C86.3122 47.1495 84.5622 59.1495 84.5622 59.4395C84.5622 59.6695 78.1722 63.9095 70.1122 67.4795C75.9522 64.2595 81.1122 60.9095 81.8622 58.0395Z" fill="#D5BB77"/>
<path opacity="0.5" fill-rule="evenodd" clip-rule="evenodd" d="M84.5449 10.7994C87.5604 10.3868 88.0449 10.2994 88.6182 9.64941C91.2443 11.4104 92.494 14.0167 93.5897 19.7526C93.8523 21.1513 93.9972 22.5199 94.0425 23.9085L89.864 25.6494C89.8911 23.6469 89.7643 21.7349 89.3931 19.7526C88.5599 15.345 86.1297 12.5504 84.5449 10.7994Z" fill="#A39EA3"/>
<path fill-rule="evenodd" clip-rule="evenodd" d="M55.7221 1.33913C55.4321 1.26913 55.2621 0.979126 55.3321 0.699127C55.4021 0.419128 55.6921 0.239128 55.9721 0.309128C62.0021 1.79913 66.9321 3.54913 72.2021 5.41913C74.5821 6.25913 77.0221 7.12913 79.5521 7.97912C87.7521 10.7091 88.5921 16.8591 89.2421 21.5391C89.2821 21.8091 89.3121 22.0791 89.3721 22.4791C90.0421 27.0291 88.4721 34.8291 88.3621 35.3591L84.7621 59.7991C84.7321 59.9791 84.6221 60.1191 84.4721 60.1991C83.9421 60.4891 69.5721 68.3591 63.2021 70.1491C62.9221 70.2291 62.6221 70.0591 62.5521 69.7791C62.4721 69.4991 62.6421 69.1991 62.9221 69.1291C68.8221 67.4691 81.8621 60.4191 83.7521 59.3891L87.3221 35.2091L87.3221 35.1791C87.3221 35.1591 88.9921 27.1591 88.3321 22.6391C88.3021 22.4291 88.2521 22.0591 88.2021 21.6791C87.6021 17.2791 86.8021 11.5091 79.2321 8.97913C76.5521 8.08913 74.1721 7.23913 71.8621 6.41913C66.6121 4.54913 61.7021 2.80913 55.7321 1.33913L55.7221 1.33913Z" fill="#CF9500"/>
<path fill-rule="evenodd" clip-rule="evenodd" d="M26.9127 7.05984C29.7727 7.17984 28.9727 11.2198 26.6627 9.61984C25.6727 8.93984 25.3727 7.48984 26.9127 7.05984Z" fill="#B9B5B9"/>
<path fill-rule="evenodd" clip-rule="evenodd" d="M26.4527 6.94949C29.3127 7.06949 28.5127 11.1095 26.2027 9.50949C25.2127 8.82949 24.9127 7.37949 26.4527 6.94949Z" fill="#696569"/>
<path fill-rule="evenodd" clip-rule="evenodd" d="M21.6822 12.7993C26.6822 13.7493 25.2922 19.1393 21.2422 16.2793C19.5122 15.0593 18.9822 12.9593 21.6822 12.7993Z" fill="#B9B5B9"/>
<path fill-rule="evenodd" clip-rule="evenodd" d="M21.4722 13.5796C26.4722 14.5296 25.0822 19.9196 21.0322 17.0596C19.3022 15.8396 18.7722 13.7396 21.4722 13.5796Z" fill="#696569"/>
<path fill-rule="evenodd" clip-rule="evenodd" d="M75.5125 54.3796C77.0925 56.8396 73.4625 58.5496 73.3625 55.6696C73.3225 54.4396 74.2725 53.3396 75.5125 54.3796Z" fill="#B9B5B9"/>
<path fill-rule="evenodd" clip-rule="evenodd" d="M75.3221 53.9196C76.9021 56.3796 73.2821 58.0896 73.1721 55.2096C73.1321 53.9796 74.0821 52.8796 75.3221 53.9196Z" fill="#696569"/>
<path fill-rule="evenodd" clip-rule="evenodd" d="M80.9225 48.849C82.3125 53.749 76.8725 54.919 77.6125 50.009C77.9325 47.909 79.5625 46.499 80.9225 48.849Z" fill="#B9B5B9"/>
<path fill-rule="evenodd" clip-rule="evenodd" d="M80.1227 49.0094C81.5127 53.9094 76.0727 55.0794 76.8127 50.1794C77.1327 48.0794 78.7627 46.6694 80.1227 49.0094Z" fill="#696569"/>
<path fill-rule="evenodd" clip-rule="evenodd" d="M69.4526 59.899C71.9826 61.379 69.5226 64.539 68.1226 62.019C67.5226 60.939 67.8726 59.529 69.4526 59.899Z" fill="#B9B5B9"/>
<path fill-rule="evenodd" clip-rule="evenodd" d="M69.0825 59.5787C71.6125 61.0587 69.1525 64.2187 67.7525 61.6987C67.1525 60.6187 67.5025 59.2087 69.0825 59.5787Z" fill="#696569"/>
</svg>
