<svg width="94" height="73" viewBox="0 0 94 73" fill="none" xmlns="http://www.w3.org/2000/svg">
<path fill-rule="evenodd" clip-rule="evenodd" d="M32.8251 6.53484C40.746 0.328803 55.2396 -3.05173 69.0403 2.34702C87.5973 9.62272 90.9772 6.69629 93.5052 19.623C94.5444 24.9209 93.7392 29.7848 92.934 36.9293C91.7637 47.2222 90.1346 59.3316 90.1346 59.6242C90.1346 60.1187 61.4564 80.0789 50.4833 69.6245C39.5195 59.1701 25.1758 61.4406 15.8973 52.3485C6.61879 43.2564 13.3693 22.8017 13.3693 18.7047C13.3693 17.8066 18.884 16.6764 23.4717 14.1133C27.8161 11.6813 31.196 7.81641 32.8345 6.52475L32.8251 6.53484Z" fill="#696569"/>
<path fill-rule="evenodd" clip-rule="evenodd" d="M90.9966 52.765C90.5147 56.6001 90.1625 59.3744 90.1161 59.8334L72.9971 60.6494L74.4615 54.7948C75.9352 54.6112 91.0893 52.0612 90.9966 52.7752L90.9966 52.765Z" fill="#A39EA3"/>
<path fill-rule="evenodd" clip-rule="evenodd" d="M23.3175 6.81933C31.7775 0.669325 47.2575 -2.68067 61.9975 2.66932C81.8175 9.87932 85.4175 6.97933 88.1275 19.7893C89.2375 25.0393 88.3775 29.8593 87.5175 36.9393C86.2775 47.1393 84.5275 59.1393 84.5275 59.4293C84.5275 59.9193 53.8975 79.6993 42.1775 69.3393C38.0975 65.7293 29.9875 65.1793 25.4175 63.5593C20.8075 61.9293 19.7575 59.2593 15.4175 57.7193C11.6975 56.3993 8.21749 54.9293 5.23749 52.2193C-2.42251 45.2793 0.137485 31.5993 1.69748 23.8693C3.61748 14.3693 4.95748 17.8193 14.6675 12.7693C19.3075 10.3593 21.5675 8.09933 23.3175 6.82933L23.3175 6.81933Z" fill="#707070"/>
<path fill-rule="evenodd" clip-rule="evenodd" d="M81.8173 58.0395C83.1673 52.8595 85.6473 31.6895 86.9973 28.5295C88.3473 25.3795 85.6473 17.4895 84.7473 14.3395C83.8473 11.1895 68.0773 6.45949 58.1673 3.74949C54.5073 2.7495 50.0673 2.02949 45.5673 1.68949C41.6773 1.38949 37.7273 1.3795 34.1973 1.7195C39.5973 0.179497 45.8373 -0.440506 52.2473 0.349494C55.4773 0.749496 58.7473 1.5095 61.9873 2.6795C81.8073 9.88949 85.4073 6.98949 88.1173 19.7995C89.2273 25.0495 88.3673 29.8695 87.5073 36.9495C86.2673 47.1495 84.5173 59.1495 84.5173 59.4395C84.5173 59.6695 78.1273 63.9095 70.0673 67.4795C75.9073 64.2595 81.0673 60.9095 81.8173 58.0395Z" fill="#EBEBEB"/>
<path fill-rule="evenodd" clip-rule="evenodd" d="M84.5 10.1494C87.5155 9.73685 85.9562 10.1325 88.5733 9.64944C91.1994 11.4104 92.4491 14.0167 93.5448 19.7526C93.8074 21.1513 93.9523 22.5199 93.9976 23.9086L89.3215 24.7607C89.3486 22.7582 89.2219 20.8463 88.8506 18.8639C88.0175 14.4563 86.0847 11.9004 84.5 10.1494Z" fill="#949494"/>
<path fill-rule="evenodd" clip-rule="evenodd" d="M55.6772 1.33913C55.3872 1.26913 55.2172 0.979126 55.2872 0.699127C55.3572 0.419128 55.6472 0.239128 55.9272 0.309128C61.9572 1.79913 66.8872 3.54913 72.1572 5.41913C74.5372 6.25913 76.9772 7.12913 79.5072 7.97912C87.7072 10.7091 88.5472 16.8591 89.1972 21.5391C89.2372 21.8091 89.2672 22.0791 89.3272 22.4791C89.9972 27.0291 88.4272 34.8291 88.3172 35.3591L84.7172 59.7991C84.6872 59.9791 84.5772 60.1191 84.4272 60.1991C83.8972 60.4891 69.5272 68.3591 63.1572 70.1491C62.8772 70.2291 62.5772 70.0591 62.5072 69.7791C62.4272 69.4991 62.5972 69.1991 62.8772 69.1291C68.7772 67.4691 81.8172 60.4191 83.7072 59.3891L87.2772 35.2091L87.2772 35.1791C87.2772 35.1591 88.9472 27.1591 88.2872 22.6391C88.2572 22.4291 88.2072 22.0591 88.1572 21.6791C87.5572 17.2791 86.7572 11.5091 79.1872 8.97913C76.5072 8.08913 74.1272 7.23913 71.8172 6.41913C66.5672 4.54913 61.6572 2.80913 55.6872 1.33913L55.6772 1.33913Z" fill="#696569"/>
<path fill-rule="evenodd" clip-rule="evenodd" d="M26.8678 7.05984C29.7278 7.17984 28.9278 11.2198 26.6178 9.61984C25.6278 8.93984 25.3278 7.48984 26.8678 7.05984Z" fill="#B9B5B9"/>
<path fill-rule="evenodd" clip-rule="evenodd" d="M26.4078 6.94949C29.2678 7.06949 28.4678 11.1095 26.1578 9.50949C25.1678 8.82949 24.8678 7.37949 26.4078 6.94949Z" fill="#696569"/>
<path fill-rule="evenodd" clip-rule="evenodd" d="M21.6373 12.7993C26.6373 13.7493 25.2473 19.1393 21.1973 16.2793C19.4673 15.0593 18.9373 12.9593 21.6373 12.7993Z" fill="#B9B5B9"/>
<path fill-rule="evenodd" clip-rule="evenodd" d="M21.4273 13.5796C26.4273 14.5296 25.0373 19.9196 20.9873 17.0596C19.2573 15.8396 18.7273 13.7396 21.4273 13.5796Z" fill="#696569"/>
<path fill-rule="evenodd" clip-rule="evenodd" d="M75.4676 54.3796C77.0476 56.8396 73.4176 58.5496 73.3176 55.6696C73.2776 54.4396 74.2276 53.3396 75.4676 54.3796Z" fill="#B9B5B9"/>
<path fill-rule="evenodd" clip-rule="evenodd" d="M75.2772 53.9196C76.8572 56.3796 73.2372 58.0896 73.1272 55.2096C73.0872 53.9796 74.0372 52.8796 75.2772 53.9196Z" fill="#696569"/>
<path fill-rule="evenodd" clip-rule="evenodd" d="M80.8776 48.849C82.2676 53.749 76.8276 54.919 77.5676 50.009C77.8876 47.909 79.5176 46.499 80.8776 48.849Z" fill="#B9B5B9"/>
<path fill-rule="evenodd" clip-rule="evenodd" d="M80.0778 49.0094C81.4678 53.9094 76.0278 55.0794 76.7678 50.1794C77.0878 48.0794 78.7178 46.6694 80.0778 49.0094Z" fill="#696569"/>
<path fill-rule="evenodd" clip-rule="evenodd" d="M69.4077 59.899C71.9377 61.379 69.4777 64.539 68.0777 62.019C67.4777 60.939 67.8277 59.529 69.4077 59.899Z" fill="#B9B5B9"/>
<path fill-rule="evenodd" clip-rule="evenodd" d="M69.0376 59.5787C71.5676 61.0587 69.1076 64.2187 67.7076 61.6987C67.1076 60.6187 67.4576 59.2087 69.0376 59.5787Z" fill="#696569"/>
</svg>
