<svg width="20" height="30" viewBox="0 0 20 30" fill="none" xmlns="http://www.w3.org/2000/svg">
<path d="M2.68027 24.4799C1.36027 24.4799 0.280273 25.5599 0.280273 26.8799V28.6799C0.280273 29.1599 0.760273 29.6399 1.24027 29.6399H18.7603C19.2403 29.6399 19.7203 29.2799 19.7203 28.6799V26.8799C19.7203 25.5599 18.6403 24.4799 17.3203 24.4799H16.9603C14.4403 20.3999 13.4803 15.4799 13.3603 10.3199H14.8003C15.5203 10.3199 16.0003 9.83986 16.0003 9.11986C16.0003 8.51986 15.5203 7.91986 14.8003 7.91986H14.6803C15.0403 7.19986 15.1603 6.47986 15.1603 5.63986C15.1603 2.75986 12.7603 0.359863 9.88027 0.359863C7.00027 0.359863 4.60027 2.75986 4.60027 5.63986C4.60027 6.47986 4.84027 7.19986 5.08027 7.91986C4.36027 7.91986 3.88027 8.51986 3.88027 9.11986C3.88027 9.83986 4.36027 10.3199 5.08027 10.3199H6.52027C6.52027 15.4799 5.44027 20.3999 2.92027 24.4799H2.68027Z" fill="url(#paint0_linear_874_676)"/>
<defs>
<linearGradient id="paint0_linear_874_676" x1="0.280273" y1="7.67985" x2="19.4439" y2="7.71409" gradientUnits="userSpaceOnUse">
<stop stop-color="#67E4FF"/>
<stop offset="1" stop-color="#009ED0"/>
</linearGradient>
</defs>
</svg>
