<svg width="22" height="20" viewBox="0 0 22 20" fill="none" xmlns="http://www.w3.org/2000/svg">
<g opacity="0.5" filter="url(#filter0_f_4058_5161)">
<path d="M6.16667 6.3623L11.3995 7.41274L15.75 6.53419L11.4089 8.7679L6.16667 6.3623Z" fill="white"/>
<path d="M11.0969 13.764C11.0969 13.764 7.43405 7.96401 6.16705 6.3623C6.16705 6.3623 8.16253 7.22349 11.0576 8.02738C11.0576 8.02738 13.4268 7.1905 15.752 6.53419C15.752 6.53419 12.1441 12.1258 11.0984 13.764L11.0969 13.764Z" fill="white"/>
<path d="M8.87839 7.36372L10.7326 8.15545L11.0968 11.9709L11.4595 8.11031L13.0703 7.34375L11.8567 7.74917L11.056 8.02697L8.87839 7.36372Z" fill="white"/>
<path d="M15.75 6.53419L11.0745 12.7899L6.16667 6.3623L11.0745 14.0001L15.75 6.53419Z" fill="white"/>
<path d="M11.0964 13.7636C11.0964 13.7636 11.0556 13.4112 11.0242 12.8807C11.0163 12.7479 11.0085 12.6047 11.0006 12.4527C10.9944 12.3008 10.9881 12.1411 10.9818 11.9753C10.9771 11.8095 10.9724 11.6384 10.9677 11.4648C10.9645 11.2912 10.963 11.1141 10.9598 10.9379C10.9598 10.7608 10.9598 10.5845 10.9598 10.41C10.9614 10.2364 10.963 10.0645 10.9661 9.89957C10.9708 9.73376 10.9739 9.57402 10.9787 9.4221C10.9849 9.27017 10.9912 9.12693 10.9959 8.99411C11.0085 8.72933 11.0242 8.50796 11.0367 8.35343C11.0509 8.1989 11.0587 8.11035 11.0587 8.11035C11.0587 8.11035 11.0681 8.1989 11.0838 8.35343C11.098 8.50796 11.1184 8.72846 11.1341 8.99411C11.1419 9.12693 11.1498 9.27017 11.1576 9.4221C11.1639 9.57402 11.1702 9.73376 11.1765 9.89957C11.1812 10.0654 11.1843 10.2364 11.189 10.41C11.1906 10.5837 11.1937 10.7608 11.1953 10.937C11.1953 11.1132 11.1953 11.2903 11.1953 11.4639C11.1922 11.6376 11.1906 11.8086 11.1875 11.9744C11.1828 12.1402 11.178 12.3 11.1749 12.4519C11.1686 12.6038 11.1623 12.747 11.1576 12.8799C11.1341 13.4103 11.098 13.7636 11.098 13.7636L11.0964 13.7636Z" fill="#D2D2D2"/>
<path d="M11.5019 11.5669C11.5019 11.5669 11.3308 8.24807 11.3308 8.16733C11.3308 8.0866 15.3516 6.73145 15.3516 6.73145C15.3516 6.73145 11.7876 11.2318 11.5019 11.5669Z" fill="url(#paint0_linear_4058_5161)"/>
<path d="M6.44253 6.50868C6.44253 6.50868 10.5748 8.11993 10.7318 8.15466C10.8888 8.18938 10.5512 11.2105 10.5512 11.2105C10.5512 11.2105 6.68589 6.72745 6.44253 6.50781L6.44253 6.50868Z" fill="url(#paint1_linear_4058_5161)"/>
<path d="M9.12503 7.28906C9.12503 7.28906 9.35739 7.31945 9.69494 7.38022C9.77972 7.39584 9.87078 7.41147 9.96655 7.43057C10.0623 7.44967 10.1644 7.4679 10.2664 7.49047C10.37 7.51217 10.4768 7.53474 10.5851 7.55731C10.6935 7.58162 10.8018 7.60593 10.9117 7.63024L10.9651 7.64326C10.9776 7.64586 10.9761 7.64586 10.9761 7.64586L11.1519 7.61027C11.2602 7.5877 11.3701 7.5686 11.4753 7.5495C11.5805 7.52953 11.6826 7.51217 11.7799 7.49655C11.8773 7.48005 11.9683 7.46529 12.0547 7.45227C12.2258 7.42536 12.3702 7.40626 12.4707 7.39411C12.5728 7.38195 12.6309 7.37588 12.6309 7.37588C12.6309 7.37588 12.579 7.3915 12.488 7.42015C12.3954 7.44706 12.265 7.48526 12.1033 7.52693C12.0233 7.54863 11.9353 7.57034 11.8427 7.59291C11.7501 7.61635 11.6527 7.63979 11.5491 7.66236C11.4471 7.6858 11.3419 7.71011 11.2336 7.73268L10.9698 7.78824L10.8175 7.75351C10.7092 7.72747 10.6008 7.70142 10.4941 7.67625C10.3889 7.64934 10.2853 7.62329 10.1848 7.59812C10.0843 7.57294 9.98854 7.54603 9.89747 7.52172C9.80641 7.49741 9.72163 7.47224 9.64156 7.45053C9.32599 7.36025 9.12346 7.28993 9.12346 7.28993L9.12503 7.28906Z" fill="white"/>
</g>
<path d="M6.16667 6.3623L11.3995 7.41274L15.75 6.53419L11.4089 8.7679L6.16667 6.3623Z" fill="#636363"/>
<path d="M11.0969 13.764C11.0969 13.764 7.43405 7.96401 6.16705 6.3623C6.16705 6.3623 8.16253 7.22349 11.0576 8.02738C11.0576 8.02738 13.4268 7.1905 15.752 6.53419C15.752 6.53419 12.1441 12.1258 11.0984 13.764L11.0969 13.764Z" fill="#9E9E9E"/>
<path d="M8.87839 7.36372L10.7326 8.15545L11.0968 11.9709L11.4595 8.11031L13.0703 7.34375L11.8567 7.74917L11.056 8.02697L8.87839 7.36372Z" fill="#7C7C7C"/>
<path d="M15.75 6.53419L11.0745 12.7899L6.16667 6.3623L11.0745 14.0001L15.75 6.53419Z" fill="#D3D3D3"/>
<path d="M11.0964 13.7636C11.0964 13.7636 11.0556 13.4112 11.0242 12.8807C11.0163 12.7479 11.0085 12.6047 11.0006 12.4527C10.9944 12.3008 10.9881 12.1411 10.9818 11.9753C10.9771 11.8095 10.9724 11.6384 10.9677 11.4648C10.9645 11.2912 10.963 11.1141 10.9598 10.9379C10.9598 10.7608 10.9598 10.5845 10.9598 10.41C10.9614 10.2364 10.963 10.0645 10.9661 9.89957C10.9708 9.73376 10.9739 9.57402 10.9787 9.4221C10.9849 9.27017 10.9912 9.12693 10.9959 8.99411C11.0085 8.72933 11.0242 8.50796 11.0367 8.35343C11.0509 8.1989 11.0587 8.11035 11.0587 8.11035C11.0587 8.11035 11.0681 8.1989 11.0838 8.35343C11.098 8.50796 11.1184 8.72846 11.1341 8.99411C11.1419 9.12693 11.1498 9.27017 11.1576 9.4221C11.1639 9.57402 11.1702 9.73376 11.1765 9.89957C11.1812 10.0654 11.1843 10.2364 11.189 10.41C11.1906 10.5837 11.1937 10.7608 11.1953 10.937C11.1953 11.1132 11.1953 11.2903 11.1953 11.4639C11.1922 11.6376 11.1906 11.8086 11.1875 11.9744C11.1828 12.1402 11.178 12.3 11.1749 12.4519C11.1686 12.6038 11.1623 12.747 11.1576 12.8799C11.1341 13.4103 11.098 13.7636 11.098 13.7636L11.0964 13.7636Z" fill="#494949"/>
<path d="M11.5019 11.5669C11.5019 11.5669 11.3308 8.24807 11.3308 8.16733C11.3308 8.0866 15.3516 6.73145 15.3516 6.73145C15.3516 6.73145 11.7876 11.2318 11.5019 11.5669Z" fill="url(#paint2_linear_4058_5161)"/>
<path d="M6.44253 6.50868C6.44253 6.50868 10.5748 8.11993 10.7318 8.15466C10.8888 8.18938 10.5512 11.2105 10.5512 11.2105C10.5512 11.2105 6.68589 6.72745 6.44253 6.50781L6.44253 6.50868Z" fill="url(#paint3_linear_4058_5161)"/>
<path d="M9.12503 7.28906C9.12503 7.28906 9.35739 7.31945 9.69494 7.38022C9.77972 7.39584 9.87078 7.41147 9.96655 7.43057C10.0623 7.44967 10.1644 7.4679 10.2664 7.49047C10.37 7.51217 10.4768 7.53474 10.5851 7.55731C10.6935 7.58162 10.8018 7.60593 10.9117 7.63024L10.9651 7.64326C10.9776 7.64586 10.9761 7.64586 10.9761 7.64586L11.1519 7.61027C11.2602 7.5877 11.3701 7.5686 11.4753 7.5495C11.5805 7.52953 11.6826 7.51217 11.7799 7.49655C11.8773 7.48005 11.9683 7.46529 12.0547 7.45227C12.2258 7.42536 12.3702 7.40626 12.4707 7.39411C12.5728 7.38195 12.6309 7.37588 12.6309 7.37588C12.6309 7.37588 12.579 7.3915 12.488 7.42015C12.3954 7.44706 12.265 7.48526 12.1033 7.52693C12.0233 7.54863 11.9353 7.57034 11.8427 7.59291C11.7501 7.61635 11.6527 7.63979 11.5491 7.66236C11.4471 7.6858 11.3419 7.71011 11.2336 7.73268L10.9698 7.78824L10.8175 7.75351C10.7092 7.72747 10.6008 7.70142 10.4941 7.67625C10.3889 7.64934 10.2853 7.62329 10.1848 7.59812C10.0843 7.57294 9.98854 7.54603 9.89747 7.52172C9.80641 7.49741 9.72163 7.47224 9.64156 7.45053C9.32599 7.36025 9.12346 7.28993 9.12346 7.28993L9.12503 7.28906Z" fill="#353535"/>
<defs>
<filter id="filter0_f_4058_5161" x="0.166993" y="-2" width="21.585" height="22" filterUnits="userSpaceOnUse" color-interpolation-filters="sRGB">
<feFlood flood-opacity="0" result="BackgroundImageFix"/>
<feBlend mode="normal" in="SourceGraphic" in2="BackgroundImageFix" result="shape"/>
<feGaussianBlur stdDeviation="3" result="effect1_foregroundBlur_4058_5161"/>
</filter>
<linearGradient id="paint0_linear_4058_5161" x1="11.3308" y1="9.14919" x2="15.3516" y2="9.14919" gradientUnits="userSpaceOnUse">
<stop stop-color="#FEFEFF" stop-opacity="0"/>
<stop offset="0.16" stop-color="#FEFEFF" stop-opacity="0.01"/>
<stop offset="0.29" stop-color="#FEFEFF" stop-opacity="0.01"/>
<stop offset="0.41" stop-color="#FEFEFF" stop-opacity="0.0144"/>
<stop offset="0.52" stop-color="#FEFEFF" stop-opacity="0.0441"/>
<stop offset="0.63" stop-color="#FEFEFF" stop-opacity="0.1089"/>
<stop offset="0.74" stop-color="#FEFEFF" stop-opacity="0.2304"/>
<stop offset="0.84" stop-color="#FEFEFF" stop-opacity="0.4356"/>
<stop offset="0.94" stop-color="#FEFEFF" stop-opacity="0.7396"/>
<stop offset="1" stop-color="#FEFEFF"/>
</linearGradient>
<linearGradient id="paint1_linear_4058_5161" x1="11.2578" y1="9.94474" x2="7.32245" y2="4.48938" gradientUnits="userSpaceOnUse">
<stop stop-color="#FEFEFF" stop-opacity="0"/>
<stop offset="0.16" stop-color="#FEFEFF" stop-opacity="0.01"/>
<stop offset="0.29" stop-color="#FEFEFF" stop-opacity="0.01"/>
<stop offset="0.41" stop-color="#FEFEFF" stop-opacity="0.0144"/>
<stop offset="0.52" stop-color="#FEFEFF" stop-opacity="0.0441"/>
<stop offset="0.63" stop-color="#FEFEFF" stop-opacity="0.1089"/>
<stop offset="0.74" stop-color="#FEFEFF" stop-opacity="0.2304"/>
<stop offset="0.84" stop-color="#FEFEFF" stop-opacity="0.4356"/>
<stop offset="0.94" stop-color="#FEFEFF" stop-opacity="0.7396"/>
<stop offset="1" stop-color="#FEFEFF"/>
</linearGradient>
<linearGradient id="paint2_linear_4058_5161" x1="11.3308" y1="9.14919" x2="15.3516" y2="9.14919" gradientUnits="userSpaceOnUse">
<stop stop-color="#FEFEFF" stop-opacity="0"/>
<stop offset="0.16" stop-color="#FEFEFF" stop-opacity="0.01"/>
<stop offset="0.29" stop-color="#FEFEFF" stop-opacity="0.01"/>
<stop offset="0.41" stop-color="#FEFEFF" stop-opacity="0.0144"/>
<stop offset="0.52" stop-color="#FEFEFF" stop-opacity="0.0441"/>
<stop offset="0.63" stop-color="#FEFEFF" stop-opacity="0.1089"/>
<stop offset="0.74" stop-color="#FEFEFF" stop-opacity="0.2304"/>
<stop offset="0.84" stop-color="#FEFEFF" stop-opacity="0.4356"/>
<stop offset="0.94" stop-color="#FEFEFF" stop-opacity="0.7396"/>
<stop offset="1" stop-color="#FEFEFF"/>
</linearGradient>
<linearGradient id="paint3_linear_4058_5161" x1="11.2578" y1="9.94474" x2="7.32245" y2="4.48938" gradientUnits="userSpaceOnUse">
<stop stop-color="#FEFEFF" stop-opacity="0"/>
<stop offset="0.16" stop-color="#FEFEFF" stop-opacity="0.01"/>
<stop offset="0.29" stop-color="#FEFEFF" stop-opacity="0.01"/>
<stop offset="0.41" stop-color="#FEFEFF" stop-opacity="0.0144"/>
<stop offset="0.52" stop-color="#FEFEFF" stop-opacity="0.0441"/>
<stop offset="0.63" stop-color="#FEFEFF" stop-opacity="0.1089"/>
<stop offset="0.74" stop-color="#FEFEFF" stop-opacity="0.2304"/>
<stop offset="0.84" stop-color="#FEFEFF" stop-opacity="0.4356"/>
<stop offset="0.94" stop-color="#FEFEFF" stop-opacity="0.7396"/>
<stop offset="1" stop-color="#FEFEFF"/>
</linearGradient>
</defs>
</svg>
