<svg width="24" height="24" viewBox="0 0 24 24" fill="none" xmlns="http://www.w3.org/2000/svg">
<path d="M22 12V17C22 20 20 22 17 22H7C4 22 2 20 2 17V12C2 9.28 3.64 7.38 6.19 7.06C6.45 7.02 6.72 7 7 7H17C17.26 7 17.51 7.00999 17.75 7.04999C20.33 7.34999 22 9.26 22 12Z" stroke="url(#paint0_linear_4058_5151)" stroke-width="1.5" stroke-linecap="round" stroke-linejoin="round"/>
<path d="M17.7514 7.05C17.5114 7.01 17.2614 7.00001 17.0014 7.00001H7.00141C6.72141 7.00001 6.45141 7.02001 6.19141 7.06001C6.33141 6.78001 6.53141 6.52001 6.77141 6.28001L10.0214 3.02C11.3914 1.66 13.6114 1.66 14.9814 3.02L16.7314 4.79002C17.3714 5.42002 17.7114 6.22 17.7514 7.05Z" stroke="url(#paint1_linear_4058_5151)" stroke-width="1.5" stroke-linecap="round" stroke-linejoin="round"/>
<path d="M22 12.5H19C17.9 12.5 17 13.4 17 14.5C17 15.6 17.9 16.5 19 16.5H22" stroke="url(#paint2_linear_4058_5151)" stroke-width="1.5" stroke-linecap="round" stroke-linejoin="round"/>
<defs>
<linearGradient id="paint0_linear_4058_5151" x1="12" y1="7" x2="12" y2="22" gradientUnits="userSpaceOnUse">
<stop stop-color="#E3C043"/>
<stop offset="1" stop-color="#B18617"/>
</linearGradient>
<linearGradient id="paint1_linear_4058_5151" x1="11.9714" y1="2" x2="11.9714" y2="7.06001" gradientUnits="userSpaceOnUse">
<stop stop-color="#E3C043"/>
<stop offset="1" stop-color="#B18617"/>
</linearGradient>
<linearGradient id="paint2_linear_4058_5151" x1="19.5" y1="12.5" x2="19.5" y2="16.5" gradientUnits="userSpaceOnUse">
<stop stop-color="#E3C043"/>
<stop offset="1" stop-color="#B18617"/>
</linearGradient>
</defs>
</svg>
