<svg width="76" height="106" viewBox="0 0 76 106" fill="none" xmlns="http://www.w3.org/2000/svg">
<g clip-path="url(#clip0_644_39005)">
<path d="M5.12512 100.25L5.33512 101.48C5.57512 102.87 6.75512 104.1 8.80512 104.81C11.5151 105.75 15.0351 105.54 17.9951 104.47V104.5C18.1851 104.43 18.3551 104.35 18.5451 104.27C18.7251 104.2 18.9051 104.13 19.0851 104.05C19.1651 104.01 19.2551 103.98 19.3351 103.94C19.5751 103.82 19.7951 103.68 20.0251 103.55C20.1751 103.47 20.3251 103.39 20.4651 103.3C20.8951 103.03 21.3051 102.74 21.6651 102.42C21.7851 102.32 21.8951 102.21 22.0051 102.11C22.0251 102.09 22.0451 102.06 22.0651 102.04C22.2851 101.82 22.4851 101.59 22.6651 101.37C22.6651 101.37 22.6851 101.35 22.6851 101.34C23.4451 100.33 23.7351 99.2899 23.5651 98.3299L23.3551 97.0999C23.3251 96.9799 23.2951 96.8099 23.2551 96.6899C23.1951 96.4999 23.1051 96.2399 23.0051 96.0599C22.8951 95.8699 22.7551 95.6399 22.6151 95.4499C22.6151 95.4299 22.6151 95.4099 22.6151 95.3899C22.6151 95.2999 22.5951 95.1799 22.5751 95.0899C22.5351 94.8999 22.4851 94.6399 22.3451 94.3399C22.3051 94.2499 22.2551 94.1299 22.2051 94.0399C22.1851 93.9999 22.1551 93.9599 22.1351 93.9199C22.1351 93.9199 22.1351 93.9099 22.1251 93.8999C22.0651 93.7899 21.9951 93.6899 21.9351 93.5999C21.9751 93.6599 22.0051 93.7299 22.0451 93.7999C21.7751 93.3599 21.4051 92.9499 20.9151 92.5999C20.8351 92.5399 20.7351 92.4699 20.6551 92.4099C20.6151 92.3799 20.5651 92.3399 20.5251 92.3199C20.4451 92.2599 20.3451 92.1899 20.2651 92.1299C20.1851 92.0699 20.0851 91.9999 20.0051 91.9399C19.9651 91.9099 19.9151 91.8699 19.8751 91.8499C19.7951 91.7899 19.6951 91.7199 19.6151 91.6599C19.5851 91.6399 19.5451 91.6099 19.5151 91.5899C19.4951 91.4799 19.4851 91.3699 19.4551 91.2599C19.2851 90.6599 18.9451 90.2399 18.8551 90.1299C18.7751 90.0399 18.5951 89.8199 18.4051 89.6699C18.3251 89.6099 18.2251 89.5199 18.1451 89.4599C18.0451 89.3899 17.9251 89.3199 17.8051 89.2399C17.7851 89.2299 17.7651 89.2099 17.7451 89.1999C17.7151 89.1799 17.6751 89.1499 17.6451 89.1399C17.6751 89.1499 17.6851 89.1699 17.7151 89.1899C17.6351 89.1499 17.5451 89.1099 17.4651 89.0699C16.7151 87.2499 15.6951 84.4199 14.9451 81.1099C14.9851 81.0799 15.0251 81.0599 15.0651 81.0299C15.0951 81.0099 15.1251 80.9899 15.1651 80.9699C15.2751 80.8999 15.3651 80.8299 15.4151 80.7999C15.6151 80.6499 15.7551 80.5299 15.8251 80.4699C15.8551 80.4399 15.8951 80.3999 15.9351 80.3699C16.1051 80.2199 16.2151 80.0999 16.2751 80.0399C16.2851 80.0299 16.3051 80.0099 16.3151 79.9899C16.3851 79.9199 16.4551 79.8399 16.5051 79.7699C16.5851 79.6699 16.6951 79.5299 16.7651 79.4199C16.7651 79.4099 16.7851 79.3899 16.7851 79.3799L16.8051 79.3399C16.8551 79.2599 16.9051 79.1699 16.9551 79.0899L16.9751 79.0599C17.0251 78.9599 17.0751 78.8699 17.1251 78.7399C17.1251 78.7199 17.1351 78.7099 17.1451 78.6899C17.1551 78.6599 17.1651 78.6299 17.1751 78.5999C17.1951 78.5499 17.2151 78.4899 17.2251 78.4399V78.4099C17.2251 78.4099 17.2351 78.3799 17.2451 78.3699C17.2451 78.3599 17.2551 78.3299 17.2651 78.3199C17.2651 78.3199 17.2951 78.2199 17.3151 78.0799C17.3151 78.0399 17.3251 78.0099 17.3251 77.9999C17.3251 77.9799 17.3251 77.9599 17.3251 77.9399C17.3251 77.8899 17.3351 77.8399 17.3451 77.7799C17.3451 77.7599 17.3451 77.7499 17.3451 77.7299V77.6699C17.3451 77.6699 17.3451 77.6299 17.3451 77.6099C17.3451 77.5799 17.3451 77.5499 17.3451 77.5199C17.3451 77.4999 17.3451 77.4899 17.3451 77.4799C17.3451 77.4499 17.3451 77.4299 17.3451 77.3999C17.3451 77.3399 17.3451 77.2699 17.3351 77.2199C17.3351 77.2199 17.3351 77.2099 17.3351 77.1999V77.1699C17.3251 77.0999 17.3051 77.0199 17.2951 76.9599V76.8999C17.2951 76.8999 17.2751 76.8799 17.2751 76.8599C17.2551 76.7999 17.2451 76.7299 17.2251 76.6499C17.2251 76.6499 17.2151 76.6199 17.2151 76.6099C17.2151 76.6099 17.2151 76.5999 17.2151 76.5899C17.2151 76.5799 17.2151 76.5699 17.2051 76.5599C17.1851 76.5099 17.1751 76.4499 17.1351 76.3599C17.1351 76.3599 17.1351 76.3599 17.1351 76.3499L17.0751 76.1999C17.0751 76.1999 17.0551 76.1599 17.0451 76.1399L17.0251 76.0999C16.9951 76.0399 16.9751 75.9999 16.9451 75.9499C16.9451 75.9299 16.9351 75.9199 16.9251 75.8999C16.9251 75.8799 16.9051 75.8699 16.8951 75.8599C16.8951 75.8599 16.8851 75.8399 16.8751 75.8299C16.8551 75.7999 16.8451 75.7699 16.8251 75.7399C16.7851 75.6699 16.7451 75.5999 16.6951 75.5199C16.6851 75.4999 16.6751 75.4799 16.6551 75.4599C16.6351 75.4299 16.6051 75.3799 16.5751 75.3399C16.5351 75.2799 16.4851 75.2099 16.4651 75.1799C16.3551 75.0499 16.2151 74.8699 16.1051 74.7499L15.8351 74.4999C15.7351 74.4199 15.6051 74.3099 15.4951 74.2399L15.1651 74.0299L15.1051 73.9999C15.1051 73.9999 15.1351 73.9299 15.1451 73.8999L15.1951 73.7799C15.2151 73.6999 15.2451 73.6099 15.2751 73.5199C15.2951 73.4599 15.3151 73.4099 15.3251 73.3499C15.3451 73.2699 15.3651 73.1699 15.3951 73.0699C15.3951 73.0699 15.3951 73.0699 15.3951 73.0599C15.4251 72.8999 15.4551 72.7499 15.4751 72.6099C15.4951 72.3999 15.5151 72.1099 15.5251 71.8999C15.5251 71.7599 15.5251 71.5699 15.5151 71.4299C15.5151 71.2999 15.4851 71.1099 15.4551 70.9099C15.4551 70.8899 15.4551 70.8599 15.4451 70.8299V70.7899C15.4251 70.7099 15.4051 70.6399 15.3851 70.5599L15.3451 70.3799C15.3451 70.3799 15.3451 70.3599 15.3451 70.3499C15.3051 70.2099 15.2651 70.0599 15.2151 69.9299C15.1751 69.8099 15.0851 69.5599 14.9351 69.2599C14.9251 69.2299 14.9151 69.2099 14.8951 69.1799L14.8151 69.0299C14.7851 68.9699 14.7551 68.9199 14.7151 68.8599L14.6751 68.7799C14.5851 68.6399 14.5251 68.5499 14.4751 68.4699C14.4551 68.4499 14.4451 68.4299 14.4351 68.3999C14.4351 68.3899 14.4151 68.3799 14.4151 68.3699C14.3251 68.2399 14.2651 68.1699 14.1351 68.0199L14.0951 67.9699C14.0951 67.9699 14.0151 67.8899 13.9751 67.8399L13.8351 67.6899C13.8351 67.6899 13.8051 67.6599 13.7851 67.6499C13.5451 67.4099 13.3351 67.2399 13.2551 67.1799C13.1851 67.1299 13.0951 67.0599 12.9851 66.9899L12.9151 66.9399C12.9151 66.9399 12.8351 66.8899 12.8051 66.8699C12.7251 66.8199 12.6351 66.7699 12.5351 66.7099C12.4851 66.6799 12.4251 66.6499 12.3751 66.6199L12.2851 66.5799C12.2851 66.5799 12.1951 66.5399 12.1551 66.5199L12.0251 66.4599C11.9551 66.4299 11.8851 66.3999 11.8051 66.3699C11.7551 66.3499 11.7251 66.3299 11.6751 66.3099C11.6651 66.3099 11.6451 66.3099 11.6351 66.2999C11.6051 66.2999 11.5851 66.2799 11.5551 66.2699L11.2151 66.1599C11.0951 66.1299 10.9451 66.0899 10.8251 66.0599H10.8051C10.8051 66.0599 10.7851 66.0599 10.7651 66.0499L10.5051 65.9999C10.4051 65.9899 10.2751 65.9699 10.1751 65.9599L9.88512 65.9399C9.79512 65.9399 9.68512 65.9399 9.59512 65.9399C9.58512 65.9399 9.56512 65.9399 9.55512 65.9399C9.58512 65.9399 9.61512 65.9399 9.65512 65.9399C8.71512 65.9399 7.97512 66.1499 7.76512 66.2299C7.54512 66.3099 7.43512 66.3499 7.23512 66.4299C7.10512 66.4899 6.94512 66.5599 6.67512 66.7099C6.47512 66.8299 6.15512 67.0199 5.74512 67.3699C5.57512 67.5299 5.34512 67.7399 5.18512 67.9199C5.04512 68.0899 4.86512 68.2899 4.63512 68.6399C4.19512 69.3299 3.99512 69.9599 3.93512 70.1899C3.87512 70.4099 3.79512 70.6999 3.77512 70.9299C3.72845 71.3499 3.70845 71.7433 3.71512 72.1099C3.72512 72.4999 3.82512 73.1499 4.02512 73.7299C4.07512 73.8699 4.18512 74.1799 4.38512 74.5599C4.38512 74.5499 4.36512 74.5399 4.36512 74.5299L4.43512 74.6499C4.46512 74.7099 4.49512 74.7599 4.53512 74.8199L4.59512 74.9299C4.62512 74.9799 4.67512 75.0399 4.70512 75.0999C4.74512 75.1499 4.76512 75.2099 4.80512 75.2599C4.85512 75.3299 4.90512 75.3799 4.95512 75.4399C5.00512 75.5099 5.05512 75.5799 5.10512 75.6399C5.12512 75.6599 5.12512 75.6699 5.14512 75.6799C5.18512 75.7199 5.21512 75.7599 5.25512 75.7999C4.79512 76.2699 4.49512 76.7699 4.35512 77.2499C4.33512 77.3199 4.29512 77.4799 4.25512 77.6399C4.25512 77.6599 4.25512 77.6699 4.24512 77.6899C4.22512 77.7899 4.20512 77.8799 4.18512 77.9699C4.18512 77.9799 4.18512 78.0099 4.18512 78.0199C4.18512 78.0399 4.18512 78.0599 4.17512 78.0799C4.15512 78.1999 4.13512 78.3799 4.13512 78.6099C4.13512 78.6699 4.13512 78.7199 4.13512 78.7699V78.7899C4.13512 78.7899 4.13512 78.7999 4.13512 78.8099C4.13512 78.8299 4.13512 78.8499 4.13512 78.8699C4.13512 78.9599 4.15512 79.0599 4.16512 79.1699C4.17512 79.2599 4.19512 79.3399 4.21512 79.4099C4.21512 79.4499 4.21512 79.4699 4.23512 79.5099C4.23512 79.5299 4.24512 79.5399 4.25512 79.5599C4.32512 79.8199 4.41512 80.0099 4.46512 80.1099L4.48512 80.1499L4.50512 80.1899C4.50512 80.1999 4.52512 80.2099 4.52512 80.2199L4.62512 80.3899C4.68512 80.4899 4.76512 80.5999 4.88512 80.7399V80.7599C4.88512 80.7599 4.92512 80.7899 4.93512 80.7999L5.12512 80.9999C5.21512 81.0899 5.30512 81.1699 5.39512 81.2399C5.39512 81.2399 5.42512 81.2599 5.42512 81.2699C5.42512 81.2699 5.43512 81.2799 5.44512 81.2899C5.46512 81.3099 5.51512 81.3399 5.55512 81.3699C5.59512 81.3999 5.61512 81.4099 5.66512 81.4499C5.68512 81.4599 5.70512 81.4799 5.72512 81.4899L5.76512 81.5199C5.84512 81.5699 5.93512 81.6199 6.02512 81.6699C6.05512 81.6899 6.07512 81.6999 6.11512 81.7199C6.12512 81.7199 6.13512 81.7299 6.15512 81.7399C6.30512 81.8199 6.38512 81.8599 6.51512 81.9099H6.53512L6.55512 81.9299L6.60512 81.9499C6.60512 81.9499 6.62512 81.9499 6.63512 81.9499C6.72512 81.9799 6.81512 82.0199 6.94512 82.0699C6.94512 82.0699 6.97512 82.0799 7.02512 82.0999C7.05512 82.0999 7.09512 82.1199 7.14512 82.1399C7.16512 82.1399 7.17512 82.1399 7.19512 82.1599C7.25512 82.1799 7.32512 82.1999 7.40512 82.2199C7.43512 82.2199 7.45512 82.2299 7.48512 82.2399C7.55512 82.2599 7.62512 82.2799 7.70512 82.2899C7.73512 82.2899 7.75512 82.2999 7.78512 82.3099C8.18512 85.6899 8.16512 88.6899 8.07512 90.6599C7.99512 90.7399 7.90512 90.8299 7.83512 90.9099C7.87512 90.8699 7.89512 90.8199 7.92512 90.7799C7.87512 90.8399 7.80512 90.9199 7.74512 90.9999C7.74512 91.0099 7.72512 91.0199 7.72512 91.0299C7.64512 91.1299 7.56512 91.2399 7.49512 91.3399C7.32512 91.6199 7.25512 91.7399 7.10512 92.1099C7.04512 92.2499 6.87512 92.7699 6.91512 93.3899C6.91512 93.5299 6.94512 93.6699 6.96512 93.7899C6.96512 93.7799 6.96512 93.7599 6.95512 93.7499C6.62512 94.2199 6.30512 94.6899 5.97512 95.1499C5.61512 95.6699 5.40512 96.1899 5.30512 96.6999C5.32512 96.6099 5.32512 96.5199 5.35512 96.4399C5.31512 96.5899 5.27512 96.7999 5.24512 96.9499C5.22512 97.0599 5.21512 97.1999 5.21512 97.2999C5.21512 97.6099 5.21512 97.8699 5.30512 98.3199C5.30512 98.3499 5.32512 98.3699 5.33512 98.3999L5.23512 98.7499C5.21512 98.8599 5.19512 98.9899 5.17512 99.1099C5.17512 99.1299 5.16512 99.1599 5.16512 99.1799C5.16512 99.1999 5.16512 99.2199 5.16512 99.2399C5.16512 99.2399 5.16512 99.2599 5.16512 99.2699V99.2999C5.15512 99.4299 5.14512 99.5799 5.15512 99.6999C5.15512 99.8599 5.18512 100.07 5.20512 100.23L5.12512 100.25Z" fill="#1F1F1F"/>
<path d="M19.6552 93.4599C18.9252 93.2199 18.0152 92.9499 16.4552 92.8699C15.4252 92.8199 14.1952 92.8999 13.0752 93.1099C11.4852 93.4099 10.2952 93.8899 9.86521 94.0899C9.68521 94.1699 9.44521 94.2799 9.26521 94.3699C9.09521 94.4599 8.86521 94.5799 8.69521 94.6799C8.52521 94.7699 8.31521 94.9099 8.15521 95.0099C8.15521 95.0099 7.66521 95.3099 7.12521 95.7899C7.47521 95.4799 8.55521 95.8399 8.62521 95.8599C10.9852 93.8099 15.3452 92.9999 18.3652 94.0499C21.3852 95.0999 21.9152 97.6199 19.5552 99.6599C17.1952 101.7 12.8352 102.52 9.81521 101.47C6.79521 100.42 6.26521 97.8999 8.62521 95.8599C8.55521 95.8399 7.48521 95.4899 7.12521 95.7899C6.99521 95.9099 6.81521 96.0599 6.69521 96.1899C6.49521 96.3999 6.23521 96.6999 6.05521 96.9299C5.91521 97.0999 5.62521 97.5599 5.50521 97.8299C5.43521 97.9799 5.34521 98.1799 5.29521 98.3299C5.21521 98.5799 5.13521 98.9299 5.09521 99.1899C5.07521 99.3399 5.06521 99.5499 5.07521 99.7099C5.07521 99.8699 5.10521 100.08 5.12521 100.24C5.36521 101.63 6.54521 102.86 8.59521 103.57C12.5852 104.96 18.3352 103.89 21.4552 101.18C22.9652 99.8699 23.5852 98.4099 23.3552 97.0999C23.3252 96.9799 23.2952 96.8099 23.2552 96.6899C23.1952 96.4999 23.1052 96.2399 23.0052 96.0599C22.8752 95.8299 22.6752 95.5299 22.5252 95.3199C22.4252 95.1899 22.2652 95.0299 22.1452 94.9099C22.0252 94.7899 21.8552 94.6399 21.7152 94.5399C21.4552 94.3599 21.1052 94.1299 20.8352 93.9699C20.8352 93.9699 20.2252 93.6399 19.6552 93.4599Z" fill="#1F1F1F"/>
<path d="M7.12473 95.7998C6.89473 96.0098 6.60473 96.2998 6.39473 96.5198L6.05473 96.9398C5.95473 97.0798 5.82473 97.2698 5.73473 97.4198L5.50473 97.8498C5.44473 97.9998 5.35473 98.1998 5.29473 98.3498L5.17473 98.7798C5.14473 98.9398 5.10473 99.1398 5.09473 99.2998V99.7298C5.09473 99.8898 5.10473 100.1 5.13473 100.26C5.19473 100.61 5.31473 100.95 5.49473 101.27C5.35473 100.91 5.36473 100.83 5.37473 100.81C5.47473 100.71 5.68473 100.96 5.79473 101.05C7.27473 102.28 9.15473 103 11.4047 103.2C13.8047 103.41 15.5747 103.13 17.6247 102.82C17.8847 102.78 18.0947 102.8 18.0947 102.8C18.1347 102.8 18.2047 102.84 18.2147 102.88C18.2247 102.95 18.1547 103.01 17.8047 103.28C19.2047 102.78 20.4647 102.08 21.4647 101.21C21.8747 100.86 22.2147 100.5 22.4847 100.13C22.4647 100.15 22.4447 100.17 22.4247 100.18C22.3347 100.24 22.1447 100.41 22.0947 100.32C22.0147 100.2 22.2047 99.9998 22.2747 99.8698C24.4247 95.8498 21.3247 94.1198 19.8947 93.5598C19.6547 93.4698 19.3247 93.3698 19.0747 93.2898C18.8847 93.2398 18.6247 93.1698 18.4247 93.1298L17.7947 93.0198C17.5947 92.9998 17.3247 92.9598 17.1247 92.9398L16.4647 92.8898C16.2647 92.8898 15.9947 92.8698 15.7847 92.8798L15.1147 92.8998C14.9147 92.9098 14.6347 92.9298 14.4347 92.9498L13.7547 93.0298C13.5547 93.0598 13.2847 93.0998 13.0847 93.1398L12.4147 93.2798C12.2147 93.3298 11.9547 93.3898 11.7547 93.4498L11.1147 93.6498C10.9247 93.7198 10.6647 93.7998 10.4847 93.8798L9.87473 94.1298C9.69473 94.2198 9.45473 94.3198 9.27473 94.4098L8.70473 94.7198C8.53473 94.8198 8.31473 94.9598 8.14473 95.0598L7.63473 95.4198C7.48473 95.5398 7.27473 95.6998 7.13473 95.8298C7.48473 95.5198 8.56473 95.8798 8.63473 95.8998C10.9947 93.8498 15.3547 93.0398 18.3747 94.0898C21.3947 95.1398 21.9247 97.6598 19.5647 99.6998C17.2047 101.74 12.8447 102.56 9.82473 101.51C6.80473 100.46 6.27473 97.9398 8.63473 95.8998C8.56473 95.8798 7.49473 95.5298 7.13473 95.8298L7.12473 95.7998Z" fill="#171717"/>
<path d="M4.18478 79.5298C4.26478 79.8398 4.40478 80.1098 4.45478 80.2098C4.67478 80.6198 5.00478 80.9998 5.40478 81.3098C5.50478 81.3898 5.73478 81.5598 6.10478 81.7598C6.36478 81.8998 6.39478 81.9098 6.92478 82.1098C6.92478 82.1098 7.27478 82.2398 7.81478 82.3598C8.22478 82.4498 8.57478 82.4798 8.73478 82.4998C9.49478 82.5798 10.2748 82.5398 10.6248 82.4998C11.2848 82.4298 11.3548 82.4098 12.0348 82.2698C12.2948 82.2198 12.5248 82.1398 12.9448 82.0098C13.0348 81.9798 13.8248 81.7298 14.6648 81.2498C15.1048 80.9898 15.4048 80.7598 15.4348 80.7398C15.9148 80.3698 16.1348 80.1398 16.2248 80.0298C16.3748 79.8498 16.5748 79.5998 16.7148 79.4098C16.7948 79.2998 16.8748 79.1498 16.9348 79.0298C17.0748 78.7898 17.1648 78.4598 17.2148 78.2898C17.2148 78.2898 17.3248 77.9098 17.3148 77.4998C17.3148 77.1098 17.2648 76.9498 17.1848 76.6298C17.1548 76.5198 17.0748 76.2798 16.8748 75.8898C16.7248 75.6098 16.5148 75.3098 16.4148 75.1698C16.0148 74.6098 15.3448 74.1398 14.4248 73.8198C11.6748 72.8598 7.70478 73.5998 5.55478 75.4698C4.89478 76.0398 4.48478 76.6598 4.30478 77.2598C4.27478 77.3798 4.17478 77.7398 4.13478 77.9798C4.10478 78.1698 4.05478 78.4898 4.06478 78.7798C4.06478 78.9698 4.08478 79.2098 4.16478 79.5398L4.18478 79.5298Z" fill="#1A1A1A"/>
<path d="M7.99529 95.7101C7.99529 95.7101 8.02529 95.7301 8.03529 95.7501C8.02529 95.7401 8.00529 95.7301 7.99529 95.7101ZM7.94529 95.6501C7.94529 95.6501 7.96529 95.6701 7.97529 95.6801C7.96529 95.6701 7.95529 95.6601 7.94529 95.6501ZM7.88529 95.6001C7.88529 95.6001 7.90529 95.6201 7.91529 95.6301C7.90529 95.6201 7.89529 95.6101 7.88529 95.6001ZM7.83529 95.5401C7.83529 95.5401 7.85529 95.5601 7.86529 95.5701C7.85529 95.5601 7.84529 95.5501 7.83529 95.5401ZM7.78529 95.4801C7.78529 95.4801 7.80529 95.5001 7.81529 95.5101C7.81529 95.5001 7.79529 95.4901 7.78529 95.4801ZM7.73529 95.4201C7.73529 95.4201 7.75529 95.4401 7.76529 95.4501C7.76529 95.4401 7.74529 95.4301 7.73529 95.4201ZM7.68529 95.3601C7.68529 95.3601 7.70529 95.3801 7.71529 95.3901C7.71529 95.3801 7.69529 95.3701 7.68529 95.3601ZM7.64529 95.3001C7.64529 95.3001 7.66529 95.3201 7.67529 95.3401C7.67529 95.3301 7.65529 95.3201 7.64529 95.3001ZM7.59529 95.2301C7.59529 95.2301 7.61529 95.2601 7.61529 95.2701C7.61529 95.2601 7.59529 95.2401 7.59529 95.2301ZM7.55529 95.1601C7.55529 95.1601 7.57529 95.1901 7.58529 95.2001C7.58529 95.1901 7.56529 95.1701 7.55529 95.1601ZM7.50529 95.0801C7.50529 95.0801 7.52529 95.1201 7.54529 95.1401C7.53529 95.1201 7.52529 95.1001 7.50529 95.0801ZM7.47529 95.0201C7.47529 95.0201 7.49529 95.0601 7.50529 95.0801C7.49529 95.0601 7.48529 95.0401 7.47529 95.0201ZM7.44529 94.9501C7.44529 94.9501 7.45529 94.9801 7.46529 94.9901C7.46529 94.9801 7.45529 94.9601 7.44529 94.9501ZM7.41529 94.8901C7.41529 94.8901 7.42529 94.9201 7.43529 94.9301C7.43529 94.9201 7.42529 94.9001 7.41529 94.8901ZM7.38529 94.8201C7.38529 94.8201 7.39529 94.8501 7.40529 94.8601C7.40529 94.8501 7.39529 94.8301 7.38529 94.8201ZM7.35529 94.7601C7.35529 94.7601 7.35529 94.7801 7.36529 94.8001C7.36529 94.7901 7.36529 94.7801 7.35529 94.7601ZM7.33529 94.6901C7.33529 94.6901 7.33529 94.7101 7.34529 94.7301C7.34529 94.7201 7.34529 94.7101 7.33529 94.6901ZM7.31529 94.6201C7.31529 94.6201 7.31529 94.6501 7.32529 94.6601C7.32529 94.6501 7.32529 94.6301 7.31529 94.6201ZM7.29529 94.5501C7.29529 94.5501 7.29529 94.5801 7.29529 94.5901C7.29529 94.5801 7.29529 94.5601 7.29529 94.5501ZM7.28529 94.4801C7.28529 94.4801 7.28529 94.5101 7.28529 94.5201C7.28529 94.5101 7.28529 94.4901 7.28529 94.4801ZM8.49529 101.01C12.2653 102.32 17.7253 101.31 20.6753 98.7501C23.0953 96.6501 23.0853 94.1501 20.9053 92.5901C20.8253 92.5301 20.7253 92.4601 20.6453 92.4001C20.6053 92.3701 20.5553 92.3301 20.5153 92.3101C20.4353 92.2501 20.3353 92.1801 20.2553 92.1201C20.1753 92.0601 20.0753 91.9901 19.9953 91.9301C19.9553 91.9001 19.9053 91.8601 19.8653 91.8401C19.7853 91.7801 19.6853 91.7101 19.6053 91.6501C19.5253 91.5901 19.4253 91.5201 19.3453 91.4601C19.3053 91.4301 19.2553 91.3901 19.2153 91.3701C19.1953 91.3601 19.1753 91.3401 19.1653 91.3301C19.1653 91.4301 19.1653 91.5201 19.1453 91.6201C19.7253 92.6401 19.4153 93.9201 18.1353 95.0301C16.0653 96.8301 12.2453 97.5401 9.59529 96.6101C9.02529 96.4101 8.55529 96.1501 8.18529 95.8501C8.18529 95.8501 8.19529 95.8601 8.20529 95.8701C8.20529 95.8701 8.16529 95.8301 8.14529 95.8201C8.14529 95.8201 8.13529 95.8101 8.12529 95.8001C7.92529 95.6201 7.55529 95.2801 7.26529 94.7401C7.09529 94.4201 6.98529 94.1101 6.92529 93.7701C6.59529 94.2401 6.27529 94.7101 5.94529 95.1701C4.35529 97.4501 5.31529 99.8901 8.52529 101L8.49529 101.01ZM8.05529 95.7701C8.05529 95.7701 8.07529 95.7901 8.09529 95.8001C8.09529 95.8001 8.06529 95.7801 8.05529 95.7701ZM7.26529 93.7201C7.26529 93.7201 7.26529 93.6901 7.26529 93.6801C7.26529 93.6901 7.26529 93.7101 7.26529 93.7201ZM7.25529 93.7901C7.25529 93.7901 7.25529 93.7601 7.25529 93.7501C7.25529 93.7601 7.25529 93.7801 7.25529 93.7901ZM7.24529 93.8601C7.24529 93.8601 7.24529 93.8301 7.24529 93.8201C7.24529 93.8301 7.24529 93.8501 7.24529 93.8601ZM7.24529 93.9301C7.24529 93.9301 7.24529 93.9001 7.24529 93.8901C7.24529 93.9001 7.24529 93.9201 7.24529 93.9301ZM7.23529 94.0101C7.23529 94.0101 7.23529 93.9801 7.23529 93.9701C7.23529 93.9801 7.23529 94.0001 7.23529 94.0101ZM7.23529 94.0801C7.23529 94.0801 7.23529 94.0501 7.23529 94.0401C7.23529 94.0501 7.23529 94.0701 7.23529 94.0801ZM7.24529 94.1601C7.24529 94.1601 7.24529 94.1201 7.24529 94.1001C7.24529 94.1201 7.24529 94.1401 7.24529 94.1601ZM7.24529 94.2501C7.24529 94.2501 7.24529 94.2001 7.24529 94.1801C7.24529 94.2001 7.24529 94.2301 7.24529 94.2501ZM7.25529 94.3201C7.25529 94.3201 7.25529 94.2901 7.25529 94.2701C7.25529 94.2901 7.25529 94.3001 7.25529 94.3201ZM7.26529 94.3901C7.26529 94.3901 7.26529 94.3601 7.26529 94.3501C7.26529 94.3601 7.26529 94.3801 7.26529 94.3901ZM7.27529 94.4501C7.27529 94.4501 7.27529 94.4201 7.27529 94.4101C7.27529 94.4201 7.27529 94.4401 7.27529 94.4501Z" fill="#1F1F1F"/>
<path d="M10.5352 96.8799C10.7052 96.9099 10.8852 96.9399 11.0652 96.9599C11.5552 97.0199 12.0652 97.0399 12.5752 97.0199L12.7752 101.58C12.0452 101.61 11.3152 101.58 10.6252 101.5C10.3652 101.47 10.1152 101.43 9.86523 101.38L10.5352 96.8799Z" fill="#5B5B5B"/>
<path d="M23.565 98.3399L23.355 97.1099C23.585 98.4199 22.965 99.8799 21.455 101.19C18.335 103.9 12.585 104.97 8.595 103.58C6.545 102.87 5.365 101.64 5.125 100.25L5.335 101.48C5.575 102.87 6.755 104.1 8.805 104.81C12.795 106.2 18.545 105.13 21.665 102.42C23.175 101.11 23.795 99.6499 23.565 98.3399Z" fill="#141414"/>
<path d="M20.6455 99.5001C20.8455 99.3201 21.1055 99.0801 21.2855 98.8801C21.5655 98.5701 21.7655 98.3001 21.8055 98.2201C21.8655 98.1301 21.9455 98.0201 21.9955 97.9301C22.0755 97.7901 22.1755 97.6001 22.2455 97.4601C22.3355 97.2501 22.4555 96.9901 22.5455 96.5401C22.5455 96.5401 22.6155 96.1801 22.6255 95.8801C22.6255 95.7401 22.6255 95.5501 22.6055 95.4101C22.6055 95.3201 22.5855 95.2001 22.5655 95.1101C22.5255 94.9201 22.4755 94.6601 22.3355 94.3601C22.2955 94.2701 22.2455 94.1501 22.1955 94.0601C22.1155 93.9201 22.0055 93.7501 21.9255 93.6201C22.9955 95.1301 22.6255 97.0801 20.6755 98.7701C17.7255 101.33 12.2755 102.34 8.49551 101.03C5.88551 100.12 4.76551 98.3401 5.28551 96.4901C5.24551 96.6401 5.20551 96.8501 5.17551 97.0001C5.15551 97.1101 5.14551 97.2501 5.14551 97.3501C5.14551 97.6601 5.14551 97.9201 5.23551 98.3701C5.35551 98.9301 5.66551 99.5201 6.06551 99.9901C6.61551 100.63 7.18551 101 7.79551 101.32C8.21551 101.54 8.76551 101.73 8.76551 101.73C8.91551 101.78 9.12551 101.85 9.27551 101.89C9.50551 101.95 9.82551 102.03 10.0655 102.08C13.0455 102.67 16.6855 102.03 19.2855 100.49C19.5555 100.32 19.9155 100.08 20.1755 99.8901C20.3255 99.7901 20.5055 99.6301 20.6455 99.5101V99.5001Z" fill="#141414"/>
<path d="M19.0054 94.0099C19.1154 93.8199 19.4054 93.3299 19.5154 92.6299C19.5854 92.1599 19.5654 91.6999 19.4354 91.2499C19.2654 90.6499 18.9254 90.2299 18.8354 90.1199C18.7554 90.0299 18.5754 89.8099 18.3854 89.6599C18.3054 89.5999 18.2054 89.5099 18.1254 89.4499C17.9754 89.3499 17.7754 89.2199 17.6154 89.1299C19.5254 90.1799 19.6954 92.0899 17.8654 93.6799C15.8054 95.4699 12.0054 96.1699 9.3754 95.2599C6.9554 94.4199 6.3654 92.4999 7.8754 90.8099C7.7454 90.9699 7.5554 91.1899 7.4454 91.3699C7.2754 91.6499 7.2054 91.7699 7.0554 92.1399C6.9954 92.2799 6.8254 92.7999 6.8654 93.4199C6.9054 94.0399 7.1254 94.5199 7.2254 94.6999C7.3254 94.8899 7.6054 95.3999 8.1954 95.8799C8.5554 96.1799 9.0254 96.4299 9.5854 96.6299C12.2354 97.5499 16.0554 96.8399 18.1254 95.0499C18.5054 94.7199 18.8054 94.3699 19.0154 94.0299L19.0054 94.0099Z" fill="#1F1F1F"/>
<path d="M8.32515 90.3598L8.93515 90.6898C7.13515 92.2598 13.4852 88.8498 12.0052 89.2098L11.8252 88.6698C13.5152 88.2698 15.3452 88.2698 16.8152 88.7798C17.5152 89.0198 18.0552 89.3498 18.4452 89.7398C19.5152 90.8198 19.3752 92.3598 17.8552 93.6698C15.7952 95.4598 11.9952 96.1598 9.36515 95.2498C6.73515 94.3298 6.26515 92.1398 8.32515 90.3498V90.3598Z" fill="#191919"/>
<path d="M6.48483 73.3899C4.92483 74.7399 5.27483 76.3999 7.27483 77.0999C9.27483 77.7999 12.1448 77.2599 13.7048 75.9099C15.2648 74.5599 14.9148 72.8999 12.9148 72.1999C10.9248 71.5099 8.04483 72.0399 6.48483 73.3899Z" fill="#1A1A1A"/>
<path d="M10.4946 103.89C10.6746 103.93 12.3346 104.32 14.0846 103.87C14.0346 103.84 13.9746 103.77 13.9146 103.77C13.8846 103.77 13.8446 103.77 13.8146 103.77C13.6146 103.77 13.3546 103.77 13.1546 103.77C13.1346 103.77 11.3746 103.74 10.6646 103.68C10.2979 103.646 10.0679 103.663 9.97461 103.73C10.1346 103.78 10.3446 103.85 10.5046 103.89H10.4946Z" fill="#5B5B5B"/>
<path d="M17.7949 103.26C18.2549 103.09 18.6949 102.91 19.1249 102.7C19.9949 102.28 20.7949 101.77 21.4649 101.19C21.5849 101.09 21.6949 100.98 21.8049 100.88C22.0649 100.63 22.2949 100.37 22.4849 100.11L22.6949 101.34C22.4949 101.6 22.2749 101.86 22.0149 102.11C21.9049 102.21 21.7949 102.32 21.6749 102.42C21.0049 103 20.2149 103.51 19.3349 103.93C18.9049 104.14 18.4649 104.32 18.0049 104.49L17.7949 103.26Z" fill="#171717"/>
<path d="M21.6752 97.68L18.8152 94.29C18.6852 94.47 18.5352 94.64 18.3652 94.81L21.0352 98.43C21.2852 98.19 21.4952 97.94 21.6852 97.69L21.6752 97.68Z" fill="#171717"/>
<path d="M21.0355 98.4198L18.3655 94.7998C18.2855 94.8798 18.2055 94.9598 18.1155 95.0298C17.7455 95.3498 17.3155 95.6398 16.8555 95.8898L18.8755 99.9698C19.5355 99.6198 20.1455 99.2098 20.6755 98.7498C20.8055 98.6398 20.9255 98.5298 21.0355 98.4198Z" fill="#171717"/>
<path d="M18.8754 99.9701L16.8554 95.8901C16.5254 96.0701 16.1754 96.2201 15.8154 96.3601L17.3954 100.64C17.9154 100.45 18.4054 100.22 18.8754 99.9701Z" fill="#171717"/>
<path d="M18.1152 95.0398C18.4552 94.7498 18.7252 94.4398 18.9252 94.1298C18.9252 94.1298 18.9252 94.1398 18.9152 94.1498C18.8352 94.2398 17.9852 94.2498 17.9452 94.1598C17.9452 94.1598 18.0619 93.8598 18.2952 93.2598C18.1652 93.3998 18.0152 93.5498 17.8552 93.6898C17.4552 94.0298 16.9952 94.3398 16.4952 94.5998C16.8952 94.6898 17.0452 94.7298 16.9252 94.9698C16.6052 95.6098 15.9952 96.0598 15.6552 96.2698C15.2852 96.4998 14.9352 96.6398 14.7052 96.7098C14.6752 96.7098 14.6452 96.7298 14.6152 96.7398C15.9552 96.4198 17.2052 95.8398 18.1152 95.0498V95.0398Z" fill="#171717"/>
<path d="M18.3953 91.2401C18.2553 90.9601 15.6253 85.6001 14.4553 78.8501C14.5453 79.3601 14.3053 79.9201 13.7253 80.4301C12.5153 81.4801 10.2953 81.8901 8.74527 81.3501C7.95527 81.0701 7.49527 80.6001 7.40527 80.0601C8.56527 86.8101 7.87527 92.7401 7.83527 93.0601C7.97527 93.8701 8.65527 94.5801 9.84527 94.9901C12.1553 95.7901 15.4853 95.1801 17.2953 93.6101C18.1753 92.8501 18.5253 92.0001 18.3953 91.2501V91.2401Z" fill="#1F1F1F"/>
<path d="M13.4754 95.2297C13.4754 95.2297 12.1054 88.9397 11.5854 86.8097C11.0654 84.6797 9.62535 81.4697 9.70535 84.1497C9.78535 86.8297 10.0654 93.2797 9.84535 94.9797C9.80535 95.0097 11.5554 95.5597 13.4754 95.2297Z" fill="#5B5B5B"/>
<path d="M12.4649 82.06C13.9949 89.73 15.3449 94.43 15.3949 94.63C15.3949 94.65 15.3849 94.7 15.4049 94.71C16.1149 94.43 16.7649 94.05 17.2849 93.6C17.4349 93.47 17.5749 93.33 17.6949 93.2C17.6949 93.2 15.3549 87.51 14.1149 80C14.0049 80.14 13.8749 80.28 13.7149 80.42C13.3249 80.76 12.8349 81.03 12.2949 81.22C12.3449 81.47 12.4149 81.8 12.4649 82.06Z" fill="#171717"/>
<path d="M15.7848 80.4599C15.9148 80.3499 16.0848 80.1899 16.1948 80.0699C16.2748 79.9799 16.3848 79.8599 16.4648 79.7699C16.5448 79.6699 16.6548 79.5299 16.7248 79.4199C16.9348 79.0699 16.9948 78.9799 17.0948 78.7199C17.2448 78.3299 17.2948 78.0099 17.2948 77.9799C17.3248 77.7299 17.3848 77.2499 17.1748 76.5899C16.9948 75.9999 16.6548 75.5099 16.4248 75.1899C16.8548 75.7999 16.9748 76.4999 16.7448 77.2199C16.5648 77.7999 16.1548 78.3999 15.5148 78.9499C13.3648 80.8199 9.39482 81.5499 6.64482 80.5999C5.74482 80.2899 5.09482 79.8299 4.69482 79.2999C4.24482 78.6999 4.11482 77.9999 4.31482 77.2799C4.22482 77.5999 4.17482 77.8099 4.12482 78.0999C4.10482 78.2599 4.06482 78.4899 4.07482 78.8399C4.09482 79.4999 4.31482 79.9799 4.40482 80.1499C4.51482 80.3599 4.60482 80.5199 4.82482 80.7899C4.96482 80.9599 5.17482 81.1499 5.33482 81.2899C5.43482 81.3699 5.66482 81.5499 6.04482 81.7599C6.33482 81.9099 6.45482 81.9599 6.87482 82.1199C6.87482 82.1199 7.23482 82.2599 7.78482 82.3699C8.19482 82.4599 8.54482 82.4999 8.71482 82.5099C9.41482 82.5799 10.1748 82.5599 10.6148 82.5099C10.7548 82.4899 10.9448 82.4799 11.0848 82.4499C11.2248 82.4299 11.4148 82.3999 11.5548 82.3699C11.6948 82.3399 11.8848 82.2999 12.0148 82.2699C12.2748 82.2199 12.4748 82.1499 12.9248 82.0199C12.9548 82.0099 13.7848 81.7499 14.6348 81.2699C15.2448 80.9199 15.6248 80.5899 15.7648 80.4699L15.7848 80.4599Z" fill="#1A1A1A"/>
<path d="M16.7455 77.2099C16.9755 76.4899 16.8555 75.7799 16.4255 75.1799C15.8855 74.4199 14.9255 75.1799 14.4355 75.1199C14.4655 75.1699 14.5155 75.2399 14.5455 75.2899C14.8255 75.7999 14.7255 76.2599 14.6355 76.4899C15.1355 76.7299 16.1755 76.2999 16.7455 77.2099Z" fill="#1A1A1A"/>
<path d="M16.4148 75.1798C16.3048 75.0498 16.1648 74.8698 16.0548 74.7498L15.7848 74.4998C15.6848 74.4198 15.5548 74.3098 15.4448 74.2398L15.1148 74.0298L14.9748 73.9498L14.6048 73.7698C14.4848 73.7198 14.3148 73.6498 14.1948 73.6098L13.7848 73.4798C13.6548 73.4498 13.4848 73.3998 13.3548 73.3698L12.9248 73.2898C12.7948 73.2698 12.6148 73.2498 12.4748 73.2298L12.0248 73.1998C11.8848 73.1998 11.7048 73.1898 11.5748 73.1998H11.1248C10.9848 73.2198 10.8048 73.2298 10.6648 73.2398L10.2048 73.2898C10.0648 73.3098 9.88484 73.3398 9.75484 73.3598L9.30484 73.4498C9.17484 73.4798 8.99484 73.5298 8.86484 73.5598L8.42484 73.6898C8.29484 73.7398 8.12484 73.7898 7.99484 73.8398L7.57484 74.0098C7.45484 74.0698 7.29484 74.1398 7.17484 74.1998L6.78484 74.4098C6.67484 74.4798 6.51484 74.5698 6.40484 74.6398L6.05484 74.8898C5.95484 74.9698 5.81484 75.0798 5.71484 75.1698C6.07484 74.8598 6.86484 75.4498 7.09484 75.2598C7.16484 75.2098 7.24484 75.1398 7.31484 75.0798C7.38484 75.0298 7.47484 74.9598 7.55484 74.9098L7.80484 74.7498C7.88484 74.7098 7.99484 74.6498 8.07484 74.6098L8.35484 74.4798C8.44484 74.4398 8.55484 74.3898 8.64484 74.3598L8.94484 74.2498C9.03484 74.2198 9.16484 74.1798 9.25484 74.1498L9.57484 74.0698C9.67484 74.0498 9.80484 74.0198 9.89484 73.9998L10.2248 73.9498C10.3248 73.9398 10.4548 73.9198 10.5548 73.9098L10.8848 73.8898H11.1348H11.1848C11.7948 73.8898 13.6348 73.9198 14.5448 75.0998C15.0548 75.0598 15.9148 74.4598 16.4248 75.1598L16.4148 75.1798Z" fill="#1A1A1A"/>
<path d="M4.69531 79.2799C5.09531 79.8099 5.75531 80.2699 6.64531 80.5799C9.39531 81.5399 13.3653 80.7999 15.5153 78.9299C16.1553 78.3799 16.5653 77.7799 16.7453 77.1999C16.1753 76.2999 15.1353 76.7199 14.6353 76.4799C14.6153 76.5199 14.5953 76.5799 14.5753 76.6199C14.1053 77.4099 13.6453 77.4199 13.6453 77.4199C13.5253 77.3499 14.1753 75.4199 14.1753 75.3999C14.0453 75.5699 13.8853 75.7299 13.7053 75.8899C13.1853 76.3399 12.5253 76.6999 11.8053 76.9499C11.8453 77.0299 11.8853 77.1399 11.9253 77.2199C12.0753 77.5199 12.2153 77.7099 12.5453 77.8299C12.6153 77.8599 12.7453 77.8899 12.7753 77.9699C13.0253 78.6799 9.66531 79.8099 7.46531 78.7999C6.73531 78.4699 6.50531 78.0699 6.41531 77.9199L6.29531 77.9999C5.91531 78.1999 5.47531 78.2899 5.13531 78.5599C4.75531 78.8599 4.69531 79.2699 4.69531 79.2699V79.2799Z" fill="#1A1A1A"/>
<path d="M16.745 77.2101C16.975 76.4901 16.855 75.7801 16.425 75.1801C16.275 74.9801 16.105 74.8801 15.915 74.8501C15.955 74.9201 16.015 75.0101 16.065 75.0801C16.165 75.2701 16.475 75.8401 16.275 76.7601C16.455 76.8501 16.615 76.9901 16.755 77.2101H16.745Z" fill="#242424"/>
<path d="M15.4254 79.6202C15.7154 79.9702 16.4154 79.8402 16.7454 79.3602L16.9354 79.0402C16.9854 78.9402 17.0454 78.8002 17.0954 78.7002L17.2054 78.3802C17.2354 78.2602 17.2754 78.0902 17.2954 77.9602L17.3254 77.6402C17.3254 77.5002 17.3254 77.3202 17.3054 77.1802L17.2554 76.8802C17.2154 76.7202 17.1454 76.5002 17.0854 76.3402L16.9754 76.1002C16.7854 75.7402 16.7254 75.6302 16.4154 75.1802C16.8454 75.7902 16.9654 76.4902 16.7354 77.2102C16.5554 77.7902 16.1454 78.3902 15.5054 78.9402C15.4354 79.0102 15.3554 79.0702 15.2754 79.1302C15.2754 79.2002 15.2854 79.3002 15.2954 79.3802C15.2954 79.4902 15.4154 79.6302 15.4154 79.6302L15.4254 79.6202Z" fill="#1C1C1C"/>
<path d="M4.14496 78.6497C4.07496 79.0897 4.14496 79.3697 4.22496 79.6697L4.33496 79.9697L4.41496 80.1297L4.57496 80.4197C4.65496 80.5297 4.75496 80.6697 4.83496 80.7697L5.07496 81.0297C5.17496 81.1197 5.30496 81.2297 5.40496 81.3097L5.71496 81.5297C5.83496 81.5997 5.98496 81.6897 6.10496 81.7597L6.48496 81.9397H6.50496L6.55496 81.9697C10.445 83.4397 15.125 81.5897 14.635 79.9297C14.615 79.8497 14.545 79.7497 14.495 79.6697C12.265 80.9797 9.00496 81.4097 6.65496 80.5897C5.75496 80.2797 5.10496 79.8197 4.70496 79.2897C4.45496 78.9597 4.30496 78.5997 4.25496 78.2197C4.24496 78.2797 4.22496 78.3497 4.20496 78.3997C4.18496 78.4797 4.16496 78.5697 4.15496 78.6497H4.14496Z" fill="#1C1C1C"/>
<path d="M15.5149 78.9398C16.1549 78.3898 16.5649 77.7898 16.7449 77.2098C16.6049 76.9898 16.4449 76.8498 16.2649 76.7598C16.2449 76.8198 16.2249 76.9098 16.2149 76.9698C16.1483 77.2164 16.0883 77.4031 16.0349 77.5298C15.9949 77.6198 15.9449 77.7498 15.9049 77.8398C15.7949 78.0798 15.6349 78.2998 15.5149 78.5498C15.4349 78.7198 15.3849 78.9698 15.2949 79.1298C15.3749 79.0698 15.4549 78.9998 15.5249 78.9398H15.5149Z" fill="#242424"/>
<path d="M4.69531 79.2799C5.09531 79.8099 5.75531 80.2699 6.64531 80.5799C8.99531 81.3999 12.2553 80.9799 14.4853 79.6599C14.3953 79.6299 14.2853 79.5899 14.1953 79.5599C14.1953 79.5599 13.7653 79.4499 13.2653 79.5599C11.4153 79.9499 7.55531 80.7499 5.07531 78.6099C4.89531 78.7599 4.75531 78.9699 4.69531 79.2699V79.2799Z" fill="#242424"/>
<path d="M8.58477 78.7501C9.34477 79.0101 9.96477 78.8901 10.3448 78.7501C10.1348 78.6901 9.05477 78.5001 8.38477 78.6701C8.44477 78.7001 8.52477 78.7301 8.58477 78.7501Z" fill="#5B5B5B"/>
<path d="M13.4351 76.2797C13.7751 75.9797 14.8051 75.0497 15.2651 73.3497C15.3251 73.1297 15.3851 72.8397 15.4151 72.6097C15.4351 72.3997 15.4551 72.1097 15.4651 71.8997C15.4651 71.7597 15.4651 71.5697 15.4551 71.4297C15.4451 71.0897 15.3351 70.4397 15.1551 69.9197C15.0751 69.6897 14.8651 69.0897 14.3751 68.3997C13.8951 67.7197 13.3551 67.2897 13.2051 67.1797C12.9551 66.9897 12.4351 66.5997 11.6351 66.3097C11.0551 66.0897 10.4651 65.9697 9.85508 65.9497C8.80508 65.8997 7.95508 66.1597 7.72508 66.2397C7.50508 66.3197 7.39508 66.3597 7.19508 66.4397C7.06508 66.4997 6.90508 66.5697 6.63508 66.7197C6.43508 66.8297 6.11508 67.0297 5.70508 67.3797C6.15841 66.9864 6.15841 66.9864 5.70508 67.3797C5.53508 67.5397 5.30508 67.7497 5.14508 67.9297C5.00508 68.0997 4.82508 68.2997 4.59508 68.6497C4.15508 69.3397 3.95508 69.9697 3.89508 70.1997C3.83508 70.4197 3.75508 70.7097 3.73508 70.9397C3.68841 71.3597 3.66841 71.753 3.67508 72.1197C3.68508 72.5097 3.78508 73.1597 3.98508 73.7397C4.06508 73.9697 4.27508 74.5697 4.76508 75.2597C5.24508 75.9397 5.78508 76.3697 5.93508 76.4797C6.18508 76.6697 6.70508 77.0597 7.50508 77.3497C8.08508 77.5697 8.67508 77.6897 9.28508 77.7097C10.3351 77.7597 11.1851 77.4997 11.4151 77.4197C11.6351 77.3397 11.7451 77.2997 11.9451 77.2197C12.0751 77.1597 12.2351 77.0897 12.5051 76.9397C13.0051 76.6597 13.3651 76.3397 13.4351 76.2797Z" fill="#242424"/>
<path d="M5.07473 75.6499C5.42473 76.0299 5.50473 76.1199 5.95473 76.4899L6.28473 76.7299C6.44473 76.8299 6.65473 76.9599 6.82473 77.0499L7.17473 77.2199C7.31473 77.2799 7.50473 77.3499 7.64473 77.4099L7.98473 77.5199C8.10473 77.5499 8.25473 77.5899 8.37473 77.6199L8.68473 77.6799C8.78473 77.6899 8.91473 77.7099 9.01473 77.7199L9.30473 77.7399C9.39473 77.7399 9.50473 77.7399 9.59473 77.7399H9.86473C9.94473 77.7299 10.0547 77.7199 10.1347 77.7099L10.3947 77.6799C10.4747 77.6699 10.5747 77.6499 10.6547 77.6399L10.9147 77.5899C10.9947 77.5699 11.0947 77.5499 11.1747 77.5199L11.4347 77.4399C11.5147 77.4099 11.6247 77.3799 11.6947 77.3499L11.9647 77.2399C12.0447 77.1999 12.1647 77.1499 12.2447 77.1099L12.5247 76.9599C12.6147 76.8999 12.7447 76.8299 12.8347 76.7699L13.1247 76.5699C13.2247 76.4899 13.3647 76.3799 13.4647 76.2899L13.7447 76.0299C14.0747 75.6799 14.1347 75.6199 14.3947 75.2699L14.6247 74.9199C14.7447 74.7099 14.8947 74.4199 15.0047 74.1999L15.1647 73.7899C15.2347 73.5799 15.3147 73.2899 15.3647 73.0799L15.4447 72.6299C15.4647 72.4199 15.4847 72.1299 15.4947 71.9199V71.4499C15.4647 71.2699 15.4347 71.0299 15.4047 70.8499L15.3047 70.3899C15.1447 69.8599 15.1047 69.7299 14.8547 69.1899L14.6347 68.7899C14.3047 68.2899 14.3047 68.2799 14.0847 68.0299L13.7947 67.7099C13.6247 67.5499 13.3947 67.3399 13.2147 67.1899L12.8847 66.9499C12.7247 66.8499 12.5147 66.7199 12.3447 66.6299L11.9947 66.4599C11.8547 66.3999 11.6647 66.3299 11.5247 66.2699L11.1847 66.1599C11.0647 66.1299 10.9147 66.0899 10.7947 66.0599L10.4847 65.9999C10.3847 65.9899 10.2547 65.9699 10.1547 65.9599L9.86473 65.9399C9.77473 65.9399 9.66473 65.9399 9.57473 65.9399C9.51473 65.9399 9.43473 65.9399 9.37473 65.9399C9.42473 65.9399 9.48473 65.9399 9.53473 65.9399C14.1747 66.0399 15.5547 71.9099 11.7747 75.4499C9.62473 77.4699 5.91473 77.5099 4.34473 74.5499L4.56473 74.9399C4.71473 75.1599 4.91473 75.4499 5.08473 75.6499H5.07473Z" fill="#171717"/>
<path d="M6.48537 70.98C6.52537 72.14 7.82537 72.89 8.88537 72C9.32537 71.64 9.50537 70.98 9.41537 70.58C9.25537 69.81 8.64537 69.47 8.34537 69.39C7.61537 69.22 6.44537 69.91 6.48537 70.97V70.98Z" fill="#5B5B5B"/>
<path d="M8.35547 81.1699C8.36547 81.1099 8.38547 81.0199 8.40547 80.9599C8.45547 80.9499 8.52547 80.9199 8.58547 80.9199C8.83547 80.9199 9.16547 80.9199 9.40547 80.9199C9.49547 80.9199 9.60547 80.9699 9.69547 80.9999C9.72547 81.0799 9.81547 81.1699 9.79547 81.2499C9.79547 81.2499 9.57547 81.5099 9.45547 81.5299C9.37547 81.5399 8.65547 81.4699 8.60547 81.4499C8.51547 81.4099 8.38547 81.3099 8.35547 81.2099C8.35547 81.1999 8.35547 81.1799 8.35547 81.1699Z" fill="#5B5B5B"/>
<path d="M0.905048 70.29C1.10505 72.59 1.96505 75.72 2.16505 76.08C2.36505 76.44 3.82505 76.75 4.71505 76.62C4.80505 76.62 4.89505 76.58 4.98505 76.54C5.75505 76.18 6.43505 74.84 6.83505 73.78C7.28505 72.6 7.20505 70.76 6.79505 68.95C6.37505 67.15 7.91505 62.76 7.91505 62.76C7.91505 62.76 7.96505 62.92 8.06505 63.21C8.70505 65.16 11.245 72.81 11.765 73.75C12.365 74.83 15.225 77.27 15.715 77.43C16.205 77.59 17.675 77.27 18.625 75.9C18.635 75.88 18.655 75.86 18.665 75.84C19.615 74.41 18.745 71.74 18.045 70.71L17.345 69.67C17.345 69.67 16.765 66.44 16.605 65.49C16.435 64.54 16.065 62.75 16.065 62.75C16.065 62.75 17.365 58.45 17.365 57.74C17.365 57.07 17.875 55.25 17.955 55.01C17.895 55.48 17.075 61.71 18.235 63.23C19.445 64.81 21.155 65.06 22.045 65.13C22.945 65.19 24.315 64.04 24.905 63.52C25.495 62.99 26.015 61.84 26.015 61.84C26.015 61.84 25.805 63.27 27.565 63.98C29.335 64.7 31.625 64.14 32.725 63.08C33.835 62.03 35.235 61.34 35.565 58.55C35.885 55.75 35.8851 55.51 35.8851 55.51L38.215 51.88C38.215 51.88 40.2351 49.24 42.245 47.53C44.265 45.82 47.055 40.39 49.1651 38.19C51.2751 35.99 73.625 19.72 73.625 19.72C73.625 19.72 76.805 15.94 74.735 9.61998C74.215 8.04998 73.375 6.31998 72.075 4.44998C65.555 -4.92002 56.495 3.57998 56.495 3.57998C56.495 3.57998 38.265 21.46 33.815 25.49C29.375 29.53 27.375 31.14 23.165 32.59C18.955 34.04 8.40505 37.26 7.20505 39.09C6.00505 40.91 1.28505 55.35 0.785048 58.09C0.285048 60.82 0.705049 67.99 0.895048 70.29H0.905048Z" fill="#F6A878"/>
<path d="M14.0653 63.1596C13.4453 64.3997 12.6953 64.7996 12.7653 65.2096C12.8253 65.6196 13.5353 65.9296 14.0053 66.5196C14.4753 67.1096 15.8353 70.1196 16.8253 72.1996C17.7153 74.0696 18.4653 74.9896 18.6253 75.9196C18.6353 75.8997 18.6553 75.8796 18.6653 75.8596C19.6153 74.4296 18.7453 71.7597 18.0453 70.7297L17.3453 69.6897C17.3453 69.6897 16.7653 66.4597 16.6053 65.5097C16.4353 64.5597 16.0653 62.7696 16.0653 62.7696C16.0653 62.7696 17.3653 58.4696 17.3653 57.7596C17.3653 57.0896 17.8753 55.2696 17.9553 55.0296C17.8953 55.4996 17.0753 61.7296 18.2353 63.2496C19.4453 64.8297 21.1553 65.0797 22.0453 65.1497C22.9453 65.2097 24.3153 64.0597 24.9053 63.5396C25.4953 63.0097 26.0153 61.8596 26.0153 61.8596C26.0153 61.8596 25.8053 63.2896 27.5653 63.9996C29.3353 64.7197 31.6253 64.1596 32.7253 63.0996C33.8353 62.0496 35.2353 61.3596 35.5653 58.5696C35.8853 55.7696 35.8853 55.5296 35.8853 55.5296L38.2153 51.8997C38.2153 51.8997 40.2353 49.2596 42.2453 47.5496C44.2653 45.8396 47.0553 40.4096 49.1653 38.2096C51.2753 36.0096 73.6253 19.7396 73.6253 19.7396C73.6253 19.7396 76.8053 15.9596 74.7353 9.63965C67.0753 18.5596 51.4853 30.2896 49.0053 32.3997C45.7353 35.1697 46.5253 36.3197 44.3453 40.4697C42.8353 43.3396 36.9153 46.6696 36.9153 46.6696C36.9153 46.6696 35.9153 47.4396 35.3253 47.9796C34.7353 48.5096 34.9453 49.8697 34.9453 50.8297C34.9453 51.7896 34.7953 52.2896 34.5753 53.8997C34.3553 55.5097 33.8853 61.6896 32.1553 63.0896C30.4153 64.4897 28.0253 64.4596 27.0053 63.3396C25.9853 62.2197 26.2353 60.7996 26.7553 57.9096C27.2853 55.0196 27.9953 51.6096 27.9953 51.6096C27.9953 51.6096 27.7153 51.4897 27.3753 51.3297C27.0353 51.1796 26.8453 49.7796 26.8453 49.7796C26.8453 49.7796 26.8753 49.9996 26.8453 51.0196C26.8153 52.0396 25.7553 54.7996 25.7553 57.1196C25.7553 59.4396 25.5753 61.6996 24.2453 63.3797C22.9153 65.0496 20.8753 64.9696 19.6153 64.2396C18.3553 63.5196 18.2153 62.5696 18.0353 60.0496C17.8553 57.5296 18.7553 54.0596 18.6653 52.7796C18.5753 51.5096 17.9453 49.1196 17.9453 49.1196C17.9453 49.1196 15.8953 55.3596 15.3353 57.3396C14.7753 59.3297 14.6853 61.8997 14.0653 63.1497V63.1596Z" fill="#D66545"/>
<path d="M5.81547 73.1198C5.79547 74.2798 5.33547 75.6498 4.98547 76.5398C5.75547 76.1798 6.43547 74.8398 6.83547 73.7798C7.28547 72.5998 7.20547 70.7598 6.79547 68.9498C6.37547 67.1498 7.91547 62.7598 7.91547 62.7598C7.91547 62.7598 7.96547 62.9198 8.06547 63.2098C7.94547 62.4598 7.85547 61.8598 7.80547 61.5098C7.55547 59.8698 10.6655 48.7498 10.7355 47.9698C10.8055 47.1898 10.7355 45.5498 10.7355 45.5498C10.7355 45.5498 10.1355 47.3498 9.17547 50.5798C8.21547 53.8098 6.25547 57.4998 5.57547 59.9298C4.88547 62.3498 4.85547 66.9698 4.85547 68.6198C4.85547 70.2698 5.84547 71.2298 5.81547 73.1198Z" fill="#D66545"/>
<path d="M20.3552 34.4498C20.3552 34.4498 9.00517 37.9498 8.26517 38.7798C7.52517 39.6098 6.47517 39.8498 7.80517 40.7898C9.13517 41.7198 12.0552 40.7898 12.4252 40.7898C12.7952 40.7898 13.3052 40.1698 13.7652 40.7898C14.2252 41.4098 14.4152 42.7298 15.3452 42.7898C16.2752 42.8398 17.0852 42.7898 17.7652 42.7898C18.4452 42.7898 18.1952 42.4098 19.6252 43.5898C21.0552 44.7698 21.5952 45.4498 22.8452 45.5798C24.0952 45.6998 25.0252 45.1498 25.6452 45.1498C26.2652 45.1498 27.1352 45.0898 28.1252 45.2698C29.1152 45.4598 29.9252 48.7498 31.6052 49.4298C33.2852 50.1098 35.0152 46.1998 36.1352 45.5798C37.2552 44.9598 40.8552 42.6998 41.4752 41.9598C42.0952 41.2198 43.6552 37.1998 43.8352 36.3298C44.0252 35.4598 45.7852 33.8498 47.2052 32.5398C48.6152 31.2398 66.3052 15.7898 70.2252 11.9298C74.1452 8.06983 73.8252 8.20983 73.8252 8.20983C73.8252 8.20983 71.9852 -3.72017 60.1152 1.21983C50.4152 10.9998 33.9052 26.7098 32.2952 28.8198C30.6852 30.9298 20.3652 34.4698 20.3652 34.4698L20.3552 34.4498Z" fill="#FFBA89"/>
<path d="M12.5548 43.7399C11.8248 44.4999 11.6848 46.1299 11.4748 47.0099C11.0148 48.8499 10.5648 50.6999 10.1148 52.5499C9.66477 54.3799 9.22477 56.2099 8.80477 58.0399C8.56477 59.0699 8.25477 60.1199 8.13477 61.1799C8.13477 61.2199 8.13477 61.2499 8.13477 61.2899C8.13477 62.1999 11.9848 73.6199 11.9848 73.6199L13.5548 75.1899L17.2648 74.6099C17.2648 74.6099 14.0948 68.3999 13.5548 67.3299C13.0148 66.2599 12.0248 65.5499 12.0248 65.3399C12.0248 65.1299 13.6348 63.1099 14.0948 59.9999C14.4048 57.8799 15.0648 55.7799 15.6548 53.7199C15.9948 52.5199 16.5148 51.2999 16.7048 50.0399C16.9148 48.6699 16.5848 47.6599 16.1448 46.3899C16.1148 46.2899 16.0748 46.1999 16.0448 46.0999C15.8348 45.4999 15.6248 44.8899 15.2548 44.3699C14.8848 43.8499 14.3448 43.4199 13.7148 43.3499C13.2248 43.2899 12.8648 43.4499 12.5848 43.7399H12.5548Z" fill="#FFBA89"/>
<path d="M5.09528 45.5599C5.09528 45.5599 6.50528 42.5399 7.61528 41.9999C8.73528 41.4599 10.0953 44.4399 9.18528 47.2599C8.27528 50.0799 5.54528 59.5499 4.54528 60.1699C3.55528 60.7899 0.935284 60.2499 1.08528 58.2699C1.22528 56.2899 5.08528 45.5599 5.08528 45.5599H5.09528Z" fill="#FFBA89"/>
<path d="M3.35495 58.5099C3.35495 58.5099 4.51495 58.8399 4.55495 60.1699C4.59495 61.4899 3.72495 69.5199 3.76495 70.6399C3.80495 71.7599 2.56495 71.7999 2.06495 71.2599C1.56495 70.7199 1.36495 70.6799 1.36495 70.3499C1.36495 70.0199 0.74495 68.1199 0.72495 67.7899C0.70495 67.4599 0.81495 58.6699 1.08495 57.8099C1.35495 56.9499 3.35495 58.5099 3.35495 58.5099Z" fill="#FFBA89"/>
<path d="M19.0949 52.1399C19.0949 52.1399 19.3649 48.5399 19.9949 47.2599C20.6149 45.9799 23.1449 46.0199 23.3849 47.7999C23.6349 49.5799 22.6449 56.7799 22.5949 57.3599C22.5549 57.9399 23.2149 62.6599 22.2649 63.2399C21.3149 63.8199 21.1649 64.0699 20.3549 63.4099C19.5349 62.7499 18.6649 57.6499 18.7149 57.1399C18.7549 56.6299 19.1049 52.1599 19.1049 52.1599L19.0949 52.1399Z" fill="#FFBA89"/>
<path d="M26.8652 61.7397C26.8652 61.7397 27.7352 63.1497 28.2352 63.3497C28.7352 63.5597 30.6752 61.8497 31.2952 60.4097C31.9152 58.9697 33.4452 52.1897 33.4452 51.1697C33.4452 50.1497 29.1852 49.6397 28.4752 51.1697C27.7752 52.6997 26.8652 61.7397 26.8652 61.7397Z" fill="#FFBA89"/>
<path d="M1.57537 71.6599C1.57537 71.6599 3.54537 71.9699 3.96537 72.8499C4.38537 73.7299 4.64537 75.9899 4.24537 76.6499C3.84537 77.3099 2.36537 76.6699 2.02537 76.4099C1.68537 76.1499 1.17537 72.7399 1.20537 72.3499C1.23537 71.9599 1.24537 71.5899 1.57537 71.6599Z" fill="#F2D0BD"/>
<path d="M18.225 76.4C18.225 76.4 18.015 74.95 17.245 74.61C16.465 74.27 14.455 74.59 14.095 74.81C13.735 75.03 13.195 75.69 14.285 76.72C15.375 77.75 15.435 77.7 15.965 77.71C16.495 77.73 18.005 77.49 18.235 76.4H18.225Z" fill="#F2D0BD"/>
<path d="M31.1047 49.4901C31.1047 49.4901 29.0247 48.6301 29.3947 46.1501C29.7647 43.6701 32.9047 44.5401 33.6447 45.0601C34.3847 45.5901 33.5847 47.4801 33.0547 48.0701C32.5247 48.66 31.6547 49.5 31.0947 49.48L31.1047 49.4901Z" fill="#FFC096"/>
<path d="M19.7149 44.7799C19.7149 44.7799 20.2749 42.7199 21.8249 41.9299C23.3749 41.1499 23.9649 41.1799 24.4649 42.1699C24.9649 43.1599 24.6149 44.6599 24.2549 45.0899C23.8949 45.5099 22.1649 47.6599 21.3049 47.1999C20.4349 46.7399 19.5349 45.2999 19.7249 44.7799H19.7149Z" fill="#FFC096"/>
<path d="M12.3555 42.7697C12.3555 42.7697 12.8255 40.3697 14.4355 39.5897C16.0455 38.8097 16.9855 39.1897 17.4155 39.5897C17.8455 39.9897 18.0955 40.8997 17.3555 41.3797C16.6155 41.8597 14.9955 44.4697 14.9955 44.4697C14.9955 44.4697 12.6355 46.8797 12.3555 42.7697Z" fill="#FFC096"/>
<path d="M7.16526 39.85C7.16526 39.85 7.55526 38.54 9.78526 38.02C12.0153 37.5 12.0453 38.08 12.0153 39.3C11.9853 40.51 9.81526 41.66 9.06526 42.4C8.31526 43.14 7.32526 43.18 7.32526 43.18C7.32526 43.18 6.15526 42.44 7.15526 39.86L7.16526 39.85Z" fill="#FFC096"/>
</g>
<defs>
<clipPath id="clip0_644_39005">
<rect width="74.89" height="105.42" fill="white" transform="translate(0.554688)"/>
</clipPath>
</defs>
</svg>
