<svg width="75" height="28" viewBox="0 0 75 28" fill="none" xmlns="http://www.w3.org/2000/svg">
<path fill-rule="evenodd" clip-rule="evenodd" d="M0 2.20879C0 1.39476 0.666243 0.734863 1.4881 0.734863H11.9048C15.1922 0.734863 17.8571 3.37445 17.8571 6.63056V21.3698C17.8571 24.6259 15.1922 27.2655 11.9048 27.2655H1.48809C0.666243 27.2655 0 26.6056 0 25.7916V2.20879ZM5.77381 6.9843H12.7439L11.7378 9.78245H9.44464V12.4338H11.7378V15.0938H9.44464V18.1683L11.7378 18.166L12.7381 20.9641L5.77381 20.9664V6.9843ZM5.05952 17.599V10.2079L2.44048 9.40153L2.44048 18.5399L5.05952 17.599Z" fill="url(#paint0_linear_585_2817)"/>
<path d="M64.9137 12.103C64.9137 9.7644 66.8857 8.10645 69.6606 8.10645C72.4355 8.10645 74.1807 9.64223 74.1807 12.0855H71.3709C71.3709 11.178 70.6903 10.6196 69.6257 10.6196C68.4739 10.6196 67.7409 11.1431 67.7409 11.9983C67.7409 12.7836 68.1423 13.1676 69.0498 13.3595L70.987 13.7609C73.2907 14.2321 74.3902 15.3316 74.3902 17.3735C74.3902 19.8692 72.4355 21.4922 69.4687 21.4922C66.5891 21.4922 64.7217 19.939 64.7217 17.5131H67.5315C67.5315 18.4556 68.2296 18.9791 69.4861 18.9791C70.7601 18.9791 71.5629 18.473 71.5629 17.6528C71.5629 16.9372 71.2313 16.5707 70.3762 16.3962L68.4041 15.9948C66.1004 15.5236 64.9137 14.2147 64.9137 12.103Z" fill="white"/>
<path d="M64.9137 12.103C64.9137 9.7644 66.8857 8.10645 69.6606 8.10645C72.4355 8.10645 74.1807 9.64223 74.1807 12.0855H71.3709C71.3709 11.178 70.6903 10.6196 69.6257 10.6196C68.4739 10.6196 67.7409 11.1431 67.7409 11.9983C67.7409 12.7836 68.1423 13.1676 69.0498 13.3595L70.987 13.7609C73.2907 14.2321 74.3902 15.3316 74.3902 17.3735C74.3902 19.8692 72.4355 21.4922 69.4687 21.4922C66.5891 21.4922 64.7217 19.939 64.7217 17.5131H67.5315C67.5315 18.4556 68.2296 18.9791 69.4861 18.9791C70.7601 18.9791 71.5629 18.473 71.5629 17.6528C71.5629 16.9372 71.2313 16.5707 70.3762 16.3962L68.4041 15.9948C66.1004 15.5236 64.9137 14.2147 64.9137 12.103Z" fill="white"/>
<path d="M54.109 12.103C54.109 9.7644 56.0811 8.10645 58.8559 8.10645C61.6308 8.10645 63.376 9.64223 63.376 12.0855H60.5663C60.5663 11.178 59.8856 10.6196 58.821 10.6196C57.6692 10.6196 56.9362 11.1431 56.9362 11.9983C56.9362 12.7836 57.3376 13.1676 58.2451 13.3595L60.1823 13.7609C62.486 14.2321 63.5855 15.3316 63.5855 17.3735C63.5855 19.8692 61.6308 21.4922 58.664 21.4922C55.7844 21.4922 53.917 19.939 53.917 17.5131H56.7268C56.7268 18.4556 57.4249 18.9791 58.6814 18.9791C59.9554 18.9791 60.7582 18.473 60.7582 17.6528C60.7582 16.9372 60.4266 16.5707 59.5715 16.3962L57.5994 15.9948C55.2957 15.5236 54.109 14.2147 54.109 12.103Z" fill="white"/>
<path d="M54.109 12.103C54.109 9.7644 56.0811 8.10645 58.8559 8.10645C61.6308 8.10645 63.376 9.64223 63.376 12.0855H60.5663C60.5663 11.178 59.8856 10.6196 58.821 10.6196C57.6692 10.6196 56.9362 11.1431 56.9362 11.9983C56.9362 12.7836 57.3376 13.1676 58.2451 13.3595L60.1823 13.7609C62.486 14.2321 63.5855 15.3316 63.5855 17.3735C63.5855 19.8692 61.6308 21.4922 58.664 21.4922C55.7844 21.4922 53.917 19.939 53.917 17.5131H56.7268C56.7268 18.4556 57.4249 18.9791 58.6814 18.9791C59.9554 18.9791 60.7582 18.473 60.7582 17.6528C60.7582 16.9372 60.4266 16.5707 59.5715 16.3962L57.5994 15.9948C55.2957 15.5236 54.109 14.2147 54.109 12.103Z" fill="white"/>
<path d="M52.5111 21.2652H44.3086V8.35059H52.5111V10.9684H47.1358V13.499H51.9003V15.9772H47.1358V18.6473H52.5111V21.2652Z" fill="white"/>
<path d="M52.5111 21.2652H44.3086V8.35059H52.5111V10.9684H47.1358V13.499H51.9003V15.9772H47.1358V18.6473H52.5111V21.2652Z" fill="white"/>
<path d="M33.8087 21.2652H30.9814V8.35059H33.8087V13.4466H38.8V8.35059H41.6272V21.2652H38.8V16.0644H33.8087V21.2652Z" fill="white"/>
<path d="M33.8087 21.2652H30.9814V8.35059H33.8087V13.4466H38.8V8.35059H41.6272V21.2652H38.8V16.0644H33.8087V21.2652Z" fill="white"/>
<path d="M22.9994 21.4745C19.1251 21.4745 16.6992 18.9091 16.6992 14.8253C16.6992 10.7938 19.2647 8.14111 23.1216 8.14111C26.3502 8.14111 28.6714 9.99104 29.0728 12.8881H26.0885C25.7045 11.5966 24.605 10.8636 23.0518 10.8636C20.9575 10.8636 19.6835 12.3471 19.6835 14.8078C19.6835 17.2337 20.975 18.752 23.0518 18.752C24.6399 18.752 25.8092 17.9667 26.1583 16.6927H29.0902C28.6365 19.5723 26.2281 21.4745 22.9994 21.4745Z" fill="white"/>
<path d="M22.9994 21.4745C19.1251 21.4745 16.6992 18.9091 16.6992 14.8253C16.6992 10.7938 19.2647 8.14111 23.1216 8.14111C26.3502 8.14111 28.6714 9.99104 29.0728 12.8881H26.0885C25.7045 11.5966 24.605 10.8636 23.0518 10.8636C20.9575 10.8636 19.6835 12.3471 19.6835 14.8078C19.6835 17.2337 20.975 18.752 23.0518 18.752C24.6399 18.752 25.8092 17.9667 26.1583 16.6927H29.0902C28.6365 19.5723 26.2281 21.4745 22.9994 21.4745Z" fill="white"/>
<defs>
<linearGradient id="paint0_linear_585_2817" x1="2.36469e-08" y1="7.3675" x2="17.6033" y2="7.39939" gradientUnits="userSpaceOnUse">
<stop stop-color="#67E4FF"/>
<stop offset="1" stop-color="#009ED0"/>
</linearGradient>
</defs>
</svg>
