<svg width="100" height="73" viewBox="0 0 100 73" fill="none" xmlns="http://www.w3.org/2000/svg">
<path fill-rule="evenodd" clip-rule="evenodd" d="M34.6252 6.81933C43.0852 0.669325 58.5652 -2.68067 73.3052 2.66932C93.1252 9.87932 96.7352 6.97933 99.4352 19.7893C100.545 25.0393 99.6852 29.8593 98.8252 36.9393C97.5752 47.1393 95.8352 59.1393 95.8352 59.4293C95.8352 59.9193 65.2052 79.6993 53.4852 69.3393C41.7752 58.9793 26.4552 61.2293 16.5452 52.2193C6.63519 43.2093 13.8452 22.9393 13.8452 18.8793C13.8452 17.9893 19.7352 16.8693 24.6352 14.3293C29.2752 11.9193 32.8852 8.08932 34.6352 6.80933L34.6252 6.81933Z" fill="#696569"/>
<path fill-rule="evenodd" clip-rule="evenodd" d="M96.7852 52.4497C96.2652 56.2097 95.8852 58.9297 95.8352 59.3797L77.3652 60.1797L78.9452 54.4397C80.5352 54.2597 96.8852 51.7597 96.7852 52.4597L96.7852 52.4497Z" fill="#A39EA3"/>
<path fill-rule="evenodd" clip-rule="evenodd" d="M23.3653 6.81933C31.8253 0.669325 47.3053 -2.68067 62.0453 2.66932C81.8653 9.87932 85.4653 6.97933 88.1753 19.7893C89.2853 25.0393 88.4253 29.8593 87.5653 36.9393C86.3253 47.1393 84.5753 59.1393 84.5753 59.4293C84.5753 59.9193 53.9453 79.6993 42.2253 69.3393C38.1453 65.7293 30.0353 65.1793 25.4653 63.5593C20.8553 61.9293 19.8053 59.2593 15.4653 57.7193C11.7453 56.3993 8.26534 54.9293 5.28534 52.2193C-2.37466 45.2793 0.185337 31.5993 1.74534 23.8693C3.66534 14.3693 5.00534 17.8193 14.7153 12.7693C19.3553 10.3593 21.6153 8.09933 23.3653 6.82933L23.3653 6.81933Z" fill="#A39EA3"/>
<path fill-rule="evenodd" clip-rule="evenodd" d="M81.8651 58.0395C83.2151 52.8595 85.6951 31.6895 87.0451 28.5295C88.3951 25.3795 85.6951 17.4895 84.7951 14.3395C83.8951 11.1895 68.1251 6.45949 58.2151 3.74949C54.5551 2.7495 50.1151 2.02949 45.6151 1.68949C41.7251 1.38949 37.7751 1.3795 34.2451 1.7195C39.6451 0.179497 45.8851 -0.440506 52.2951 0.349494C55.5251 0.749496 58.7951 1.5095 62.0351 2.6795C81.8551 9.88949 85.4551 6.98949 88.1651 19.7995C89.2751 25.0495 88.4151 29.8695 87.5551 36.9495C86.3151 47.1495 84.5651 59.1495 84.5651 59.4395C84.5651 59.6695 78.1751 63.9095 70.1151 67.4795C75.9551 64.2595 81.1151 60.9095 81.8651 58.0395Z" fill="#EBEBEB"/>
<path fill-rule="evenodd" clip-rule="evenodd" d="M84.4756 11.1392C87.8056 10.7292 91.0556 10.2392 93.9456 9.75918C96.8456 11.5092 98.2256 14.0992 99.4356 19.7992C99.7256 21.1892 99.8856 22.5492 99.9356 23.9292L88.6956 25.6592C88.7256 23.6692 88.5856 21.7692 88.1756 19.7992C87.2556 15.4192 86.2256 12.8792 84.4756 11.1392Z" fill="#A39EA3"/>
<path fill-rule="evenodd" clip-rule="evenodd" d="M55.725 1.33913C55.435 1.26913 55.265 0.979126 55.335 0.699127C55.405 0.419128 55.695 0.239128 55.975 0.309128C62.005 1.79913 66.935 3.54913 72.205 5.41913C74.585 6.25913 77.025 7.12913 79.555 7.97912C87.755 10.7091 88.595 16.8591 89.245 21.5391C89.285 21.8091 89.315 22.0791 89.375 22.4791C90.045 27.0291 88.475 34.8291 88.365 35.3591L84.765 59.7991C84.735 59.9791 84.625 60.1191 84.475 60.1991C83.945 60.4891 69.575 68.3591 63.205 70.1491C62.925 70.2291 62.625 70.0591 62.555 69.7791C62.475 69.4991 62.645 69.1991 62.925 69.1291C68.825 67.4691 81.865 60.4191 83.755 59.3891L87.325 35.2091L87.325 35.1791C87.325 35.1591 88.995 27.1591 88.335 22.6391C88.305 22.4291 88.255 22.0591 88.205 21.6791C87.605 17.2791 86.805 11.5091 79.235 8.97913C76.555 8.08913 74.175 7.23913 71.865 6.41913C66.615 4.54913 61.705 2.80913 55.735 1.33913L55.725 1.33913Z" fill="#696569"/>
<path fill-rule="evenodd" clip-rule="evenodd" d="M26.9156 7.05886C29.7756 7.17886 28.9756 11.2189 26.6656 9.61887C25.6756 8.93887 25.3756 7.48886 26.9156 7.05886Z" fill="#B9B5B9"/>
<path fill-rule="evenodd" clip-rule="evenodd" d="M26.4557 6.94851C29.3157 7.06851 28.5157 11.1085 26.2057 9.50851C25.2157 8.82851 24.9157 7.37851 26.4557 6.94851Z" fill="#696569"/>
<path fill-rule="evenodd" clip-rule="evenodd" d="M21.6851 12.7993C26.6851 13.7493 25.2951 19.1393 21.2451 16.2793C19.5151 15.0593 18.9851 12.9593 21.6851 12.7993Z" fill="#B9B5B9"/>
<path fill-rule="evenodd" clip-rule="evenodd" d="M21.4752 13.5796C26.4752 14.5296 25.0852 19.9196 21.0352 17.0596C19.3052 15.8396 18.7752 13.7396 21.4752 13.5796Z" fill="#696569"/>
<path fill-rule="evenodd" clip-rule="evenodd" d="M75.5155 54.3796C77.0955 56.8396 73.4655 58.5496 73.3655 55.6696C73.3255 54.4396 74.2755 53.3396 75.5155 54.3796Z" fill="#B9B5B9"/>
<path fill-rule="evenodd" clip-rule="evenodd" d="M75.325 53.9196C76.905 56.3796 73.285 58.0896 73.175 55.2096C73.135 53.9796 74.085 52.8796 75.325 53.9196Z" fill="#696569"/>
<path fill-rule="evenodd" clip-rule="evenodd" d="M80.9254 48.849C82.3154 53.749 76.8754 54.919 77.6154 50.009C77.9354 47.909 79.5654 46.499 80.9254 48.849Z" fill="#B9B5B9"/>
<path fill-rule="evenodd" clip-rule="evenodd" d="M80.1256 49.0094C81.5157 53.9094 76.0756 55.0794 76.8156 50.1794C77.1356 48.0794 78.7656 46.6694 80.1256 49.0094Z" fill="#696569"/>
<path fill-rule="evenodd" clip-rule="evenodd" d="M69.4556 59.899C71.9856 61.379 69.5256 64.539 68.1256 62.019C67.5256 60.939 67.8756 59.529 69.4556 59.899Z" fill="#B9B5B9"/>
<path fill-rule="evenodd" clip-rule="evenodd" d="M69.0855 59.5787C71.6155 61.0587 69.1554 64.2187 67.7554 61.6987C67.1554 60.6187 67.5055 59.2087 69.0855 59.5787Z" fill="#696569"/>
</svg>
