 <svg width="126" height="86" viewBox="0 0 126 86" fill="none" xmlns="http://www.w3.org/2000/svg">
<g style="mix-blend-mode:multiply">
<path d="M99.5519 27.7969C101.553 28.9517 102.638 30.4187 102.663 31.9543C102.688 33.4962 101.659 34.9445 99.7639 36.0494C96.6776 37.8472 91.8954 38.3029 87.8739 37.1793L87.1382 37.5039C87.0447 37.5601 86.9824 37.6599 86.9886 37.7723C86.9886 37.8847 87.0509 37.9846 87.1445 38.047L112.919 52.9415L87.6432 67.655C87.556 67.7112 87.4999 67.8048 87.4999 67.9109C87.4999 68.0233 87.556 68.1232 87.6557 68.1856L88.167 68.479C92.388 67.4178 97.1764 67.9047 100.331 69.7275C102.264 70.8449 103.349 72.3119 103.374 73.8475C103.399 75.3894 102.37 76.8377 100.475 77.9426C96.4407 80.2898 89.8067 80.2648 85.6855 77.8864C84.0332 76.9313 82.9733 75.6766 82.7114 74.3656C82.5119 73.3169 82.8112 72.2557 83.5781 71.3068C83.6404 71.2382 83.6592 71.1445 83.6405 71.0509C83.628 70.9573 83.5656 70.8824 83.4846 70.8387L82.9733 70.5453L57.0923 85.4273L30.8559 70.2581L30.0516 70.5515C29.9768 70.5952 29.9207 70.6701 29.9082 70.7637C29.8957 70.8574 29.9206 70.9448 29.9768 71.0197C30.7811 71.981 31.1177 73.0423 30.9494 74.091C30.7374 75.4019 29.7274 76.6441 28.1001 77.5868C24.0598 79.9339 17.4259 79.909 13.3109 77.5306C11.3781 76.4132 10.2932 74.9462 10.2683 73.4105C10.2433 71.8687 11.2721 70.4204 13.1675 69.3155C16.2538 67.5177 21.0297 67.0682 25.0512 68.1856L25.7869 67.8673C25.8804 67.8111 25.9365 67.7049 25.9365 67.5988C25.9365 67.4864 25.8742 67.3866 25.7745 67.3304L0.0742188 52.4733L25.3442 37.7723C25.4378 37.7161 25.4876 37.6162 25.4939 37.5039C25.4939 37.3915 25.4315 37.2916 25.3318 37.2355L24.8205 36.9421C20.5995 38.0033 15.8048 37.5101 12.6562 35.6936C10.7234 34.5762 9.63853 33.1092 9.60735 31.5735C9.58241 30.0379 10.6112 28.5834 12.5128 27.4785C16.553 25.1313 23.1807 25.1563 27.2958 27.5347C28.9542 28.496 30.0142 29.7445 30.2698 31.0554C30.4693 32.1042 30.17 33.1654 29.4031 34.1142C29.3408 34.1829 29.3221 34.2765 29.3408 34.3639C29.3533 34.4576 29.4156 34.5325 29.4967 34.5762L30.0079 34.8696L55.8765 20L81.9757 35.0693L82.7863 34.7822C82.8673 34.7385 82.9234 34.6573 82.9359 34.5699C82.9484 34.4763 82.9234 34.3827 82.8611 34.314C82.0568 33.3527 81.7201 32.2914 81.8885 31.2489C82.1067 29.938 83.1229 28.6958 84.744 27.7532C88.778 25.406 95.4119 25.431 99.5332 27.8093L99.5519 27.7969Z" fill="#BDB6C6"/>
</g>
<path d="M43.3567 11.686V14.1144C43.3505 14.9446 43.0325 15.7749 42.4277 16.5302V14.1019C43.045 13.3465 43.3567 12.5163 43.3567 11.686Z" fill="#68B2DC"/>
<path d="M95.879 14.3076V16.7359C95.1994 15.9306 94.8564 15.0566 94.8564 14.1827V11.7544C94.8564 12.6283 95.2056 13.5085 95.879 14.3076Z" fill="#68B2DC"/>
<path d="M42.4274 14.1016V16.5299C42.3712 16.5861 42.3525 16.6547 42.3525 16.7234V14.2951C42.3588 14.2264 42.3837 14.1577 42.4274 14.1016Z" fill="#68B2DC"/>
<path d="M95.9541 14.5199V16.9482C95.9479 16.8733 95.9167 16.7984 95.873 16.7359V14.3076C95.9292 14.37 95.9541 14.4449 95.9541 14.5199Z" fill="#68B2DC"/>
<path d="M38.3437 17.2231L38.3374 19.6514L37.8262 19.358L37.8324 16.9297L38.3437 17.2231Z" fill="#68B2DC"/>
<path d="M100.874 17.1792L100.868 19.6138L100.132 19.9321L100.138 17.5038L100.874 17.1792Z" fill="#68B2DC"/>
<path d="M38.5062 17.4911V19.9194C38.5 19.807 38.4376 19.7072 38.3379 19.651V17.2227C38.4439 17.2788 38.5062 17.385 38.5062 17.4911Z" fill="#68B2DC"/>
<path d="M100.138 17.5039V19.9322C100.039 19.9822 99.9824 20.082 99.9824 20.1882V17.7598C99.9887 17.6537 100.051 17.5601 100.138 17.5039Z" fill="#68B2DC"/>
<path d="M37.8327 16.9295V19.3578C33.6054 20.419 28.8108 19.9259 25.6622 18.1093C23.7293 16.9919 22.6445 15.5249 22.6133 13.9893C22.6133 13.9705 22.6133 13.9518 22.6133 13.9268V11.4985C22.6133 11.4985 22.6195 11.536 22.6195 11.561C22.6445 13.1029 23.7293 14.5636 25.6684 15.681C28.817 17.4975 33.6116 17.9907 37.8327 16.9295Z" fill="#68B2DC"/>
<path d="M115.663 12.0229V14.4513C115.65 15.962 114.621 17.3915 112.757 18.4777C109.671 20.2755 104.889 20.7312 100.867 19.6075V17.1792C104.895 18.3029 109.671 17.8472 112.763 16.0493C114.634 14.9632 115.663 13.5336 115.663 12.0229Z" fill="#68B2DC"/>
<path d="M38.7803 47.3176L38.7741 49.7522L13.0801 34.8951L13.0863 32.4668L38.7803 47.3176Z" fill="#4AA4D7"/>
<path d="M125.925 32.9414L125.919 35.3697L100.643 50.0832L100.649 47.6487L125.925 32.9414Z" fill="#68B2DC"/>
<path d="M38.9427 47.5863V50.0146C38.9365 49.9022 38.8742 49.8024 38.7744 49.7462V47.3179C38.8804 47.3741 38.9427 47.4802 38.9427 47.5863Z" fill="#68B2DC"/>
<path d="M100.649 47.6484V50.0767C100.555 50.1329 100.499 50.2203 100.499 50.3202V47.8919C100.505 47.792 100.561 47.7046 100.649 47.6484Z" fill="#68B2DC"/>
<path d="M43.8676 50.2578L43.8551 52.6861L43.0508 52.9795L43.0633 50.545L43.8676 50.2578Z" fill="#338BBD"/>
<path d="M96.497 50.8383L96.4845 53.2666L95.9795 52.9733L95.9857 50.5449L96.497 50.8383Z" fill="#68B2DC"/>
<path d="M43.0637 50.5449V52.9733C42.9827 53.0169 42.9265 53.0919 42.9141 53.1855C42.9141 53.2042 42.9141 53.2167 42.9141 53.2354V50.8071C42.9141 50.8071 42.9203 50.7759 42.9265 50.7572C42.939 50.6635 42.9951 50.5886 43.0699 50.5449H43.0637Z" fill="#68B2DC"/>
<path d="M96.6527 51.113V53.5414C96.6527 53.5414 96.6465 53.5039 96.6402 53.4789C96.6278 53.3853 96.5654 53.3104 96.4844 53.2667V50.8384C96.5717 50.8821 96.6277 50.9632 96.6465 51.0506C96.6465 51.0693 96.6465 51.0881 96.6465 51.113H96.6527Z" fill="#68B2DC"/>
<path d="M43.9927 53.5602V55.9885C43.9865 56.1633 43.974 56.3381 43.9428 56.5129C43.7308 57.8238 42.7208 59.066 41.0935 60.0086C37.0533 62.3558 30.4194 62.3308 26.3043 59.9525C24.3715 58.8351 23.2867 57.3681 23.2617 55.8324C23.2617 55.8075 23.2617 55.7887 23.2617 55.7638V53.3354C23.2617 53.3354 23.268 53.3792 23.268 53.4041C23.2929 54.9398 24.3777 56.4068 26.3106 57.5242C30.4256 59.9025 37.0595 59.9337 41.0997 57.5803C42.727 56.6377 43.7371 55.3892 43.9491 54.0846C43.9803 53.9098 43.9927 53.735 43.9927 53.5602Z" fill="#4AA4D7"/>
<path d="M116.379 53.9162V56.3445C116.367 57.8552 115.338 59.2847 113.474 60.3709C109.44 62.7181 102.806 62.6931 98.6848 60.3147C97.0326 59.3596 95.9726 58.1049 95.7108 56.794C95.6671 56.5817 95.6484 56.3632 95.6484 56.151V53.7227C95.6547 53.9349 95.6734 54.1534 95.717 54.3656C95.9726 55.6765 97.0326 56.9313 98.6911 57.8864C102.812 60.271 109.446 60.2897 113.48 57.9426C115.351 56.8564 116.379 55.4268 116.379 53.9162Z" fill="#68B2DC"/>
<path d="M95.9859 50.5449L95.9797 52.9733L70.0986 67.8553L70.1049 65.427L95.9859 50.5449Z" fill="#68B2DC"/>
<path d="M70.1044 65.427L70.0981 67.8553L43.8555 52.6861L43.868 50.2578L70.1044 65.427Z" fill="#4AA4D7"/>
<path d="M112.552 7.79685C114.553 8.95171 115.638 10.4187 115.663 11.9543C115.688 13.4962 114.659 14.9445 112.764 16.0494C109.678 17.8472 104.895 18.3029 100.874 17.1793L100.138 17.5039C100.045 17.5601 99.9824 17.6599 99.9886 17.7723C99.9886 17.8847 100.051 17.9846 100.144 18.047L125.919 32.9415L100.643 47.655C100.556 47.7112 100.5 47.8048 100.5 47.9109C100.5 48.0233 100.556 48.1232 100.656 48.1856L101.167 48.479C105.388 47.4178 110.176 47.9047 113.331 49.7275C115.264 50.8449 116.349 52.3119 116.374 53.8475C116.399 55.3894 115.37 56.8377 113.475 57.9426C109.441 60.2898 102.807 60.2648 98.6855 57.8864C97.0332 56.9313 95.9733 55.6766 95.7114 54.3656C95.5119 53.3169 95.8112 52.2557 96.5781 51.3068C96.6404 51.2382 96.6592 51.1445 96.6405 51.0509C96.628 50.9573 96.5656 50.8824 96.4846 50.8387L95.9733 50.5453L70.0923 65.4273L43.8559 50.2581L43.0516 50.5515C42.9768 50.5952 42.9207 50.6701 42.9082 50.7637C42.8957 50.8574 42.9206 50.9448 42.9768 51.0197C43.7811 51.981 44.1177 53.0423 43.9494 54.091C43.7374 55.4019 42.7274 56.6441 41.1001 57.5868C37.0598 59.9339 30.4259 59.909 26.3109 57.5306C24.3781 56.4132 23.2932 54.9462 23.2683 53.4105C23.2433 51.8687 24.2721 50.4204 26.1675 49.3155C29.2538 47.5177 34.0297 47.0682 38.0512 48.1856L38.7869 47.8673C38.8804 47.8111 38.9365 47.7049 38.9365 47.5988C38.9365 47.4864 38.8742 47.3866 38.7745 47.3304L13.0742 32.4733L38.3442 17.7723C38.4378 17.7161 38.4876 17.6162 38.4939 17.5039C38.4939 17.3915 38.4315 17.2916 38.3318 17.2355L37.8205 16.9421C33.5995 18.0033 28.8048 17.5101 25.6562 15.6936C23.7234 14.5762 22.6385 13.1092 22.6074 11.5735C22.5824 10.0379 23.6112 8.5834 25.5128 7.47848C29.553 5.13131 36.1807 5.15628 40.2958 7.53466C41.9542 8.496 43.0142 9.7445 43.2698 11.0554C43.4693 12.1042 43.17 13.1654 42.4031 14.1142C42.3408 14.1829 42.3221 14.2765 42.3408 14.3639C42.3533 14.4576 42.4156 14.5325 42.4967 14.5762L43.0079 14.8696L68.8765 0L94.9757 15.0693L95.7863 14.7822C95.8673 14.7385 95.9234 14.6573 95.9359 14.5699C95.9484 14.4763 95.9234 14.3827 95.8611 14.314C95.0568 13.3527 94.7201 12.2914 94.8885 11.2489C95.1067 9.93802 96.1229 8.69577 97.744 7.75315C101.778 5.40598 108.412 5.43095 112.533 7.80933L112.552 7.79685Z" fill="url(#paint0_linear_661_9887)"/>
<path d="M51.4498 46.8186C49.9846 47.6613 48.1204 47.9047 46.6926 47.1369L48.4571 46.1194C49.0307 46.3941 49.6105 46.3504 50.0719 46.0819C50.5582 45.801 50.6268 45.4827 50.2278 45.2517C48.9683 44.5213 46.2499 46.881 43.8557 45.4764C42.5651 44.7336 42.908 43.7098 44.3296 42.8858C45.8135 42.0306 47.5467 41.8808 48.9122 42.5862L47.1228 43.6224C46.6552 43.3852 46.0878 43.4164 45.6327 43.6661C45.2274 43.8908 45.1276 44.1842 45.5516 44.4277C46.7362 45.1081 49.5606 42.8608 51.8364 44.178C52.9773 44.8397 53.0397 45.9009 51.4498 46.8186Z" fill="#FDF5F4"/>
<path d="M58.1648 42.9421C56.2382 44.0533 53.2268 44.1282 51.1817 42.9421C49.1367 41.7623 49.2739 40.0269 51.2005 38.9095C53.1395 37.7921 56.1073 37.7296 58.1523 38.9095C60.1974 40.0893 60.0914 41.8184 58.1648 42.9359V42.9421ZM56.6498 42.0682C57.7346 41.4439 57.6536 40.5762 56.469 39.8895C55.2594 39.1904 53.7879 39.1592 52.7031 39.7834C51.5995 40.4201 51.6681 41.2691 52.8777 41.9683C54.0685 42.6549 55.5524 42.7049 56.656 42.0682H56.6498Z" fill="#FDF5F4"/>
<path d="M57.3538 35.4697L62.8717 38.6596L65.0414 37.4049L66.3196 38.1415L62.4914 40.3513L55.6953 36.4248L57.3538 35.4697Z" fill="#FDF5F4"/>
<path d="M60.291 33.7717L61.9495 32.8166L66.0147 35.17C66.819 35.632 67.6794 35.6757 68.465 35.22C69.2506 34.7643 69.2007 34.2586 68.3964 33.7904L64.3312 31.437L65.9897 30.4819L70.0486 32.8291C71.9253 33.9153 71.5388 35.2137 69.9738 36.1189C68.3964 37.0303 66.2391 37.2051 64.3562 36.1189L60.2973 33.7717H60.291Z" fill="#FDF5F4"/>
<path d="M66.7816 30.0201L72.0376 26.98L73.3657 27.7478L71.5638 28.7903L77.038 31.9552L75.3795 32.9103L69.9053 29.7454L68.1034 30.7879L66.7754 30.0201H66.7816Z" fill="#FDF5F4"/>
<path d="M72.873 26.4995L74.5315 25.5444L81.3276 29.471L79.6691 30.426L72.873 26.4995Z" fill="#FDF5F4"/>
<path d="M85.8104 26.9553C83.8838 28.0665 80.8723 28.1414 78.8273 26.9553C76.7822 25.7755 76.9194 24.0401 78.846 22.9227C80.785 21.8053 83.7528 21.7428 85.7979 22.9227C87.8429 24.1025 87.7369 25.8317 85.8104 26.9491V26.9553ZM84.3015 26.0813C85.3864 25.4571 85.3053 24.5894 84.1207 23.9027C82.9111 23.2036 81.4397 23.1723 80.3548 23.7966C79.2512 24.4333 79.3198 25.2823 80.5294 25.9815C81.7202 26.6681 83.2041 26.7181 84.3077 26.0813H84.3015Z" fill="#FDF5F4"/>
<path d="M89.4329 16.9297L96.2289 20.8562L94.5705 21.8113L87.6061 20.9873L91.8022 23.4094L90.1437 24.3645L83.3477 20.438L85.0061 19.4829L91.9892 20.3194L87.7744 17.8848L89.4329 16.9297Z" fill="#FDF5F4"/>
<defs>
<linearGradient id="paint0_linear_661_9887" x1="13.0742" y1="16.3568" x2="124.313" y2="16.8731" gradientUnits="userSpaceOnUse">
<stop stop-color="#67E4FF"/>
<stop offset="1" stop-color="#009ED0"/>
</linearGradient>
</defs>
</svg>
