<svg width="80" height="80" viewBox="0 0 80 80" fill="none" xmlns="http://www.w3.org/2000/svg">
<g clip-path="url(#clip0_517_7722)">
<path d="M58.3971 48.2391C59.1113 48.9533 59.464 49.8571 59.5021 50.8499C59.5747 52.7433 60.3114 54.5504 61.6514 55.8902C62.5671 56.8058 64.0516 56.8061 64.9677 55.8908L79.3953 41.4632C80.203 40.6555 80.203 39.3462 79.3953 38.5385L64.9685 24.1117C64.0685 23.2117 64.0352 21.7429 64.9278 20.8359C66.2716 19.47 68.0961 18.7192 70.0089 18.6457C71.0017 18.6076 71.9053 18.255 72.6197 17.5407C74.6725 15.4879 74.0628 11.55 71.2577 8.74467C68.4525 5.93952 64.5146 5.32968 62.4616 7.38264C61.7474 8.09686 61.3947 9.00045 61.3566 9.99342C61.2832 11.9062 60.5322 13.7304 59.1665 15.0743C58.2591 15.967 56.7905 15.9339 55.8907 15.0337L41.463 0.606718C40.6554 -0.200937 39.346 -0.200937 38.5384 0.606718L23.9576 15.1875C23.1917 16.1089 23.2404 17.479 24.1042 18.3428C25.4442 19.6828 27.2509 20.4193 29.1445 20.4921C30.1373 20.5303 31.0409 20.8829 31.7553 21.5971C33.8081 23.65 33.1984 27.5879 30.3932 30.3932C27.5882 33.1982 23.6501 33.8082 21.5971 31.7553C20.8829 31.041 20.5303 30.1373 20.4921 29.1445C20.4195 27.251 19.6828 25.444 18.3428 24.1042C17.4787 23.2401 16.1089 23.1915 15.1875 23.9576L0.606718 38.5385C-0.200937 39.3462 -0.200937 40.6555 0.606718 41.4632L15.0336 55.8901C15.9336 56.7901 15.9668 58.2585 15.0742 59.1658C13.7304 60.5318 11.9059 61.2825 9.99311 61.356C9.0003 61.3941 8.0967 61.7468 7.38233 62.461C5.32952 64.5138 5.93936 68.4517 8.74436 71.2571C11.5494 74.0622 15.4875 74.672 17.5404 72.6191C18.2812 71.8783 18.6329 70.9341 18.6484 69.8977C18.6747 68.1317 19.3292 66.4333 20.5781 65.1846L20.7946 64.968C21.7106 64.0521 23.1956 64.0521 24.1114 64.968L38.5382 79.3949C39.3459 80.2025 40.6552 80.2025 41.4629 79.3949L55.8902 64.9675C56.8057 64.0516 56.8055 62.5671 55.8899 61.6511C54.5499 60.3111 52.7432 59.5746 50.8496 59.5018C49.8568 59.4636 48.9532 59.111 48.2388 58.3968C46.186 56.344 46.7958 52.406 49.6008 49.6007C52.4062 46.796 56.3443 46.1863 58.3971 48.2391Z" fill="#FEE570"/>
<path d="M69.164 14.0851C68.4498 14.7993 67.5461 15.152 66.5534 15.1901C64.66 15.2628 62.853 15.9995 61.5131 17.3395C60.5972 18.2554 60.5972 19.7404 61.5131 20.6562L64.968 24.111C64.052 23.1951 64.052 21.7101 64.968 20.7943C66.308 19.4543 68.115 18.7178 70.0083 18.6449C71.0011 18.6068 71.9047 18.2542 72.6189 17.5399C74.6717 15.4871 74.062 11.5492 71.2569 8.74386C70.6503 8.1373 69.9906 7.63402 69.3086 7.2373C70.7459 9.70918 70.7729 12.476 69.164 14.0851Z" fill="#FDBF00"/>
<path d="M53.1185 59.9268C53.1009 60.5024 52.8748 61.0727 52.4356 61.5121L36.5459 77.4017L38.5384 79.3942C39.346 80.2019 40.6554 80.2019 41.4631 79.3942L55.8904 64.9669C56.8059 64.051 56.8057 62.5664 55.8901 61.6505C55.102 60.8625 54.1518 60.285 53.1185 59.9268Z" fill="#FDBF00"/>
<path d="M17.3393 61.5126C15.9993 62.8526 15.2628 64.6597 15.1899 66.5529C15.1518 67.5457 14.7992 68.4493 14.0849 69.1636C12.476 70.7725 9.70917 70.7453 7.2373 69.3081C7.63371 69.9901 8.13715 70.6498 8.74386 71.2564C11.5489 74.0614 15.487 74.6714 17.5399 72.6184C18.2542 71.9042 18.6068 71.0004 18.6449 70.0078C18.7176 68.1143 19.4543 66.3073 20.7943 64.9675C21.7102 64.0515 23.1952 64.0515 24.111 64.9675L20.6562 61.5126C19.7401 60.5967 18.2553 60.5967 17.3393 61.5126Z" fill="#FDBF00"/>
<path d="M56.0219 47.0814C55.9277 46.212 55.58 45.422 54.9418 44.7836C52.8889 42.7308 48.951 43.3406 46.1457 46.1456C43.3407 48.9506 42.7307 52.8887 44.7836 54.9417C45.4219 55.58 46.2122 55.9278 47.0815 56.0218C46.7783 54.0012 47.6688 51.5323 49.6004 49.6004C51.5321 47.6687 54.0013 46.7784 56.0219 47.0814Z" fill="#FDBF00"/>
<path d="M77.4017 36.5454L61.5119 52.4354C61.0725 52.8743 60.5022 53.1004 59.9268 53.1182C60.285 54.1516 60.8627 55.1016 61.6505 55.8894C62.5661 56.8051 64.0507 56.8054 64.9667 55.8901L79.3944 41.4624C80.202 40.6548 80.202 39.3454 79.3944 38.5377L77.4017 36.5454Z" fill="#FDBF00"/>
</g>
<defs>
<clipPath id="clip0_517_7722">
<rect width="80" height="80" fill="white"/>
</clipPath>
</defs>
</svg>
