<svg width="24" height="24" viewBox="0 0 24 24" fill="none" xmlns="http://www.w3.org/2000/svg">
<path fill-rule="evenodd" clip-rule="evenodd" d="M20.4469 8.60384L20.8013 8.20117C21.1399 7.81664 21.0813 7.20491 20.6575 6.82011C20.2341 6.43424 19.6122 6.42597 19.2738 6.81051L18.9199 7.21344L20.4469 8.60384Z" fill="#808080"/>
<path fill-rule="evenodd" clip-rule="evenodd" d="M14.3301 4.64111H15.8157V5.96911H14.3301V4.64111Z" fill="#CCCCCC"/>
<path fill-rule="evenodd" clip-rule="evenodd" d="M13.7766 3.28125H16.3702C16.6723 3.28125 16.9163 3.52525 16.9163 3.82925V4.45592C16.9163 4.75992 16.6723 5.00392 16.3702 5.00392H13.7766C13.4742 5.00392 13.2305 4.75992 13.2305 4.45592V3.82925C13.2305 3.52525 13.4742 3.28125 13.7766 3.28125Z" fill="#808080"/>
<path fill-rule="evenodd" clip-rule="evenodd" d="M15.0721 5.87598C19.1579 5.87598 22.4702 9.19384 22.4702 13.2864C22.4702 17.3794 19.1579 20.6976 15.0721 20.6976C13.0545 20.6976 11.7182 20.0288 8.97979 19.0976L9.74219 18.3298C10.0846 17.9842 9.74885 17.3546 9.24325 17.5498C6.94379 18.4344 5.60352 17.4898 4.94992 15.3562C5.93899 15.9848 7.30485 15.5514 7.73285 15.1224C8.39605 14.4586 8.13712 13.6909 6.64432 14.1842C4.72992 14.8154 2.71179 13.7106 1.74219 10.9781C4.67125 12.4496 4.88699 9.42131 7.98085 10.2282C7.71765 9.16664 7.00405 8.81651 5.36965 8.85838C6.99045 6.81571 9.34779 7.87331 11.8339 6.62344C12.8118 6.14478 13.9099 5.87598 15.0721 5.87598Z" fill="#FD6B65"/>
<path fill-rule="evenodd" clip-rule="evenodd" d="M20.3777 13.2861C20.3777 16.221 18.0033 18.5999 15.0726 18.5999C13.6654 18.5999 12.3161 18.0407 11.3212 17.0434C10.3265 16.0471 9.76758 14.6954 9.76758 13.2861C9.76758 11.8759 10.3262 10.5258 11.3212 9.52795C12.3161 8.53168 13.6654 7.97168 15.0726 7.97168C18.0033 7.97168 20.3777 10.3517 20.3777 13.2861Z" fill="#F2F2F2"/>
<path d="M14.9932 8.71977C14.8401 8.72217 14.7172 8.84937 14.7188 9.0027V9.40403C14.7188 9.7747 15.2761 9.7747 15.2761 9.40403V9.0027C15.2788 8.8451 15.1508 8.7171 14.9932 8.71977Z" fill="#808080"/>
<path d="M14.9932 16.8868C14.8401 16.8881 14.7172 17.0148 14.7188 17.1697V17.5697C14.7188 17.9417 15.2761 17.9417 15.2761 17.5697V17.1697C15.2788 17.0124 15.1508 16.8838 14.9932 16.8868Z" fill="#808080"/>
<path d="M18.8737 13.0073C18.503 13.0073 18.503 13.5649 18.8737 13.5649H19.2737C19.6441 13.5649 19.6441 13.0073 19.2737 13.0073H18.8737Z" fill="#808080"/>
<path d="M10.7192 13.0073C10.3488 13.0073 10.3488 13.5649 10.7192 13.5649H11.1205C11.4912 13.5649 11.4912 13.0073 11.1205 13.0073H10.7192Z" fill="#808080"/>
<path d="M17.7351 15.751C17.4845 15.751 17.3618 16.055 17.5413 16.2288L17.8229 16.512C17.9303 16.628 18.1125 16.6302 18.2242 16.5192C18.3354 16.4075 18.3317 16.2264 18.2157 16.1192L17.9341 15.8363C17.8815 15.7819 17.8106 15.751 17.7351 15.751Z" fill="#808080"/>
<path d="M11.9697 9.97656C11.7198 9.97656 11.5977 10.2806 11.7761 10.4547L12.059 10.7363C12.1659 10.8518 12.3486 10.8563 12.4603 10.7443C12.5715 10.6331 12.5673 10.4504 12.4518 10.343L12.1702 10.0616C12.1174 10.0072 12.0451 9.97656 11.9697 9.97656Z" fill="#808080"/>
<path d="M18.0153 9.97672C17.9431 9.97832 17.8729 10.009 17.8231 10.0618L17.5415 10.3431C17.426 10.4506 17.4217 10.6333 17.5329 10.7445C17.6444 10.8562 17.8273 10.8519 17.9343 10.7365L18.2159 10.4549C18.3985 10.2778 18.2689 9.96846 18.0153 9.97672Z" fill="#808080"/>
<path d="M12.2505 15.7511C12.1782 15.754 12.1081 15.7831 12.0582 15.8364L11.7753 16.1193C11.6595 16.2265 11.6569 16.4076 11.7681 16.5193C11.8795 16.6305 12.0619 16.6281 12.1694 16.5121L12.451 16.2289C12.6337 16.0524 12.5043 15.7444 12.2505 15.7511Z" fill="#808080"/>
<path fill-rule="evenodd" clip-rule="evenodd" d="M15.0728 12.8692C15.3056 12.8692 15.4896 13.0521 15.4896 13.286C15.4896 13.5204 15.3058 13.7028 15.0728 13.7028C14.8402 13.7028 14.656 13.5204 14.656 13.286C14.656 13.0519 14.8402 12.8692 15.0728 12.8692ZM16.9525 11.0372C16.8816 11.0385 16.812 11.0679 16.7616 11.1193L15.4784 12.4057C15.3541 12.3473 15.2176 12.3124 15.0728 12.3124C14.5392 12.3124 14.1016 12.7527 14.1016 13.286C14.1016 13.8196 14.5392 14.2604 15.0728 14.2604C15.6064 14.2604 16.0442 13.8196 16.0442 13.286C16.0442 13.098 15.9882 12.9241 15.8952 12.7748L17.1546 11.5124C17.333 11.3353 17.2048 11.0313 16.9525 11.0372Z" fill="#808080"/>
</svg>
