<svg width="80" height="80" viewBox="0 0 80 80" fill="none" xmlns="http://www.w3.org/2000/svg">
<g clip-path="url(#clip0_517_7713)">
<path d="M61.7187 59.6743H38.2812L34.0977 64.3267C33.3945 65.1001 33.0078 66.1079 33.0078 67.1626C33.0078 69.5063 34.9063 71.3931 37.2383 71.3931H62.75C65.0937 71.3931 66.9805 69.4946 66.9805 67.1626C66.9805 66.1196 66.5938 65.1118 65.8906 64.3267L61.7187 59.6743Z" fill="#545454"/>
<path d="M49.0625 67.1626C49.0625 66.1196 49.1328 65.1118 49.25 64.3267L49.9766 59.6743H44.1055L41.9961 64.3267C41.6445 65.1001 41.4453 66.1079 41.4453 67.1626C41.4453 69.5063 42.3945 71.3931 43.5781 71.3931H49.7891C49.3906 71.3931 49.0625 69.4946 49.0625 67.1626Z" fill="#ACACAC"/>
<path d="M54.1016 37.1743H45.8984C45.8984 42.9165 43.8477 48.4829 40.1094 52.854L38.2812 54.9868H61.7188L59.8906 52.854C56.1523 48.4829 54.1016 42.9165 54.1016 37.1743Z" fill="#545454"/>
<path d="M50 34.8306C54.8541 34.8306 58.7891 30.8956 58.7891 26.0415C58.7891 21.1874 54.8541 17.2524 50 17.2524C45.1459 17.2524 41.2109 21.1874 41.2109 26.0415C41.2109 30.8956 45.1459 34.8306 50 34.8306Z" fill="#545454"/>
<path d="M47.0703 26.0415C48.6883 26.0415 50 24.7298 50 23.1118C50 21.4938 48.6883 20.1821 47.0703 20.1821C45.4523 20.1821 44.1406 21.4938 44.1406 23.1118C44.1406 24.7298 45.4523 26.0415 47.0703 26.0415Z" fill="#ACACAC"/>
<path d="M38.2812 54.9868H61.7188V59.6743H38.2812V54.9868Z" fill="#1C1C1C"/>
<path d="M44.1406 54.9868H50V59.6743H44.1406V54.9868Z" fill="#6F6F6F"/>
<path d="M64.0625 71.3931H35.9375L33.0078 73.7368V76.0806H66.9922V73.7368L64.0625 71.3931Z" fill="#1C1C1C"/>
<path d="M50 71.3931H42.7227L41.2109 73.7368V76.0806H48.8281V73.7368L50 71.3931Z" fill="#6F6F6F"/>
<path d="M55.8594 32.4868H44.1406C44.1406 33.7759 43.0859 34.8306 41.7969 34.8306H41.2109V37.1743H58.7891V34.8306H58.2031C56.9141 34.8306 55.8594 33.7759 55.8594 32.4868Z" fill="#6F6F6F"/>
<path d="M47.9492 37.1743C47.9492 42.9165 46.918 48.4829 45.0547 52.854L44.1406 54.9868H50V37.1743H47.9492Z" fill="#ACACAC"/>
<path d="M41.7969 34.8306H58.2031C56.9141 34.8306 55.8594 33.7759 55.8594 32.4868H44.1406C44.1406 33.7759 43.0859 34.8306 41.7969 34.8306Z" fill="#1C1C1C"/>
<path d="M45.7812 39.5181H54.2188C54.1484 38.7446 54.1016 37.9595 54.1016 37.1743H45.8984C45.8984 37.9595 45.8633 38.7446 45.7812 39.5181Z" fill="#373737"/>
</g>
<path d="M33.7763 49.1819V43.9661C33.7763 43.8467 33.6796 43.75 33.5602 43.75H30.0863C29.9499 43.75 29.8477 43.6253 29.8744 43.4916L30.9007 38.3605C30.9274 38.2267 30.8252 38.1021 30.6888 38.1021H25.4813C25.3783 38.1021 25.2896 38.1747 25.2694 38.2758L24.2093 43.5764C24.1891 43.6774 24.1003 43.7502 23.9974 43.7502H18.79C18.6536 43.7502 18.5514 43.6255 18.5782 43.4917L19.6044 38.3606C19.6311 38.2269 19.5289 38.1022 19.3925 38.1022H14.1854C14.0824 38.1022 13.9936 38.1749 13.9735 38.276L12.9133 43.5766C12.8932 43.6775 12.8044 43.7503 12.7014 43.7503H5.75223C5.63285 43.7503 5.53613 43.847 5.53613 43.9664V49.1822C5.53613 49.3016 5.63285 49.3983 5.75223 49.3983H11.4854C11.6218 49.3983 11.7239 49.523 11.6972 49.6567L10.6541 54.8725C10.6339 54.9735 10.5452 55.0463 10.4422 55.0463H5.75223C5.63285 55.0463 5.53613 55.143 5.53613 55.2624V60.4781C5.53613 60.5975 5.63285 60.6942 5.75223 60.6942H9.22613C9.36254 60.6942 9.46473 60.8189 9.43801 60.9527L8.41176 66.0838C8.38504 66.2175 8.48723 66.3422 8.62363 66.3422H13.831C13.9339 66.3422 14.0227 66.2696 14.0429 66.1685L15.103 60.8678C15.1232 60.7669 15.2119 60.6941 15.3149 60.6941H20.5222C20.6586 60.6941 20.7608 60.8188 20.7341 60.9525L19.7078 66.0836C19.6811 66.2174 19.7833 66.3421 19.9197 66.3421H25.1271C25.23 66.3421 25.3188 66.2694 25.3389 66.1683L26.3991 60.8677C26.4193 60.7667 26.508 60.6939 26.611 60.6939H33.5602C33.6796 60.6939 33.7763 60.5972 33.7763 60.4778V55.2621C33.7763 55.1427 33.6796 55.046 33.5602 55.046H27.8271C27.6907 55.046 27.5885 54.9213 27.6152 54.7875L28.6583 49.5717C28.6785 49.4708 28.7672 49.398 28.8702 49.398H33.5602C33.6796 49.398 33.7763 49.3013 33.7763 49.1819ZM21.7382 55.0461H16.5308C16.3944 55.0461 16.2922 54.9214 16.3189 54.7877L17.3621 49.5719C17.3822 49.471 17.471 49.3981 17.5739 49.3981H22.7813C22.9177 49.3981 23.0199 49.5228 22.9932 49.6566L21.95 54.8724C21.9299 54.9735 21.8413 55.0461 21.7382 55.0461Z" fill="white"/>
<path d="M69.9059 16.4935L64.0273 15.3177L65.1365 9.87285C65.0328 9.7991 65.9551 8.74629 65.862 8.65332C65.7689 8.56019 64.6643 9.43066 64.5904 9.32691L59.0873 10.4468L57.9209 4.56676C57.5187 3.06301 56.7378 4.54988 56.2348 4.21098L51.0557 11.9953C51.0256 12.0407 50.9911 12.0829 50.9526 12.1213L47.884 15.1899C47.8134 15.2605 47.8134 15.3749 47.884 15.4455L59.0181 26.5796C59.0887 26.6502 59.2031 26.6502 59.2737 26.5796L62.3425 23.5108C62.3807 23.4725 62.4228 23.4382 62.4678 23.408L70.2476 18.2214C69.9031 17.7057 71.9637 17.4479 69.9059 16.4935Z" fill="#FFC134"/>
<path d="M59.1461 21.4061C58.8372 21.4061 58.5282 21.2881 58.2925 21.0525L53.4113 16.1713C52.9397 15.6998 52.9397 14.9355 53.4113 14.4639C53.8827 13.9925 54.6471 13.9925 55.1186 14.4639L59.9999 19.3452C60.4714 19.8166 60.4714 20.5809 59.9999 21.0525C59.7639 21.2883 59.455 21.4061 59.1461 21.4061Z" fill="#FFDFA4"/>
<path d="M66.4681 10.297C67.7389 10.297 68.7692 9.26678 68.7692 7.99592C68.7692 6.72506 67.7389 5.69482 66.4681 5.69482C65.1972 5.69482 64.167 6.72506 64.167 7.99592C64.167 9.26678 65.1972 10.297 66.4681 10.297Z" fill="#FFE07D"/>
<path d="M57.5189 4.60219C58.7897 4.60219 59.82 3.57195 59.82 2.30109C59.82 1.03023 58.7897 0 57.5189 0C56.248 0 55.2178 1.03023 55.2178 2.30109C55.2178 3.57195 56.248 4.60219 57.5189 4.60219Z" fill="#FFE07D"/>
<path d="M72.1624 19.2457C73.4333 19.2457 74.4635 18.2155 74.4635 16.9446C74.4635 15.6738 73.4333 14.6436 72.1624 14.6436C70.8916 14.6436 69.8613 15.6738 69.8613 16.9446C69.8613 18.2155 70.8916 19.2457 72.1624 19.2457Z" fill="#FFE07D"/>
<defs>
<clipPath id="clip0_517_7713">
<rect width="60" height="60" fill="white" transform="translate(20 16.6665)"/>
</clipPath>
</defs>
</svg>
