<svg width="80" height="80" viewBox="0 0 80 80" fill="none" xmlns="http://www.w3.org/2000/svg">
<path d="M39.9997 30.0002C39.0797 30.0002 38.333 29.2535 38.333 28.3335V10.0002C38.333 9.08016 39.0797 8.3335 39.9997 8.3335C40.9197 8.3335 41.6663 9.08016 41.6663 10.0002V28.3335C41.6663 29.2535 40.9197 30.0002 39.9997 30.0002Z" fill="url(#paint0_linear_517_7719)"/>
<path d="M73.3337 38.3335H6.66699C3.90557 38.3335 1.66699 40.5721 1.66699 43.3335V55.0002C1.66699 57.7616 3.90557 60.0002 6.66699 60.0002H73.3337C76.0951 60.0002 78.3337 57.7616 78.3337 55.0002V43.3335C78.3337 40.5721 76.0951 38.3335 73.3337 38.3335Z" fill="url(#paint1_linear_517_7719)"/>
<path d="M60 23.3335H20C14.4772 23.3335 10 27.8106 10 33.3335V65.0002C10 70.523 14.4772 75.0002 20 75.0002H60C65.5228 75.0002 70 70.523 70 65.0002V33.3335C70 27.8106 65.5228 23.3335 60 23.3335Z" fill="url(#paint2_linear_517_7719)"/>
<path d="M51.6667 49.9998C55.3486 49.9998 58.3333 47.0151 58.3333 43.3332C58.3333 39.6513 55.3486 36.6665 51.6667 36.6665C47.9848 36.6665 45 39.6513 45 43.3332C45 47.0151 47.9848 49.9998 51.6667 49.9998Z" fill="url(#paint3_linear_517_7719)"/>
<path opacity="0.5" d="M51.6663 46.6667C53.5073 46.6667 54.9997 45.1743 54.9997 43.3333C54.9997 41.4924 53.5073 40 51.6663 40C49.8254 40 48.333 41.4924 48.333 43.3333C48.333 45.1743 49.8254 46.6667 51.6663 46.6667Z" fill="url(#paint4_linear_517_7719)"/>
<path opacity="0.75" d="M53.3337 43.3333C54.2541 43.3333 55.0003 42.5871 55.0003 41.6667C55.0003 40.7462 54.2541 40 53.3337 40C52.4132 40 51.667 40.7462 51.667 41.6667C51.667 42.5871 52.4132 43.3333 53.3337 43.3333Z" fill="url(#paint5_linear_517_7719)"/>
<path d="M28.3337 49.9998C32.0156 49.9998 35.0003 47.0151 35.0003 43.3332C35.0003 39.6513 32.0156 36.6665 28.3337 36.6665C24.6518 36.6665 21.667 39.6513 21.667 43.3332C21.667 47.0151 24.6518 49.9998 28.3337 49.9998Z" fill="url(#paint6_linear_517_7719)"/>
<path opacity="0.5" d="M28.3333 46.6667C30.1743 46.6667 31.6667 45.1743 31.6667 43.3333C31.6667 41.4924 30.1743 40 28.3333 40C26.4924 40 25 41.4924 25 43.3333C25 45.1743 26.4924 46.6667 28.3333 46.6667Z" fill="url(#paint7_linear_517_7719)"/>
<path opacity="0.75" d="M29.9997 43.3333C30.9201 43.3333 31.6663 42.5871 31.6663 41.6667C31.6663 40.7462 30.9201 40 29.9997 40C29.0792 40 28.333 40.7462 28.333 41.6667C28.333 42.5871 29.0792 43.3333 29.9997 43.3333Z" fill="url(#paint8_linear_517_7719)"/>
<path d="M40.0004 63.3333C36.2504 63.3333 32.5304 62.44 29.2387 60.7483C28.4204 60.3267 28.097 59.3233 28.517 58.5033C28.937 57.6867 29.9404 57.3617 30.762 57.7817C36.487 60.725 43.5137 60.725 49.2387 57.7817C50.057 57.3617 51.062 57.685 51.4837 58.5033C51.9037 59.3217 51.582 60.3267 50.762 60.7483C47.4704 62.44 43.7487 63.3333 40.0004 63.3333Z" fill="url(#paint9_linear_517_7719)"/>
<path d="M40.0003 15.0002C43.222 15.0002 45.8337 12.3885 45.8337 9.16683C45.8337 5.94517 43.222 3.3335 40.0003 3.3335C36.7787 3.3335 34.167 5.94517 34.167 9.16683C34.167 12.3885 36.7787 15.0002 40.0003 15.0002Z" fill="url(#paint10_linear_517_7719)"/>
<defs>
<linearGradient id="paint0_linear_517_7719" x1="39.9997" y1="15.0218" x2="39.9997" y2="23.3335" gradientUnits="userSpaceOnUse">
<stop stop-color="#C6CBCC"/>
<stop offset="1" stop-color="#9FA5A6"/>
</linearGradient>
<linearGradient id="paint1_linear_517_7719" x1="40.0003" y1="37.5685" x2="40.0003" y2="60.1302" gradientUnits="userSpaceOnUse">
<stop stop-color="#C6CBCC"/>
<stop offset="1" stop-color="#9FA5A6"/>
</linearGradient>
<linearGradient id="paint2_linear_517_7719" x1="13.4317" y1="22.5985" x2="63.7667" y2="72.9335" gradientUnits="userSpaceOnUse">
<stop stop-color="#F0F2F2"/>
<stop offset="1" stop-color="#CACFD0"/>
</linearGradient>
<linearGradient id="paint3_linear_517_7719" x1="46.9533" y1="38.6198" x2="56.38" y2="48.0465" gradientUnits="userSpaceOnUse">
<stop stop-color="#2B50D2"/>
<stop offset="1" stop-color="#182EA5"/>
</linearGradient>
<linearGradient id="paint4_linear_517_7719" x1="49.3097" y1="40.9767" x2="54.023" y2="45.69" gradientUnits="userSpaceOnUse">
<stop stop-color="#3E4154"/>
<stop offset="1" stop-color="#1B2129"/>
</linearGradient>
<linearGradient id="paint5_linear_517_7719" x1="52.1553" y1="40.4883" x2="54.512" y2="42.845" gradientUnits="userSpaceOnUse">
<stop stop-color="#F0F2F2"/>
<stop offset="1" stop-color="#CACFD0"/>
</linearGradient>
<linearGradient id="paint6_linear_517_7719" x1="23.6203" y1="38.6198" x2="33.047" y2="48.0465" gradientUnits="userSpaceOnUse">
<stop stop-color="#2B50D2"/>
<stop offset="1" stop-color="#182EA5"/>
</linearGradient>
<linearGradient id="paint7_linear_517_7719" x1="25.9767" y1="-9.51114e-06" x2="30.69" y2="45.69" gradientUnits="userSpaceOnUse">
<stop stop-color="#3E4154"/>
<stop offset="1" stop-color="#1B2129"/>
</linearGradient>
<linearGradient id="paint8_linear_517_7719" x1="28.8213" y1="40.4883" x2="31.178" y2="42.845" gradientUnits="userSpaceOnUse">
<stop stop-color="#F0F2F2"/>
<stop offset="1" stop-color="#CACFD0"/>
</linearGradient>
<linearGradient id="paint9_linear_517_7719" x1="27.787" y1="56.3467" x2="51.9587" y2="62.6517" gradientUnits="userSpaceOnUse">
<stop stop-color="#C6CBCC"/>
<stop offset="1" stop-color="#9FA5A6"/>
</linearGradient>
<linearGradient id="paint10_linear_517_7719" x1="36.0753" y1="5.24183" x2="43.652" y2="12.8185" gradientUnits="userSpaceOnUse">
<stop stop-color="#E85155"/>
<stop offset="1" stop-color="#C21D2C"/>
</linearGradient>
</defs>
</svg>
