<svg width="24" height="24" viewBox="0 0 24 24" fill="none" xmlns="http://www.w3.org/2000/svg">
<g clip-path="url(#clip0_518_106750)">
<path d="M13.7474 1.14832L14.7151 0.154012C14.9922 -0.130613 15.474 -0.00151965 15.5716 0.383512L15.9125 1.7285C16.2498 3.05895 17.6182 3.84903 18.9391 3.4759L20.2744 3.09865C20.6566 2.99065 21.0093 3.34339 20.9013 3.72561L20.5241 5.06089C20.1509 6.38173 20.941 7.7502 22.2715 8.08746L23.6164 8.42839C24.0015 8.52598 24.1306 9.00781 23.8459 9.28484L22.8516 10.2526C21.8681 11.2099 21.8681 12.7901 22.8516 13.7473L23.8459 14.7151C24.1306 14.9921 24.0015 15.4739 23.6164 15.5715L22.2715 15.9124C20.941 16.2497 20.1509 17.6182 20.5241 18.939L20.9013 20.2743C21.0093 20.6565 20.6566 21.0093 20.2744 20.9013L18.9391 20.524C17.6182 20.1508 16.2498 20.9409 15.9125 22.2714L15.5716 23.6164C15.474 24.0014 14.9922 24.1305 14.7151 23.8459L13.7474 22.8516C12.7901 21.868 11.2099 21.868 10.2526 22.8516L9.28489 23.8459C9.00786 24.1305 8.52603 24.0014 8.42843 23.6164L8.08751 22.2714C7.75025 20.941 6.38178 20.1509 5.06093 20.524L3.72565 20.9013C3.34343 21.0093 2.9907 20.6565 3.0987 20.2743L3.47595 18.939C3.84912 17.6182 3.05904 16.2497 1.72854 15.9124L0.383558 15.5715C-0.0014728 15.4739 -0.130567 14.9921 0.154058 14.7151L1.14837 13.7473C2.13195 12.79 2.13195 11.2099 1.14837 10.2526L0.154012 9.28484C-0.130613 9.00781 -0.00151965 8.52598 0.383512 8.42839L1.7285 8.08746C3.05895 7.7502 3.84903 6.38173 3.4759 5.06089L3.09865 3.72561C2.99065 3.34339 3.34339 2.99065 3.72561 3.09865L5.06089 3.4759C6.38173 3.84907 7.7502 3.059 8.08746 1.7285L8.42839 0.383512C8.52598 -0.00151965 9.00781 -0.130613 9.28484 0.154012L10.2526 1.14832C11.2099 2.1319 12.7901 2.1319 13.7474 1.14832Z" fill="#FFE177"/>
<path d="M22.8519 10.2528L23.8462 9.28503C24.1308 9.008 24.0017 8.52618 23.6167 8.42858L22.2717 8.08766C20.9413 7.75039 20.1512 6.38193 20.5243 5.06108L20.9016 3.7258C21.0096 3.34358 20.6569 2.99085 20.2746 3.09885L18.9394 3.4761C18.7723 3.5233 18.6044 3.55175 18.4379 3.563C19.1939 5.0608 19.6202 6.75341 19.6202 8.54577C19.6203 14.6468 14.6468 19.6202 8.54577 19.6202C6.75341 19.6202 5.0608 19.1939 3.563 18.4379C3.55175 18.6043 3.5233 18.7722 3.4761 18.9393L3.09885 20.2746C2.99085 20.6568 3.34358 21.0096 3.7258 20.9016L5.06108 20.5243C6.38193 20.1511 7.75039 20.9412 8.08766 22.2717L8.42858 23.6167C8.52618 24.0017 9.008 24.1308 9.28504 23.8462L10.2528 22.8519C11.2101 21.8683 12.7903 21.8683 13.7475 22.8519L14.7153 23.8462C14.9923 24.1308 15.4741 24.0017 15.5717 23.6167L15.9126 22.2717C16.2499 20.9413 17.6184 20.1511 18.9392 20.5243L20.2745 20.9016C20.6567 21.0096 21.0095 20.6568 20.9015 20.2746L20.5242 18.9393C20.151 17.6185 20.9411 16.25 22.2716 15.9127L23.6166 15.5718C24.0016 15.4742 24.1307 14.9924 23.8461 14.7154L22.8517 13.7476C21.8683 12.7903 21.8683 11.2101 22.8519 10.2528Z" fill="#FFD15B"/>
<path d="M22.8519 10.2528L23.8462 9.28503C24.1308 9.008 24.0017 8.52618 23.6167 8.42858L22.2717 8.08766C20.9413 7.75039 20.1512 6.38193 20.5243 5.06108L20.9016 3.7258C21.0096 3.34358 20.6569 2.99085 20.2746 3.09885L18.9394 3.4761C18.7723 3.5233 18.6044 3.55175 18.4379 3.563C19.1939 5.0608 19.6202 6.75341 19.6202 8.54577C19.6203 14.6468 14.6468 19.6202 8.54577 19.6202C6.75341 19.6202 5.0608 19.1939 3.563 18.4379C3.55175 18.6043 3.5233 18.7722 3.4761 18.9393L3.09885 20.2746C2.99085 20.6568 3.34358 21.0096 3.7258 20.9016L5.06108 20.5243C6.38193 20.1511 7.75039 20.9412 8.08766 22.2717L8.42858 23.6167C8.52618 24.0017 9.008 24.1308 9.28504 23.8462L10.2528 22.8519C11.2101 21.8683 12.7903 21.8683 13.7475 22.8519L14.7153 23.8462C14.9923 24.1308 15.4741 24.0017 15.5717 23.6167L15.9126 22.2717C16.2499 20.9413 17.6184 20.1511 18.9392 20.5243L20.2745 20.9016C20.6567 21.0096 21.0095 20.6568 20.9015 20.2746L20.5242 18.9393C20.151 17.6185 20.9411 16.25 22.2716 15.9127L23.6166 15.5718C24.0016 15.4742 24.1307 14.9924 23.8461 14.7154L22.8517 13.7476C21.8683 12.7903 21.8683 11.2101 22.8519 10.2528Z" fill="#FFD15B"/>
<path d="M12 20.1279C16.4889 20.1279 20.1279 16.4889 20.1279 12C20.1279 7.51107 16.4889 3.87207 12 3.87207C7.51107 3.87207 3.87207 7.51107 3.87207 12C3.87207 16.4889 7.51107 20.1279 12 20.1279Z" fill="#FFC344"/>
<path d="M16.8713 5.49268C17.889 6.85013 18.4919 8.53636 18.4919 10.3635C18.4919 14.8524 14.8529 18.4914 10.364 18.4914C8.53685 18.4914 6.85062 17.8885 5.49316 16.8708C6.97577 18.8483 9.33865 20.1279 12.0004 20.1279C16.4894 20.1279 20.1284 16.4889 20.1284 12C20.1284 9.33816 18.8488 6.97529 16.8713 5.49268Z" fill="#FEB237"/>
</g>
<defs>
<clipPath id="clip0_518_106750">
<rect width="24" height="24" fill="white"/>
</clipPath>
</defs>
</svg>
