<?xml version="1.0" standalone="no"?>
<!DOCTYPE svg PUBLIC "-//W3C//DTD SVG 20010904//EN"
 "http://www.w3.org/TR/2001/REC-SVG-20010904/DTD/svg10.dtd">
<svg version="1.0" xmlns="http://www.w3.org/2000/svg"
 width="880.000000pt" height="880.000000pt" viewBox="0 0 880.000000 880.000000"
 preserveAspectRatio="xMidYMid meet">
<metadata>
Created by potrace 1.14, written by Peter Selinger 2001-2017
</metadata>
<g transform="translate(0.000000,880.000000) scale(0.100000,-0.100000)"
fill="#000000" stroke="none">
<path d="M1800 8789 c-190 -52 -338 -205 -370 -384 -8 -42 -10 -1239 -8 -4045
l3 -3985 23 -54 c33 -77 87 -155 134 -193 22 -18 46 -37 52 -43 19 -16 77 -44
140 -65 58 -20 83 -20 1910 -19 1864 0 1869 1 2056 33 59 10 252 63 315 86 88
32 273 122 338 164 32 20 59 36 62 36 3 0 13 6 22 14 10 8 58 44 106 81 90 67
258 228 312 299 17 21 35 44 40 50 51 55 209 314 230 376 1 3 12 27 24 55 74
165 127 377 147 590 9 99 10 5120 1 5230 -4 44 -9 90 -11 101 -2 12 -7 37 -10
55 -5 33 -33 163 -40 184 -1 6 -11 37 -20 70 -26 87 -93 248 -132 317 -19 33
-34 62 -34 65 0 3 -26 44 -57 91 -74 113 -204 272 -284 347 -105 99 -295 245
-318 245 -5 0 -11 4 -13 8 -6 16 -244 140 -303 158 -5 2 -46 16 -90 33 -83 30
-258 75 -332 86 -23 3 -57 9 -75 13 -54 10 -3778 12 -3818 1z m3835 -2088 c-6
-24 -77 -225 -92 -261 -3 -8 -7 -17 -8 -20 -6 -25 -49 -147 -55 -155 -3 -5
-13 -30 -20 -55 -7 -25 -18 -51 -23 -57 -5 -7 -7 -13 -5 -13 3 0 -23 -75 -56
-167 l-62 -168 -57 -1 c-32 -1 -59 -3 -62 -5 -2 -3 -34 -2 -70 1 -37 3 -68 3
-70 -1 -3 -3 -25 -3 -50 1 -25 4 -45 3 -45 -1 0 -5 -10 -5 -22 0 -13 5 -31 5
-42 2 -10 -4 -40 -4 -66 -1 -25 3 -58 3 -72 -1 -14 -4 -31 -3 -38 1 -7 4 -27
4 -46 0 -19 -4 -36 -4 -39 0 -3 5 -18 5 -33 1 -15 -4 -32 -6 -38 -4 -9 3 -12
-109 -10 -439 1 -387 3 -443 16 -440 8 2 22 3 30 3 50 -2 98 -3 115 -2 11 1
67 2 125 2 58 -1 112 -1 120 -1 25 1 224 0 245 0 11 0 40 0 65 -1 l45 -1 -1
-434 c0 -238 -3 -437 -7 -440 -4 -4 -175 -7 -381 -6 l-374 0 0 -509 c1 -368 4
-509 12 -510 6 -1 178 -2 381 -3 l370 -1 32 -90 c17 -49 48 -135 68 -190 20
-55 37 -104 38 -110 4 -13 37 -104 48 -130 4 -11 33 -92 64 -180 31 -88 58
-167 62 -175 3 -8 8 -23 9 -32 4 -17 -56 -18 -1145 -18 -910 0 -1150 3 -1153
13 -4 10 -3 4621 1 4623 0 0 519 0 1152 0 l1150 0 -6 -25z m-3292 -812 c56
-17 109 -32 117 -34 8 -2 16 -4 18 -5 1 -2 5 -3 10 -4 4 -1 30 -10 58 -19 28
-10 59 -19 70 -22 10 -2 48 -13 84 -25 95 -31 233 -73 246 -76 6 -1 42 -12 81
-24 l70 -23 -1 -1225 -1 -1225 -165 -60 c-91 -32 -174 -62 -185 -67 -30 -12
-119 -44 -130 -47 -5 -1 -91 -31 -190 -67 -99 -36 -183 -66 -187 -66 -5 0 -8
680 -8 1510 0 831 2 1510 5 1510 3 0 52 -14 108 -31z"/>
</g>
</svg>
