<svg width="31" height="30" viewBox="0 0 31 30" fill="none" xmlns="http://www.w3.org/2000/svg">
<path d="M9.41699 10.625H15.667M9.41699 15H19.417M9.41699 22.5V25.4194C9.41699 26.0854 9.41699 26.4185 9.55353 26.5895C9.67227 26.7383 9.85233 26.8248 10.0427 26.8246C10.2615 26.8244 10.5216 26.6163 11.0417 26.2002L14.0235 23.8148C14.6326 23.3275 14.9372 23.0838 15.2764 22.9106C15.5772 22.7568 15.8975 22.6445 16.2285 22.5766C16.6016 22.5 16.9916 22.5 17.7717 22.5H20.917C23.0172 22.5 24.0673 22.5 24.8695 22.0913C25.5751 21.7317 26.1487 21.1581 26.5083 20.4525C26.917 19.6503 26.917 18.6002 26.917 16.5V9.75C26.917 7.6498 26.917 6.5997 26.5083 5.79754C26.1487 5.09193 25.5751 4.51825 24.8695 4.15873C24.0673 3.75 23.0172 3.75 20.917 3.75H10.417C8.3168 3.75 7.2667 3.75 6.46453 4.15873C5.75892 4.51825 5.18524 5.09193 4.82572 5.79754C4.41699 6.5997 4.41699 7.6498 4.41699 9.75V17.5C4.41699 18.6625 4.41699 19.2437 4.54477 19.7206C4.89152 21.0147 5.90233 22.0255 7.19642 22.3722C7.6733 22.5 8.25453 22.5 9.41699 22.5Z" stroke="#FFFEFE" stroke-width="2" stroke-linecap="round" stroke-linejoin="round"/>
</svg>
