<svg width="24" height="24" viewBox="0 0 24 24" fill="none" xmlns="http://www.w3.org/2000/svg">
<path d="M17.779 7.26935L13.9299 12.8526H16.821C17.3142 12.8526 17.5641 13.4462 17.2194 13.7989L7.42233 23.8269C6.98373 24.2758 6.25304 23.7693 6.51952 23.2011L9.98912 15.8028H7.69285C7.26976 15.8028 7.00112 15.3497 7.20413 14.9785L9.7643 10.2974H6.43182C6.01369 10.2974 5.74463 9.85385 5.93776 9.48302L10.7202 0.300207C10.8161 0.115988 11.0065 0.000488281 11.2142 0.000488281H17.5682C18.0118 0.000488281 18.2775 0.493801 18.0332 0.864207L14.3855 6.39621H17.3203C17.7692 6.39611 18.0338 6.89979 17.779 7.26935Z" fill="#FFCE29"/>
<g opacity="0.4">
<path d="M10.8811 3.02876L11.657 1.53819C11.7547 1.35064 11.6818 1.11945 11.4942 1.02186C11.3067 0.924217 11.0755 0.997108 10.9779 1.18465L10.202 2.67523C10.0693 2.93009 10.2542 3.23483 10.5415 3.23483C10.6843 3.23483 10.8152 3.15537 10.8811 3.02876Z" fill="white"/>
</g>
<g opacity="0.08">
<path d="M17.2185 13.7997L7.42239 23.8281C7.07519 24.1804 6.54667 23.9404 6.47266 23.5422L15.9905 13.7997C16.3352 13.4474 16.0875 12.8525 15.5922 12.8525H16.8202C17.313 12.8525 17.5631 13.4474 17.2185 13.7997Z" fill="black"/>
<path d="M17.7802 7.26914L13.9302 12.8527C13.4105 12.8527 13.1043 12.2695 13.3993 11.8417L16.5522 7.26914C16.8049 6.89892 16.542 6.396 16.0926 6.396H17.3206C17.77 6.396 18.033 6.89892 17.7802 7.26914Z" fill="black"/>
<path d="M18.0326 0.86341L14.3842 6.39588H14.354C13.8404 6.39588 13.5329 5.82475 13.8156 5.39594L16.8045 0.86341C17.0497 0.493191 16.7841 0.000488285 16.3399 0.000488285H17.5679C18.0121 0.00044141 18.2777 0.493191 18.0326 0.86341Z" fill="black"/>
</g>
</svg>
