<svg width="30" height="30" viewBox="0 0 30 30" fill="none" xmlns="http://www.w3.org/2000/svg">
<path d="M27.5 12V18.25C27.5 22 25 24.5 21.25 24.5H8.75C5 24.5 2.5 22 2.5 18.25V12C2.5 8.6 4.55 6.225 7.7375 5.825C8.0625 5.775 8.4 5.75 8.75 5.75H21.25C21.575 5.75 21.8875 5.76248 22.1875 5.81248C25.4125 6.18748 27.5 8.575 27.5 12Z" fill="white"/>
<path d="M27.5 12V18.25C27.5 22 25 24.5 21.25 24.5H8.75C5 24.5 2.5 22 2.5 18.25V12C2.5 8.6 4.55 6.225 7.7375 5.825C8.0625 5.775 8.4 5.75 8.75 5.75H21.25C21.575 5.75 21.8875 5.76248 22.1875 5.81248C25.4125 6.18748 27.5 8.575 27.5 12Z" fill="#616161"/>
<path d="M27.5 12.625H23.75C22.375 12.625 21.25 13.75 21.25 15.125C21.25 16.5 22.375 17.625 23.75 17.625H27.5" stroke="#1E1C1A" stroke-width="1.5" stroke-linecap="round" stroke-linejoin="round"/>
</svg>
